<svg id="Logo_Dawaa24-02" data-name="Logo Dawaa24-02" xmlns="http://www.w3.org/2000/svg" width="117.393" height="27.628" viewBox="0 0 117.393 27.628">
  <path id="Path_55" data-name="Path 55" d="M229.762,79.077a12.286,12.286,0,0,1,2.946.329,6.594,6.594,0,0,1,2.275,1,4.535,4.535,0,0,1,1.451,1.706,5.478,5.478,0,0,1,.508,2.438v6.7a1.861,1.861,0,0,1-.439,1.271,4.337,4.337,0,0,1-1.033.853,10.663,10.663,0,0,1-5.475,1.17,12.526,12.526,0,0,1-2.857-.293,6.758,6.758,0,0,1-2.184-.9,4.106,4.106,0,0,1-1.406-1.526,4.511,4.511,0,0,1-.494-2.153,4.049,4.049,0,0,1,1.227-3.171,6.636,6.636,0,0,1,3.8-1.376l3.92-.42v-.219a1.284,1.284,0,0,0-.764-1.242,5.135,5.135,0,0,0-2.194-.373,10.182,10.182,0,0,0-2.215.238,11.95,11.95,0,0,0-1.944.6,2.048,2.048,0,0,1-.658-.822,2.6,2.6,0,0,1-.269-1.153,1.921,1.921,0,0,1,.373-1.24,2.89,2.89,0,0,1,1.153-.793,9.032,9.032,0,0,1,2.048-.48A17.817,17.817,0,0,1,229.762,79.077ZM230,90.834a6.652,6.652,0,0,0,1.122-.1,2.727,2.727,0,0,0,.913-.285V88.052l-2.155.18a3.3,3.3,0,0,0-1.375.358.968.968,0,0,0-.54.9,1.194,1.194,0,0,0,.464.973,2.552,2.552,0,0,0,1.571.373Z" transform="translate(-190.426 -67.527)" fill="#fff"/>
  <path id="Path_56" data-name="Path 56" d="M341.057,94.482a3.185,3.185,0,0,1-1.137.585,5.765,5.765,0,0,1-1.706.222,5.92,5.92,0,0,1-2.124-.345,2.037,2.037,0,0,1-1.2-.971,16.416,16.416,0,0,1-.764-2.275q-.439-1.556-.853-3.41t-.793-3.771q-.375-1.913-.585-3.38a3.884,3.884,0,0,1,2.664-1.047,2.971,2.971,0,0,1,1.72.464,2.173,2.173,0,0,1,.822,1.609q.293,2.273.509,3.755t.344,2.422q.135.943.209,1.436t.135.793h.12c.06-.319.164-.783.314-1.391s.323-1.3.524-2.08.408-1.619.628-2.528.439-1.809.658-2.708a6.335,6.335,0,0,1,1.182-.509,5.046,5.046,0,0,1,1.45-.184,4.439,4.439,0,0,1,1.795.329,1.609,1.609,0,0,1,.958,1.024q.358,1.316.688,2.558t.6,2.3l.478,1.884q.211.824.3,1.3h.146q.329-2.3.644-4.786t.585-5.057a4.033,4.033,0,0,1,1.137-.478,4.931,4.931,0,0,1,1.2-.146,3.12,3.12,0,0,1,1.735.449,1.717,1.717,0,0,1,.689,1.556,10.263,10.263,0,0,1-.146,1.436q-.146.957-.389,2.153t-.554,2.513q-.314,1.316-.628,2.544t-.6,2.2q-.285.987-.494,1.526a3.223,3.223,0,0,1-1.286.585,7.408,7.408,0,0,1-1.85.222q-2.514,0-2.962-1.256-.18-.54-.449-1.362t-.565-1.808q-.293-.987-.568-2.048t-.449-2.048q-.211,1.049-.509,2.169t-.613,2.184q-.313,1.065-.585,1.945T341.057,94.482Z" transform="translate(-283.352 -68.392)" fill="#fff"/>
  <path id="Path_57" data-name="Path 57" d="M501.423,79.077a12.287,12.287,0,0,1,2.947.329,6.583,6.583,0,0,1,2.273,1,4.535,4.535,0,0,1,1.451,1.706,5.456,5.456,0,0,1,.509,2.438v6.7a1.854,1.854,0,0,1-.439,1.271,4.361,4.361,0,0,1-1.024.853,10.667,10.667,0,0,1-5.475,1.17,12.549,12.549,0,0,1-2.858-.293,6.772,6.772,0,0,1-2.184-.9,4.106,4.106,0,0,1-1.406-1.526,4.51,4.51,0,0,1-.494-2.153,4.049,4.049,0,0,1,1.227-3.171,6.636,6.636,0,0,1,3.8-1.376l3.919-.42v-.219a1.284,1.284,0,0,0-.764-1.242,5.128,5.128,0,0,0-2.194-.373,10.169,10.169,0,0,0-2.213.238,11.972,11.972,0,0,0-1.945.6,2.072,2.072,0,0,1-.658-.822,2.6,2.6,0,0,1-.269-1.153A1.913,1.913,0,0,1,496,80.5a2.873,2.873,0,0,1,1.151-.793,9.053,9.053,0,0,1,2.048-.48A17.853,17.853,0,0,1,501.423,79.077Zm.24,11.757a6.679,6.679,0,0,0,1.122-.1,2.728,2.728,0,0,0,.911-.285V88.052l-2.153.18a3.31,3.31,0,0,0-1.377.358.968.968,0,0,0-.538.9,1.189,1.189,0,0,0,.464.973A2.544,2.544,0,0,0,501.663,90.834Z" transform="translate(-422.358 -67.527)" fill="#fff"/>
  <path id="Path_58" data-name="Path 58" d="M612.692,79.077a12.286,12.286,0,0,1,2.947.329,6.583,6.583,0,0,1,2.273,1,4.535,4.535,0,0,1,1.451,1.706,5.457,5.457,0,0,1,.509,2.438v6.7a1.855,1.855,0,0,1-.439,1.271,4.332,4.332,0,0,1-1.024.853,10.668,10.668,0,0,1-5.475,1.17,12.528,12.528,0,0,1-2.857-.293,6.746,6.746,0,0,1-2.182-.908,4.1,4.1,0,0,1-1.407-1.526,4.509,4.509,0,0,1-.494-2.153,4.051,4.051,0,0,1,1.226-3.171,6.63,6.63,0,0,1,3.8-1.376l3.919-.42v-.209a1.284,1.284,0,0,0-.762-1.242,5.135,5.135,0,0,0-2.194-.373,10.177,10.177,0,0,0-2.213.238,12.013,12.013,0,0,0-1.945.6,2.07,2.07,0,0,1-.658-.822,2.617,2.617,0,0,1-.269-1.153,1.913,1.913,0,0,1,.374-1.24,2.885,2.885,0,0,1,1.151-.793,9.068,9.068,0,0,1,2.048-.48A17.815,17.815,0,0,1,612.692,79.077Zm.24,11.757a6.664,6.664,0,0,0,1.122-.1,2.75,2.75,0,0,0,.913-.285V88.052l-2.155.18a3.317,3.317,0,0,0-1.376.358.968.968,0,0,0-.538.9,1.193,1.193,0,0,0,.464.973A2.54,2.54,0,0,0,612.931,90.834Z" transform="translate(-517.352 -67.527)" fill="#fff"/>
  <path id="Path_63" data-name="Path 63" d="M75.481,55.36a9.08,9.08,0,0,0-9.012-8.651H53.478l.031,1.865,1.6-.016.02,1.349L53.6,49.865v1.922l1.485.022.02,2.487-1.463-.022-.02,1.589-1.485-.02v1.964l3.155.041v1.546h1.3l.042,3.679-1.861.02.022,1.735,1.943-.063.063,1.128-3.636.063v1.568H66.443a8.75,8.75,0,0,0,3.23-.613C74.466,65,75.706,62,75.481,55.36ZM56.634,57.471H55.421V56.154h1.213Zm.246-8.9h1.609v1.347H56.879ZM60.1,61.154H58.342V59.713H60.1Zm3.47,5.392H61.958V64.951h1.609Zm7.062-6.113a4.173,4.173,0,0,1-1.1,2.555A3.746,3.746,0,0,1,67,63.932H61.355l-.083-13.415h5.1a4.287,4.287,0,0,1,4.17,3.143l.146.53c.057.215-.044-.216,0,0a21.135,21.135,0,0,1-.051,6.237Z" transform="translate(-44.513 -39.894)" fill="#fff"/>
  <rect id="Rectangle_32" data-name="Rectangle 32" width="1.735" height="1.735" transform="translate(4.675 15.319)" fill="#fff" style="mix-blend-mode: normal;isolation: isolate"/>
  <rect id="Rectangle_33" data-name="Rectangle 33" width="1.735" height="1.859" transform="translate(6.227 11.663)" fill="#fff" style="mix-blend-mode: normal;isolation: isolate"/>
  <rect id="Rectangle_34" data-name="Rectangle 34" width="1.638" height="1.638" transform="translate(6.227 8.68)" fill="#fff" style="mix-blend-mode: normal;isolation: isolate"/>
  <rect id="Rectangle_35" data-name="Rectangle 35" width="1.713" height="1.713" transform="translate(4.514 10.171)" fill="#fff" style="mix-blend-mode: normal;isolation: isolate"/>
  <rect id="Rectangle_36" data-name="Rectangle 36" width="1.786" height="1.786" transform="translate(1.442 12.018)" fill="#fff" style="mix-blend-mode: normal;isolation: isolate"/>
  <rect id="Rectangle_37" data-name="Rectangle 37" width="1.739" height="1.739" transform="translate(3.082 13.627)" fill="#fff" style="mix-blend-mode: normal;isolation: isolate"/>
  <rect id="Rectangle_38" data-name="Rectangle 38" width="1.755" height="1.755" transform="translate(1.442 15.319)" fill="#fff" style="mix-blend-mode: normal;isolation: isolate"/>
  <rect id="Rectangle_39" data-name="Rectangle 39" width="1.802" height="1.918" transform="translate(0 16.918)" fill="#fff" style="mix-blend-mode: normal;isolation: isolate"/>
  <rect id="Rectangle_40" data-name="Rectangle 40" width="1.725" height="1.725" transform="translate(3.594 16.908)" fill="#fff" style="mix-blend-mode: normal;isolation: isolate"/>
  <rect id="Rectangle_41" data-name="Rectangle 41" width="3.198" height="1.536" transform="translate(3.594 18.631)" fill="#fff" style="mix-blend-mode: normal;isolation: isolate"/>
  <rect id="Rectangle_42" data-name="Rectangle 42" width="1.776" height="1.776" transform="translate(1.881 20.167)" fill="#fff" style="mix-blend-mode: normal;isolation: isolate"/>
  <rect id="Rectangle_43" data-name="Rectangle 43" width="1.798" height="1.798" transform="translate(3.657 21.818)" fill="#fff" style="mix-blend-mode: normal;isolation: isolate"/>
  <rect id="Rectangle_44" data-name="Rectangle 44" width="3.541" height="1.713" transform="translate(5.318 24.242)" fill="#fff" style="mix-blend-mode: normal;isolation: isolate"/>
  <rect id="Rectangle_45" data-name="Rectangle 45" width="1.771" height="1.625" transform="translate(7.088 22.716)" fill="#fff" style="mix-blend-mode: normal;isolation: isolate"/>
  <rect id="Rectangle_46" data-name="Rectangle 46" width="1.692" height="1.858" transform="translate(8.714 21.672)" fill="#fff" style="mix-blend-mode: normal;isolation: isolate"/>
  <rect id="Rectangle_47" data-name="Rectangle 47" width="1.771" height="1.771" transform="translate(7.235 20.063)" fill="#fff" style="mix-blend-mode: normal;isolation: isolate"/>
  <path id="Path_64" data-name="Path 64" d="M720.84,29.364A4.164,4.164,0,1,0,725,25.2,4.164,4.164,0,0,0,720.84,29.364Zm5.57-1.988a.458.458,0,0,1,.2-.05.489.489,0,0,1,.178.039.533.533,0,0,1,.178.114.234.234,0,0,1,.079.176.311.311,0,0,1-.028.105l-.987,1.979h.48V29.35a.208.208,0,0,1,.136-.2.755.755,0,0,1,.6,0,.208.208,0,0,1,.136.2v.391h.24a.215.215,0,0,1,.2.126.567.567,0,0,1,.061.278.487.487,0,0,1-.083.276.231.231,0,0,1-.184.126h-.24v.585a.214.214,0,0,1-.136.2.7.7,0,0,1-.6,0,.213.213,0,0,1-.136-.2v-.585h-1.3a.279.279,0,0,1-.293-.3.33.33,0,0,1,.012-.078.407.407,0,0,1,.032-.089l1.289-2.525a.377.377,0,0,1,.167-.177Zm-1.5,1.646a1.733,1.733,0,0,1-.32.439,3.23,3.23,0,0,1-.415.348l-.415.293a2.26,2.26,0,0,0-.32.255.356.356,0,0,0-.126.25v.05h1.463a.225.225,0,0,1,.184.113.446.446,0,0,1,.078.262.483.483,0,0,1-.079.255.225.225,0,0,1-.184.117H722.79a.512.512,0,0,1-.247-.073.218.218,0,0,1-.132-.195v-.541a.74.74,0,0,1,.126-.41,1.666,1.666,0,0,1,.326-.363c.133-.113.275-.224.426-.331s.293-.215.424-.32a2.127,2.127,0,0,0,.326-.322.538.538,0,0,0,.127-.339.438.438,0,0,0-.041-.181.366.366,0,0,0-.135-.146.439.439,0,0,0-.247-.061.474.474,0,0,0-.293.1.38.38,0,0,0-.126.323.282.282,0,0,1-.123.221.527.527,0,0,1-.333.1.417.417,0,0,1-.279-.094.456.456,0,0,1-.111-.357.934.934,0,0,1,.181-.585,1.145,1.145,0,0,1,.471-.364,1.515,1.515,0,0,1,1.229.009,1.2,1.2,0,0,1,.487.389,1.024,1.024,0,0,1,.19.63A1.156,1.156,0,0,1,724.911,29.022Z" transform="translate(-615.401 -21.531)" fill="#fff"/>
  <path id="Path_65" data-name="Path 65" d="M711.685,7.281a7.777,7.777,0,1,0-15.359,2.239.439.439,0,0,0,.522.332h0a.439.439,0,0,0,.333-.527,6.91,6.91,0,1,1,2.538,4.017l1.294.02a.439.439,0,1,0,.013-.878l-2.409-.037a.439.439,0,0,0-.439.487l.281,2.476a.439.439,0,0,0,.455.388h.031a.439.439,0,0,0,.386-.486l-.146-1.286A7.773,7.773,0,0,0,711.7,7.283Z" transform="translate(-594.326 -0.118)" fill="#fff"/>
  <path id="Path_66" data-name="Path 66" d="M707.195,18.11h.009a.43.43,0,0,0,.36-.512,5.378,5.378,0,0,1,5.253-6.515h.075a.439.439,0,0,0,.439-.439v-.006a.439.439,0,0,0-.426-.439h-.089a6.249,6.249,0,0,0-6.108,7.577A.439.439,0,0,0,707.195,18.11Z" transform="translate(-603.212 -8.725)" fill="#fff"/>
</svg>
