<svg id="Main_Logo" data-name="Main Logo" xmlns="http://www.w3.org/2000/svg" xmlns:xlink="http://www.w3.org/1999/xlink" width="193.601" height="67.43" viewBox="0 0 193.601 67.43">
  <defs>
    <linearGradient id="linear-gradient" y1="0.499" x2="1" y2="0.499" gradientUnits="objectBoundingBox">
      <stop offset="0" stop-color="#5ec4bf"/>
      <stop offset="1" stop-color="#16a3ce"/>
    </linearGradient>
    <linearGradient id="linear-gradient-2" x1="-0.002" y1="0.501" x2="1" y2="0.501" xlink:href="#linear-gradient"/>
    <linearGradient id="linear-gradient-3" x1="0.001" y1="0.499" x2="1" y2="0.499" xlink:href="#linear-gradient"/>
    <linearGradient id="linear-gradient-4" x1="0" y1="0.499" x2="1" y2="0.499" xlink:href="#linear-gradient"/>
    <linearGradient id="linear-gradient-5" x1="9.078" y1="15.744" x2="14.108" y2="15.744" gradientUnits="objectBoundingBox">
      <stop offset="0" stop-color="#1ba8cd"/>
      <stop offset="1" stop-color="#1db0da"/>
    </linearGradient>
    <linearGradient id="linear-gradient-6" x1="4.961" y1="16.024" x2="8.109" y2="16.024" xlink:href="#linear-gradient-5"/>
    <linearGradient id="linear-gradient-7" x1="6.218" y1="15.775" x2="11.249" y2="15.775" xlink:href="#linear-gradient-5"/>
    <linearGradient id="linear-gradient-8" x1="5.047" y1="15.775" x2="10.078" y2="15.775" xlink:href="#linear-gradient-5"/>
    <linearGradient id="linear-gradient-9" x1="0.002" y1="0.5" x2="1" y2="0.5" xlink:href="#linear-gradient"/>
    <linearGradient id="linear-gradient-10" y1="0.5" x2="0.999" y2="0.5" gradientUnits="objectBoundingBox">
      <stop offset="0" stop-color="#1ba8cd"/>
      <stop offset="1" stop-color="#16a3ce"/>
    </linearGradient>
    <linearGradient id="linear-gradient-11" x1="-0.002" y1="0.498" x2="0.998" y2="0.498" gradientUnits="objectBoundingBox">
      <stop offset="0" stop-color="#1db0da"/>
      <stop offset="1" stop-color="#16a3ce"/>
    </linearGradient>
    <linearGradient id="linear-gradient-12" x1="0.001" y1="0.499" x2="1.001" y2="0.499" gradientUnits="objectBoundingBox">
      <stop offset="0.03" stop-color="#1db0da"/>
      <stop offset="1" stop-color="#16a3ce"/>
    </linearGradient>
  </defs>
  <g id="Layer_1" data-name="Layer 1">
    <path id="Path_2955" data-name="Path 2955" d="M19.371,54.732a4.7,4.7,0,0,1-2.61-.712A3.834,3.834,0,0,1,15.25,52.11l1.773-1.024a2.36,2.36,0,0,0,2.41,1.686,2.185,2.185,0,0,0,1.249-.3,1,1,0,0,0-.075-1.661,7.318,7.318,0,0,0-1.773-.674,8.491,8.491,0,0,1-2.173-.974A2.5,2.5,0,0,1,15.675,47a2.785,2.785,0,0,1,1-2.26,3.634,3.634,0,0,1,2.5-.862,4.1,4.1,0,0,1,2.235.624,4.033,4.033,0,0,1,1.511,1.736l-1.736,1a2.1,2.1,0,0,0-2.01-1.349,1.561,1.561,0,0,0-1,.3.887.887,0,0,0-.375.749.962.962,0,0,0,.4.812,6.156,6.156,0,0,0,1.586.662l.724.237.674.25a3.247,3.247,0,0,1,.662.325,2.635,2.635,0,0,1,.987.924,2.747,2.747,0,0,1,.35,1.374,2.822,2.822,0,0,1-1.061,2.31A4.3,4.3,0,0,1,19.371,54.732Z" transform="translate(3.793 10.812)" fill="#08293b"/>
    <path id="Path_2956" data-name="Path 2956" d="M28.564,47.33v-.887h1.923v7.492H28.564v-.887a2.947,2.947,0,0,1-2.5,1.1,3.4,3.4,0,0,1-2.572-1.136A4.021,4.021,0,0,1,22.42,50.19a3.959,3.959,0,0,1,1.074-2.8,3.372,3.372,0,0,1,2.572-1.161A2.985,2.985,0,0,1,28.564,47.33Zm-3.571,4.4a2.21,2.21,0,0,0,2.972,0,2.085,2.085,0,0,0,.6-1.536,2.023,2.023,0,0,0-.6-1.511,2.148,2.148,0,0,0-2.972,0,2.06,2.06,0,0,0-.6,1.511,2.123,2.123,0,0,0,.6,1.536Z" transform="translate(5.577 11.396)" fill="#08293b"/>
    <path id="Path_2957" data-name="Path 2957" d="M33.554,51.645,35.389,46.4h2.123l-2.847,7.492h-2.2L29.62,46.4h2.123Z" transform="translate(7.368 11.44)" fill="#08293b"/>
    <path id="Path_2958" data-name="Path 2958" d="M43.809,50.948H38.152a1.911,1.911,0,0,0,2.11,1.411,1.985,1.985,0,0,0,1.686-.749l1.561.9a3.746,3.746,0,0,1-3.272,1.6,4.046,4.046,0,0,1-2.985-1.124,4.121,4.121,0,0,1,0-5.644A3.746,3.746,0,0,1,40.1,46.191a3.509,3.509,0,0,1,2.71,1.149,3.9,3.9,0,0,1,1.086,2.81,5.42,5.42,0,0,1-.087.8Zm-5.682-1.5h3.821a1.911,1.911,0,0,0-.674-1.124,1.836,1.836,0,0,0-1.249-.387,2.023,2.023,0,0,0-1.249.387,1.948,1.948,0,0,0-.649,1.174Z" transform="translate(8.988 11.387)" fill="#08293b"/>
    <path id="Path_2959" data-name="Path 2959" d="M45.86,44h7.667v1.986H50.755v8.5H48.682v-8.5H45.86Z" transform="translate(11.407 10.843)" fill="#08293b"/>
    <path id="Path_2960" data-name="Path 2960" d="M53.894,46.168a1.249,1.249,0,0,1-1.174-1.249,1.149,1.149,0,0,1,.35-.837,1.136,1.136,0,0,1,.824-.362,1.249,1.249,0,1,1,0,2.5Zm.974,8.392H52.945V47.067h1.923Z" transform="translate(13.114 10.773)" fill="#08293b"/>
    <path id="Path_2961" data-name="Path 2961" d="M64.152,46.241a2.7,2.7,0,0,1,2.06.849,3.159,3.159,0,0,1,.762,2.248v4.608H65.051V49.463a1.511,1.511,0,0,0-.275-1.011,1.149,1.149,0,0,0-.924-.375,1.249,1.249,0,0,0-1.024.437,1.873,1.873,0,0,0-.375,1.249v4.183h-2V49.463a1.511,1.511,0,0,0-.325-1.049,1.174,1.174,0,0,0-.924-.375,1.249,1.249,0,0,0-1.036.45,1.861,1.861,0,0,0-.375,1.249v4.208H55.86V46.453H57.8V47.2a2.323,2.323,0,0,1,2.085-1.011,2.21,2.21,0,0,1,2.035,1.086,2.5,2.5,0,0,1,2.235-1.036Z" transform="translate(13.895 11.386)" fill="#08293b"/>
    <path id="Path_2962" data-name="Path 2962" d="M73.449,50.948H67.792a1.911,1.911,0,0,0,2.11,1.411,1.986,1.986,0,0,0,1.686-.749l1.561.9a3.746,3.746,0,0,1-3.272,1.6,4.046,4.046,0,0,1-2.985-1.124,4.121,4.121,0,0,1,0-5.644,3.746,3.746,0,0,1,2.847-1.149,3.509,3.509,0,0,1,2.71,1.149,3.9,3.9,0,0,1,1.1,2.86,5.422,5.422,0,0,1-.1.749Zm-5.682-1.5h3.821a1.911,1.911,0,0,0-.674-1.124,1.836,1.836,0,0,0-1.249-.387,2.023,2.023,0,0,0-1.249.387,1.948,1.948,0,0,0-.649,1.174Z" transform="translate(16.361 11.387)" fill="#08293b"/>
    <path id="Path_2963" data-name="Path 2963" d="M73.059,50.75h2.1l-1.124,4.158H72.46Z" transform="translate(18.024 12.522)" fill="#08293b"/>
    <path id="Path_2964" data-name="Path 2964" d="M82.671,54.732a4.7,4.7,0,0,1-2.61-.712A3.834,3.834,0,0,1,78.55,52.11l1.811-1a2.36,2.36,0,0,0,2.373,1.661,2.185,2.185,0,0,0,1.249-.3,1,1,0,0,0-.075-1.661,7.318,7.318,0,0,0-1.773-.674,8.491,8.491,0,0,1-2.173-.974A2.5,2.5,0,0,1,78.975,47a2.785,2.785,0,0,1,1-2.26,3.634,3.634,0,0,1,2.5-.862,4.1,4.1,0,0,1,2.235.624,4.033,4.033,0,0,1,1.511,1.736l-1.736,1a2.1,2.1,0,0,0-2.01-1.349,1.536,1.536,0,0,0-1,.3.887.887,0,0,0-.375.749.962.962,0,0,0,.4.812,6.156,6.156,0,0,0,1.586.662l.724.237.674.25a3.247,3.247,0,0,1,.662.325,2.635,2.635,0,0,1,.986.924,2.747,2.747,0,0,1,.35,1.374,2.822,2.822,0,0,1-1.061,2.31A4.3,4.3,0,0,1,82.671,54.732Z" transform="translate(19.539 10.812)" fill="#08293b"/>
    <path id="Path_2965" data-name="Path 2965" d="M91.864,47.33v-.887h1.923v7.492H91.864v-.887a2.947,2.947,0,0,1-2.5,1.1,3.4,3.4,0,0,1-2.572-1.136A4.021,4.021,0,0,1,85.72,50.19a3.958,3.958,0,0,1,1.074-2.8,3.372,3.372,0,0,1,2.572-1.161,2.985,2.985,0,0,1,2.5,1.1Zm-3.571,4.4a2.21,2.21,0,0,0,2.972,0,2.085,2.085,0,0,0,.6-1.536,2.048,2.048,0,0,0-2.048-2.11,1.985,1.985,0,0,0-1.486.6,2.06,2.06,0,0,0-.587,1.511A2.123,2.123,0,0,0,88.293,51.726Z" transform="translate(21.322 11.396)" fill="#08293b"/>
    <path id="Path_2966" data-name="Path 2966" d="M97.738,43.836V45.7c-1.061,0-1.6.362-1.6,1.249v.075h1.6v1.861h-1.6v5.657H94.216V48.906H93.13V47.046h1.086v-.075a3.122,3.122,0,0,1,.887-2.423,3.521,3.521,0,0,1,2.635-.712Z" transform="translate(23.166 10.794)" fill="#08293b"/>
    <path id="Path_2967" data-name="Path 2967" d="M104.659,50.948H99a1.923,1.923,0,0,0,2.123,1.411,1.961,1.961,0,0,0,1.673-.749l1.561.9a3.746,3.746,0,0,1-3.272,1.6A4.046,4.046,0,0,1,98.1,52.984a4.121,4.121,0,0,1,0-5.644,3.746,3.746,0,0,1,2.847-1.149,3.509,3.509,0,0,1,2.71,1.149,3.9,3.9,0,0,1,1.086,2.81A5.419,5.419,0,0,1,104.659,50.948Zm-5.682-1.5H102.8a1.961,1.961,0,0,0-.662-1.124,1.886,1.886,0,0,0-1.249-.387,2.048,2.048,0,0,0-1.249.387,1.948,1.948,0,0,0-.662,1.174Z" transform="translate(24.124 11.387)" fill="#08293b"/>
    <path id="Path_2968" data-name="Path 2968" d="M109.413,44v8.516h4v1.973H107.34V44Z" transform="translate(26.7 10.843)" fill="#08293b"/>
    <path id="Path_2969" data-name="Path 2969" d="M114.066,46.155a1.1,1.1,0,0,1-.824-.35,1.149,1.149,0,0,1-.362-.837,1.161,1.161,0,0,1,.362-.837,1.111,1.111,0,0,1,.824-.362,1.249,1.249,0,1,1,0,2.5Zm.974,8.392H113.1V47.054h1.936Z" transform="translate(28.078 10.786)" fill="#08293b"/>
    <path id="Path_2970" data-name="Path 2970" d="M120.173,43.836V45.7c-1.061,0-1.6.362-1.6,1.249v.075h1.6v1.861H118.6v5.657h-1.923V48.906H115.59V47.045h1.086V46.97a3.122,3.122,0,0,1,.887-2.423A3.521,3.521,0,0,1,120.173,43.836Z" transform="translate(28.752 10.795)" fill="#08293b"/>
    <path id="Path_2971" data-name="Path 2971" d="M127.109,50.948H121.4a1.923,1.923,0,0,0,2.123,1.411,1.961,1.961,0,0,0,1.673-.749l1.561.9a3.746,3.746,0,0,1-3.272,1.6,4.046,4.046,0,0,1-2.985-1.124,4.121,4.121,0,0,1,0-5.644,3.746,3.746,0,0,1,2.847-1.149,3.509,3.509,0,0,1,2.71,1.149,3.9,3.9,0,0,1,1.086,2.81A5.419,5.419,0,0,1,127.109,50.948ZM121.4,49.5h3.821a1.961,1.961,0,0,0-.662-1.124,1.886,1.886,0,0,0-1.249-.387,2.048,2.048,0,0,0-1.249.387A1.948,1.948,0,0,0,121.4,49.5Z" transform="translate(29.696 11.387)" fill="#08293b"/>
    <path id="Path_2972" data-name="Path 2972" d="M129.128,53.416a1.249,1.249,0,1,1-.375-.9A1.249,1.249,0,0,1,129.128,53.416Zm-.512-2.5h-1.523l-.412-3.971V44H129v3Z" transform="translate(31.498 10.843)" fill="#08293b"/>
    <path id="Path_2973" data-name="Path 2973" d="M53.994,15.2a20.229,20.229,0,0,1,4.858.537A10.727,10.727,0,0,1,62.6,17.4a7.493,7.493,0,0,1,2.4,2.81,9.128,9.128,0,0,1,.837,4.021V35.28a3.047,3.047,0,0,1-.724,2.148,6.918,6.918,0,0,1-1.7,1.4,17.582,17.582,0,0,1-9.028,1.923,20.891,20.891,0,0,1-4.708-.487,11.239,11.239,0,0,1-3.6-1.586,6.668,6.668,0,0,1-2.323-2.5,7.555,7.555,0,0,1-.812-3.559,6.668,6.668,0,0,1,2.023-5.182,10.877,10.877,0,0,1,6.244-2.273l6.469-.687v-.35a2.123,2.123,0,0,0-1.249-2.048,8.442,8.442,0,0,0-3.621-.612,16.733,16.733,0,0,0-3.646.387,19.867,19.867,0,0,0-3.209.987,3.546,3.546,0,0,1-1.086-1.349,4.3,4.3,0,0,1-.45-1.911,3.122,3.122,0,0,1,.624-2.035,4.72,4.72,0,0,1,1.9-1.249,14.573,14.573,0,0,1,3.372-.787A27.472,27.472,0,0,1,53.994,15.2Zm.387,19.381a11.238,11.238,0,0,0,1.848-.162,4.671,4.671,0,0,0,1.511-.475V30l-3.559.3a5.445,5.445,0,0,0-2.26.587,1.586,1.586,0,0,0-.887,1.548,1.961,1.961,0,0,0,.724,1.536,4.183,4.183,0,0,0,2.622.612Z" transform="translate(10.679 3.679)" fill="url(#linear-gradient)"/>
    <path id="Path_2974" data-name="Path 2974" d="M78.985,39.139a5.482,5.482,0,0,1-1.873.962,9.365,9.365,0,0,1-2.81.362,9.89,9.89,0,0,1-3.459-.574,3.4,3.4,0,0,1-1.973-1.6,28.121,28.121,0,0,1-1.249-3.746c-.475-1.711-.949-3.584-1.411-5.619s-.9-4.108-1.249-6.244-.724-3.959-.962-5.569a6.244,6.244,0,0,1,1.861-1.249,6.019,6.019,0,0,1,2.5-.512,4.87,4.87,0,0,1,2.835.762,3.584,3.584,0,0,1,1.361,2.635c.325,2.5.6,4.57.837,6.244s.425,2.96.562,4,.262,1.823.35,2.373.162.974.225,1.249h.2c.1-.524.262-1.249.512-2.285s.537-2.148.862-3.434.674-2.672,1.036-4.171.724-2.984,1.086-4.458a9.99,9.99,0,0,1,1.948-.837,8.129,8.129,0,0,1,2.4-.3,7.33,7.33,0,0,1,2.96.537A2.622,2.622,0,0,1,87.1,19.347c.4,1.449.774,2.847,1.136,4.208s.687,2.635.987,3.809.562,2.2.787,3.1.4,1.623.5,2.148h.25c.35-2.5.712-5.157,1.049-7.892s.674-5.507.962-8.329a7.143,7.143,0,0,1,1.886-.8,8.117,8.117,0,0,1,1.973-.237,5.1,5.1,0,0,1,2.835.812,2.835,2.835,0,0,1,1.136,2.5,17.321,17.321,0,0,1-.25,2.373c-.162,1.049-.375,2.235-.649,3.546s-.562,2.7-.912,4.146-.687,2.847-1.036,4.2-.674,2.56-.987,3.646a25.88,25.88,0,0,1-.812,2.5,5.444,5.444,0,0,1-2.123.962,12.013,12.013,0,0,1-3.059.362c-2.76,0-4.383-.687-4.883-2.06-.187-.6-.437-1.349-.737-2.248s-.612-1.9-.937-2.985-.637-2.21-.937-3.384-.537-2.3-.737-3.372c-.237,1.149-.512,2.335-.837,3.571S81.033,32.4,80.7,33.645s-.674,2.235-.962,3.209S79.2,38.54,78.985,39.139Z" transform="translate(15.92 3.715)" fill="url(#linear-gradient-2)"/>
    <path id="Path_2975" data-name="Path 2975" d="M106.454,15.2a20.23,20.23,0,0,1,4.858.537,10.727,10.727,0,0,1,3.746,1.661,7.493,7.493,0,0,1,2.4,2.81,9.128,9.128,0,0,1,.837,4.021V35.28a3.1,3.1,0,0,1-.712,2.1,7.217,7.217,0,0,1-1.711,1.4,17.582,17.582,0,0,1-9.028,1.923,20.891,20.891,0,0,1-4.708-.487,11.239,11.239,0,0,1-3.6-1.536,6.768,6.768,0,0,1-2.323-2.5A7.555,7.555,0,0,1,95.4,32.62a6.668,6.668,0,0,1,2-5.182,10.877,10.877,0,0,1,6.244-2.273l6.456-.687v-.35a2.123,2.123,0,0,0-1.249-2.048,8.442,8.442,0,0,0-3.621-.612,16.733,16.733,0,0,0-3.646.387,19.868,19.868,0,0,0-3.209.987,3.546,3.546,0,0,1-1.086-1.349,4.3,4.3,0,0,1-.45-1.911,3.122,3.122,0,0,1,.624-2.035,4.72,4.72,0,0,1,1.9-1.249,14.573,14.573,0,0,1,3.372-.787,27.659,27.659,0,0,1,3.721-.312Zm.387,19.381a11.376,11.376,0,0,0,1.861-.162,4.7,4.7,0,0,0,1.5-.475V30l-3.546.3a5.457,5.457,0,0,0-2.273.587,1.586,1.586,0,0,0-.887,1.486,1.961,1.961,0,0,0,.762,1.6A4.183,4.183,0,0,0,106.841,34.581Z" transform="translate(23.728 3.679)" fill="url(#linear-gradient-3)"/>
    <path id="Path_2976" data-name="Path 2976" d="M127.944,15.2a20.229,20.229,0,0,1,4.858.537,10.727,10.727,0,0,1,3.746,1.661,7.493,7.493,0,0,1,2.4,2.81,9.128,9.128,0,0,1,.837,4.021V35.28a3.1,3.1,0,0,1-.712,2.1,7.218,7.218,0,0,1-1.711,1.4,17.582,17.582,0,0,1-9.028,1.923,20.891,20.891,0,0,1-4.708-.487,11.239,11.239,0,0,1-3.6-1.536,6.768,6.768,0,0,1-2.323-2.5,7.555,7.555,0,0,1-.812-3.559,6.668,6.668,0,0,1,2.023-5.182,10.877,10.877,0,0,1,6.244-2.273l6.456-.687v-.35a2.123,2.123,0,0,0-1.249-2.048,8.442,8.442,0,0,0-3.621-.612,16.733,16.733,0,0,0-3.646.387,19.867,19.867,0,0,0-3.209.987,3.547,3.547,0,0,1-1.086-1.349,4.3,4.3,0,0,1-.45-1.911,3.122,3.122,0,0,1,.624-2.035,4.72,4.72,0,0,1,1.9-1.249,14.573,14.573,0,0,1,3.372-.787,27.659,27.659,0,0,1,3.7-.312Zm.387,19.381a11.376,11.376,0,0,0,1.861-.162,4.7,4.7,0,0,0,1.5-.475V30l-3.546.3a5.457,5.457,0,0,0-2.273.587,1.586,1.586,0,0,0-.887,1.486,1.961,1.961,0,0,0,.762,1.6,4.183,4.183,0,0,0,2.585.612Z" transform="translate(29.073 3.679)" fill="url(#linear-gradient-4)"/>
    <path id="Path_2977" data-name="Path 2977" d="M53.994,15.2a20.229,20.229,0,0,1,4.858.537A10.727,10.727,0,0,1,62.6,17.4a7.493,7.493,0,0,1,2.4,2.81,9.128,9.128,0,0,1,.837,4.021V35.28a3.047,3.047,0,0,1-.724,2.148,6.918,6.918,0,0,1-1.7,1.4,17.582,17.582,0,0,1-9.028,1.923,20.891,20.891,0,0,1-4.708-.487,11.239,11.239,0,0,1-3.6-1.586,6.668,6.668,0,0,1-2.323-2.5,7.555,7.555,0,0,1-.812-3.559,6.668,6.668,0,0,1,2.023-5.182,10.877,10.877,0,0,1,6.244-2.273l6.469-.687v-.35a2.123,2.123,0,0,0-1.249-2.048,8.442,8.442,0,0,0-3.621-.612,16.733,16.733,0,0,0-3.646.387,19.867,19.867,0,0,0-3.209.987,3.546,3.546,0,0,1-1.086-1.349,4.3,4.3,0,0,1-.45-1.911,3.122,3.122,0,0,1,.624-2.035,4.72,4.72,0,0,1,1.9-1.249,14.573,14.573,0,0,1,3.372-.787A27.472,27.472,0,0,1,53.994,15.2Zm.387,19.381a11.238,11.238,0,0,0,1.848-.162,4.671,4.671,0,0,0,1.511-.475V30l-3.559.3a5.445,5.445,0,0,0-2.26.587,1.586,1.586,0,0,0-.887,1.548,1.961,1.961,0,0,0,.724,1.536,4.183,4.183,0,0,0,2.622.612Z" transform="translate(10.679 3.679)" fill="url(#linear-gradient-5)"/>
    <path id="Path_2978" data-name="Path 2978" d="M78.985,39.139a5.482,5.482,0,0,1-1.873.962,9.365,9.365,0,0,1-2.81.362,9.89,9.89,0,0,1-3.459-.574,3.4,3.4,0,0,1-1.973-1.6,28.121,28.121,0,0,1-1.249-3.746c-.475-1.711-.949-3.584-1.411-5.619s-.9-4.108-1.249-6.244-.724-3.959-.962-5.569a6.244,6.244,0,0,1,1.861-1.249,6.019,6.019,0,0,1,2.5-.512,4.87,4.87,0,0,1,2.835.762,3.584,3.584,0,0,1,1.361,2.635c.325,2.5.6,4.57.837,6.244s.425,2.96.562,4,.262,1.823.35,2.373.162.974.225,1.249h.2c.1-.524.262-1.249.512-2.285s.537-2.148.862-3.434.674-2.672,1.036-4.171.724-2.984,1.086-4.458a9.99,9.99,0,0,1,1.948-.837,8.129,8.129,0,0,1,2.4-.3,7.33,7.33,0,0,1,2.96.537A2.622,2.622,0,0,1,87.1,19.347c.4,1.449.774,2.847,1.136,4.208s.687,2.635.987,3.809.562,2.2.787,3.1.4,1.623.5,2.148h.25c.35-2.5.712-5.157,1.049-7.892s.674-5.507.962-8.329a7.143,7.143,0,0,1,1.886-.8,8.117,8.117,0,0,1,1.973-.237,5.1,5.1,0,0,1,2.835.812,2.835,2.835,0,0,1,1.136,2.5,17.321,17.321,0,0,1-.25,2.373c-.162,1.049-.375,2.235-.649,3.546s-.562,2.7-.912,4.146-.687,2.847-1.036,4.2-.674,2.56-.987,3.646a25.88,25.88,0,0,1-.812,2.5,5.444,5.444,0,0,1-2.123.962,12.013,12.013,0,0,1-3.059.362c-2.76,0-4.383-.687-4.883-2.06-.187-.6-.437-1.349-.737-2.248s-.612-1.9-.937-2.985-.637-2.21-.937-3.384-.537-2.3-.737-3.372c-.237,1.149-.512,2.335-.837,3.571S81.033,32.4,80.7,33.645s-.674,2.235-.962,3.209S79.2,38.54,78.985,39.139Z" transform="translate(15.92 3.715)" fill="url(#linear-gradient-6)"/>
    <path id="Path_2979" data-name="Path 2979" d="M106.454,15.2a20.23,20.23,0,0,1,4.858.537,10.727,10.727,0,0,1,3.746,1.661,7.493,7.493,0,0,1,2.4,2.81,9.128,9.128,0,0,1,.837,4.021V35.28a3.1,3.1,0,0,1-.712,2.1,7.217,7.217,0,0,1-1.711,1.4,17.582,17.582,0,0,1-9.028,1.923,20.891,20.891,0,0,1-4.708-.487,11.239,11.239,0,0,1-3.6-1.536,6.768,6.768,0,0,1-2.323-2.5A7.555,7.555,0,0,1,95.4,32.62a6.668,6.668,0,0,1,2-5.182,10.877,10.877,0,0,1,6.244-2.273l6.456-.687v-.35a2.123,2.123,0,0,0-1.249-2.048,8.442,8.442,0,0,0-3.621-.612,16.733,16.733,0,0,0-3.646.387,19.868,19.868,0,0,0-3.209.987,3.546,3.546,0,0,1-1.086-1.349,4.3,4.3,0,0,1-.45-1.911,3.122,3.122,0,0,1,.624-2.035,4.72,4.72,0,0,1,1.9-1.249,14.573,14.573,0,0,1,3.372-.787,27.659,27.659,0,0,1,3.721-.312Zm.387,19.381a11.376,11.376,0,0,0,1.861-.162,4.7,4.7,0,0,0,1.5-.475V30l-3.546.3a5.457,5.457,0,0,0-2.273.587,1.586,1.586,0,0,0-.887,1.486,1.961,1.961,0,0,0,.762,1.6A4.183,4.183,0,0,0,106.841,34.581Z" transform="translate(23.728 3.679)" fill="url(#linear-gradient-7)"/>
    <path id="Path_2980" data-name="Path 2980" d="M127.944,15.2a20.229,20.229,0,0,1,4.858.537,10.727,10.727,0,0,1,3.746,1.661,7.493,7.493,0,0,1,2.4,2.81,9.128,9.128,0,0,1,.837,4.021V35.28a3.1,3.1,0,0,1-.712,2.1,7.218,7.218,0,0,1-1.711,1.4,17.582,17.582,0,0,1-9.028,1.923,20.891,20.891,0,0,1-4.708-.487,11.239,11.239,0,0,1-3.6-1.536,6.768,6.768,0,0,1-2.323-2.5,7.555,7.555,0,0,1-.812-3.559,6.668,6.668,0,0,1,2.023-5.182,10.877,10.877,0,0,1,6.244-2.273l6.456-.687v-.35a2.123,2.123,0,0,0-1.249-2.048,8.442,8.442,0,0,0-3.621-.612,16.733,16.733,0,0,0-3.646.387,19.867,19.867,0,0,0-3.209.987,3.547,3.547,0,0,1-1.086-1.349,4.3,4.3,0,0,1-.45-1.911,3.122,3.122,0,0,1,.624-2.035,4.72,4.72,0,0,1,1.9-1.249,14.573,14.573,0,0,1,3.372-.787,27.659,27.659,0,0,1,3.7-.312Zm.387,19.381a11.376,11.376,0,0,0,1.861-.162,4.7,4.7,0,0,0,1.5-.475V30l-3.546.3a5.457,5.457,0,0,0-2.273.587,1.586,1.586,0,0,0-.887,1.486,1.961,1.961,0,0,0,.762,1.6,4.183,4.183,0,0,0,2.585.612Z" transform="translate(29.073 3.679)" fill="url(#linear-gradient-8)"/>
    <path id="Path_2981" data-name="Path 2981" d="M48.569,23.441A14.323,14.323,0,0,0,39.39,10.329,14.348,14.348,0,0,0,33.721,9.18H12.293v3.072h2.635v2.223l-2.5-.075v3.172h2.5v4.1h-2.41V24.29h-2.5v3.247l5.207.062v2.5h2.26v6.056H14.428v2.86l3.234-.087.1,1.861-5.994.1v2.585H33.721a14.336,14.336,0,0,0,5.32-1.011C46.9,39.337,48.943,34.392,48.569,23.441ZM17.487,26.925h-2V24.752h2ZM17.9,12.252h2.66v2.223H17.9Zm5.307,20.729H20.322V30.608h2.885Zm5.719,8.891h-2.7V39.25h2.647ZM40.577,31.795a6.893,6.893,0,0,1-1.861,4.221,6.156,6.156,0,0,1-4.158,1.548H25.28l-.137-22.115h8.4a7.055,7.055,0,0,1,6.868,5.182c.237.874.225.849.237.874.087.35-.075-.362,0,0a34.265,34.265,0,0,1-.075,10.29Z" transform="translate(2.492 2.181)" fill="url(#linear-gradient-9)"/>
    <rect id="Rectangle_2276" data-name="Rectangle 2276" width="2.86" height="2.86" transform="translate(7.705 25.385)" fill="#5ec4bf" style="mix-blend-mode: normal;isolation: isolate"/>
    <rect id="Rectangle_2277" data-name="Rectangle 2277" width="2.86" height="3.072" transform="translate(10.265 19.353)" fill="#5ec4bf" style="mix-blend-mode: normal;isolation: isolate"/>
    <rect id="Rectangle_2278" data-name="Rectangle 2278" width="2.697" height="2.697" transform="translate(10.265 14.433)" fill="#5ec4bf" style="mix-blend-mode: normal;isolation: isolate"/>
    <rect id="Rectangle_2279" data-name="Rectangle 2279" width="2.822" height="2.822" transform="translate(7.443 16.893)" fill="#5ec4bf" style="mix-blend-mode: normal;isolation: isolate"/>
    <rect id="Rectangle_2280" data-name="Rectangle 2280" width="2.947" height="2.947" transform="translate(2.373 19.94)" fill="#5ec4bf" style="mix-blend-mode: normal;isolation: isolate"/>
    <rect id="Rectangle_2281" data-name="Rectangle 2281" width="2.872" height="2.872" transform="translate(5.082 22.588)" fill="#5ec4bf" style="mix-blend-mode: normal;isolation: isolate"/>
    <rect id="Rectangle_2282" data-name="Rectangle 2282" width="2.897" height="2.897" transform="translate(2.373 25.385)" fill="#5ec4bf" style="mix-blend-mode: normal;isolation: isolate"/>
    <rect id="Rectangle_2283" data-name="Rectangle 2283" width="2.972" height="3.159" transform="translate(0 28.02)" fill="#5ec4bf" style="mix-blend-mode: normal;isolation: isolate"/>
    <rect id="Rectangle_2284" data-name="Rectangle 2284" width="2.847" height="2.847" transform="translate(5.932 27.995)" fill="#5ec4bf" style="mix-blend-mode: normal;isolation: isolate"/>
    <rect id="Rectangle_2285" data-name="Rectangle 2285" width="5.27" height="2.535" transform="translate(5.932 30.842)" fill="#5ec4bf" style="mix-blend-mode: normal;isolation: isolate"/>
    <rect id="Rectangle_2286" data-name="Rectangle 2286" width="2.935" height="2.935" transform="translate(3.097 33.377)" fill="#5ec4bf" style="mix-blend-mode: normal;isolation: isolate"/>
    <rect id="Rectangle_2287" data-name="Rectangle 2287" width="2.96" height="2.96" transform="translate(6.031 36.099)" fill="#5ec4bf" style="mix-blend-mode: normal;isolation: isolate"/>
    <rect id="Rectangle_2288" data-name="Rectangle 2288" width="5.844" height="2.822" transform="translate(8.766 40.095)" fill="#5ec4bf" style="mix-blend-mode: normal;isolation: isolate"/>
    <rect id="Rectangle_2289" data-name="Rectangle 2289" width="2.922" height="2.685" transform="translate(11.688 37.573)" fill="#5ec4bf" style="mix-blend-mode: normal;isolation: isolate"/>
    <rect id="Rectangle_2290" data-name="Rectangle 2290" width="2.785" height="3.059" transform="translate(14.373 35.849)" fill="#5ec4bf" style="mix-blend-mode: normal;isolation: isolate"/>
    <rect id="Rectangle_2291" data-name="Rectangle 2291" width="2.922" height="2.922" transform="translate(11.926 33.202)" fill="#5ec4bf" style="mix-blend-mode: normal;isolation: isolate"/>
    <path id="Path_2982" data-name="Path 2982" d="M139.23,11.738a6.856,6.856,0,1,0,2.008-4.86,6.868,6.868,0,0,0-2.008,4.86Zm9.178-3.284a.824.824,0,0,1,.337-.075.874.874,0,0,1,.587.25.375.375,0,0,1,.137.287.786.786,0,0,1,0,.175l-1.623,3.259h.787v-.637a.35.35,0,0,1,.225-.337,1.267,1.267,0,0,1,.987,0,.35.35,0,0,1,.225.337v.637h.387a.362.362,0,0,1,.337.212.924.924,0,0,1,.112.45.837.837,0,0,1-.137.462.387.387,0,0,1-.312.2h-.387v.974a.362.362,0,0,1-.225.337,1.087,1.087,0,0,1-.5.112,1.074,1.074,0,0,1-.487-.112.362.362,0,0,1-.225-.337v-.974h-2.2a.45.45,0,0,1-.487-.487.651.651,0,0,1,0-.137.7.7,0,0,1,0-.15l2.2-4.121a.737.737,0,0,1,.262-.325Zm-2.5,2.71a2.91,2.91,0,0,1-.524.712,5,5,0,0,1-.687.574l-.687.475a4.031,4.031,0,0,0-.524.425.6.6,0,0,0-.212.412v.087h2.41a.362.362,0,0,1,.312.175.824.824,0,0,1,0,.874.387.387,0,0,1-.312.2h-3.247a.961.961,0,0,1-.412-.125.362.362,0,0,1-.212-.325v-.874a1.249,1.249,0,0,1,.212-.674,2.648,2.648,0,0,1,.537-.6,8,8,0,0,1,.7-.549c.25-.175.487-.35.7-.524a3.583,3.583,0,0,0,.537-.524.961.961,0,0,0,.212-.562.662.662,0,0,0-.075-.3.6.6,0,0,0-.212-.262.774.774,0,0,0-.412-.1.812.812,0,0,0-.487.162.612.612,0,0,0-.2.537.512.512,0,0,1-.2.362.924.924,0,0,1-.549.162.712.712,0,0,1-.462-.162.737.737,0,0,1-.187-.587,1.549,1.549,0,0,1,.3-.962,1.936,1.936,0,0,1,.774-.6,2.5,2.5,0,0,1,1-.2,2.385,2.385,0,0,1,1.024.212,1.973,1.973,0,0,1,.812.649,1.736,1.736,0,0,1,.312,1.036,1.9,1.9,0,0,1-.212.874Z" transform="translate(34.633 1.109)" fill="url(#linear-gradient-10)"/>
    <path id="Path_2983" data-name="Path 2983" d="M160.1,11.818a12.825,12.825,0,1,0-25.325,3.746.737.737,0,0,0,.862.549h0a.737.737,0,0,0,.549-.874,11.364,11.364,0,1,1,4.183,6.631h2.135a.724.724,0,0,0,.737-.712.737.737,0,0,0-.712-.737l-4-.062A.737.737,0,0,0,138,20.6a.7.7,0,0,0-.187.574l.462,4.083a.724.724,0,0,0,.749.637h0a.724.724,0,0,0,.637-.8l-.237-2.123A12.812,12.812,0,0,0,160.1,11.818Z" transform="translate(33.455 -0.082)" fill="url(#linear-gradient-11)"/>
    <path id="Path_2984" data-name="Path 2984" d="M137.51,15h0a.7.7,0,0,0,.6-.837,9.378,9.378,0,0,1-.2-1.886,8.854,8.854,0,0,1,8.866-8.854h.112a.737.737,0,0,0,.737-.712h0A.712.712,0,0,0,146.913,2h-.137A10.277,10.277,0,0,0,136.7,14.487a.7.7,0,0,0,.812.512Z" transform="translate(33.943 0.395)" fill="url(#linear-gradient-12)"/>
  </g>
</svg>
