<svg id="Nano_Logo" data-name="Nano Logo" xmlns="http://www.w3.org/2000/svg" xmlns:xlink="http://www.w3.org/1999/xlink" width="80.041" height="39" viewBox="0 0 80.041 39">
  <defs>
    <clipPath id="clip-path">
      <rect id="Rectangle_2327" data-name="Rectangle 2327" width="80.041" height="39" fill="none"/>
    </clipPath>
    <clipPath id="clip-path-3">
      <rect id="Rectangle_2318" data-name="Rectangle 2318" width="20.365" height="22.949" fill="none"/>
    </clipPath>
    <clipPath id="clip-path-5">
      <rect id="Rectangle_2319" data-name="Rectangle 2319" width="18.326" height="21.53" fill="none"/>
    </clipPath>
    <clipPath id="clip-path-6">
      <rect id="Rectangle_2320" data-name="Rectangle 2320" width="22.298" height="20.237" fill="none"/>
    </clipPath>
    <clipPath id="clip-path-7">
      <rect id="Rectangle_2325" data-name="Rectangle 2325" width="30.363" height="18.896" fill="none"/>
    </clipPath>
    <clipPath id="clip-path-9">
      <rect id="Rectangle_2322" data-name="Rectangle 2322" width="29.961" height="18.896" fill="none"/>
    </clipPath>
    <clipPath id="clip-path-10">
      <rect id="Rectangle_2324" data-name="Rectangle 2324" width="17.868" height="12.871" fill="none"/>
    </clipPath>
  </defs>
  <g id="Group_3350" data-name="Group 3350" clip-path="url(#clip-path)">
    <path id="Path_3059" data-name="Path 3059" d="M6.573,119.743v4.871H2.083v-4.871H.707v10.934H2.083v-4.87h4.49v4.87H7.949V119.743Z" transform="translate(-0.543 -91.86)" fill="#052a49"/>
    <g id="Group_3349" data-name="Group 3349">
      <g id="Group_3348" data-name="Group 3348" clip-path="url(#clip-path)">
        <path id="Path_3060" data-name="Path 3060" d="M37.973,138.256v.023a2.529,2.529,0,0,0,.752,1.862,2.47,2.47,0,0,0,3.564-.015q.106-.106.41-.479l1.292.456a4.19,4.19,0,0,1-.669.858,3.989,3.989,0,0,1-5.611.019,3.775,3.775,0,0,1,0-5.414,4,4,0,0,1,5.611.015,3.631,3.631,0,0,1,1,2.675Zm.243-1.2h4.551a2.121,2.121,0,0,0-2.264-1.413,2.153,2.153,0,0,0-2.287,1.413" transform="translate(-28.052 -103.123)" fill="#052a49"/>
        <path id="Path_3061" data-name="Path 3061" d="M81.227,141.94H79.852v-1.216a2.678,2.678,0,0,1-2.477,1.4,3.8,3.8,0,0,1-2.792-1.144,3.775,3.775,0,0,1,0-5.414,3.805,3.805,0,0,1,2.792-1.14,2.683,2.683,0,0,1,2.477,1.383V135h1.375Zm-1.375-3.115v-1.109a2.594,2.594,0,0,0-2.477-2.074,2.42,2.42,0,0,0-1.778.76,2.564,2.564,0,0,0-.752,1.877,2.529,2.529,0,0,0,.752,1.862,2.47,2.47,0,0,0,3.564-.015,2.457,2.457,0,0,0,.691-1.3" transform="translate(-56.338 -103.123)" fill="#052a49"/>
        <rect id="Rectangle_2315" data-name="Rectangle 2315" width="1.375" height="10.934" transform="translate(26.401 27.884)" fill="#052a49"/>
        <path id="Path_3062" data-name="Path 3062" d="M125.209,127.988v-2.7h1.368v2.7h1.292v1.186h-1.292v5.759h-1.368v-5.759h-1.292v-1.186Z" transform="translate(-95.061 -96.115)" fill="#052a49"/>
        <path id="Path_3063" data-name="Path 3063" d="M144.995,119.743h1.375v3.989a1.99,1.99,0,0,1,1.444-.38,2.866,2.866,0,0,1,2.12.805,2.729,2.729,0,0,1,.821,1.968v4.551h-1.368v-4.49a1.572,1.572,0,0,0-.479-1.174,1.518,1.518,0,0,0-2.166-.027,1.727,1.727,0,0,0-.372.509v5.182h-1.375Z" transform="translate(-111.231 -91.859)" fill="#052a49"/>
        <path id="Path_3064" data-name="Path 3064" d="M194.3,124.5a4.7,4.7,0,0,1-1.892-1.1,2.35,2.35,0,0,1-.714-1.725,2.392,2.392,0,0,1,.741-1.736,2.488,2.488,0,0,1,1.842-.749,2.551,2.551,0,0,1,1.861.768,2.652,2.652,0,0,1,.631,1.109l-1.231.479a2.448,2.448,0,0,0-.41-.8,1.142,1.142,0,0,0-1.691-.011,1.272,1.272,0,0,0-.369.938,1.33,1.33,0,0,0,.38.957,3.974,3.974,0,0,0,1.079.7,5.4,5.4,0,0,1,2.188,1.307,3.294,3.294,0,0,1,.011,4.738,3.5,3.5,0,0,1-4.92-.027,3.472,3.472,0,0,1-.972-2.029l1.322-.479a2.777,2.777,0,0,0,.676,1.74,1.973,1.973,0,0,0,1.444.608,2.014,2.014,0,0,0,1.47-.627,2.24,2.24,0,0,0,.011-3.1,4.554,4.554,0,0,0-1.459-.965" transform="translate(-146.401 -91.434)" fill="#052a49"/>
        <path id="Path_3065" data-name="Path 3065" d="M228.078,143.885a2.943,2.943,0,0,1-2.184-.805,2.774,2.774,0,0,1-.825-1.975v-4.263h1.376v4.209a1.6,1.6,0,0,0,.494,1.185,1.54,1.54,0,0,0,1.132.464,1.5,1.5,0,0,0,1.087-.475,1.587,1.587,0,0,0,.479-1.174v-4.209h1.375V141.1a2.783,2.783,0,0,1-2.933,2.781" transform="translate(-172.659 -104.976)" fill="#052a49"/>
        <path id="Path_3066" data-name="Path 3066" d="M257.677,127.485a.826.826,0,0,1,.277.6.841.841,0,0,1-.277.619,1.045,1.045,0,0,1-1.4,0,.845.845,0,0,1-.274-.619.83.83,0,0,1,.274-.6,1.045,1.045,0,0,1,1.4,0m-.019,8.924h-1.368v-6.945h1.368Z" transform="translate(-196.389 -97.591)" fill="#052a49"/>
        <path id="Path_3067" data-name="Path 3067" d="M269.3,127.988v-2.7h1.368v2.7h1.292v1.186h-1.292v5.759H269.3v-5.759h-1.292v-1.186Z" transform="translate(-205.6 -96.115)" fill="#052a49"/>
        <path id="Path_3068" data-name="Path 3068" d="M289.123,138.256v.023a2.529,2.529,0,0,0,.752,1.862,2.47,2.47,0,0,0,3.564-.015q.106-.106.41-.479l1.292.456a4.19,4.19,0,0,1-.669.858,3.989,3.989,0,0,1-5.611.019,3.775,3.775,0,0,1,0-5.414,4,4,0,0,1,5.611.015,3.631,3.631,0,0,1,1,2.675Zm.243-1.2h4.551a2.121,2.121,0,0,0-2.264-1.413,2.153,2.153,0,0,0-2.287,1.413" transform="translate(-220.719 -103.123)" fill="#052a49"/>
        <g id="Group_3329" data-name="Group 3329" transform="translate(58.151 1.689)" opacity="0.75">
          <g id="Group_3328" data-name="Group 3328">
            <g id="Group_3327" data-name="Group 3327" clip-path="url(#clip-path-3)">
              <g id="Group_3326" data-name="Group 3326" opacity="0.25">
                <g id="Group_3325" data-name="Group 3325">
                  <g id="Group_3324" data-name="Group 3324" clip-path="url(#clip-path-3)">
                    <rect id="Rectangle_2316" data-name="Rectangle 2316" width="0.012" height="9.529" transform="translate(12.566 0.533) rotate(-49.699)" fill="#004564"/>
                    <path id="Path_3069" data-name="Path 3069" d="M251.9,13.554l-.027,0,12.07-4.057,7.27,6.165.015.013Zm.028-.009,19.262,2.11-7.25-6.148Z" transform="translate(-251.371 -8.972)" fill="#004564"/>
                    <path id="Path_3070" data-name="Path 3070" d="M264.455,44.918l0,.01L251.944,26.885l-.007-.011,19.322,2.117h.008Zm-.007-.015,6.8-15.9-19.288-2.113Z" transform="translate(-251.421 -22.305)" fill="#004564"/>
                    <path id="Path_3071" data-name="Path 3071" d="M250.713,25.419a.528.528,0,1,0-.717.21.528.528,0,0,0,.717-.21" transform="translate(-249.721 -20.589)" fill="#004564"/>
                    <path id="Path_3072" data-name="Path 3072" d="M302.423,8.037a.528.528,0,1,0-.717.21.528.528,0,0,0,.717-.21" transform="translate(-289.39 -7.254)" fill="#004564"/>
                    <path id="Path_3073" data-name="Path 3073" d="M333.632,34.5a.528.528,0,1,0-.717.21.528.528,0,0,0,.717-.21" transform="translate(-313.332 -27.559)" fill="#004564"/>
                    <path id="Path_3074" data-name="Path 3074" d="M304.853,103.4a.339.339,0,1,0-.46.134.339.339,0,0,0,.46-.134" transform="translate(-291.527 -80.627)" fill="#004564"/>
                  </g>
                </g>
              </g>
            </g>
          </g>
        </g>
        <g id="Group_3332" data-name="Group 3332" transform="translate(50.832 3.797)" opacity="0.26">
          <g id="Group_3331" data-name="Group 3331">
            <g id="Group_3330" data-name="Group 3330" clip-path="url(#clip-path-5)">
              <path id="Path_3075" data-name="Path 3075" d="M248.749,38.821v.011l-5.9-2.3-.008,0,8.621-18.451Zm-.015-.013,2.695-20.623-8.567,18.334Z" transform="translate(-237.122 -17.665)" fill="#004564"/>
              <path id="Path_3076" data-name="Path 3076" d="M234.6,18.262l.017,0-8.6,18.408-.009.02-5.12-15.746,0-.009Zm-.013.02L220.9,20.945l5.1,15.7Z" transform="translate(-220.278 -17.804)" fill="#004564"/>
              <path id="Path_3077" data-name="Path 3077" d="M274.119,37.478l.018.024-5.986,1.43-.006,0,2.7-20.7,0-.021Zm-.031-.014-3.224-19.207-2.7,20.661Z" transform="translate(-256.536 -17.769)" fill="#004564"/>
              <path id="Path_3078" data-name="Path 3078" d="M278.894,16.689a.39.39,0,1,1-.4-.383.39.39,0,0,1,.4.383" transform="translate(-264.183 -16.306)" fill="#004564"/>
              <path id="Path_3079" data-name="Path 3079" d="M219.52,27.729a.614.614,0,1,1-.626-.6.614.614,0,0,1,.626.6" transform="translate(-218.291 -24.607)" fill="#004564"/>
              <path id="Path_3080" data-name="Path 3080" d="M241.573,95.4a.573.573,0,1,1-.584-.562.573.573,0,0,1,.584.562" transform="translate(-235.273 -76.547)" fill="#004564"/>
              <path id="Path_3081" data-name="Path 3081" d="M267.325,105.911a.375.375,0,1,1-.382-.368.375.375,0,0,1,.382.368" transform="translate(-255.331 -84.763)" fill="#004564"/>
              <path id="Path_3082" data-name="Path 3082" d="M292.712,99.158a.649.649,0,1,1-.662-.637.65.65,0,0,1,.662.637" transform="translate(-274.386 -79.376)" fill="#004564"/>
            </g>
          </g>
        </g>
        <g id="Group_3335" data-name="Group 3335" transform="translate(57.744)" opacity="0.75">
          <g id="Group_3334" data-name="Group 3334">
            <g id="Group_3333" data-name="Group 3333" clip-path="url(#clip-path-6)">
              <path id="Path_3083" data-name="Path 3083" d="M291.791,37.731l-3.394,4.3.005,0,3.394-4.3Z" transform="translate(-278.984 -28.945)" fill="#004759"/>
              <path id="Path_3084" data-name="Path 3084" d="M312.262,14.562v.006l-9.3-3.59,0,0,6.853-8.121,0-.006Zm-.008,0-2.44-11.692-6.842,8.108Z" transform="translate(-290.156 -2.186)" fill="#004759"/>
              <path id="Path_3085" data-name="Path 3085" d="M298.126,10.966l0,0-1.474-3.826v0l8.323-4.3.015-.008Zm6.833-8.108-8.3,4.287,1.468,3.812" transform="translate(-285.313 -2.176)" fill="#004759"/>
              <path id="Path_3086" data-name="Path 3086" d="M290.973,48.849v.016l-2.581-6.856,3.4-4.306.007-.009Zm-.006-.016.818-11.118L288.4,42.009Z" transform="translate(-278.979 -28.916)" fill="#004759"/>
              <path id="Path_3087" data-name="Path 3087" d="M309.566,41.308l.006,0-10.117,7.561-.006,0,.82-11.152v0Zm-.008,0-9.283-3.584-.819,11.133Z" transform="translate(-287.461 -28.936)" fill="#004759"/>
              <path id="Path_3088" data-name="Path 3088" d="M298.6,84.328a.3.3,0,1,0,.135.408.3.3,0,0,0-.135-.408" transform="translate(-286.473 -64.666)" fill="#004759"/>
              <path id="Path_3089" data-name="Path 3089" d="M287.543,54.954a.3.3,0,1,0,.135.408.3.3,0,0,0-.135-.408" transform="translate(-277.991 -42.132)" fill="#004759"/>
              <path id="Path_3090" data-name="Path 3090" d="M302.12,36.468a.3.3,0,1,0,.135.408.3.3,0,0,0-.135-.408" transform="translate(-289.173 -27.951)" fill="#004759"/>
              <path id="Path_3091" data-name="Path 3091" d="M331.288,1.247a.39.39,0,1,0,.174.524.39.39,0,0,0-.174-.524" transform="translate(-311.453 -0.924)" fill="#004759"/>
              <path id="Path_3092" data-name="Path 3092" d="M342.337,52.332a.195.195,0,1,0,.087.262.195.195,0,0,0-.087-.262" transform="translate(-320.147 -40.13)" fill="#004759"/>
              <path id="Path_3093" data-name="Path 3093" d="M296.151,20.574a.181.181,0,1,0,.08.243.181.181,0,0,0-.08-.243" transform="translate(-284.731 -15.769)" fill="#004759"/>
              <path id="Path_3094" data-name="Path 3094" d="M286.6,52.165h0l-3.112,3.466-.008.009,2.466-8.74,0-.014Zm-.006,0-.647-5.247-2.456,8.7Z" transform="translate(-275.214 -35.97)" fill="#004759"/>
              <path id="Path_3095" data-name="Path 3095" d="M296.517,49.881v0l-1.8,2.306-.651-5.279Zm-.006,0-2.435-2.954.647,5.245Z" transform="translate(-283.334 -35.986)" fill="#004759"/>
              <path id="Path_3096" data-name="Path 3096" d="M264.5,14.123l-4.568.54v.006l4.568-.54Z" transform="translate(-257.149 -10.834)" fill="#004759"/>
              <path id="Path_3097" data-name="Path 3097" d="M282.924,19.29l0,0-3.387-7.646,0,0,8.883-.752h.006Zm0-.008,5.489-8.384-8.869.751Z" transform="translate(-272.184 -8.355)" fill="#004759"/>
              <path id="Path_3098" data-name="Path 3098" d="M279.536,3.783h0l1.4-3.144v0l7.488,2.388.014,0Zm8.864-.757L280.931.644,279.54,3.777" transform="translate(-272.182 -0.489)" fill="#004759"/>
              <path id="Path_3099" data-name="Path 3099" d="M249.044,20.25l-.01.008,2.537-5.6,4.569-.54h.009Zm.006-.013,7.081-6.111-4.557.539Z" transform="translate(-248.787 -10.83)" fill="#004759"/>
              <path id="Path_3100" data-name="Path 3100" d="M257.069,50.672l0,.006L249.043,40.43l0-.006,10.493,1.518Zm0-.007,2.46-8.719-10.473-1.514Z" transform="translate(-248.791 -31.011)" fill="#004759"/>
              <path id="Path_3101" data-name="Path 3101" d="M259.532,21.76l0,0-10.488-1.517h-.006l7.1-6.13,0,0Zm-.007,0-3.381-7.633-7.091,6.119Z" transform="translate(-248.792 -10.828)" fill="#004759"/>
              <path id="Path_3102" data-name="Path 3102" d="M248.47,39.521a.255.255,0,1,0-.162.322.255.255,0,0,0,.162-.322" transform="translate(-247.973 -30.184)" fill="#004759"/>
              <path id="Path_3103" data-name="Path 3103" d="M259.337,15.534a.255.255,0,1,0-.162.322.255.255,0,0,0,.162-.322" transform="translate(-256.31 -11.783)" fill="#004759"/>
              <path id="Path_3104" data-name="Path 3104" d="M278.953,13.215a.255.255,0,1,0-.162.322.255.255,0,0,0,.162-.322" transform="translate(-271.358 -10.004)" fill="#004759"/>
              <path id="Path_3105" data-name="Path 3105" d="M317.323,10.355a.153.153,0,1,0-.1.193.153.153,0,0,0,.1-.193" transform="translate(-300.946 -7.864)" fill="#004759"/>
              <path id="Path_3106" data-name="Path 3106" d="M293.7,46.362a.163.163,0,1,0-.1.207.163.163,0,0,0,.1-.207" transform="translate(-282.81 -35.48)" fill="#004759"/>
              <path id="Path_3107" data-name="Path 3107" d="M296.377,68.789a.211.211,0,1,0-.134.266.211.211,0,0,0,.134-.266" transform="translate(-284.791 -52.66)" fill="#004759"/>
              <path id="Path_3108" data-name="Path 3108" d="M304.123,58.98a.193.193,0,1,0-.123.245.193.193,0,0,0,.123-.245" transform="translate(-290.758 -45.144)" fill="#004759"/>
              <path id="Path_3109" data-name="Path 3109" d="M285.18.1a.152.152,0,1,0-.1.192.152.152,0,0,0,.1-.192" transform="translate(-276.289 0)" fill="#004759"/>
              <path id="Path_3110" data-name="Path 3110" d="M282.787,83.452a.335.335,0,1,0-.45.149.336.336,0,0,0,.45-.149" transform="translate(-274.193 -63.646)" fill="#004759"/>
              <path id="Path_3111" data-name="Path 3111" d="M298.917,84.969a.22.22,0,1,0-.295.1.22.22,0,0,0,.295-.1" transform="translate(-286.735 -64.939)" fill="#004759"/>
              <path id="Path_3112" data-name="Path 3112" d="M303.4,77.425a.292.292,0,1,0-.391.13.292.292,0,0,0,.391-.13" transform="translate(-290.067 -59.071)" fill="#004759"/>
            </g>
          </g>
        </g>
        <g id="Group_3347" data-name="Group 3347" transform="translate(46.165 1.341)" opacity="0.24">
          <g id="Group_3346" data-name="Group 3346">
            <g id="Group_3345" data-name="Group 3345" clip-path="url(#clip-path-7)">
              <g id="Group_3341" data-name="Group 3341" opacity="0.75">
                <g id="Group_3340" data-name="Group 3340">
                  <g id="Group_3339" data-name="Group 3339" clip-path="url(#clip-path-7)">
                    <g id="Group_3338" data-name="Group 3338" opacity="0.25">
                      <g id="Group_3337" data-name="Group 3337">
                        <g id="Group_3336" data-name="Group 3336" clip-path="url(#clip-path-9)">
                          <rect id="Rectangle_2321" data-name="Rectangle 2321" width="8.627" height="0.011" transform="translate(8.96 18.412) rotate(-16.411)" fill="#004564"/>
                          <path id="Path_3113" data-name="Path 3113" d="M284.978,17.466l-.01,0-12.719,5.254v-.008l.2-15.684.008.006ZM272.26,22.709l12.694-5.246L272.461,7.053Z" transform="translate(-255.017 -6.737)" fill="#004564"/>
                          <path id="Path_3114" data-name="Path 3114" d="M217.01,56.791l-.017,0-8.278,2.438-8.5-7.784.023.007Zm-8.293,2.431,8.256-2.432-16.719-5.315Z" transform="translate(-199.754 -40.811)" fill="#004564"/>
                          <path id="Path_3115" data-name="Path 3115" d="M217.025,22.726l-.007,0-16.77-5.332.01-.006L217.226,7.035v.01Zm-16.751-5.337,16.74,5.322.2-15.656Z" transform="translate(-199.783 -6.738)" fill="#004564"/>
                          <path id="Path_3116" data-name="Path 3116" d="M199.205,49.889a.478.478,0,1,1-.517-.436.478.478,0,0,1,.517.436" transform="translate(-198.25 -39.277)" fill="#004564"/>
                          <path id="Path_3117" data-name="Path 3117" d="M235.636,83.236a.478.478,0,1,1-.517-.436.478.478,0,0,1,.517.436" transform="translate(-226.198 -64.859)" fill="#004564"/>
                          <path id="Path_3118" data-name="Path 3118" d="M271.173,72.769a.478.478,0,1,1-.517-.436.478.478,0,0,1,.517.436" transform="translate(-253.46 -56.829)" fill="#004564"/>
                          <path id="Path_3119" data-name="Path 3119" d="M272.43,6.041a.306.306,0,1,1-.331-.28.307.307,0,0,1,.331.28" transform="translate(-254.687 -5.76)" fill="#004564"/>
                        </g>
                      </g>
                    </g>
                    <path id="Path_3120" data-name="Path 3120" d="M325.829,50.383a.426.426,0,1,1-.461-.389.426.426,0,0,1,.461.389" transform="translate(-295.467 -39.692)" fill="#004564"/>
                  </g>
                </g>
              </g>
              <g id="Group_3344" data-name="Group 3344" transform="translate(8.875 2.419)" opacity="0.75">
                <g id="Group_3343" data-name="Group 3343">
                  <g id="Group_3342" data-name="Group 3342" clip-path="url(#clip-path-10)">
                    <path id="Path_3121" data-name="Path 3121" d="M283.017,23.884v-.006l3.2,1.013,0,0L282.3,34.949Zm.009.007-.713,11,3.9-9.993Z" transform="translate(-271.602 -22.078)" fill="#004759"/>
                    <path id="Path_3122" data-name="Path 3122" d="M282.3,38.235l-.009,0L286.21,28.2l0-.011,3.252,8.152,0,0Zm.006-.011,7.145-1.881-3.241-8.125Z" transform="translate(-271.6 -25.389)" fill="#004759"/>
                    <path id="Path_3123" data-name="Path 3123" d="M236.417,16.889l0-.009,11.071-.73h0l.335,1.8v.007Zm.076.014,11.325,1.046-.333-1.791Z" transform="translate(-236.405 -16.15)" fill="#004759"/>
                    <path id="Path_3124" data-name="Path 3124" d="M236.374,19.279l-.01-.012,11.42,1.076h0l-.716,11.04v.011Zm.017.006,10.672,12.086.715-11.022Z" transform="translate(-236.364 -18.541)" fill="#004759"/>
                  </g>
                </g>
              </g>
            </g>
          </g>
        </g>
        <path id="Path_3125" data-name="Path 3125" d="M293.061,46.166a.243.243,0,1,1,.307.154.242.242,0,0,1-.307-.154" transform="translate(-224.809 -35.172)" fill="#004759"/>
        <path id="Path_3126" data-name="Path 3126" d="M292.445,45.593a.552.552,0,1,0-.7-.35.552.552,0,0,0,.7.35m-.3-.908a.4.4,0,1,1-.257.511.4.4,0,0,1,.257-.511" transform="translate(-223.789 -34.151)" fill="#004759"/>
        <path id="Path_3127" data-name="Path 3127" d="M302.773,32.163a.171.171,0,1,1,.216.108.171.171,0,0,1-.216-.108" transform="translate(-232.262 -24.501)" fill="#004759"/>
        <path id="Path_3128" data-name="Path 3128" d="M302.34,31.762a.388.388,0,1,0-.491-.246.388.388,0,0,0,.491.246m-.212-.639a.284.284,0,1,1-.18.36.285.285,0,0,1,.18-.36" transform="translate(-231.545 -23.785)" fill="#004759"/>
        <path id="Path_3129" data-name="Path 3129" d="M318.4,71.245a.269.269,0,1,1,.341.171.27.27,0,0,1-.341-.171" transform="translate(-244.244 -54.383)" fill="#004759"/>
        <path id="Path_3130" data-name="Path 3130" d="M317.714,70.61a.613.613,0,1,0-.775-.389.613.613,0,0,0,.775.389M317.38,69.6a.449.449,0,1,1-.285.568.449.449,0,0,1,.285-.568" transform="translate(-243.112 -53.25)" fill="#004759"/>
        <path id="Path_3131" data-name="Path 3131" d="M21.781,26A6.792,6.792,0,0,1,24.45,31.02v4.827L2.669,21.154A6.79,6.79,0,0,1,0,16.138V11.31Z" transform="translate(0 -8.676)" fill="#21abbf"/>
        <path id="Path_3132" data-name="Path 3132" d="M8.818,63.324A5.656,5.656,0,0,1,11.041,67.5v3.85L2.223,65.409A5.658,5.658,0,0,1,0,61.226v-3.85Z" transform="translate(0 -44.015)" fill="#21abbf"/>
        <path id="Path_3133" data-name="Path 3133" d="M66.4,16.529a5.658,5.658,0,0,1,2.223,4.182v3.85l-8.818-5.947a5.656,5.656,0,0,1-2.223-4.181v-3.85Z" transform="translate(-44.173 -8.119)" fill="#21abbf"/>
        <path id="Path_3134" data-name="Path 3134" d="M119.522,60.06V52.2a4.1,4.1,0,0,0-.794-2.739,2.951,2.951,0,0,0-2.367-.924,2.7,2.7,0,0,0-2.107.9,3.388,3.388,0,0,0-.811,2.358,3.33,3.33,0,0,0,.851,2.4,3.061,3.061,0,0,0,2.326.891,4.164,4.164,0,0,0,.826-.1q.47-.1,1.232-.341v5.381q-.632.13-1.2.194a9.3,9.3,0,0,1-1.053.065,7.923,7.923,0,0,1-5.933-2.4,8.379,8.379,0,0,1-2.334-6.095,8.38,8.38,0,0,1,2.334-6.095,7.924,7.924,0,0,1,5.933-2.4,8.217,8.217,0,0,1,4.49,1.273,7.9,7.9,0,0,1,3.016,3.477,7.272,7.272,0,0,1,.559,1.872,22.21,22.21,0,0,1,.17,3.266V60.06Z" transform="translate(-82.973 -33.216)" fill="#0e6f88"/>
        <path id="Path_3135" data-name="Path 3135" d="M193.232,60.06V50.9a2.654,2.654,0,0,0-.665-1.872,2.231,2.231,0,0,0-1.718-.721,2.255,2.255,0,0,0-1.726.721,2.634,2.634,0,0,0-.673,1.872V60.06h-5.139V51.728a8.813,8.813,0,0,1,2.067-6.144,7.02,7.02,0,0,1,5.47-2.285,7.561,7.561,0,0,1,6.176,3.145,6.858,6.858,0,0,1,1.038,2.221,12.153,12.153,0,0,1,.324,3.064V60.06Z" transform="translate(-140.626 -33.216)" fill="#0e6f88"/>
        <path id="Path_3136" data-name="Path 3136" d="M302.409,34.444h-3.03V31.413h-4.086v3.031h-3.031V38.53h3.031v3.031h4.086V38.53h3.03Z" transform="translate(-224.205 -24.098)" fill="#db0917"/>
        <path id="Path_3137" data-name="Path 3137" d="M260.494,61.02a8.193,8.193,0,0,1,0-16.385v4.086a4.106,4.106,0,1,0,4.107,4.106h4.086a8.2,8.2,0,0,1-8.193,8.193" transform="translate(-193.55 -34.241)" fill="#0e6f88"/>
      </g>
    </g>
  </g>
</svg>
