<svg xmlns="http://www.w3.org/2000/svg" width="220.209" height="220.208" viewBox="0 0 220.209 220.208">
  <g id="Group_38079" data-name="Group 38079" transform="translate(-77 -257)">
    <g id="Group_38075" data-name="Group 38075" transform="translate(77 257)">
      <g id="Illustration-login" transform="translate(0 0)">
        <g id="Group_38074" data-name="Group 38074">
          <ellipse id="Ellipse_100" data-name="Ellipse 100" cx="110.104" cy="110.104" rx="110.104" ry="110.104" fill="#f0f5fc"/>
        </g>
      </g>
    </g>
    <g id="Group_38077" data-name="Group 38077" transform="translate(97.837 283.744)">
      <ellipse id="Ellipse_480" data-name="Ellipse 480" cx="75.292" cy="74.011" rx="75.292" ry="74.011" transform="translate(13.747 9.448)" fill="#fff"/>
      <path id="Path_35336" data-name="Path 35336" d="M4510.38,164.653a10.511,10.511,0,1,0-10.458-10.581A10.571,10.571,0,0,0,4510.38,164.653Z" transform="translate(-4420.244 -141.061)" fill="#fff"/>
      <g id="Group_38076" data-name="Group 38076" transform="translate(66.69 35.526)">
        <path id="Path_35337" data-name="Path 35337" d="M4545.731,351.263c3,.056,6,.035,8.995.025a2.573,2.573,0,0,0,2.565-2.573q.007-33.938,0-67.876c0-.173-.015-.346-.027-.6h-98.722v1.082q0,33.524,0,67.049c0,2.254.673,2.921,2.942,2.922q11.087,0,22.176,0a2.09,2.09,0,0,1,2.281,1.569,2.05,2.05,0,0,1-2.07,2.6c-7.88.013-15.76.03-23.639-.009a6.206,6.206,0,0,1-5.868-5.858c-.008-.279,0-.558,0-.837V265.92a6.215,6.215,0,0,1,4.769-6.509,1.074,1.074,0,0,0,.252-.174h97.074a7.108,7.108,0,0,1,5.021,5.021v84.053a8.486,8.486,0,0,1-1.233,4.473,6.315,6.315,0,0,1-.5.7,5.605,5.605,0,0,1-4.533,1.988c-2.437-.012-4.873,0-7.322,0l-23.608-.015q-10.669.037-21.339.012a2.138,2.138,0,0,1-2.309-1.816,2.1,2.1,0,0,1,1.37-2.225,3.984,3.984,0,0,1,1.232-.133q8.21-.012,16.422-.005Zm-87.184-75.354h98.747v-9.354c0-2.546-.592-3.136-3.149-3.136h-92.435c-.349,0-.7-.018-1.045.011a2.116,2.116,0,0,0-2.1,2.165C4458.524,269.007,4458.548,272.419,4458.548,275.909Z" transform="translate(-4454.361 -259.237)" fill="#044365"/>
        <path id="Path_35338" data-name="Path 35338" d="M4730.156,404.345c-2.542,0-5.085.008-7.628,0a2.16,2.16,0,0,1-2.413-2.147,2.183,2.183,0,0,1,2.42-2.04q7.628-.007,15.257,0c1.47,0,2.356.776,2.38,2.046.024,1.324-.858,2.133-2.386,2.141C4735.243,404.355,4732.7,404.345,4730.156,404.345Z" transform="translate(-4644.356 -359.981)" fill="#babec1"/>
        <path id="Path_35339" data-name="Path 35339" d="M4757.8,369.092c-1.08,0-2.159.022-3.238-.005a2.088,2.088,0,1,1,0-4.174q3.289-.035,6.579,0a2.087,2.087,0,1,1,0,4.173C4760.028,369.114,4758.914,369.092,4757.8,369.092Z" transform="translate(-4667.447 -334.776)" fill="#babec1"/>
        <path id="Path_35340" data-name="Path 35340" d="M4762.19,439.531c-.871,0-1.742.03-2.61-.007a2.083,2.083,0,0,1,.012-4.165q2.663-.051,5.326,0a2.083,2.083,0,0,1-.013,4.164C4764,439.559,4763.1,439.53,4762.19,439.531Z" transform="translate(-4671.112 -385.134)" fill="#babec1"/>
        <path id="Path_35341" data-name="Path 35341" d="M4707.159,369.058a2.084,2.084,0,0,1-.012-4.161c1.53-.043,3.064-.048,4.594,0a2,2,0,0,1,1.913,2.073,2.031,2.031,0,0,1-1.9,2.087c-.069.006-.14.008-.209.008" transform="translate(-4633.69 -334.753)" fill="#babec1"/>
        <path id="Path_35342" data-name="Path 35342" d="M4585.72,586.343a2.09,2.09,0,1,1,.06-4.179,2.09,2.09,0,0,1-.06,4.179Z" transform="translate(-4546.761 -490.108)"/>
        <path id="Path_35343" data-name="Path 35343" d="M4641.923,292.774q-11.136,0-22.272,0c-1.544,0-2.456-.887-2.362-2.265a2.061,2.061,0,0,1,1.777-1.9,4.927,4.927,0,0,1,.625-.015q22.273,0,44.545,0a2.154,2.154,0,0,1,2.384,1.59,2.081,2.081,0,0,1-2.111,2.584c-3.311.02-6.622.007-9.934.007Z" transform="translate(-4570.839 -280.222)" fill="#babec1"/>
        <path id="Path_35344" data-name="Path 35344" d="M4496.105,292.782a2.089,2.089,0,1,1,2.074-2.13A2.048,2.048,0,0,1,4496.105,292.782Z" transform="translate(-4482.701 -280.232)" fill="#dd194f"/>
        <path id="Path_35345" data-name="Path 35345" d="M4526.289,290.541a2.092,2.092,0,1,1,1.966,2.234A2.066,2.066,0,0,1,4526.289,290.541Z" transform="translate(-4505.781 -280.226)" fill="#babec1"/>
        <path id="Path_35346" data-name="Path 35346" d="M4560.651,292.78a2.09,2.09,0,1,1,2.111-2.093A2.052,2.052,0,0,1,4560.651,292.78Z" transform="translate(-4528.872 -280.23)" fill="#babec1"/>
      </g>
      <path id="Path_35347" data-name="Path 35347" d="M4571.417,421.87a9.557,9.557,0,0,0-.8-12.616c-6.789-6.782-17.514-17.5-21.959-21.945-.248-.247-.477-.511-.7-.753a33.593,33.593,0,1,0-57.76,2.119,32.667,32.667,0,0,0,17.99,13.79,33.05,33.05,0,0,0,25.87-2.234l10.469,10.433,12,12.112a9.921,9.921,0,0,0,14.89-.905Zm-53.008-22.55a28.824,28.824,0,1,1,28.82-28.862A28.952,28.952,0,0,1,4518.409,399.321Zm24.515,2.2-3.825-3.805,6.442-6.385,3.771,3.774Zm16.447,16.621c-4.293-4.274-8.555-8.589-12.856-12.9l6.614-6.606a4.327,4.327,0,0,1,.469.369q6.231,6.225,12.459,12.453a4.727,4.727,0,0,1,.167,6.5h0A4.728,4.728,0,0,1,4559.371,418.145Z" transform="translate(-4409.446 -279.247)" fill="#1ba8cd"/>
      <path id="Path_35348" data-name="Path 35348" d="M4503.99,160.772a13.078,13.078,0,1,1,13.085-12.971A13.051,13.051,0,0,1,4503.99,160.772Zm-.046-2.564a10.511,10.511,0,1,0-10.459-10.581A10.571,10.571,0,0,0,4503.944,158.207Z" transform="translate(-4413.808 -134.615)" fill="#e06f00"/>
      <path id="Path_35349" data-name="Path 35349" d="M4534.854,176.71c0,.811.009,1.622,0,2.433a1.28,1.28,0,1,1-2.557-.009c-.011-1.622-.009-5.017,0-6.639a1.283,1.283,0,1,1,2.56.009C4534.862,173.316,4534.855,175.9,4534.854,176.71Z" transform="translate(-4443.383 -160.724)" fill="#e06f00"/>
      <path id="Path_35350" data-name="Path 35350" d="M4534.867,158.377a1.28,1.28,0,1,1-2.561,0,1.28,1.28,0,0,1,2.561,0Z" transform="translate(-4443.397 -150.697)" fill="#e06f00"/>
      <path id="Path_35351" data-name="Path 35351" d="M4573.789,463.087a14.271,14.271,0,0,1,10.012,4.062,1.662,1.662,0,0,1,.174,2.446,1.685,1.685,0,0,1-2.459-.072,11.152,11.152,0,0,0-15.362-.132,2.782,2.782,0,0,1-1.262.67,1.484,1.484,0,0,1-1.62-.9,1.63,1.63,0,0,1,.343-1.883,13.535,13.535,0,0,1,6.241-3.629c1.277-.328,2.6-.467,3.9-.691Z" transform="translate(-4464.166 -366.776)" fill="#babec1"/>
      <path id="Path_35352" data-name="Path 35352" d="M4556.9,421.888a2.567,2.567,0,0,1-2.553-2.58,2.576,2.576,0,0,1,5.152.048A2.564,2.564,0,0,1,4556.9,421.888Z" transform="translate(-4457.502 -331.671)" fill="#babec1"/>
      <path id="Path_35353" data-name="Path 35353" d="M4641.814,421.889a2.565,2.565,0,0,1-2.593-2.54,2.577,2.577,0,0,1,5.153-.032A2.569,2.569,0,0,1,4641.814,421.889Z" transform="translate(-4521.997 -331.672)" fill="#babec1"/>
      <path id="Path_35354" data-name="Path 35354" d="M4714.1,572.934c-4.293-4.274-8.555-8.589-12.856-12.9l6.614-6.606a4.281,4.281,0,0,1,.469.369q6.231,6.225,12.459,12.453a4.727,4.727,0,0,1,.167,6.5h0A4.728,4.728,0,0,1,4714.1,572.934Z" transform="translate(-4564.178 -434.036)" fill="#f0f5fc"/>
      <path id="Path_35355" data-name="Path 35355" d="M4275.149,147.238v45.955a4.983,4.983,0,0,1-.815,1.016,1.7,1.7,0,0,1-2.3-.4q-4.587-4.592-9.163-9.2a1.246,1.246,0,0,0-.974-.407q-16.321.016-32.643,0a11.07,11.07,0,0,1-1.54-.1,8.479,8.479,0,0,1-7.282-8.32c-.015-9.207-.042-18.414.015-27.621a8.107,8.107,0,0,1,4.757-7.518,17.617,17.617,0,0,1,2.7-.894h39.756a1.049,1.049,0,0,0,.235.1,8.285,8.285,0,0,1,6.352,4.676A19,19,0,0,1,4275.149,147.238Zm-3.959,40.878v-.5q0-19.321-.007-38.642a5.5,5.5,0,0,0-.173-1.442,5,5,0,0,0-5.166-3.842q-18.042,0-36.084.006a5.822,5.822,0,0,0-1.544.182,4.948,4.948,0,0,0-3.821,5.02q-.022,13.185,0,26.371a5.088,5.088,0,0,0,.985,3.125,5.155,5.155,0,0,0,4.4,2.068q16.37,0,32.741-.009a2.293,2.293,0,0,1,1.76.725c1.6,1.628,3.214,3.235,4.825,4.85C4269.764,186.688,4270.426,187.35,4271.19,188.116Z" transform="translate(-4220.417 -138.291)" fill="#044365"/>
      <path id="Path_35356" data-name="Path 35356" d="M4309.961,413.211a3.058,3.058,0,1,1-3.048-3.067A3.049,3.049,0,0,1,4309.961,413.211Z" transform="translate(-4299.55 -339.382)" fill="#babec1"/>
      <path id="Path_35368" data-name="Path 35368" d="M4309.961,413.211a3.058,3.058,0,1,1-3.048-3.067A3.049,3.049,0,0,1,4309.961,413.211Z" transform="translate(-4194.239 -263.901)" fill="#babec1"/>
      <path id="Path_35357" data-name="Path 35357" d="M4354.06,413.24a3.058,3.058,0,1,1-3.02-3.1A3.052,3.052,0,0,1,4354.06,413.24Z" transform="translate(-4332.939 -339.382)" fill="#babec1"/>
      <path id="Path_35367" data-name="Path 35367" d="M4354.06,413.24a3.058,3.058,0,1,1-3.02-3.1A3.052,3.052,0,0,1,4354.06,413.24Z" transform="translate(-4227.629 -263.901)" fill="#babec1"/>
      <path id="Path_35358" data-name="Path 35358" d="M4398.156,413.233a3.058,3.058,0,1,1-3.027-3.089A3.052,3.052,0,0,1,4398.156,413.233Z" transform="translate(-4366.33 -339.382)" fill="#babec1"/>
      <path id="Path_35366" data-name="Path 35366" d="M4398.156,413.233a3.058,3.058,0,1,1-3.027-3.089A3.052,3.052,0,0,1,4398.156,413.233Z" transform="translate(-4261.02 -263.901)" fill="#babec1"/>
      <path id="Path_35359" data-name="Path 35359" d="M4263.546,517.684V479.165c.018-.023.049-.043.053-.068a4.46,4.46,0,0,1,4.624-3.624c7.428.052,14.856.024,22.284.01a1.978,1.978,0,0,1,1.505.629q4.069,4.1,8.164,8.167a1.983,1.983,0,0,1,.626,1.507q-.018,15.512-.009,31.024c0,.149,0,.3-.006.447a4.32,4.32,0,0,1-1.483,3.048,5.44,5.44,0,0,1-2.181,1.05h-29.906a1.123,1.123,0,0,0-.2-.081,4.37,4.37,0,0,1-2.482-1.478A5.538,5.538,0,0,1,4263.546,517.684Zm25.788-39.325h-.395q-10.43,0-20.86,0c-1.117,0-1.668.58-1.668,1.741q0,18.317,0,36.633c0,1.21.542,1.756,1.744,1.756h28.022c1.207,0,1.751-.543,1.751-1.748q0-14.644,0-29.289v-.5c-1.9,0-3.73,0-5.564,0a2.854,2.854,0,0,1-3.031-3.02C4289.331,482.1,4289.333,480.266,4289.333,478.358Z" transform="translate(-4251.251 -378.306)" fill="#6e7183"/>
      <path id="Path_35360" data-name="Path 35360" d="M4309.488,548.863h-25.712v-2.827h25.712Z" transform="translate(-4265.714 -428.753)" fill="#6e7183"/>
      <path id="Path_35361" data-name="Path 35361" d="M4283.717,573.963v-2.808h25.744v2.808Z" transform="translate(-4265.672 -446.712)" fill="#6e7183"/>
      <path id="Path_35362" data-name="Path 35362" d="M4303.774,596.315v2.812h-20v-2.812Z" transform="translate(-4265.715 -464.699)" fill="#6e7183"/>
      <path id="Path_35363" data-name="Path 35363" d="M4364.169,596.277h2.809v2.81h-2.809Z" transform="translate(-4323.19 -464.672)" fill="#6e7183"/>
      <path id="Path_35364" data-name="Path 35364" d="M4280.33,197.2v-.512q0-19.766-.007-39.533a5.606,5.606,0,0,0-.178-1.475,5.12,5.12,0,0,0-5.285-3.931q-18.458,0-36.915.006a5.949,5.949,0,0,0-1.58.186,5.06,5.06,0,0,0-3.908,5.135q-.022,13.489,0,26.978a5.2,5.2,0,0,0,1.008,3.2,5.273,5.273,0,0,0,4.5,2.115q16.748,0,33.5-.009a2.346,2.346,0,0,1,1.8.741c1.633,1.665,3.289,3.309,4.936,4.961C4278.87,195.741,4279.548,196.418,4280.33,197.2Z" transform="translate(-4229.018 -146.865)" fill="#fff"/>
      <path id="Path_35365" data-name="Path 35365" d="M4293.708,189.2l7.574-7.574a2.145,2.145,0,0,0-3.034-3.034l-7.574,7.574-7.573-7.574a2.145,2.145,0,0,0-3.034,3.034l7.574,7.574-7.574,7.574a2.145,2.145,0,0,0,3.034,3.033l7.573-7.574,7.574,7.574a2.145,2.145,0,0,0,3.034-3.033Z" transform="translate(-4262.613 -165.606)" fill="#dd194f"/>
    </g>
  </g>
</svg>
