<svg width="17" height="16" viewBox="0 0 17 16" fill="none" xmlns="http://www.w3.org/2000/svg">
<g clip-path="url(#clip0_3020_3199)">
<path d="M8.76462 0.000150336C7.16082 -0.011143 5.61804 0.614247 4.4748 1.7391C3.33155 2.86395 2.68122 4.39638 2.6665 6.00015C2.6665 10.1603 8.17121 15.6226 8.40434 15.8542C8.50073 15.9478 8.62984 16.0002 8.76423 16.0002C8.89862 16.0002 9.02772 15.9478 9.12412 15.8542C9.35959 15.6234 14.862 10.1595 14.862 6.00015C14.8472 4.39652 14.197 2.8642 13.0539 1.73938C11.9109 0.614548 10.3683 -0.0109342 8.76462 0.000150336ZM8.76462 14.7772C7.55112 13.4994 3.68299 9.17754 3.68299 6.00015C3.7064 4.66789 4.25209 3.3981 5.20253 2.46422C6.15297 1.53033 7.43215 1.00705 8.76462 1.00705C10.0971 1.00705 11.3763 1.53033 12.3267 2.46422C13.2772 3.3981 13.8228 4.66789 13.8463 6.00015C13.8463 9.17362 9.97812 13.5009 8.76462 14.7772Z" fill="#25D0BD"/>
<path d="M8.76476 2.43652C7.98559 2.43652 7.22391 2.66758 6.57605 3.10046C5.9282 3.53334 5.42326 4.14862 5.12508 4.86848C4.8269 5.58834 4.74888 6.38046 4.90089 7.14466C5.0529 7.90886 5.42811 8.61082 5.97907 9.16177C6.53003 9.71273 7.23199 10.0879 7.99619 10.2399C8.76039 10.392 9.5525 10.3139 10.2724 10.0158C10.9922 9.71759 11.6075 9.21264 12.0404 8.56478C12.4733 7.91693 12.7043 7.15525 12.7043 6.37608C12.7031 5.33163 12.2876 4.33031 11.5491 3.59177C10.8105 2.85323 9.80921 2.43777 8.76476 2.43652ZM8.76476 9.00246C8.24531 9.00246 7.73753 8.84842 7.30563 8.55983C6.87372 8.27124 6.53709 7.86106 6.33831 7.38116C6.13953 6.90125 6.08751 6.37317 6.18885 5.8637C6.29019 5.35424 6.54032 4.88626 6.90763 4.51896C7.27493 4.15165 7.74291 3.90151 8.25238 3.80017C8.76184 3.69883 9.28992 3.75084 9.76982 3.94963C10.2497 4.14841 10.6599 4.48505 10.9485 4.91695C11.2371 5.34886 11.3911 5.85663 11.3911 6.37608C11.3905 7.07245 11.1136 7.74012 10.6212 8.23252C10.1288 8.72493 9.46112 9.00183 8.76476 9.00246Z" fill="#25D0BD"/>
</g>
<defs>
<clipPath id="clip0_3020_3199">
<rect width="16" height="16" fill="white" transform="translate(0.666504)"/>
</clipPath>
</defs>
</svg>
