<svg width="12" height="12" viewBox="0 0 12 12" fill="none" xmlns="http://www.w3.org/2000/svg">
<g id="Icons- 24 x 24" clip-path="url(#clip0_348_3088)">
<path id="Vector" d="M10.828 2.70951L7.4875 0.455014C7.04876 0.15678 6.53051 -0.00268555 6 -0.00268555C5.4695 -0.00268555 4.95124 0.15678 4.5125 0.455014L1.172 2.70901C0.810869 2.9522 0.515086 3.28048 0.310707 3.66491C0.106328 4.04934 -0.000374168 4.47813 9.85841e-07 4.91351V9.34101C0.000795017 10.046 0.281194 10.7218 0.779681 11.2203C1.27817 11.7188 1.95403 11.9992 2.659 12H9.341C10.046 11.9992 10.7218 11.7188 11.2203 11.2203C11.7188 10.7218 11.9992 10.046 12 9.34101V4.91351C12.0004 4.47819 11.8937 4.04945 11.6894 3.66509C11.485 3.28073 11.1892 2.95256 10.828 2.70951ZM10.5 9.34101C10.4996 9.64828 10.3774 9.94284 10.1601 10.1601C9.94283 10.3774 9.64827 10.4996 9.341 10.5H2.659C2.35174 10.4996 2.05717 10.3774 1.8399 10.1601C1.62263 9.94284 1.5004 9.64828 1.5 9.34101V4.91351C1.49989 4.72377 1.54638 4.53691 1.6354 4.36935C1.72441 4.20178 1.85322 4.05864 2.0105 3.95251L5.35 1.70001C5.54132 1.57035 5.76713 1.50105 5.99825 1.50105C6.22937 1.50105 6.45518 1.57035 6.6465 1.70001L9.9875 3.95501C10.1449 4.06059 10.2739 4.20321 10.3633 4.37034C10.4527 4.53747 10.4996 4.72399 10.5 4.91351V9.34101ZM6 4.00001C5.50558 4.00002 5.02227 4.14663 4.61117 4.4213C4.20007 4.69597 3.87964 5.08638 3.6904 5.54315C3.50117 5.99992 3.45162 6.50254 3.54802 6.98747C3.64442 7.4724 3.88245 7.91785 4.232 8.26751L5.5565 9.56301C5.67505 9.67888 5.83423 9.74375 6 9.74375C6.16577 9.74375 6.32495 9.67888 6.4435 9.56301L7.7675 8.26751C8.11703 7.91788 8.35504 7.47248 8.45146 6.98759C8.54788 6.50271 8.49837 6.00013 8.3092 5.54338C8.12002 5.08663 7.79967 4.69622 7.38865 4.42151C6.97762 4.1468 6.49438 4.00012 6 4.00001ZM6 7.27701C5.85167 7.27701 5.70666 7.23303 5.58332 7.15062C5.45999 7.0682 5.36386 6.95107 5.30709 6.81403C5.25033 6.67698 5.23547 6.52618 5.26441 6.3807C5.29335 6.23521 5.36478 6.10157 5.46967 5.99668C5.57456 5.89179 5.7082 5.82036 5.85368 5.79142C5.99917 5.76249 6.14997 5.77734 6.28701 5.8341C6.42406 5.89087 6.54119 5.987 6.6236 6.11034C6.70602 6.23367 6.75 6.37868 6.75 6.52701C6.75 6.72593 6.67098 6.91669 6.53033 7.05734C6.38968 7.198 6.19891 7.27701 6 7.27701Z" fill="white"/>
</g>
<defs>
<clipPath id="clip0_348_3088">
<rect width="12" height="12" fill="white"/>
</clipPath>
</defs>
</svg>
