<svg width="72" height="72" viewBox="0 0 72 72" fill="none" xmlns="http://www.w3.org/2000/svg">
<g clip-path="url(#clip0_153_6959)">
<path d="M44.628 8.01606C43.761 6.49235 42.5059 5.22542 40.9904 4.34411C39.4749 3.4628 37.7531 2.99854 36 2.99854C34.2469 2.99854 32.525 3.4628 31.0095 4.34411C29.4941 5.22542 28.239 6.49235 27.372 8.01606L1.24199 54.5701C0.41224 56.031 -0.0167146 57.6852 -0.00143676 59.3653C0.0138411 61.0453 0.472809 62.6915 1.32899 64.1371C2.19774 65.6285 3.44527 66.8638 4.94517 67.7178C6.44507 68.5718 8.14406 69.0141 9.86999 69.0001H62.13C63.8559 69.0141 65.5549 68.5718 67.0548 67.7178C68.5547 66.8638 69.8022 65.6285 70.671 64.1371C71.5272 62.6915 71.9861 61.0453 72.0014 59.3653C72.0167 57.6852 71.5877 56.031 70.758 54.5701L44.628 8.01606ZM36 57.0001C35.4066 57.0001 34.8266 56.8241 34.3333 56.4945C33.8399 56.1648 33.4554 55.6963 33.2283 55.1481C33.0013 54.5999 32.9419 53.9967 33.0576 53.4148C33.1734 52.8328 33.4591 52.2983 33.8787 51.8787C34.2982 51.4592 34.8328 51.1735 35.4147 51.0577C35.9967 50.9419 36.5999 51.0014 37.148 51.2284C37.6962 51.4555 38.1647 51.84 38.4944 52.3334C38.824 52.8267 39 53.4067 39 54.0001C39 54.7957 38.6839 55.5588 38.1213 56.1214C37.5587 56.684 36.7956 57.0001 36 57.0001ZM39 42.0001C39 42.7957 38.6839 43.5588 38.1213 44.1214C37.5587 44.684 36.7956 45.0001 36 45.0001C35.2043 45.0001 34.4413 44.684 33.8787 44.1214C33.3161 43.5588 33 42.7957 33 42.0001V24.0001C33 23.2044 33.3161 22.4413 33.8787 21.8787C34.4413 21.3161 35.2043 21.0001 36 21.0001C36.7956 21.0001 37.5587 21.3161 38.1213 21.8787C38.6839 22.4413 39 23.2044 39 24.0001V42.0001Z" fill="#FFB35B"/>
</g>
<defs>
<clipPath id="clip0_153_6959">
<rect width="72" height="72" fill="white"/>
</clipPath>
</defs>
</svg>
