<svg width="16" height="16" viewBox="0 0 16 16" fill="none" xmlns="http://www.w3.org/2000/svg">
    <g id="Icons- 24 x 24" clip-path="url(#clip0_1787_2762)">
        <path id="Vector" d="M12.6667 2.00015H8.31467C8.212 2.00015 8.108 1.97615 8.01667 1.93015L5.91267 0.878147C5.636 0.740147 5.32733 0.667481 5.01867 0.667481H3.33333C1.49533 0.666814 0 2.16215 0 4.00015V12.0001C0 13.8381 1.49533 15.3335 3.33333 15.3335H4C4.368 15.3335 4.66667 15.0355 4.66667 14.6668C4.66667 14.2981 4.368 14.0001 4 14.0001H3.33333C2.23067 14.0001 1.33333 13.1028 1.33333 12.0001V6.00015H14.6667V12.0001C14.6667 13.1028 13.7693 14.0001 12.6667 14.0001H12C11.6313 14.0001 11.3333 14.2981 11.3333 14.6668C11.3333 15.0355 11.6313 15.3335 12 15.3335H12.6667C14.5047 15.3335 16 13.8381 16 12.0001V5.33348C16 3.49548 14.5047 2.00015 12.6667 2.00015ZM1.33333 4.00015C1.33333 2.89748 2.23067 2.00015 3.33333 2.00015H5.01867C5.12133 2.00015 5.22533 2.02415 5.31667 2.07015L7.42067 3.12215C7.69733 3.26015 8.006 3.33281 8.31467 3.33281H12.6667C13.5347 3.33281 14.268 3.89215 14.544 4.66615H1.33333V4.00015ZM10.4713 12.7368C10.732 12.9975 10.732 13.4188 10.4713 13.6795L9.396 14.7548C9.01133 15.1395 8.506 15.3315 8 15.3315C7.494 15.3315 6.98933 15.1395 6.60467 14.7548L5.52867 13.6795C5.268 13.4188 5.268 12.9975 5.52867 12.7368C5.78933 12.4761 6.21067 12.4761 6.47133 12.7368L7.33333 13.5988V8.66681C7.33333 8.29815 7.632 8.00015 8 8.00015C8.368 8.00015 8.66667 8.29815 8.66667 8.66681V13.5988L9.52867 12.7368C9.78933 12.4761 10.2107 12.4761 10.4713 12.7368Z" fill="#4B4863"/>
    </g>
    <defs>
        <clipPath id="clip0_1787_2762">
            <rect width="16" height="16" fill="white"/>
        </clipPath>
    </defs>
</svg>
