<svg id="Icon-AskDr" xmlns="http://www.w3.org/2000/svg" width="31.601" height="41.141" viewBox="0 0 31.601 41.141">
  <path id="XMLID_9_" d="M78.054,328.411H77.54a5.94,5.94,0,0,1,0-11.879h4.028V312.7h2.417v3.831H92.8a4.788,4.788,0,0,0,4.765-3.557l2.34.6a7.173,7.173,0,0,1-7.114,5.383h-8.8v3.523a5.946,5.946,0,0,1-5.94,5.931Zm-.506-9.454a3.523,3.523,0,0,0,0,7.045h.514a3.528,3.528,0,0,0,3.523-3.523v-3.523Z" transform="translate(-71.6 -287.27)" fill="#032e42"/>
  <path id="XMLID_8_" d="M216.336,312.974a4.788,4.788,0,0,1-4.765,3.557H202.76V312.7H201.5v13.422a5.924,5.924,0,0,0,1.26-3.651v-3.523h8.811a7.173,7.173,0,0,0,7.114-5.383Z" transform="translate(-190.366 -287.27)" fill="#032e42"/>
  <ellipse id="XMLID_7_" cx="3.008" cy="3.008" rx="3.008" ry="3.008" transform="translate(24.376 19.996)" fill="#032e42"/>
  <path id="XMLID_6_" d="M346.117,243.634a4.217,4.217,0,1,1,4.217-4.217A4.225,4.225,0,0,1,346.117,243.634Zm0-6.017a1.8,1.8,0,1,0,1.8,1.8,1.8,1.8,0,0,0-1.8-1.8Z" transform="translate(-318.733 -216.412)" fill="#25d0bd"/>
  <path id="XMLID_5_" d="M86.3,56.81a10.809,10.809,0,0,1-10.8-10.8V35.383A3.885,3.885,0,0,1,79.383,31.5h1.174v2.417H79.383a1.471,1.471,0,0,0-1.466,1.466V46.019a8.382,8.382,0,1,0,16.765,0V35.528a1.47,1.47,0,0,0-1.466-1.466H92.025V31.646h1.191A3.885,3.885,0,0,1,97.1,35.528V46.019A10.813,10.813,0,0,1,86.3,56.81Z" transform="translate(-75.166 -30.172)" fill="#25d0bd"/>
  <path id="XMLID_3_" d="M219.237,16a2.537,2.537,0,0,0,0,5.074h2.486V16Z" transform="translate(-204.264 -16)" fill="#032e42"/>
  <path id="XMLID_2_" d="M129.786,16H127.3v5.074h2.486a2.537,2.537,0,1,0,0-5.074Z" transform="translate(-122.526 -16)" fill="#032e42"/>
</svg>
