<svg xmlns="http://www.w3.org/2000/svg" width="41.144" height="41.149" viewBox="0 0 41.144 41.149">
  <g id="Icon-AskPharm" transform="translate(0 0)">
    <path id="Path_1058" data-name="Path 1058" d="M116.95,48.684c19.336-14.108,11.434-22.045,11.434-22.045A6.584,6.584,0,0,0,123.1,24a9.7,9.7,0,0,0-6.154,2.648A9.665,9.665,0,0,0,110.8,24a6.588,6.588,0,0,0-5.271,2.648C105.525,26.64,97.614,34.577,116.95,48.684Z" transform="translate(-96.38 -23.306)" fill="#25d0bd"/>
    <path id="Path_1059" data-name="Path 1059" d="M88.14,318.11A8.894,8.894,0,0,1,96.608,317l-.017-.009a6.866,6.866,0,0,0-8.914-.129L86.1,318.05l.24,1.286Z" transform="translate(-80.083 -289.62)" fill="#f7ecdf"/>
    <path id="Path_1060" data-name="Path 1060" d="M32.317,317.251,27,318.4l-3.1-14.751,5.323-1.149Z" transform="translate(-23.214 -277.936)" fill="#25d0bd"/>
    <path id="Path_1061" data-name="Path 1061" d="M56.74,293.3l-.009-.017a3.263,3.263,0,0,0-4.191-1.114l-4.4,2.246a3.788,3.788,0,0,0-4.8-1.174l-5.537,2.837a2.026,2.026,0,0,1-1.868-.009l-3.771-2.006a8.753,8.753,0,0,0-9.145.557l-.429-2.031a.692.692,0,0,0-.814-.531h0L16.465,293.2a.686.686,0,0,0-.523.814l3.094,14.751a.687.687,0,0,0,.669.549.844.844,0,0,0,.146-.017l5.323-1.148a.686.686,0,0,0,.523-.814l-.274-1.32,1.817-.394a4.627,4.627,0,0,1,1.611-.06l8.545.934a7.332,7.332,0,0,0,5.057-1.191l13.7-9.188a2.04,2.04,0,0,0,.591-2.82Zm-36.5,14.519L17.425,294.4l3.977-.857,2.811,13.4Zm35.158-12.822-13.7,9.188a5.974,5.974,0,0,1-4.131.96l-8.545-.934a5.776,5.776,0,0,0-2.066.086l-1.808.386-1.808-8.6.471-.326a7.4,7.4,0,0,1,7.731-.48l3.771,2.006a3.357,3.357,0,0,0,3.137.017l5.537-2.837a2.428,2.428,0,0,1,3.206.943.7.7,0,0,1-.24.943l-7.628,4.525a6.052,6.052,0,0,1-4.44.7L28,299.931l-.317,1.337,6.891,1.646a7.4,7.4,0,0,0,5.451-.857l7.628-4.525a2.053,2.053,0,0,0,.994-1.817l4.534-2.314a1.891,1.891,0,0,1,2.417.634l.009.009a.729.729,0,0,1-.214.951Z" transform="translate(-15.925 -268.168)" fill="#032e42"/>
    <path id="Path_1062" data-name="Path 1062" d="M52.2,331.383l1.346-.283.283,1.337-1.346.283Z" transform="translate(-49.089 -304.084)" fill="#032e42"/>
    <path id="Path_1063" data-name="Path 1063" d="M109.006,41.827a.7.7,0,0,0,.806,0c6.882-5.023,11.117-9.805,12.651-14.271h3.523a2.055,2.055,0,1,0,0-1.371H122.84a10.38,10.38,0,0,0,.24-1.534,7.788,7.788,0,0,0-1.723-5.854,7.258,7.258,0,0,0-5.8-2.9,10.051,10.051,0,0,0-6.154,2.408,10.005,10.005,0,0,0-6.137-2.4,7.262,7.262,0,0,0-5.811,2.9A7.778,7.778,0,0,0,95.73,24.66c.411,5.263,4.885,11.048,13.276,17.168Zm18.916-15.633a.686.686,0,1,1-.686.686A.688.688,0,0,1,127.922,26.194Zm-29.45-6.471a.907.907,0,0,0,.086-.1,5.894,5.894,0,0,1,4.705-2.34,9.048,9.048,0,0,1,5.665,2.443.688.688,0,0,0,.969,0h0a8.99,8.99,0,0,1,5.665-2.443,5.846,5.846,0,0,1,4.705,2.34.907.907,0,0,0,.086.1,6.368,6.368,0,0,1,1.371,4.825,8.933,8.933,0,0,1-.283,1.646h-5.468l-2.546-4.457a.687.687,0,0,0-1.234.086L108.8,30.308l-2.168-7.062a.688.688,0,0,0-.857-.454.676.676,0,0,0-.386.3l-1.851,3.1H99.124v1.371h4.8a.7.7,0,0,0,.591-.334l1.26-2.108,2.288,7.44a.68.68,0,0,0,.626.48h.034a.681.681,0,0,0,.634-.429l3.583-8.965,2.04,3.566a.689.689,0,0,0,.591.351h5.417C119.72,30.8,116.566,35.133,109.4,40.43c-9.659-7.148-12.034-12.539-12.308-15.822a6.39,6.39,0,0,1,1.38-4.885Z" transform="translate(-88.839 -15.9)" fill="#032e42"/>
    <path id="Path_1064" data-name="Path 1064" d="M15.9,136h5.485v1.371H15.9Z" transform="translate(-15.9 -125.706)" fill="#032e42"/>
  </g>
</svg>
