<svg width="16" height="16" viewBox="0 0 16 16" fill="none" xmlns="http://www.w3.org/2000/svg">
<path fill-rule="evenodd" clip-rule="evenodd" d="M6.52393 9.38567L6.61433 9.47607C8.17094 10.9831 9.47366 11.6909 10.5225 11.5993L10.8247 11.3174C11.2546 10.9262 11.5787 10.6783 11.7971 10.5735C12.2518 10.3554 12.5709 10.3598 13.4326 10.8261C14.5663 11.4394 15.349 12.1524 15.749 12.5524C16.1204 12.9238 16.005 13.5636 15.8746 13.8474L15.7882 14.0058C15.5561 14.409 14.7145 15.7391 13.1015 15.9666C12.4885 16.0531 11.7147 15.9738 10.8075 15.7006C8.86396 15.0277 6.92856 13.7945 5.00127 12.001L4.65851 11.6754L4.65528 11.6786L4.48987 11.5103L4.32138 11.3447L4.32462 11.3415L3.999 10.9987C2.20546 9.07144 0.972265 7.13604 0.29942 5.19254C0.0261612 4.28526 -0.0531292 3.51146 0.0333537 2.89847C0.277023 1.17136 1.78481 0.328631 2.06519 0.171628L2.09366 0.155559C2.33634 0.0156155 3.04762 -0.148971 3.44759 0.251002L3.63697 0.445762C4.04925 0.881779 4.64819 1.59567 5.17395 2.56737C5.64021 3.4291 5.64456 3.74818 5.42649 4.20286C5.29847 4.4698 4.95652 4.89469 4.40066 5.47752C4.30914 6.52634 5.0169 7.82906 6.52393 9.38567Z" fill="#08293B"/>
</svg>
