<svg width="24" height="24" viewBox="0 0 24 24" fill="none" xmlns="http://www.w3.org/2000/svg">
<path d="M23 3.75C15.927 3.75 11.9615 3.75 4.8885 3.75L4.85 3.42825C4.77121 2.75947 4.44977 2.14284 3.94662 1.69527C3.44346 1.2477 2.79358 1.00031 2.12017 1L1 1V2.83333H2.12017C2.34469 2.83336 2.56139 2.91579 2.72917 3.06499C2.89696 3.21418 3.00415 3.41977 3.03042 3.64275L4.48333 15.9884C4.56212 16.6572 4.88356 17.2738 5.38672 17.7214C5.88987 18.169 6.53976 18.4164 7.21317 18.4167H19.3333V16.5833H7.21317C6.9885 16.5833 6.77168 16.5007 6.60388 16.3513C6.43608 16.202 6.32898 15.9961 6.30292 15.773L6.18283 14.75H21.0163L23 3.75ZM19.4837 12.9167H5.96742L5.10483 5.58333H20.8064L19.4837 12.9167Z" fill="black"/>
<path d="M7.41732 23.0002C8.42984 23.0002 9.25065 22.1794 9.25065 21.1668C9.25065 20.1543 8.42984 19.3335 7.41732 19.3335C6.4048 19.3335 5.58398 20.1543 5.58398 21.1668C5.58398 22.1794 6.4048 23.0002 7.41732 23.0002Z" fill="black"/>
<path d="M16.5833 23C17.5959 23 18.4167 22.1792 18.4167 21.1667C18.4167 20.1542 17.5959 19.3334 16.5833 19.3334C15.5708 19.3334 14.75 20.1542 14.75 21.1667C14.75 22.1792 15.5708 23 16.5833 23Z" fill="black"/>
</svg>
