<svg xmlns="http://www.w3.org/2000/svg" width="25.4" height="20.557" viewBox="0 0 25.4 20.557">
  <g id="shopping-cart" transform="translate(0.15)">
    <g id="Icon-Carts" transform="translate(0 0.593)">
      <path id="Path_1035" data-name="Path 1035" d="M7.335,13.543h12.1a.669.669,0,0,0,.641-.491l2.668-9.48a.686.686,0,0,0-.109-.594.664.664,0,0,0-.533-.269H5.8L5.32.53A.669.669,0,0,0,4.669,0h-4A.672.672,0,0,0,0,.677a.672.672,0,0,0,.667.677H4.134l2.408,11a2.036,2.036,0,0,0,.795,3.9H19.432a.677.677,0,0,0,0-1.354H7.337a.677.677,0,0,1,0-1.354Zm13.88-9.48-2.287,8.126H7.872L6.093,4.063Zm0,0" fill="#fff" stroke="#fff" stroke-width="0.3"/>
      <path id="Path_1036" data-name="Path 1036" d="M150,361.781A1.781,1.781,0,1,0,151.781,360,1.783,1.783,0,0,0,150,361.781Zm1.781-.594a.594.594,0,1,1-.594.594A.595.595,0,0,1,151.781,361.188Zm0,0" transform="translate(-143.174 -343.749)" fill="#fff" stroke="#fff" stroke-width="0.3"/>
      <path id="Path_1037" data-name="Path 1037" d="M362,361.781A1.781,1.781,0,1,0,363.781,360,1.783,1.783,0,0,0,362,361.781Zm1.781-.594a.594.594,0,1,1-.594.594A.595.595,0,0,1,363.781,361.188Zm0,0" transform="translate(-345.172 -343.749)" fill="#fff" stroke="#fff" stroke-width="0.3"/>
    </g>
  </g>
</svg>
