<svg width="20" height="14" viewBox="0 0 20 14" fill="none" xmlns="http://www.w3.org/2000/svg">
<path d="M13.3333 4.91648C13.3333 5.60648 12.7733 6.16648 12.0833 6.16648C11.3933 6.16648 10.8333 5.60648 10.8333 4.91648C10.8333 4.22648 11.3933 3.66648 12.0833 3.66648C12.7733 3.66648 13.3333 4.22648 13.3333 4.91648ZM12.0833 7.83315C11.3933 7.83315 10.8333 8.39315 10.8333 9.08315C10.8333 9.77315 11.3933 10.3332 12.0833 10.3332C12.7733 10.3332 13.3333 9.77315 13.3333 9.08315C13.3333 8.39315 12.7733 7.83315 12.0833 7.83315ZM19.1667 11.9998H11.6667C10.3525 11.9998 9.28417 10.9773 9.18583 9.68898L9.3625 9.49648C10.2817 8.47149 10.195 6.88898 9.16917 5.97065C9.16917 5.97065 9.1675 5.96982 9.16667 5.96898V4.50065C9.16667 3.12232 10.2883 2.00065 11.6667 2.00065H19.1667C19.6267 2.00065 20 1.62732 20 1.16732C20 0.707318 19.6267 0.333984 19.1667 0.333984H11.6667C10.3108 0.333984 9.11583 0.994818 8.355 2.00065H5.14417C3.7825 2.00065 2.45583 2.48065 1.41 3.35315L0.300833 4.27732C-0.0525 4.57232 -0.1 5.09732 0.194167 5.45065C0.359167 5.64815 0.595833 5.75065 0.835 5.75065C1.02333 5.75065 1.2125 5.68732 1.36833 5.55732L2.4775 4.63315C3.225 4.00982 4.1725 3.66732 5.145 3.66732H7.58583C7.53083 3.93648 7.50167 4.21565 7.50167 4.50065V5.34648C6.92417 5.35065 6.34083 5.54982 5.85833 5.95565L3.59083 8.13565C3.25917 8.45482 3.24833 8.98232 3.5675 9.31398C3.88667 9.64649 4.415 9.65648 4.74583 9.33732L6.97167 7.19565C7.28583 6.93232 7.75333 6.93982 8.05917 7.21315C8.4 7.51898 8.42917 8.04482 8.13083 8.37732L5.78667 10.9257C5.1575 11.6098 4.26333 12.0023 3.33333 12.0023H0.833333C0.373333 12.0023 0 12.3757 0 12.8357C0 13.2957 0.373333 13.669 0.833333 13.669H3.33167C4.72583 13.669 6.0675 13.0807 7.01167 12.054L7.84333 11.1498C8.48333 12.629 9.955 13.6682 11.6667 13.6682H19.1667C19.6267 13.6682 20 13.2948 20 12.8348C20 12.3748 19.6267 12.0015 19.1667 12.0015V11.9998ZM18.3333 5.33315C18.5067 5.33315 18.6883 5.36815 18.8892 5.43815C19.3242 5.59148 19.7992 5.36482 19.9525 4.93065C20.1058 4.49648 19.8792 4.02065 19.445 3.86732C17.1508 3.05398 15.0008 4.79565 15.0008 6.99982C15.0008 8.83815 16.4958 10.3332 18.3342 10.3332C18.7 10.3332 19.0642 10.2673 19.445 10.1323C19.8792 9.97815 20.1058 9.50232 19.9525 9.06898C19.7983 8.63482 19.32 8.40648 18.8892 8.56148C18.6892 8.63232 18.5075 8.66648 18.3333 8.66648C17.4142 8.66648 16.6667 7.91898 16.6667 6.99982C16.6667 6.08065 17.4142 5.33315 18.3333 5.33315Z" fill="#08293B"/>
</svg>
