<svg width="7" height="9" viewBox="0 0 7 9" fill="none" xmlns="http://www.w3.org/2000/svg">
<path d="M5.35308 1.52212C5.54839 1.30239 5.54839 0.945557 5.35308 0.72583C5.15776 0.506104 4.84058 0.506104 4.64526 0.72583L2.49995 3.14106L1.60308 2.13208C1.40776 1.91235 1.09058 1.91235 0.895264 2.13208C0.699951 2.35181 0.699951 2.70864 0.895264 2.92837L2.14526 4.33462C2.34058 4.55435 2.65776 4.55435 2.85308 4.33462L5.35308 1.52212ZM6.85308 3.77212C7.04839 3.55239 7.04839 3.19556 6.85308 2.97583C6.65776 2.7561 6.34058 2.7561 6.14526 2.97583L2.49995 7.07856L0.853076 5.22759C0.657764 5.00786 0.340576 5.00786 0.145264 5.22759C-0.0500488 5.44731 -0.0500488 5.80415 0.145264 6.02388L2.14526 8.27388C2.34058 8.4936 2.65776 8.4936 2.85308 8.27388L6.85308 3.77388V3.77212Z" fill="#F6BE5C"/>
</svg>
