<svg id="Icon-covid19" xmlns="http://www.w3.org/2000/svg" width="47.37" height="47.265" viewBox="0 0 47.37 47.265">
  <path id="Path_1868" data-name="Path 1868" d="M46.1,44.267,47.3,45.474a.7.7,0,1,0,.986-.986l-1.207-1.207a6.25,6.25,0,0,0,1.342-3.231h1.7a.7.7,0,1,0,0-1.394h-1.7a6.262,6.262,0,0,0-1.342-3.231l1.207-1.207a.7.7,0,1,0-.986-.986L46.1,34.439A6.271,6.271,0,0,0,42.866,33.1v-1.7a.7.7,0,1,0-1.394,0v1.7a6.263,6.263,0,0,0-3.231,1.343l-1.205-1.206a.7.7,0,1,0-.986.986l1.207,1.207a6.271,6.271,0,0,0-1.343,3.231h-1.7a.7.7,0,0,0,0,1.394h1.7a6.271,6.271,0,0,0,1.343,3.231l-1.207,1.207a.7.7,0,1,0,.988.986l1.207-1.207a6.271,6.271,0,0,0,3.231,1.343v1.7a.7.7,0,0,0,1.394,0v-1.7A6.265,6.265,0,0,0,46.1,44.267m-8.831-4.914a4.9,4.9,0,1,1,4.9,4.9,4.9,4.9,0,0,1-4.9-4.9" transform="translate(-33.513 -27.232)"/>
  <path id="Path_1869" data-name="Path 1869" d="M42.8,36.274a.854.854,0,1,1-.854.854.854.854,0,0,1,.854-.854" transform="translate(-33.513 -27.232)"/>
  <path id="Path_1870" data-name="Path 1870" d="M43.93,40.4a.855.855,0,1,0,.853.855h0a.854.854,0,0,0-.853-.854" transform="translate(-33.513 -27.232)"/>
  <path id="Path_1871" data-name="Path 1871" d="M73.654,56.826A2.364,2.364,0,0,0,71.4,58.494H69.3a8.584,8.584,0,0,0-2.03-4.9l1.491-1.491a2.32,2.32,0,1,0-.989-.97l-1.482,1.482a8.586,8.586,0,0,0-4.9-2.032V48.493a2.36,2.36,0,1,0-1.385,0v2.094a8.587,8.587,0,0,0-4.9,2.032l-1.482-1.482a2.428,2.428,0,1,0-.989.97L54.136,53.6a8.584,8.584,0,0,0-2.032,4.9H50.01a2.36,2.36,0,1,0,0,1.385H52.1a8.584,8.584,0,0,0,2.032,4.9l-1.491,1.491a2.341,2.341,0,1,0,.988.971l1.481-1.482a8.6,8.6,0,0,0,4.9,2.032V69.88a2.36,2.36,0,1,0,1.385,0V67.787a8.584,8.584,0,0,0,4.9-2.032l1.482,1.482a2.38,2.38,0,1,0,.988-.971l-1.488-1.491a8.584,8.584,0,0,0,2.03-4.9H71.4a2.36,2.36,0,1,0,2.255-3.053ZM69.171,49.34a.974.974,0,1,1-.286.69.974.974,0,0,1,.286-.69m-8.466-4.078a.976.976,0,1,1-.976.975.975.975,0,0,1,.976-.975m-9.847,5.457a.922.922,0,1,1,.009.01l-.009-.01m-3.1,9.443a.976.976,0,1,1,.975-.976h0a.977.977,0,0,1-.975.975m4.481,8.871a1,1,0,0,1-1.379,0,.975.975,0,1,1,1.379,0Zm8.469,4.078a.975.975,0,1,1,.975-.975.974.974,0,0,1-.975.975m9.156-5.743a.975.975,0,0,1,.69,1.665,1,1,0,0,1-1.379,0,.974.974,0,0,1,.69-1.662Zm-9.156-.936a7.245,7.245,0,1,1,7.244-7.247v0a7.253,7.253,0,0,1-7.244,7.245m12.949-6.27a.976.976,0,1,1,.975-.976h0A.976.976,0,0,1,73.654,60.162Z" transform="translate(-33.513 -27.232)" fill="#008b99"/>
  <path id="Path_1872" data-name="Path 1872" d="M64.215,57.272a1.143,1.143,0,1,0,1.142,1.143h0a1.142,1.142,0,0,0-1.142-1.142" transform="translate(-33.513 -27.232)" fill="#008b99"/>
  <path id="Path_1873" data-name="Path 1873" d="M57.193,59.182a1.143,1.143,0,1,0,1.142,1.142A1.142,1.142,0,0,0,57.193,59.182Z" transform="translate(-33.513 -27.232)" fill="#008b99"/>
  <path id="Path_1874" data-name="Path 1874" d="M59.481,54.843a.849.849,0,1,0,.848.85v0a.848.848,0,0,0-.848-.848" transform="translate(-33.513 -27.232)" fill="#008b99"/>
  <path id="Path_1875" data-name="Path 1875" d="M62.267,61.833a.848.848,0,1,0,.848.848.848.848,0,0,0-.848-.848" transform="translate(-33.513 -27.232)" fill="#008b99"/>
  <path id="Path_1876" data-name="Path 1876" d="M39.721,38.844a.854.854,0,1,1-.854.854.854.854,0,0,1,.854-.854" transform="translate(-33.513 -27.232)"/>
  <path id="Path_1877" data-name="Path 1877" d="M80.186,35.191h-1.7a6.271,6.271,0,0,0-1.343-3.231l1.207-1.2a.7.7,0,1,0-.986-.986l-1.207,1.207a6.263,6.263,0,0,0-3.231-1.343v-1.7a.7.7,0,0,0-1.394,0v1.7A6.262,6.262,0,0,0,68.3,30.974l-1.207-1.207a.7.7,0,1,0-.986.988l1.207,1.207a6.271,6.271,0,0,0-1.343,3.231h-1.7a.7.7,0,0,0,0,1.394h1.7a6.259,6.259,0,0,0,1.343,3.231l-1.207,1.207a.7.7,0,0,0,.986.985L68.3,40.8a6.261,6.261,0,0,0,3.231,1.344v1.7a.7.7,0,1,0,1.394,0v-1.7A6.271,6.271,0,0,0,76.155,40.8l1.207,1.207a.7.7,0,0,0,.986-.986l-1.207-1.207a6.271,6.271,0,0,0,1.343-3.231h1.7a.7.7,0,1,0,0-1.394m-7.959,5.6a4.9,4.9,0,1,1,4.9-4.9,4.9,4.9,0,0,1-4.9,4.9" transform="translate(-33.513 -27.232)"/>
  <path id="Path_1878" data-name="Path 1878" d="M71.469,34.208a.854.854,0,1,0-.855.854h0A.854.854,0,0,0,71.469,34.208Z" transform="translate(-33.513 -27.232)"/>
  <path id="Path_1879" data-name="Path 1879" d="M74.562,34.88a.854.854,0,1,0,.854.854.854.854,0,0,0-.854-.854" transform="translate(-33.513 -27.232)"/>
  <path id="Path_1880" data-name="Path 1880" d="M71.3,37.4a.854.854,0,1,0,.854.854A.853.853,0,0,0,71.3,37.4" transform="translate(-33.513 -27.232)"/>
</svg>
