<svg xmlns="http://www.w3.org/2000/svg" xmlns:xlink="http://www.w3.org/1999/xlink" width="19.407" height="19.419" viewBox="0 0 19.407 19.419">
  <defs>
    <clipPath id="clip-path">
      <rect id="Rectangle_2295" data-name="Rectangle 2295" width="19.407" height="19.419" transform="translate(0 0)" fill="#c1c7d0"/>
    </clipPath>
  </defs>
  <g id="Icon-date" transform="translate(0 0)">
    <g id="Group_3297" data-name="Group 3297" clip-path="url(#clip-path)">
      <path id="Path_3000" data-name="Path 3000" d="M18.685,11.809H15.03a3.024,3.024,0,0,0-3,3.008v3.157H3.006a1.568,1.568,0,0,1-1.56-1.56V4.548A1.567,1.567,0,0,1,3,2.987h.991v.807a.717.717,0,0,0,.224.5.642.642,0,0,0,.515.2.725.725,0,0,0,.711-.707V2.99h3.5V3.8a.715.715,0,0,0,.224.5.651.651,0,0,0,.516.2.723.723,0,0,0,.71-.707V2.993h3.539V3.8a.717.717,0,0,0,.229.493.743.743,0,0,0,.518.194.723.723,0,0,0,.7-.7V2.993H16.4a1.566,1.566,0,0,1,1.561,1.56v4.18a.722.722,0,0,0,.211.51l0,0a.721.721,0,0,0,1.23-.512V4.547a3.025,3.025,0,0,0-3-3.006H15.372V.736a.735.735,0,0,0-.733-.7h-.011a.723.723,0,0,0-.7.707v.793h-3.54v-.8a.705.705,0,0,0-.222-.5.722.722,0,0,0-1.219.51v.794h-3.5V.749a.728.728,0,0,0-.2-.524A.72.72,0,0,0,4.737,0a.663.663,0,0,0-.518.2.749.749,0,0,0-.224.54v.8h-.99A3.022,3.022,0,0,0,0,4.549v11.87a3.022,3.022,0,0,0,3.006,3h9.689a.771.771,0,0,0,.574-.222L19.2,13.034a.722.722,0,0,0-.519-1.225m-5.212,5.1V14.821a1.566,1.566,0,0,1,1.56-1.56h1.955Z" fill="#c1c7d0"/>
      <path id="Path_3001" data-name="Path 3001" d="M5.932,9.709H4.617a.877.877,0,0,1-.877-.877V7.517a.877.877,0,0,1,.877-.878H5.932a.877.877,0,0,1,.877.878V8.832a.877.877,0,0,1-.877.877" fill="#c1c7d0"/>
      <path id="Path_3002" data-name="Path 3002" d="M10.886,9.709H9.571a.877.877,0,0,1-.877-.877V7.517a.877.877,0,0,1,.877-.878h1.315a.877.877,0,0,1,.877.878V8.832a.877.877,0,0,1-.877.877" fill="#c1c7d0"/>
      <path id="Path_3003" data-name="Path 3003" d="M5.932,14.558H4.617a.877.877,0,0,1-.877-.877V12.366a.877.877,0,0,1,.877-.878H5.932a.877.877,0,0,1,.877.878v1.315a.877.877,0,0,1-.877.877" fill="#c1c7d0"/>
    </g>
  </g>
</svg>
