<svg width="123" height="30" viewBox="0 0 123 30" fill="none" xmlns="http://www.w3.org/2000/svg">
<path d="M41.1561 12.5223C42.1928 12.5124 43.2269 12.6283 44.2358 12.8674C45.0856 13.0639 45.8909 13.4187 46.6096 13.9131C47.2569 14.3705 47.7784 14.9838 48.1259 15.6961C48.4984 16.4922 48.6809 17.3639 48.6592 18.2425V25.2437C48.6792 25.7277 48.5169 26.2017 48.2043 26.5718C47.8941 26.9227 47.5307 27.2227 47.1272 27.4607C45.7747 28.2711 43.868 28.6772 41.407 28.6789C40.4031 28.6898 39.4012 28.5846 38.4215 28.3652C37.6132 28.1872 36.8419 27.8706 36.1418 27.4293C35.5236 27.0323 35.0176 26.4831 34.6725 25.8345C34.3156 25.1398 34.1377 24.367 34.1549 23.5862C34.1164 22.9739 34.2109 22.3606 34.4321 21.7883C34.6532 21.2161 34.9957 20.6985 35.4359 20.2712C36.2882 19.5026 37.611 19.0233 39.4045 18.8333L43.4985 18.3941V18.1745C43.513 17.9033 43.4447 17.6341 43.3028 17.4026C43.1609 17.171 42.952 16.988 42.7038 16.8778C41.9767 16.5801 41.193 16.4462 40.4084 16.4857C39.6311 16.4841 38.8561 16.5683 38.0973 16.7366C37.4026 16.8872 36.7221 17.0971 36.0633 17.3641C35.7643 17.1427 35.5282 16.8471 35.3784 16.5066C35.1928 16.1328 35.0962 15.7212 35.096 15.304C35.0717 14.8393 35.2104 14.3806 35.4882 14.0073C35.8137 13.6358 36.2272 13.3517 36.6908 13.1811C37.3815 12.9308 38.0993 12.7623 38.8293 12.6792C39.6008 12.578 40.3779 12.5256 41.1561 12.5223ZM41.407 24.8045C41.7998 24.8009 42.1916 24.7642 42.5783 24.6947C42.9106 24.6524 43.2328 24.5515 43.5299 24.3967V21.8973L41.2815 22.0856C40.7806 22.105 40.2899 22.2335 39.8437 22.462C39.6697 22.5475 39.5241 22.6812 39.424 22.8471C39.3238 23.0131 39.2735 23.2043 39.279 23.398C39.2748 23.5933 39.3166 23.787 39.4011 23.9632C39.4855 24.1394 39.6103 24.2933 39.7652 24.4123C40.255 24.7189 40.8316 24.8567 41.407 24.8045Z" fill="white"/>
<path d="M60.3442 27.7117C59.994 27.9938 59.5902 28.2019 59.1573 28.3235C58.5782 28.4912 57.9771 28.5705 57.3743 28.5587C56.6194 28.5754 55.8679 28.4531 55.1573 28.198C54.625 28.0347 54.1769 27.671 53.9077 27.1836C53.5846 26.413 53.3189 25.6196 53.1129 24.8098C52.8096 23.7292 52.5133 22.5423 52.224 21.2491C51.9347 19.9558 51.6593 18.6434 51.3979 17.3119C51.1365 15.9785 50.9325 14.8021 50.7861 13.7825C51.1253 13.457 51.5226 13.198 51.9574 13.0191C52.4646 12.7959 53.0136 12.6836 53.5678 12.6897C54.203 12.6639 54.8308 12.8336 55.3665 13.176C55.621 13.3771 55.8293 13.6305 55.9773 13.9192C56.1252 14.2079 56.2094 14.5251 56.224 14.8491C56.4331 16.4334 56.6109 17.7406 56.7573 18.7707C56.9037 19.8007 57.024 20.6478 57.1181 21.3013C57.2122 21.9549 57.2854 22.4569 57.3377 22.802C57.39 23.1471 57.437 23.4242 57.4788 23.6281H57.6043C57.6671 23.2935 57.7769 22.8124 57.9337 22.1745C58.0906 21.5366 58.2736 20.8151 58.4828 20.0046C58.6919 19.1942 58.9115 18.3105 59.1416 17.3641C59.3716 16.4177 59.6017 15.4714 59.8265 14.5354C60.2185 14.3159 60.632 14.1372 61.0605 14.0021C61.5539 13.8652 62.0649 13.8017 62.5768 13.8139C63.2197 13.7977 63.8588 13.9153 64.4539 14.159C64.6894 14.2496 64.9014 14.392 65.0743 14.5758C65.2472 14.7595 65.3765 14.9798 65.4526 15.2204C65.7036 16.1354 65.9441 17.0295 66.1689 17.8922C66.3938 18.755 66.6081 19.5602 66.7964 20.2974C66.9846 21.0347 67.1519 21.6935 67.2983 22.2686C67.4447 22.8438 67.5493 23.2935 67.612 23.6281H67.7689C67.999 22.0246 68.2238 20.3584 68.4434 18.6295C68.663 16.8988 68.8669 15.1419 69.0552 13.3485C69.4228 13.1214 69.8231 12.9522 70.2421 12.8466C70.6506 12.743 71.0703 12.6903 71.4917 12.6897C72.1295 12.6656 72.7604 12.8292 73.3061 13.1603C73.557 13.3452 73.7551 13.5927 73.8808 13.8779C74.0065 14.1632 74.0553 14.4764 74.0224 14.7864C74.0056 15.2897 73.9532 15.7912 73.8655 16.287C73.761 16.9563 73.625 17.704 73.4577 18.5354C73.2904 19.3667 73.0969 20.2451 72.8773 21.1602C72.6577 22.0752 72.4381 22.9641 72.2185 23.8163C71.9989 24.6686 71.7898 25.4425 71.5911 26.1274C71.3924 26.8124 71.2198 27.3457 71.0734 27.7222C70.6764 28.0232 70.2174 28.2322 69.7297 28.3339C69.0956 28.4944 68.4438 28.5734 67.7898 28.5692C66.0382 28.5692 65.0064 28.1317 64.6944 27.2568C64.5689 26.8803 64.4121 26.4098 64.2239 25.8346C64.0356 25.2594 63.8369 24.632 63.6278 23.9418C63.4186 23.2516 63.2199 22.5405 63.0317 21.8033C62.8435 21.066 62.6866 20.3497 62.5611 19.6648C62.4147 20.3968 62.2369 21.1497 62.0278 21.9288C61.8187 22.7079 61.6043 23.4712 61.3847 24.2085C61.1651 24.9457 60.9612 25.6255 60.7729 26.2424C60.5847 26.8594 60.4383 27.3509 60.3337 27.7274L60.3442 27.7117Z" fill="white"/>
<path d="M82.6609 12.5222C83.6977 12.5123 84.7318 12.6282 85.7406 12.8673C86.5905 13.0638 87.3958 13.4186 88.1145 13.913C88.7618 14.3704 89.2833 14.9836 89.6308 15.696C90.0032 16.4921 90.1858 17.3637 90.1641 18.2424V25.2436C90.1841 25.7276 90.0218 26.2015 89.7092 26.5717C89.399 26.9226 89.0355 27.2226 88.6321 27.4605C87.2779 28.271 85.3711 28.6771 82.9119 28.6788C81.908 28.6894 80.9062 28.5842 79.9263 28.3651C79.1181 28.1871 78.3468 27.8704 77.6466 27.4292C77.0284 27.0321 76.5225 26.483 76.1774 25.8344C75.8205 25.1397 75.6426 24.3669 75.6597 23.5861C75.6212 22.9738 75.7158 22.3604 75.937 21.7882C76.1581 21.216 76.5005 20.6984 76.9408 20.2711C77.793 19.5025 79.1159 19.0232 80.9093 18.8332L85.0034 18.394V18.1744C85.0179 17.9032 84.9496 17.634 84.8077 17.4024C84.6658 17.1709 84.4569 16.9879 84.2086 16.8777C83.4816 16.58 82.6979 16.4461 81.9132 16.4855C81.136 16.484 80.361 16.5682 79.6022 16.7365C78.9075 16.8871 78.227 17.097 77.5682 17.364C77.2689 17.1415 77.0314 16.8464 76.878 16.5064C76.6925 16.1327 76.5958 15.7211 76.5957 15.3039C76.5714 14.8391 76.7101 14.3805 76.9878 14.0071C77.3134 13.6356 77.7268 13.3516 78.1904 13.181C78.8812 12.9306 79.5989 12.7622 80.3289 12.6791C81.1005 12.5779 81.8776 12.5255 82.6557 12.5222H82.6609ZM82.9119 24.8044C83.3047 24.8008 83.6965 24.7641 84.0831 24.6946C84.4155 24.6523 84.7377 24.5514 85.0348 24.3965V21.8972L82.7864 22.0855C82.2855 22.1049 81.7947 22.2333 81.3485 22.4619C81.1746 22.5474 81.0289 22.6811 80.9288 22.847C80.8287 23.0129 80.7784 23.2041 80.7838 23.3979C80.7796 23.5932 80.8215 23.7868 80.9059 23.9631C80.9904 24.1393 81.1152 24.2931 81.2701 24.4122C81.7598 24.7188 82.3365 24.8565 82.9119 24.8044Z" fill="white"/>
<path d="M99.66 12.5222C100.697 12.5123 101.731 12.6282 102.74 12.8673C103.59 13.0638 104.395 13.4186 105.113 13.913C105.761 14.3704 106.282 14.9836 106.63 15.696C107.002 16.4921 107.185 17.3637 107.163 18.2424V25.2436C107.183 25.7276 107.021 26.2015 106.708 26.5717C106.398 26.9226 106.035 27.2226 105.631 27.4605C104.277 28.271 102.37 28.6771 99.9109 28.6788C98.907 28.6894 97.9052 28.5842 96.9254 28.3651C96.1171 28.1871 95.3458 27.8704 94.6457 27.4292C94.0275 27.0321 93.5216 26.483 93.1764 25.8344C92.8195 25.1397 92.6416 24.3669 92.6588 23.5861C92.6203 22.9738 92.7148 22.3604 92.936 21.7882C93.1571 21.216 93.4996 20.6984 93.9398 20.2711C94.7921 19.5025 96.1149 19.0232 97.9084 18.8332L102.002 18.394V18.1744C102.017 17.9032 101.949 17.634 101.807 17.4024C101.665 17.1709 101.456 16.9879 101.208 16.8777C100.481 16.58 99.6969 16.4461 98.9123 16.4855C98.135 16.484 97.36 16.5682 96.6012 16.7365C95.9065 16.8871 95.226 17.097 94.5672 17.364C94.268 17.1415 94.0304 16.8464 93.877 16.5064C93.6915 16.1327 93.5949 15.7211 93.5947 15.3039C93.5704 14.8391 93.7091 14.3805 93.9868 14.0071C94.3124 13.6356 94.7259 13.3516 95.1894 13.181C95.8802 12.9306 96.598 12.7622 97.328 12.6791C98.0995 12.5779 98.8766 12.5255 99.6547 12.5222H99.66ZM99.9109 24.8044C100.304 24.8008 100.696 24.7641 101.082 24.6946C101.415 24.6523 101.737 24.5514 102.034 24.3965V21.8972L99.7855 22.0855C99.2845 22.1049 98.7938 22.2333 98.3476 22.4619C98.1737 22.5474 98.028 22.6811 97.9279 22.847C97.8277 23.0129 97.7774 23.2041 97.7829 23.3979C97.7787 23.5932 97.8205 23.7868 97.905 23.9631C97.9894 24.1393 98.1142 24.2931 98.2691 24.4122C98.7589 24.7188 99.3355 24.8565 99.9109 24.8044Z" fill="white"/>
<path d="M41.1561 12.5223C42.1928 12.5124 43.2269 12.6283 44.2358 12.8674C45.0856 13.0639 45.8909 13.4187 46.6096 13.9131C47.2569 14.3705 47.7784 14.9838 48.1259 15.6961C48.4984 16.4922 48.6809 17.3639 48.6592 18.2425V25.2437C48.6792 25.7277 48.5169 26.2017 48.2043 26.5718C47.8941 26.9227 47.5307 27.2227 47.1272 27.4607C45.7747 28.2711 43.868 28.6772 41.407 28.6789C40.4031 28.6898 39.4012 28.5846 38.4215 28.3652C37.6132 28.1872 36.8419 27.8706 36.1418 27.4293C35.5236 27.0323 35.0176 26.4831 34.6725 25.8345C34.3156 25.1398 34.1377 24.367 34.1549 23.5862C34.1164 22.9739 34.2109 22.3606 34.4321 21.7883C34.6532 21.2161 34.9957 20.6985 35.4359 20.2712C36.2882 19.5026 37.611 19.0233 39.4045 18.8333L43.4985 18.3941V18.1745C43.513 17.9033 43.4447 17.6341 43.3028 17.4026C43.1609 17.171 42.952 16.988 42.7038 16.8778C41.9767 16.5801 41.193 16.4462 40.4084 16.4857C39.6311 16.4841 38.8561 16.5683 38.0973 16.7366C37.4026 16.8872 36.7221 17.0971 36.0633 17.3641C35.7643 17.1427 35.5282 16.8471 35.3784 16.5066C35.1928 16.1328 35.0962 15.7212 35.096 15.304C35.0717 14.8393 35.2104 14.3806 35.4882 14.0073C35.8137 13.6358 36.2272 13.3517 36.6908 13.1811C37.3815 12.9308 38.0993 12.7623 38.8293 12.6792C39.6008 12.578 40.3779 12.5256 41.1561 12.5223ZM41.407 24.8045C41.7998 24.8009 42.1916 24.7642 42.5783 24.6947C42.9106 24.6524 43.2328 24.5515 43.5299 24.3967V21.8973L41.2815 22.0856C40.7806 22.105 40.2899 22.2335 39.8437 22.462C39.6697 22.5475 39.5241 22.6812 39.424 22.8471C39.3238 23.0131 39.2735 23.2043 39.279 23.398C39.2748 23.5933 39.3166 23.787 39.4011 23.9632C39.4855 24.1394 39.6103 24.2933 39.7652 24.4123C40.255 24.7189 40.8316 24.8567 41.407 24.8045Z" fill="url(#paint0_linear_575_2005)"/>
<path d="M60.3442 27.7117C59.994 27.9938 59.5902 28.2019 59.1573 28.3235C58.5782 28.4912 57.9771 28.5705 57.3743 28.5587C56.6194 28.5754 55.8679 28.4531 55.1573 28.198C54.625 28.0347 54.1769 27.671 53.9077 27.1836C53.5846 26.413 53.3189 25.6196 53.1129 24.8098C52.8096 23.7292 52.5133 22.5423 52.224 21.2491C51.9347 19.9558 51.6593 18.6434 51.3979 17.3119C51.1365 15.9785 50.9325 14.8021 50.7861 13.7825C51.1253 13.457 51.5226 13.198 51.9574 13.0191C52.4646 12.7959 53.0136 12.6836 53.5678 12.6897C54.203 12.6639 54.8308 12.8336 55.3665 13.176C55.621 13.3771 55.8293 13.6305 55.9773 13.9192C56.1252 14.2079 56.2094 14.5251 56.224 14.8491C56.4331 16.4334 56.6109 17.7406 56.7573 18.7707C56.9037 19.8007 57.024 20.6478 57.1181 21.3013C57.2122 21.9549 57.2854 22.4569 57.3377 22.802C57.39 23.1471 57.437 23.4242 57.4788 23.6281H57.6043C57.6671 23.2935 57.7769 22.8124 57.9337 22.1745C58.0906 21.5366 58.2736 20.8151 58.4828 20.0046C58.6919 19.1942 58.9115 18.3105 59.1416 17.3641C59.3716 16.4177 59.6017 15.4714 59.8265 14.5354C60.2185 14.3159 60.632 14.1372 61.0605 14.0021C61.5539 13.8652 62.0649 13.8017 62.5768 13.8139C63.2197 13.7977 63.8588 13.9153 64.4539 14.159C64.6894 14.2496 64.9014 14.392 65.0743 14.5758C65.2472 14.7595 65.3765 14.9798 65.4526 15.2204C65.7036 16.1354 65.9441 17.0295 66.1689 17.8922C66.3938 18.755 66.6081 19.5602 66.7964 20.2974C66.9846 21.0347 67.1519 21.6935 67.2983 22.2686C67.4447 22.8438 67.5493 23.2935 67.612 23.6281H67.7689C67.999 22.0246 68.2238 20.3584 68.4434 18.6295C68.663 16.8988 68.8669 15.1419 69.0552 13.3485C69.4228 13.1214 69.8231 12.9522 70.2421 12.8466C70.6506 12.743 71.0703 12.6903 71.4917 12.6897C72.1295 12.6656 72.7604 12.8292 73.3061 13.1603C73.557 13.3452 73.7551 13.5927 73.8808 13.8779C74.0065 14.1632 74.0553 14.4764 74.0224 14.7864C74.0056 15.2897 73.9532 15.7912 73.8655 16.287C73.761 16.9563 73.625 17.704 73.4577 18.5354C73.2904 19.3667 73.0969 20.2451 72.8773 21.1602C72.6577 22.0752 72.4381 22.9641 72.2185 23.8163C71.9989 24.6686 71.7898 25.4425 71.5911 26.1274C71.3924 26.8124 71.2198 27.3457 71.0734 27.7222C70.6764 28.0232 70.2174 28.2322 69.7297 28.3339C69.0956 28.4944 68.4438 28.5734 67.7898 28.5692C66.0382 28.5692 65.0064 28.1317 64.6944 27.2568C64.5689 26.8803 64.4121 26.4098 64.2239 25.8346C64.0356 25.2594 63.8369 24.632 63.6278 23.9418C63.4186 23.2516 63.2199 22.5405 63.0317 21.8033C62.8435 21.066 62.6866 20.3497 62.5611 19.6648C62.4147 20.3968 62.2369 21.1497 62.0278 21.9288C61.8187 22.7079 61.6043 23.4712 61.3847 24.2085C61.1651 24.9457 60.9612 25.6255 60.7729 26.2424C60.5847 26.8594 60.4383 27.3509 60.3337 27.7274L60.3442 27.7117Z" fill="url(#paint1_linear_575_2005)"/>
<path d="M82.6609 12.5222C83.6977 12.5123 84.7318 12.6282 85.7406 12.8673C86.5905 13.0638 87.3958 13.4186 88.1145 13.913C88.7618 14.3704 89.2833 14.9836 89.6308 15.696C90.0032 16.4921 90.1858 17.3637 90.1641 18.2424V25.2436C90.1841 25.7276 90.0218 26.2015 89.7092 26.5717C89.399 26.9226 89.0355 27.2226 88.6321 27.4605C87.2779 28.271 85.3711 28.6771 82.9119 28.6788C81.908 28.6894 80.9062 28.5842 79.9263 28.3651C79.1181 28.1871 78.3468 27.8704 77.6466 27.4292C77.0284 27.0321 76.5225 26.483 76.1774 25.8344C75.8205 25.1397 75.6426 24.3669 75.6597 23.5861C75.6212 22.9738 75.7158 22.3604 75.937 21.7882C76.1581 21.216 76.5005 20.6984 76.9408 20.2711C77.793 19.5025 79.1159 19.0232 80.9093 18.8332L85.0034 18.394V18.1744C85.0179 17.9032 84.9496 17.634 84.8077 17.4024C84.6658 17.1709 84.4569 16.9879 84.2086 16.8777C83.4816 16.58 82.6979 16.4461 81.9132 16.4855C81.136 16.484 80.361 16.5682 79.6022 16.7365C78.9075 16.8871 78.227 17.097 77.5682 17.364C77.2689 17.1415 77.0314 16.8464 76.878 16.5064C76.6925 16.1327 76.5958 15.7211 76.5957 15.3039C76.5714 14.8391 76.7101 14.3805 76.9878 14.0071C77.3134 13.6356 77.7268 13.3516 78.1904 13.181C78.8812 12.9306 79.5989 12.7622 80.3289 12.6791C81.1005 12.5779 81.8776 12.5255 82.6557 12.5222H82.6609ZM82.9119 24.8044C83.3047 24.8008 83.6965 24.7641 84.0831 24.6946C84.4155 24.6523 84.7377 24.5514 85.0348 24.3965V21.8972L82.7864 22.0855C82.2855 22.1049 81.7947 22.2333 81.3485 22.4619C81.1746 22.5474 81.0289 22.6811 80.9288 22.847C80.8287 23.0129 80.7784 23.2041 80.7838 23.3979C80.7796 23.5932 80.8215 23.7868 80.9059 23.9631C80.9904 24.1393 81.1152 24.2931 81.2701 24.4122C81.7598 24.7188 82.3365 24.8565 82.9119 24.8044Z" fill="url(#paint2_linear_575_2005)"/>
<path d="M99.66 12.5222C100.697 12.5123 101.731 12.6282 102.74 12.8673C103.59 13.0638 104.395 13.4186 105.113 13.913C105.761 14.3704 106.282 14.9836 106.63 15.696C107.002 16.4921 107.185 17.3637 107.163 18.2424V25.2436C107.183 25.7276 107.021 26.2015 106.708 26.5717C106.398 26.9226 106.035 27.2226 105.631 27.4605C104.277 28.271 102.37 28.6771 99.9109 28.6788C98.907 28.6894 97.9052 28.5842 96.9254 28.3651C96.1171 28.1871 95.3458 27.8704 94.6457 27.4292C94.0275 27.0321 93.5216 26.483 93.1764 25.8344C92.8195 25.1397 92.6416 24.3669 92.6588 23.5861C92.6203 22.9738 92.7148 22.3604 92.936 21.7882C93.1571 21.216 93.4996 20.6984 93.9398 20.2711C94.7921 19.5025 96.1149 19.0232 97.9084 18.8332L102.002 18.394V18.1744C102.017 17.9032 101.949 17.634 101.807 17.4024C101.665 17.1709 101.456 16.9879 101.208 16.8777C100.481 16.58 99.6969 16.4461 98.9123 16.4855C98.135 16.484 97.36 16.5682 96.6012 16.7365C95.9065 16.8871 95.226 17.097 94.5672 17.364C94.268 17.1415 94.0304 16.8464 93.877 16.5064C93.6915 16.1327 93.5949 15.7211 93.5947 15.3039C93.5704 14.8391 93.7091 14.3805 93.9868 14.0071C94.3124 13.6356 94.7259 13.3516 95.1894 13.181C95.8802 12.9306 96.598 12.7622 97.328 12.6791C98.0995 12.5779 98.8766 12.5255 99.6547 12.5222H99.66ZM99.9109 24.8044C100.304 24.8008 100.696 24.7641 101.082 24.6946C101.415 24.6523 101.737 24.5514 102.034 24.3965V21.8972L99.7855 22.0855C99.2845 22.1049 98.7938 22.2333 98.3476 22.4619C98.1737 22.5474 98.028 22.6811 97.9279 22.847C97.8277 23.0129 97.7774 23.2041 97.7829 23.3979C97.7787 23.5932 97.8205 23.7868 97.905 23.9631C97.9894 24.1393 98.1142 24.2931 98.2691 24.4122C98.7589 24.7188 99.3355 24.8565 99.9109 24.8044Z" fill="url(#paint3_linear_575_2005)"/>
<path d="M32.5345 16.7943C32.3672 11.827 29.0575 9.51071 26.715 8.49112C25.5786 8.00348 24.3542 7.75433 23.1177 7.7591H9.54924L9.58061 9.7094L11.2486 9.69371L11.2695 11.1002L9.67472 11.0584V13.0662L11.2224 13.0871L11.2433 15.6858L9.71655 15.6649L9.69564 17.3224L8.14795 17.3014V19.3511L11.442 19.3929V21.0086H12.7962L12.8381 24.8517L10.893 24.8726L10.9139 26.6869L12.9427 26.619L13.0106 27.7954L9.2146 27.8634V29.5H23.0863C24.2422 29.5008 25.388 29.2844 26.464 28.8621C31.4679 26.8699 32.7646 23.7327 32.5293 16.7943H32.5345ZM12.8433 19.0008H11.578V17.6256H12.8433V19.0008ZM13.0995 9.7094H14.7884V11.1159H13.0995V9.7094ZM16.4668 22.8439H14.6315V21.338H16.4668V22.8439ZM20.0903 28.4751H18.4119V26.8176H20.0903V28.4751ZM27.4679 22.0909C27.2692 23.3458 26.9189 24.2085 26.3072 24.7628C25.5822 25.4085 24.6427 25.7608 23.6719 25.751H17.774L17.6851 11.7381H23.0079C23.9942 11.7292 24.9558 12.0462 25.7434 12.64C26.5311 13.2338 27.1005 14.0711 27.3634 15.0217C27.5098 15.576 27.5045 15.5655 27.5098 15.576C27.4627 15.3459 27.5673 15.8008 27.5098 15.576C27.8236 17.7393 27.8077 19.9376 27.4627 22.0962L27.4679 22.0909Z" fill="url(#paint4_linear_575_2005)"/>
<path d="M6.88222 16.6427H5.06787V18.4571H6.88222V16.6427Z" fill="#61C0BD"/>
<path d="M8.50429 12.8204H6.68994V14.7655H8.50429V12.8204Z" fill="#61C0BD"/>
<path d="M8.39972 9.70422H6.68994V11.414H8.39972V9.70422Z" fill="#61C0BD"/>
<path d="M6.6886 11.2623H4.90039V13.0505H6.6886V11.2623Z" fill="#61C0BD"/>
<path d="M3.55658 13.1917H1.68994V15.0583H3.55658V13.1917Z" fill="#61C0BD"/>
<path d="M5.22534 14.8701H3.40576V16.6897H5.22534V14.8701Z" fill="#61C0BD"/>
<path d="M3.52521 16.6427H1.68994V18.478H3.52521V16.6427Z" fill="#61C0BD"/>
<path d="M2.0669 18.3105H0.18457V20.3131H2.0669V18.3105Z" fill="#61C0BD"/>
<path d="M5.73714 18.3002H3.93848V20.0988H5.73714V18.3002Z" fill="#61C0BD"/>
<path d="M7.2796 20.0988H3.93848V21.704H7.2796V20.0988Z" fill="#61C0BD"/>
<path d="M4.00755 21.7039H2.15137V23.56H4.00755V21.7039Z" fill="#61C0BD"/>
<path d="M5.88296 23.4294H4.00586V25.3065H5.88296V23.4294Z" fill="#61C0BD"/>
<path d="M9.4441 25.9601H5.74219V27.7483H9.4441V25.9601Z" fill="#61C0BD"/>
<path d="M9.43933 24.3706H7.58838V26.0699H9.43933V24.3706Z" fill="#61C0BD"/>
<path d="M11.0549 23.2778H9.2876V25.2177H11.0549V23.2778Z" fill="#61C0BD"/>
<path d="M9.59656 21.5941H7.74561V23.4451H9.59656V21.5941Z" fill="#61C0BD"/>
<path d="M110.332 8.69524C110.332 9.55564 110.587 10.3967 111.065 11.1121C111.543 11.8275 112.223 12.3851 113.018 12.7144C113.812 13.0436 114.687 13.1298 115.531 12.9619C116.375 12.7941 117.15 12.3797 117.758 11.7713C118.367 11.1629 118.781 10.3878 118.949 9.54393C119.117 8.70006 119.031 7.82537 118.701 7.03046C118.372 6.23555 117.815 5.55614 117.099 5.07812C116.384 4.60011 115.543 4.34497 114.682 4.34497C113.529 4.34497 112.422 4.8033 111.606 5.61913C110.79 6.43497 110.332 7.54147 110.332 8.69524ZM116.152 6.61945C116.218 6.58442 116.291 6.56645 116.366 6.56716C116.431 6.57066 116.494 6.5848 116.554 6.60899C116.624 6.63707 116.688 6.67785 116.742 6.72925C116.768 6.75272 116.788 6.78097 116.803 6.81238C116.817 6.84379 116.825 6.87774 116.826 6.91225C116.823 6.95054 116.812 6.98783 116.795 7.02206L115.765 9.08739H116.267V8.67955C116.265 8.6342 116.278 8.58948 116.303 8.55186C116.328 8.51425 116.365 8.48572 116.408 8.4704C116.507 8.42758 116.614 8.40619 116.721 8.40766C116.829 8.40679 116.936 8.42815 117.035 8.4704C117.078 8.48633 117.114 8.51501 117.139 8.55248C117.164 8.58995 117.177 8.63435 117.176 8.67955V9.08739H117.427C117.471 9.08587 117.515 9.09751 117.552 9.12079C117.589 9.14408 117.619 9.17797 117.637 9.2181C117.683 9.30677 117.706 9.40565 117.704 9.50568C117.704 9.60822 117.673 9.70831 117.616 9.79326C117.598 9.83013 117.57 9.86162 117.536 9.88457C117.502 9.90752 117.463 9.92111 117.422 9.92398H117.171V10.541C117.172 10.586 117.158 10.6301 117.133 10.6675C117.108 10.7048 117.072 10.7336 117.03 10.7501C116.932 10.7971 116.825 10.8204 116.716 10.8181C116.608 10.8198 116.5 10.7966 116.403 10.7501C116.361 10.7336 116.325 10.7048 116.299 10.6675C116.274 10.6301 116.261 10.586 116.261 10.541V9.92398H114.897C114.857 9.92529 114.818 9.91856 114.781 9.90417C114.744 9.88979 114.71 9.86807 114.682 9.84032C114.652 9.80974 114.628 9.77291 114.612 9.73232C114.597 9.69173 114.591 9.64832 114.593 9.60503C114.592 9.57676 114.596 9.5485 114.604 9.52137C114.611 9.48839 114.624 9.45669 114.64 9.42725L115.984 6.79199C116.02 6.71518 116.078 6.65126 116.152 6.60899V6.61945ZM114.583 8.33968C114.496 8.50641 114.383 8.65821 114.248 8.78935C114.114 8.92267 113.968 9.04506 113.814 9.15536C113.663 9.26516 113.516 9.36451 113.38 9.45339C113.26 9.53053 113.148 9.61989 113.046 9.72006C113.007 9.7521 112.975 9.79192 112.953 9.83694C112.93 9.88197 112.917 9.93121 112.915 9.98149V10.0338H114.442C114.481 10.0354 114.519 10.0467 114.553 10.0668C114.587 10.0869 114.615 10.1151 114.635 10.1488C114.69 10.2289 114.719 10.3237 114.719 10.4207C114.722 10.5197 114.692 10.6169 114.635 10.6978C114.617 10.7333 114.589 10.7631 114.555 10.7843C114.521 10.8054 114.482 10.8171 114.442 10.8181H112.371C112.28 10.8146 112.19 10.7895 112.11 10.7449C112.071 10.7267 112.037 10.698 112.013 10.662C111.989 10.626 111.976 10.5842 111.974 10.541V9.97626C111.974 9.82349 112.019 9.67414 112.105 9.54751C112.198 9.40508 112.312 9.27805 112.444 9.17105C112.586 9.05079 112.732 8.93575 112.889 8.82595C113.046 8.71615 113.192 8.60112 113.333 8.49132C113.459 8.39326 113.573 8.28097 113.673 8.15668C113.758 8.05716 113.806 7.93169 113.809 7.80113C113.808 7.73623 113.794 7.67225 113.767 7.6129C113.737 7.54625 113.688 7.4899 113.626 7.45081C113.538 7.40403 113.438 7.38268 113.339 7.38915C113.239 7.39561 113.143 7.42963 113.061 7.48741C113.015 7.53021 112.979 7.58313 112.956 7.64207C112.934 7.70102 112.925 7.76439 112.931 7.82727C112.929 7.87327 112.916 7.91815 112.893 7.95817C112.871 7.99819 112.839 8.03219 112.8 8.05734C112.698 8.12945 112.574 8.16451 112.45 8.15668C112.343 8.16079 112.239 8.12541 112.157 8.05734C112.112 8.00722 112.079 7.94817 112.059 7.88415C112.039 7.82012 112.033 7.7526 112.042 7.6861C112.036 7.46869 112.102 7.25544 112.23 7.07957C112.357 6.91111 112.527 6.77939 112.722 6.69788C112.921 6.6106 113.137 6.56607 113.354 6.56716C113.578 6.56767 113.799 6.6158 114.003 6.70834C114.205 6.79731 114.379 6.93799 114.51 7.11617C114.646 7.30833 114.716 7.53962 114.708 7.77499C114.712 7.97115 114.667 8.1652 114.578 8.33968H114.583Z" fill="url(#paint5_linear_575_2005)"/>
<path d="M122.786 7.99965C122.625 5.9055 121.658 3.95526 120.09 2.55811C118.522 1.16097 116.473 0.425483 114.375 0.505974C112.276 0.586464 110.29 1.47667 108.833 2.98983C107.376 4.50299 106.562 6.52149 106.562 8.62187C106.561 9.19844 106.622 9.77341 106.745 10.3369C106.757 10.3955 106.781 10.451 106.816 10.5002C106.85 10.5493 106.894 10.5912 106.944 10.6233C106.995 10.6555 107.051 10.6772 107.11 10.6872C107.169 10.6973 107.23 10.6955 107.288 10.682C107.348 10.6692 107.404 10.6449 107.453 10.6103C107.503 10.5757 107.545 10.5316 107.578 10.4806C107.611 10.4295 107.633 10.3725 107.643 10.3128C107.654 10.2532 107.652 10.192 107.639 10.133C107.282 8.47583 107.52 6.74609 108.312 5.24705C109.103 3.74802 110.397 2.57539 111.966 1.9348C113.535 1.29422 115.28 1.22657 116.894 1.74371C118.508 2.26086 119.889 3.32979 120.794 4.76306C121.699 6.19633 122.07 7.90243 121.843 9.58219C121.616 11.2619 120.805 12.8081 119.552 13.9496C118.299 15.091 116.684 15.7549 114.99 15.8247C113.297 15.8946 111.632 15.366 110.29 14.3316L111.644 14.3525C111.765 14.3546 111.882 14.3084 111.97 14.224C112.057 14.1397 112.107 14.0242 112.109 13.9028C112.111 13.7815 112.065 13.6643 111.981 13.577C111.896 13.4898 111.781 13.4396 111.659 13.4375L109.134 13.4009C109.069 13.4003 109.004 13.4136 108.945 13.4398C108.885 13.4661 108.832 13.5048 108.788 13.5532C108.745 13.6017 108.712 13.6589 108.692 13.7209C108.673 13.783 108.666 13.8486 108.674 13.9133L108.967 16.5015C108.979 16.6172 109.036 16.7236 109.124 16.7994C109.212 16.8751 109.326 16.9144 109.443 16.9093H109.474C109.534 16.9028 109.592 16.8845 109.645 16.8554C109.697 16.8264 109.744 16.7871 109.781 16.7399C109.819 16.6927 109.846 16.6386 109.863 16.5806C109.879 16.5226 109.884 16.4619 109.877 16.4021L109.725 15.0584C110.968 16.0206 112.463 16.6013 114.03 16.7302C115.597 16.859 117.167 16.5303 118.551 15.784C119.934 15.0378 121.071 13.906 121.824 12.526C122.577 11.1461 122.913 9.57733 122.791 8.01011L122.786 7.99965Z" fill="url(#paint6_linear_575_2005)"/>
<path d="M108.81 10.316H108.821C108.881 10.3071 108.939 10.2859 108.991 10.254C109.043 10.222 109.088 10.1798 109.123 10.1299C109.158 10.0801 109.183 10.0236 109.196 9.9639C109.209 9.90422 109.209 9.84258 109.197 9.7827C109.021 8.96315 109.03 8.1146 109.224 7.2991C109.418 6.4836 109.792 5.72174 110.318 5.06923C110.845 4.41673 111.51 3.89005 112.266 3.52771C113.022 3.16536 113.849 2.97651 114.687 2.97496H114.766C114.886 2.97621 115.003 2.92957 115.089 2.84527C115.175 2.76097 115.224 2.64589 115.226 2.52529V2.51483C115.226 2.3961 115.179 2.28218 115.096 2.19725C115.013 2.11232 114.9 2.06306 114.781 2.05994H114.687C112.956 2.06132 111.295 2.74981 110.071 3.97424C108.847 5.19867 108.158 6.85896 108.157 8.59056C108.157 9.05453 108.206 9.51718 108.303 9.97093C108.329 10.0817 108.396 10.1789 108.489 10.2436C108.583 10.3083 108.697 10.336 108.81 10.3213V10.316Z" fill="url(#paint7_linear_575_2005)"/>
<defs>
<linearGradient id="paint0_linear_575_2005" x1="34.1465" y1="20.6007" x2="107.212" y2="20.6007" gradientUnits="userSpaceOnUse">
<stop stop-color="#1EAACF"/>
<stop offset="1" stop-color="#21B1DC"/>
</linearGradient>
<linearGradient id="paint1_linear_575_2005" x1="34.1418" y1="20.5965" x2="107.182" y2="20.5965" gradientUnits="userSpaceOnUse">
<stop stop-color="#1EAACF"/>
<stop offset="1" stop-color="#21B1DC"/>
</linearGradient>
<linearGradient id="paint2_linear_575_2005" x1="34.111" y1="20.6006" x2="107.177" y2="20.6006" gradientUnits="userSpaceOnUse">
<stop stop-color="#1EAACF"/>
<stop offset="1" stop-color="#21B1DC"/>
</linearGradient>
<linearGradient id="paint3_linear_575_2005" x1="34.099" y1="20.6006" x2="107.165" y2="20.6006" gradientUnits="userSpaceOnUse">
<stop stop-color="#1EAACF"/>
<stop offset="1" stop-color="#21B1DC"/>
</linearGradient>
<linearGradient id="paint4_linear_575_2005" x1="8.14795" y1="18.6295" x2="32.5555" y2="18.6295" gradientUnits="userSpaceOnUse">
<stop stop-color="#61C0BD"/>
<stop offset="1" stop-color="#1FA5CF"/>
</linearGradient>
<linearGradient id="paint5_linear_575_2005" x1="110.332" y1="8.69524" x2="119.033" y2="8.69524" gradientUnits="userSpaceOnUse">
<stop stop-color="#1EAACF"/>
<stop offset="1" stop-color="#1FA5CF"/>
</linearGradient>
<linearGradient id="paint6_linear_575_2005" x1="106.562" y1="8.68847" x2="122.799" y2="8.68847" gradientUnits="userSpaceOnUse">
<stop stop-color="#21B1DC"/>
<stop offset="1" stop-color="#1FA5CF"/>
</linearGradient>
<linearGradient id="paint7_linear_575_2005" x1="108.15" y1="6.19252" x2="115.219" y2="6.19252" gradientUnits="userSpaceOnUse">
<stop offset="0.03" stop-color="#21B1DC"/>
<stop offset="1" stop-color="#1FA5CF"/>
</linearGradient>
</defs>
</svg>
