<svg id="Icon-burgMenu" xmlns="http://www.w3.org/2000/svg" width="23" height="14.753" viewBox="0 0 23 14.753">
  <g id="Group_40" data-name="Group 40" transform="translate(0 6.242)">
    <g id="Group_39" data-name="Group 39" transform="translate(0 0)">
      <path id="Path_67" data-name="Path 67" d="M121.591,240.579h-20.73a1.135,1.135,0,1,0,0,2.27h20.73a1.135,1.135,0,1,0,0-2.27Z" transform="translate(-99.726 -240.579)" fill="#fff"/>
    </g>
  </g>
  <g id="Group_42" data-name="Group 42">
    <g id="Group_41" data-name="Group 41" transform="translate(0 0)">
      <path id="Path_68" data-name="Path 68" d="M118.565,155.76h-17.7a1.135,1.135,0,0,0,0,2.27h17.7a1.135,1.135,0,1,0,0-2.27Z" transform="translate(-99.726 -155.76)" fill="#fff"/>
    </g>
  </g>
  <g id="Group_44" data-name="Group 44" transform="translate(0 12.483)">
    <g id="Group_43" data-name="Group 43" transform="translate(0 0)">
      <path id="Path_69" data-name="Path 69" d="M118.565,325.4h-17.7a1.135,1.135,0,1,0,0,2.27h17.7a1.135,1.135,0,1,0,0-2.27Z" transform="translate(-99.726 -325.397)" fill="#fff"/>
    </g>
  </g>
</svg>
