<svg width="21" height="16" viewBox="0 0 21 16" fill="none" xmlns="http://www.w3.org/2000/svg">
<path d="M20.2157 2.97821C19.9796 2.08516 19.2858 1.384 18.3927 1.14044C16.7838 0.704987 10.3257 0.704987 10.3257 0.704987C10.3257 0.704987 3.86771 0.704987 2.25874 1.14044C1.36569 1.384 0.671909 2.08516 0.435729 2.97821C0.140505 4.63147 -0.00710406 6.30686 0.000276547 7.98226C-0.00710406 9.65766 0.133125 11.3331 0.435729 12.9863C0.671909 13.8794 1.36569 14.5805 2.25874 14.8241C3.86771 15.2595 10.3257 15.2595 10.3257 15.2595C10.3257 15.2595 16.7838 15.2595 18.3927 14.8241C19.2858 14.5805 19.9796 13.8794 20.2157 12.9863C20.511 11.3331 20.6586 9.65766 20.6512 7.98226C20.6586 6.30686 20.5184 4.63147 20.2157 2.97821ZM8.2075 11.0526V4.91193L13.6101 7.98226L8.2075 11.0526Z" fill="#101216"/>
</svg>
