<svg width="23" height="15" viewBox="0 0 23 15" fill="none" xmlns="http://www.w3.org/2000/svg">
<path d="M22.32 6.23379C22.2045 2.80667 19.921 1.20856 18.3048 0.505095C17.5208 0.168656 16.676 -0.00324214 15.8229 4.63045e-05H6.46144L6.48308 1.34564L7.63387 1.33482L7.6483 2.30523L6.54802 2.27637V3.66165L7.61583 3.67608L7.63026 5.469L6.57688 5.45457L6.56245 6.59815L5.49463 6.58372V7.99786L7.76735 8.02672V9.14143H8.70169L8.73055 11.7929L7.38856 11.8074L7.40299 13.0592L8.8027 13.0123L8.8496 13.824L6.23056 13.8709V15H15.8012C16.5988 15.0006 17.3893 14.8513 18.1317 14.5599C21.584 13.1854 22.4787 11.0209 22.3164 6.23379H22.32ZM8.73416 7.75615H7.86114V6.80738H8.73416V7.75615ZM8.91092 1.34564H10.0761V2.31606H8.91092V1.34564ZM11.2341 10.4077H9.96792V9.3687H11.2341V10.4077ZM13.7341 14.2929H12.5761V13.1494H13.7341V14.2929ZM18.8243 9.88818C18.6872 10.754 18.4455 11.3492 18.0234 11.7316C17.5233 12.1771 16.875 12.4202 16.2053 12.4134H12.136L12.0747 2.74535H15.7471C16.4276 2.73918 17.0911 2.95792 17.6345 3.36759C18.1779 3.77727 18.5708 4.35493 18.7522 5.01085C18.8532 5.39325 18.8496 5.38603 18.8532 5.39325C18.8207 5.23452 18.8929 5.54837 18.8532 5.39325C19.0697 6.88579 19.0587 8.40253 18.8207 9.89179L18.8243 9.88818Z" fill="#08293B"/>
<path d="M4.62094 6.12918H3.36914V7.38098H4.62094V6.12918Z" fill="#08293B"/>
<path d="M5.74008 3.4921H4.48828V4.83408H5.74008V3.4921Z" fill="#08293B"/>
<path d="M5.66793 1.34207H4.48828V2.52172H5.66793V1.34207Z" fill="#08293B"/>
<path d="M4.48767 2.41708H3.25391V3.65085H4.48767V2.41708Z" fill="#08293B"/>
<path d="M2.32645 3.74823H1.03857V5.0361H2.32645V3.74823Z" fill="#08293B"/>
<path d="M3.47806 4.90622H2.22266V6.16163H3.47806V4.90622Z" fill="#08293B"/>
<path d="M2.3048 6.12921H1.03857V7.39544H2.3048V6.12921Z" fill="#08293B"/>
<path d="M1.2987 7.27997H0V8.66164H1.2987V7.27997Z" fill="#08293B"/>
<path d="M3.83082 7.27271H2.58984V8.51368H3.83082V7.27271Z" fill="#08293B"/>
<path d="M4.89503 8.51373H2.58984V9.62123H4.89503V8.51373Z" fill="#08293B"/>
<path d="M2.63759 9.62115H1.35693V10.9018H2.63759V9.62115Z" fill="#08293B"/>
<path d="M3.93181 10.8117H2.63672V12.1068H3.93181V10.8117Z" fill="#08293B"/>
<path d="M6.38809 12.5577H3.83398V13.7914H6.38809V12.5577Z" fill="#08293B"/>
<path d="M6.38545 11.4611H5.1084V12.6335H6.38545V11.4611Z" fill="#08293B"/>
<path d="M7.49961 10.7071H6.28027V12.0454H7.49961V10.7071Z" fill="#08293B"/>
<path d="M6.49385 9.54541H5.2168V10.8225H6.49385V9.54541Z" fill="#08293B"/>
</svg>
