<svg width="18" height="19" viewBox="0 0 18 19" fill="none" xmlns="http://www.w3.org/2000/svg">
<path d="M12.7774 0.982269H5.23161C1.95397 0.982269 0 2.93527 0 6.21127V13.7443C0 17.0293 1.95397 18.9823 5.23161 18.9823H12.7684C16.046 18.9823 18 17.0293 18 13.7533V6.21127C18.009 2.93527 16.055 0.982269 12.7774 0.982269ZM9.00449 13.4743C7.07753 13.4743 5.51075 11.9083 5.51075 9.98227C5.51075 8.05627 7.07753 6.49027 9.00449 6.49027C10.9314 6.49027 12.4982 8.05627 12.4982 9.98227C12.4982 11.9083 10.9314 13.4743 9.00449 13.4743ZM14.3351 5.37427C14.2901 5.48227 14.2271 5.58127 14.146 5.67127C14.056 5.75227 13.957 5.81527 13.8489 5.86027C13.7408 5.90527 13.6238 5.93227 13.5067 5.93227C13.2636 5.93227 13.0385 5.84227 12.8674 5.67127C12.7864 5.58127 12.7233 5.48227 12.6783 5.37427C12.6333 5.26627 12.6063 5.14927 12.6063 5.03227C12.6063 4.91527 12.6333 4.79827 12.6783 4.69027C12.7233 4.57327 12.7864 4.48327 12.8674 4.39327C13.0745 4.18627 13.3897 4.08727 13.6778 4.15027C13.7408 4.15927 13.7949 4.17727 13.8489 4.20427C13.9029 4.22227 13.957 4.24927 14.011 4.28527C14.056 4.31227 14.101 4.35727 14.146 4.39327C14.2271 4.48327 14.2901 4.57327 14.3351 4.69027C14.3802 4.79827 14.4072 4.91527 14.4072 5.03227C14.4072 5.14927 14.3802 5.26627 14.3351 5.37427Z" fill="#101216"/>
<circle cx="9" cy="9.98227" r="2.5" fill="#18181B"/>
</svg>
