<svg width="17" height="16" viewBox="0 0 17 16" fill="none" xmlns="http://www.w3.org/2000/svg">
<path d="M3.33306 0.890145H6.41213C6.78028 0.890145 7.07874 1.1886 7.07874 1.55676C7.07874 1.89424 6.82792 2.17314 6.50252 2.21728L6.41213 2.22337H3.33306C2.27461 2.22337 1.40821 3.04567 1.33784 4.08629L1.33323 4.22321V12.6669C1.33323 13.7254 2.15552 14.5918 3.19614 14.6622L3.33306 14.6668H11.7775C12.836 14.6668 13.7023 13.8445 13.7727 12.8039L13.7773 12.6669V12.2246C13.7773 11.8563 14.0758 11.558 14.4439 11.558C14.7814 11.558 15.0603 11.8087 15.1045 12.1341L15.1105 12.2246V12.6669C15.1105 14.4484 13.713 15.9034 11.9545 15.9954L11.7775 16H3.33306C1.55164 16 0.096641 14.6025 0.00462177 12.844L0 12.6669V4.22321C0 2.44179 1.39754 0.986786 3.15605 0.894767L3.33306 0.890145ZM10.225 3.12984V0.66794C10.225 0.113345 10.8531 -0.185369 11.2799 0.125584L11.353 0.186859L16.6811 5.29756C16.9298 5.53607 16.9524 5.91917 16.749 6.184L16.6812 6.25963L11.3531 11.372C10.9528 11.756 10.3023 11.5094 10.2313 10.9861L10.225 10.891V8.4687L9.91967 8.49545C7.78678 8.71792 5.74244 9.67864 3.77387 11.3936C3.31248 11.7955 2.59864 11.4155 2.67453 10.8083C3.2654 6.08021 5.73798 3.4742 9.95887 3.1473L10.225 3.12984ZM11.5582 2.23105V3.7788C11.5582 4.14696 11.2597 4.44541 10.8916 4.44541C7.44885 4.44541 5.3151 5.93519 4.39318 9.02919L4.32291 9.27681L4.63595 9.06634C6.62376 7.76706 8.71194 7.11183 10.8916 7.11183C11.2291 7.11183 11.508 7.36265 11.5521 7.68805L11.5582 7.77844V9.32756L15.2568 5.77872L11.5582 2.23105Z" fill="#101216"/>
</svg>
