<svg width="22" height="22" viewBox="0 0 22 22" fill="none" xmlns="http://www.w3.org/2000/svg">
<path d="M11.0016 1.83331C16.065 1.83331 20.1696 5.938 20.1696 11.0014C20.1696 16.0648 16.065 20.1694 11.0016 20.1694C5.93818 20.1694 1.8335 16.0648 1.8335 11.0014C1.8335 5.938 5.93818 1.83331 11.0016 1.83331ZM13.6956 15.1261H8.30758C8.90529 17.3391 9.94422 18.7944 11.0016 18.7944C12.059 18.7944 13.0978 17.3391 13.6956 15.1261ZM6.8842 15.1267L4.38859 15.1266C5.26706 16.5318 6.58106 17.637 8.14157 18.253C7.66282 17.5015 7.26774 16.5607 6.97716 15.4888L6.8842 15.1267ZM17.6146 15.1266L15.119 15.1267C14.8222 16.3493 14.3935 17.418 13.8606 18.253C15.3245 17.6755 16.5709 16.6681 17.4448 15.3865L17.6146 15.1266ZM6.50389 9.16747H3.42608L3.42172 9.18328C3.28231 9.76656 3.2085 10.3753 3.2085 11.0014C3.2085 11.9696 3.38503 12.8964 3.70768 13.7517L6.61641 13.7513C6.48596 12.8813 6.41683 11.9571 6.41683 11.0014C6.41683 10.3744 6.44658 9.76097 6.50389 9.16747ZM14.1154 9.16753H7.88773C7.82538 9.75446 7.79182 10.3684 7.79182 11.0014C7.79182 11.9726 7.87079 12.8987 8.01158 13.7515H13.9916C14.1324 12.8987 14.2113 11.9726 14.2113 11.0014C14.2113 10.3684 14.1778 9.75446 14.1154 9.16753ZM18.5775 9.1667L15.4993 9.16749C15.5566 9.76097 15.5863 10.3744 15.5863 11.0014C15.5863 11.9571 15.5172 12.8813 15.3867 13.7513L18.2955 13.7517C18.6181 12.8964 18.7946 11.9696 18.7946 11.0014C18.7946 10.3695 18.7195 9.7551 18.5775 9.1667ZM8.14255 3.74979L8.12155 3.75778C6.24484 4.5046 4.72683 5.95963 3.89755 7.79284L6.69166 7.79318C6.9789 6.18645 7.48017 4.78768 8.14255 3.74979ZM11.0016 3.20831L10.8955 3.21317C9.73558 3.31928 8.61497 5.15441 8.09457 7.79279H13.9086C13.3896 5.16181 12.2738 3.32957 11.1174 3.2141L11.0016 3.20831ZM13.8616 3.74984L13.9595 3.90943C14.5729 4.92919 15.0388 6.26741 15.3115 7.79318L18.1056 7.79284C17.313 6.04072 15.8913 4.63406 14.1285 3.86101L13.8616 3.74984Z" fill="#101216"/>
</svg>
