<svg width="13" height="13" viewBox="0 0 13 13" fill="none" xmlns="http://www.w3.org/2000/svg">
<path fill-rule="evenodd" clip-rule="evenodd" d="M4.63428 2.76849C4.85857 2.43206 5.23616 2.22998 5.6405 2.22998L6.63883 2.22998C7.04316 2.22998 7.42075 2.43206 7.64504 2.76849C8.04362 3.36637 8.66339 3.78142 9.36799 3.92234L9.43805 3.93635C10.0839 4.06553 10.5489 4.63264 10.5489 5.29132L10.5489 7.26233C10.5489 9.3533 8.85379 11.0484 6.76281 11.0484L4.33394 11.0484C2.89608 11.0484 1.73047 9.88275 1.73047 8.44489L1.73047 8.18693C1.73047 7.77272 1.39468 7.43693 0.980468 7.43693C0.566254 7.43693 0.230468 7.77272 0.230467 8.18693L0.230467 8.44489C0.230467 10.7112 2.06766 12.5484 4.33394 12.5484L6.76281 12.5484C9.68221 12.5484 12.0489 10.1817 12.0489 7.26233L12.0489 5.29132C12.0489 3.91762 11.0792 2.73488 9.73222 2.46548L9.66216 2.45147C9.34766 2.38857 9.07102 2.20331 8.89311 1.93644C8.39063 1.18271 7.5447 0.729982 6.63882 0.729982L5.6405 0.729981C4.73463 0.729981 3.8887 1.18271 3.38621 1.93644C3.2083 2.20331 2.93166 2.38857 2.61716 2.45147L2.5471 2.46548C1.20008 2.73488 0.230468 3.91762 0.230468 5.29132L0.230468 5.8653C0.230468 6.27951 0.566254 6.6153 0.980468 6.6153C1.39468 6.6153 1.73047 6.27951 1.73047 5.8653L1.73047 5.29132C1.73047 4.63264 2.19539 4.06553 2.84128 3.93635L2.91134 3.92234C3.61594 3.78142 4.2357 3.36637 4.63428 2.76849ZM4.82593 7.15528C4.82593 6.42976 5.41408 5.8416 6.13961 5.8416C6.55382 5.8416 6.88961 5.50582 6.88961 5.0916C6.88961 4.67739 6.55382 4.3416 6.13961 4.3416C4.58566 4.3416 3.32593 5.60133 3.32593 7.15528C3.32593 8.70923 4.58566 9.96896 6.13961 9.96896C7.69356 9.96896 8.95329 8.70923 8.95329 7.15528C8.95329 6.64403 8.81625 6.16252 8.57641 5.7479C8.369 5.38935 7.9102 5.26683 7.55166 5.47424C7.19311 5.68165 7.07059 6.14044 7.278 6.49899C7.38933 6.69145 7.45329 6.91476 7.45329 7.15528C7.45329 7.88081 6.86513 8.46896 6.13961 8.46896C5.41408 8.46896 4.82593 7.88081 4.82593 7.15528Z" fill="#E8EAED"/>
</svg>
