<svg width="22" height="22" viewBox="0 0 22 22" fill="none" xmlns="http://www.w3.org/2000/svg">
<path d="M-3.38477 0H25.3845V22H-3.38477V0Z" fill="#012169"/>
<path d="M-0.0133715 0L10.9549 8.29583L21.8782 0H25.3845V2.84167L14.596 11.0458L25.3845 19.2042V22H21.7883L10.9998 13.7958L0.25634 22H-3.38477V19.25L7.35874 11.0917L-3.38477 2.93333V0H-0.0133715Z" fill="white"/>
<path d="M15.6749 12.8792L25.3845 20.1667V22L13.2025 12.8792H15.6749ZM7.4037 13.7958L7.67341 15.4L-0.957362 22H-3.38477L7.4037 13.7958ZM25.3845 0V0.1375L14.1914 8.75417L14.2813 6.7375L23.1369 0H25.3845ZM-3.38477 0L7.35874 8.06667H4.66163L-3.38477 1.925V0Z" fill="#C8102E"/>
<path d="M7.44865 0V22H14.641V0H7.44865ZM-3.38477 7.33333V14.6667H25.3845V7.33333H-3.38477Z" fill="white"/>
<path d="M-3.38477 8.84583V13.2458H25.3845V8.84583H-3.38477ZM8.88711 0V22H13.2025V0H8.88711Z" fill="#C8102E"/>
</svg>
