<?xml version="1.0" encoding="utf-8"?><!-- Generator: Adobe Illustrator 25.3.1, SVG Export Plug-In . SVG Version: 6.00 Build 0)  -->
<svg version="1.1" id="Face_x5F_ID_x5F_Icon" xmlns="http://www.w3.org/2000/svg"
    xmlns:xlink="http://www.w3.org/1999/xlink" x="0px" y="0px" viewBox="0 0 296.3 295.7"
    style="enable-background:new 0 0 296.3 295.7;" xml:space="preserve">
<style type="text/css">
	.st0{fill:#606060;}
</style>
    <g id="Face_x5F_ID_x5F_Icon_1_">
	<g id="FaceID_Icon">
		<g id="Face_ID_Icon">
			<path class="st0" d="M184.1,198c-14.4,13.5-31.5,16.5-50.2,12.7c-9.4-1.9-17.2-6.6-24-13.2c-2.4-2.6-6.2-3.4-9.4-2.1
				c-3.1,1-5.2,3.8-5.5,7c-0.5,3.4,1.1,6,3.5,8.3c13.8,13.1,30.2,19.1,49.1,19c18.5,0,34.8-5.9,48.4-18.7c4.5-4.2,5.1-9.5,1.7-13.4
				S188.6,193.8,184.1,198z" />
            <path class="st0" d="M131,177c13.7-0.5,24.7-11.7,25-25.4c0.2-8.6,0-17.2,0-25.8l0,0c0-9,0.1-18,0-27c-0.1-6-4.6-9.8-10.2-8.9
				c-4.4,0.7-7.1,4.2-7.1,9.5c-0.1,16.7,0,33.3,0,50c0,6.6-2.7,9.5-9.1,10.3c-5.3,0.7-8.8,4.5-8.4,9.3
				C121.4,174,125.4,177.2,131,177z" />
            <path class="st0" d="M103.5,132.5c0.1-5.5,0-10.9,0-16.4s0-10.9,0-16.4c-0.1-6-3.4-9.8-8.6-9.9s-8.8,3.6-8.8,9.6
				c-0.1,11.1-0.1,22.2,0,33.2c0,5.7,3.6,9.5,8.5,9.6S103.5,138.3,103.5,132.5z" />
            <path class="st0" d="M200,89.8c-5.2-0.1-8.7,3.5-8.8,9.1s0,11.2,0,16.8s-0.1,11.5,0,17.2c0.1,5.4,3.6,9.1,8.4,9.2
				c5,0.1,8.9-3.8,8.9-9.2c0.1-11.3,0.1-22.7,0-34.1C208.5,93.5,204.9,89.9,200,89.8z" />
            <path class="st0" d="M73.3,0.1C62.2,0,51-0.1,39.8,0.1C21.8,0.7,6.2,13,1.5,30.4C-0.8,38.9,0.4,47.5,0.1,56c0,2.2,0,4.4,0,6.5
				c0,4-0.1,8,0,11.9c0,4.4,3.5,8,7.9,8.1c0.1,0,0.1,0,0.2,0c4.3,0.2,7.9-3,8.2-7.3c0-0.2,0-0.4,0-0.6c0.2-10.5,0.1-21,0.1-31.5
				c0.1-16.4,10.4-26.7,26.7-26.7c10.1,0,20.3,0,30.4,0c5.2,0,8.8-3.6,8.8-8.2S78.6,0.1,73.3,0.1z" />
            <path class="st0" d="M72.2,279.3c-9.8,0-19.5,0-29.3,0c-16.1-0.1-26.4-10.4-26.5-26.6c0-10.1,0-20.3,0-30.4
				c0-5.2-3.6-8.8-8.2-8.8s-8.1,3.7-8.1,8.9c-0.1,11-0.2,22.1,0,33.1c0.4,18.3,13,34.2,30.7,38.7c8.4,2.2,16.9,1,24,1.4
				c6.7,0,12.1,0,17.5,0c6.2,0,10-3.2,10-8.2S78.5,279.3,72.2,279.3z" />
            <path class="st0" d="M288,213.5c-4.9,0-8.1,3.7-8.2,9.6c0,9.8,0,19.5,0,29.2c0,16.6-10.3,26.9-26.9,26.9c-10,0-20,0-30.1,0
				c-5.2,0-8.9,3.5-8.9,8.1s3.6,8.1,8.9,8.2c11.2,0.1,22.4,0.2,33.5,0c18.2-0.5,33.8-13,38.4-30.6c2.2-8.4,1-16.8,1.4-24
				c0-6.8,0-12.3,0-17.8C296.1,217.3,292.9,213.5,288,213.5z" />
            <path class="st0" d="M221.5,16.3c1.4,0.1,2.8,0.1,4.2,0.1c51.8-1.5,55.6,2.1,54,53.7c0,1.2,0,2.3,0,3.5c0.2,5,3.5,8.5,8.1,8.5
				s8.2-3.6,8.3-8.8c0.1-11.3,0.2-22.6-0.1-33.9C295.6,20.2,281,3.8,261.8,0.7c-7.2-1.2-14.4-0.3-20.3-0.6h-17c-1,0-2.1,0-3.1,0.1
				c-4.3,0.4-7.5,4.1-7.4,8.4C214.2,12.7,217.4,16,221.5,16.3z" />
		</g>
	</g>
</g>
</svg>
