<svg width="16" height="24" viewBox="0 0 16 24" fill="none" xmlns="http://www.w3.org/2000/svg">
<path d="M16 8.00022C16.0008 6.48199 15.5695 4.99489 14.7566 3.71263C13.9437 2.43037 12.7827 1.4059 11.4092 0.7589C10.0358 0.1119 8.50657 -0.130918 7.00025 0.0588134C5.49392 0.248545 4.07269 0.862991 2.90257 1.83037C1.73245 2.79775 0.861758 4.07813 0.392213 5.52192C-0.0773325 6.96571 -0.126346 8.51331 0.250899 9.98392C0.628143 11.4545 1.41607 12.7874 2.52263 13.8269C3.62919 14.8664 5.0087 15.5695 6.5 15.8542V18.0002H5C4.60217 18.0002 4.22064 18.1583 3.93934 18.4396C3.65803 18.7209 3.5 19.1024 3.5 19.5002C3.5 19.898 3.65803 20.2796 3.93934 20.5609C4.22064 20.8422 4.60217 21.0002 5 21.0002H6.5V22.5002C6.5 22.898 6.65803 23.2796 6.93934 23.5609C7.22064 23.8422 7.60217 24.0002 8 24.0002C8.39782 24.0002 8.77936 23.8422 9.06066 23.5609C9.34196 23.2796 9.5 22.898 9.5 22.5002V21.0002H11C11.3978 21.0002 11.7794 20.8422 12.0607 20.5609C12.342 20.2796 12.5 19.898 12.5 19.5002C12.5 19.1024 12.342 18.7209 12.0607 18.4396C11.7794 18.1583 11.3978 18.0002 11 18.0002H9.5V15.8542C11.3269 15.5035 12.9748 14.5279 14.1608 13.0948C15.3469 11.6617 15.9971 9.86046 16 8.00022ZM3 8.00022C3 7.01131 3.29324 6.04461 3.84265 5.22236C4.39206 4.40012 5.17295 3.75926 6.08658 3.38082C7.00021 3.00238 8.00555 2.90336 8.97545 3.09629C9.94536 3.28921 10.8363 3.76542 11.5355 4.46468C12.2348 5.16394 12.711 6.05486 12.9039 7.02476C13.0969 7.99467 12.9978 9 12.6194 9.91363C12.241 10.8273 11.6001 11.6082 10.7779 12.1576C9.9556 12.707 8.98891 13.0002 8 13.0002C6.6744 12.9986 5.40356 12.4713 4.46622 11.534C3.52888 10.5967 3.00159 9.32581 3 8.00022Z" fill="#C1C7D0"/>
</svg>
