<svg width="14" height="18" viewBox="0 0 14 18" fill="none" xmlns="http://www.w3.org/2000/svg">
<path d="M1.96875 0C0.883312 0 0 0.883312 0 1.96875V15.5312C0 16.6167 0.883312 17.5 1.96875 17.5H12.0312C13.1167 17.5 14 16.6167 14 15.5312V7H8.96875C7.88331 7 7 6.11669 7 5.03125V0H1.96875ZM9.71916 1.23808C9.40417 0.923093 8.8656 1.14618 8.8656 1.59163V5.03125C8.8656 5.39306 9.16004 5.6875 9.52185 5.6875H12.9615C13.4069 5.6875 13.63 5.14893 13.315 4.83395L9.71916 1.23808ZM3.28125 8.75H10.7188C11.081 8.75 11.375 9.04356 11.375 9.40625C11.375 9.76894 11.081 10.0625 10.7188 10.0625H3.28125C2.919 10.0625 2.625 9.76894 2.625 9.40625C2.625 9.04356 2.919 8.75 3.28125 8.75ZM3.28125 11.375H7.21875C7.581 11.375 7.875 11.6686 7.875 12.0312C7.875 12.3939 7.581 12.6875 7.21875 12.6875H3.28125C2.919 12.6875 2.625 12.3939 2.625 12.0312C2.625 11.6686 2.919 11.375 3.28125 11.375ZM9.84375 11.375H10.7188C11.081 11.375 11.375 11.6686 11.375 12.0312C11.375 12.3939 11.081 12.6875 10.7188 12.6875H9.84375C9.4815 12.6875 9.1875 12.3939 9.1875 12.0312C9.1875 11.6686 9.4815 11.375 9.84375 11.375ZM3.28125 14H7.21875C7.581 14 7.875 14.2936 7.875 14.6562C7.875 15.0189 7.581 15.3125 7.21875 15.3125H3.28125C2.919 15.3125 2.625 15.0189 2.625 14.6562C2.625 14.2936 2.919 14 3.28125 14ZM9.84375 14H10.7188C11.081 14 11.375 14.2936 11.375 14.6562C11.375 15.0189 11.081 15.3125 10.7188 15.3125H9.84375C9.4815 15.3125 9.1875 15.0189 9.1875 14.6562C9.1875 14.2936 9.4815 14 9.84375 14Z" fill="white"/>
</svg>
