<svg id="Icon-FingerPrint" xmlns="http://www.w3.org/2000/svg" xmlns:xlink="http://www.w3.org/1999/xlink" width="42" height="46.698" viewBox="0 0 42 46.698">
  <defs>
    <clipPath id="clip-path">
      <rect id="Rectangle_2292" data-name="Rectangle 2292" width="42" height="46.698" fill="none"/>
    </clipPath>
  </defs>
  <g id="Group_3286" data-name="Group 3286" clip-path="url(#clip-path)">
    <path id="Path_2985" data-name="Path 2985" d="M32.026,75.743c-.714-.245-1.437-.466-2.139-.738A17.578,17.578,0,0,1,19.047,63.6a15.223,15.223,0,0,1-.731-5.074A6.847,6.847,0,0,1,23.178,52.1a7.291,7.291,0,0,1,8.842,3.64,5.923,5.923,0,0,1,.642,2.586A4.5,4.5,0,0,0,35.6,62.741a4.8,4.8,0,0,0,5.343-.929,4.314,4.314,0,0,0,1.438-3.637A16.082,16.082,0,0,0,41.26,52.9a15.915,15.915,0,0,0-5.165-6.7,16.937,16.937,0,0,0-7.031-3.187,17.317,17.317,0,0,0-18.435,7.938A15.012,15.012,0,0,0,8.684,58.81a23.573,23.573,0,0,0,1.485,8.022,1.3,1.3,0,0,1-.039,1.179,1.061,1.061,0,0,1-1.059.575,1.128,1.128,0,0,1-1.048-.816c-.384-1.277-.825-2.544-1.109-3.844a21.738,21.738,0,0,1-.088-9.672,16.9,16.9,0,0,1,5.233-8.738,19.116,19.116,0,0,1,11.493-5.08A19.225,19.225,0,0,1,38.99,45.647a17.452,17.452,0,0,1,5.723,12.595,6.993,6.993,0,0,1-4.877,6.883,7.238,7.238,0,0,1-9.1-4.332,7.973,7.973,0,0,1-.4-2.32,4.783,4.783,0,0,0-5.015-4.386,4.655,4.655,0,0,0-4.533,3.483,8.68,8.68,0,0,0-.035,2.848A15,15,0,0,0,28.211,71.66a15.919,15.919,0,0,0,4.2,1.721,1.345,1.345,0,0,1,.973.747c.284.66.005,1.213-.809,1.614Z" transform="translate(-4.552 -29.046)"/>
    <path id="Path_2986" data-name="Path 2986" d="M41.534,60.567a13.048,13.048,0,0,1,10.951,6.441,11.646,11.646,0,0,1,1.7,6.112,1.159,1.159,0,0,1-2.312.15,22.913,22.913,0,0,0-.347-2.519A10,10,0,0,0,46.1,64.13a11.235,11.235,0,0,0-12.659,1.649,9.682,9.682,0,0,0-3.352,7.633,18.22,18.22,0,0,0,2.051,8.549,21.9,21.9,0,0,0,3.858,5.278q.259.257.5.528a1.173,1.173,0,0,1,0,1.71,1.155,1.155,0,0,1-1.668-.094,27.352,27.352,0,0,1-3.467-4.159,20.462,20.462,0,0,1-3.3-8.168,17.409,17.409,0,0,1-.1-6.166,12.367,12.367,0,0,1,5.784-8.266,14.031,14.031,0,0,1,7.782-2.059" transform="translate(-19.966 -43.608)"/>
    <path id="Path_2987" data-name="Path 2987" d="M20.567,20.322A26.621,26.621,0,0,1,34.036,23.7a24.347,24.347,0,0,1,7.714,6.979,1.165,1.165,0,1,1-1.866,1.391,23.55,23.55,0,0,0-4.008-4.281,22.228,22.228,0,0,0-10.1-4.672,24.155,24.155,0,0,0-15.524,2.037,21.4,21.4,0,0,0-7.5,6.17c-.224.288-.428.592-.662.87a1.189,1.189,0,0,1-1.671.2,1.187,1.187,0,0,1-.189-1.6,24.468,24.468,0,0,1,6.4-6.229A25.388,25.388,0,0,1,17.958,20.5c1.025-.119,2.061-.139,2.609-.174" transform="translate(0 -14.632)"/>
    <path id="Path_2988" data-name="Path 2988" d="M38.086,0A28.826,28.826,0,0,1,51.217,3.51a1.2,1.2,0,0,1,.616,1.564,1.181,1.181,0,0,1-1.622.544c-1.4-.608-2.787-1.276-4.219-1.813a24.792,24.792,0,0,0-8.981-1.464A26.829,26.829,0,0,0,24.468,5.505a1.39,1.39,0,0,1-1.174.181,1.068,1.068,0,0,1-.764-.932,1.12,1.12,0,0,1,.634-1.207c1.092-.527,2.175-1.084,3.3-1.53A30.369,30.369,0,0,1,38.086,0" transform="translate(-16.216 0)"/>
    <path id="Path_2989" data-name="Path 2989" d="M83.165,114.937a12.517,12.517,0,0,1-9.38-3.984,12.063,12.063,0,0,1-3.376-8.227,1.2,1.2,0,0,1,1.081-1.334,1.177,1.177,0,0,1,1.228,1.187,10.1,10.1,0,0,0,1.055,4.294,9.785,9.785,0,0,0,8.271,5.6,23.918,23.918,0,0,0,3.356-.136,1.473,1.473,0,0,1,1.158.257,1.051,1.051,0,0,1,.4,1.093,1.093,1.093,0,0,1-.905.913c-.96.136-1.925.23-2.888.342" transform="translate(-50.694 -73)"/>
  </g>
</svg>
