<svg width="23" height="24" viewBox="0 0 23 24" fill="none" xmlns="http://www.w3.org/2000/svg">
<g clip-path="url(#clip0_5_310)">
<mask id="mask0_5_310" style="mask-type:luminance" maskUnits="userSpaceOnUse" x="0" y="0" width="23" height="24">
<path d="M22.4995 0H0V24H22.4995V0Z" fill="white"/>
</mask>
<g mask="url(#mask0_5_310)">
<path d="M19.4939 5.25116C19.8971 5.24837 20.2965 5.32826 20.6676 5.48591C21.3878 5.78914 21.9608 6.36212 22.264 7.08233C22.4217 7.45341 22.5016 7.85288 22.4988 8.25605V16.8772C22.5018 17.5163 22.4171 18.1528 22.2472 18.769C22.0815 19.3663 21.8394 19.9397 21.5268 20.4751C20.91 21.5306 20.0312 22.4089 18.9753 23.025C18.4399 23.3375 17.8665 23.5797 17.2692 23.7454C16.6525 23.9171 16.0152 24.0033 15.3751 24.0016C14.9462 24.0018 14.5182 23.9632 14.0963 23.8865C13.6747 23.8107 13.2603 23.6996 12.8574 23.5544C12.4541 23.4084 12.0661 23.2231 11.699 23.0013C11.3322 22.78 10.9895 22.5211 10.6764 22.2288C10.2033 21.7905 9.74302 21.3506 9.29552 20.9093C8.84802 20.4679 8.39362 20.024 7.93231 19.5775C8.14322 19.8886 8.25599 20.2557 8.25605 20.6316C8.25779 20.8807 8.20817 21.1275 8.11029 21.3565C7.91945 21.8071 7.55983 22.165 7.1084 22.3538C6.87735 22.4513 6.62888 22.5009 6.37809 22.4996C5.52613 22.5041 4.68237 22.3331 3.89945 21.9971C2.36805 21.3513 1.14943 20.133 0.503321 18.6017C0.167148 17.8191 -0.00416142 16.9756 7.67593e-05 16.1238C-0.00170786 15.8747 0.0479117 15.628 0.145834 15.3989C0.336605 14.9483 0.696243 14.5903 1.14772 14.4016C1.37878 14.3041 1.62724 14.2545 1.87804 14.2559C2.10323 14.2552 2.32644 14.2979 2.53548 14.3817C2.24986 14.1302 2.0188 13.8229 1.85656 13.4787C1.6924 13.1316 1.6085 12.7519 1.61107 12.3679C1.60961 12.0817 1.65284 11.797 1.73919 11.5241C1.8253 11.2541 1.9614 11.0027 2.1404 10.783C1.94693 10.5063 1.78919 10.2063 1.67091 9.89006C1.44797 9.25968 1.44797 8.57191 1.67091 7.94153C1.88758 7.32881 2.29319 6.80071 2.82929 6.43333C3.09861 6.24656 3.39884 6.10891 3.71611 6.02674C3.79752 5.70445 3.93516 5.39905 4.12269 5.12458C4.30559 4.85503 4.53129 4.61715 4.79087 4.42035C5.05004 4.22446 5.33878 4.07115 5.64623 3.9662C5.95841 3.85845 6.28642 3.80374 6.61667 3.80434C6.88789 3.80254 7.1581 3.83764 7.41986 3.90867C7.71233 3.55413 8.07016 3.25907 8.47391 3.0395C8.88398 2.8314 9.33902 2.72758 9.79877 2.73724C10.0973 2.73745 10.394 2.78324 10.6787 2.87303C10.9625 2.96033 11.2317 3.08962 11.4773 3.2566L11.6307 3.00497C11.5111 2.84236 11.4163 2.66295 11.3492 2.47258C11.2803 2.2819 11.245 2.08076 11.2448 1.87804C11.2435 1.62725 11.2931 1.37879 11.3906 1.14773C11.5798 0.695818 11.9387 0.336117 12.3902 0.14584C12.6228 0.0472931 12.8732 -0.00232172 13.1259 8.34409e-05C13.8796 -0.00325081 14.6275 0.13116 15.3329 0.396695C16.0198 0.653191 16.6575 1.02553 17.2186 1.49754C17.7771 1.96956 18.2517 2.53266 18.6224 3.16301C19.0041 3.81035 19.2673 4.5206 19.3995 5.26037C19.4152 5.26033 19.4309 5.25879 19.4463 5.25577C19.4617 5.25274 19.4782 5.2512 19.4939 5.25116ZM20.996 16.8772V8.25375C20.997 8.05716 20.959 7.86232 20.8841 7.68057C20.8091 7.49882 20.6988 7.33379 20.5595 7.1951C20.4227 7.05862 20.2616 6.94883 20.0846 6.87136C19.9003 6.79077 19.7011 6.74998 19.5 6.75169C19.2975 6.75041 19.0969 6.79116 18.9109 6.87136C18.7317 6.94781 18.5687 7.05768 18.4306 7.1951C18.2918 7.33416 18.182 7.49943 18.1076 7.6813C18.0332 7.86317 17.9956 8.05802 17.9972 8.25452V11.8141L16.0026 13.7626C15.6845 14.0731 15.434 14.4461 15.2669 14.8581C15.098 15.2686 15.0112 15.7083 15.0115 16.1522C15.007 16.5042 15.0673 16.8539 15.1895 17.184C15.2905 17.454 15.419 17.7129 15.573 17.9565C15.6906 18.1412 15.8187 18.319 15.9566 18.4889C16.0439 18.5744 16.1037 18.6839 16.1284 18.8035C16.1241 18.9018 16.0831 18.9949 16.0136 19.0645C15.944 19.1341 15.8509 19.1751 15.7525 19.1794C15.702 19.182 15.6517 19.1712 15.6068 19.1479C15.5667 19.1235 15.5285 19.096 15.4925 19.0658C15.2958 18.8952 15.1254 18.6964 14.9869 18.4759C14.8351 18.2405 14.7066 17.9907 14.6034 17.7302C14.4997 17.4683 14.4194 17.1977 14.3633 16.9217C14.3095 16.6658 14.2815 16.4052 14.2796 16.1438C14.2792 15.6019 14.3834 15.0651 14.5865 14.5627C14.7866 14.0588 15.0945 13.6048 15.4887 13.2325L17.4832 11.3146L10.8643 4.67964C10.5817 4.39826 10.1991 4.24045 9.8003 4.24084C9.46704 4.23257 9.14138 4.34112 8.87973 4.54769C8.62121 4.75444 8.43483 5.03777 8.34734 5.35703L13.2501 10.2506C13.2868 10.2856 13.316 10.3278 13.3358 10.3745C13.3556 10.4212 13.3656 10.4715 13.3652 10.5222C13.3662 10.5714 13.3564 10.6203 13.3366 10.6653C13.3167 10.7104 13.2872 10.7506 13.2501 10.783C13.1765 10.8516 13.0792 10.889 12.9786 10.8873C12.9303 10.8887 12.8822 10.8801 12.8374 10.8621C12.7925 10.8442 12.7518 10.8173 12.7177 10.783L7.68223 5.73983C7.39964 5.45845 7.01699 5.30064 6.6182 5.30103C6.28919 5.29452 5.96822 5.40305 5.71067 5.60788C5.45389 5.81202 5.26767 6.09162 5.17828 6.40724L11.1236 12.3656C11.1604 12.4006 11.1895 12.4428 11.2093 12.4895C11.2291 12.5362 11.2391 12.5865 11.2387 12.6372C11.2342 12.7354 11.1932 12.8285 11.1236 12.898C11.0541 12.9676 10.961 13.0086 10.8628 13.0131C10.8121 13.0135 10.7618 13.0035 10.7151 12.9837C10.6684 12.9639 10.6262 12.9348 10.5912 12.898L5.55111 7.85791C5.41426 7.72033 5.25088 7.61202 5.07088 7.53954C4.82672 7.4425 4.56185 7.40933 4.3013 7.44316C4.04076 7.47698 3.79314 7.57669 3.58186 7.73286C3.31595 7.932 3.1264 8.21632 3.04486 8.53836L9.00247 14.486C9.03923 14.521 9.0684 14.5631 9.0882 14.6098C9.10799 14.6566 9.11798 14.7068 9.11755 14.7576C9.11693 14.807 9.10597 14.8557 9.08535 14.9007C9.06474 14.9456 9.03494 14.9857 8.99787 15.0184C8.96331 15.0542 8.92198 15.0828 8.87629 15.1026C8.8306 15.1223 8.78145 15.1328 8.73167 15.1335C8.68264 15.1331 8.63421 15.1227 8.58935 15.1029C8.54449 15.0831 8.50416 15.0544 8.47085 15.0184L5.03329 11.5747C4.92773 11.4693 4.80124 11.3873 4.66199 11.3338C4.52429 11.2791 4.37751 11.2507 4.22932 11.2502C4.08055 11.2493 3.93321 11.2794 3.79666 11.3384C3.66324 11.3961 3.54136 11.4775 3.43687 11.5785C3.33243 11.6793 3.249 11.7998 3.19138 11.933C3.13222 12.0698 3.10218 12.2174 3.10316 12.3664C3.10164 12.5144 3.13047 12.6611 3.18786 12.7976C3.24526 12.934 3.33 13.0572 3.43687 13.1596L11.6683 21.1011C11.9093 21.334 12.1774 21.5373 12.4669 21.7063C12.7601 21.8801 13.0682 22.0274 13.3875 22.1467C13.7073 22.2649 14.0373 22.354 14.3732 22.4129C14.7024 22.4714 15.0361 22.5012 15.3705 22.5019C16.1237 22.5069 16.8697 22.3556 17.5615 22.0577C18.9085 21.4854 19.981 20.4129 20.5533 19.0658C20.8504 18.3747 21.0011 17.6295 20.996 16.8772ZM6.37809 21.0075C6.42711 21.0071 6.47553 20.9967 6.52038 20.9769C6.56524 20.9571 6.60557 20.9283 6.63891 20.8924C6.69105 20.8407 6.72666 20.7747 6.74121 20.7027C6.75577 20.6308 6.74862 20.5561 6.72068 20.4882C6.69273 20.4203 6.64525 20.3623 6.58426 20.3214C6.52326 20.2806 6.4515 20.2587 6.37809 20.2587C5.82437 20.2621 5.27591 20.1511 4.76709 19.9327C4.27734 19.7246 3.83262 19.4234 3.45758 19.0459C3.08399 18.667 2.78544 18.2209 2.57767 17.731C2.36007 17.222 2.24986 16.6736 2.25394 16.12C2.25333 16.0206 2.21335 15.9254 2.14276 15.8554C2.07216 15.7854 1.9767 15.7462 1.87727 15.7464C1.82795 15.7462 1.77908 15.7558 1.73347 15.7746C1.68787 15.7933 1.64643 15.821 1.61156 15.8558C1.57668 15.8907 1.54906 15.9321 1.53028 15.9778C1.5115 16.0234 1.50194 16.0722 1.50214 16.1215C1.49862 16.774 1.62918 17.4203 1.88571 18.0202C2.1308 18.5985 2.48474 19.1243 2.92825 19.5691C3.37388 20.0134 3.8997 20.3693 4.47788 20.6178C5.07758 20.8759 5.72442 21.0066 6.37732 21.0013M13.1282 1.49908C13.0788 1.49887 13.03 1.50844 12.9844 1.52722C12.9388 1.546 12.8973 1.57362 12.8624 1.6085C12.8276 1.64337 12.7999 1.68481 12.7812 1.73041C12.7624 1.77602 12.7528 1.82489 12.753 1.87421C12.7528 1.92353 12.7624 1.9724 12.7812 2.01801C12.7999 2.06361 12.8276 2.10504 12.8624 2.13992C12.8973 2.17479 12.9388 2.20242 12.9844 2.2212C13.03 2.23998 13.0788 2.24954 13.1282 2.24934C13.6804 2.24579 14.2275 2.35599 14.7353 2.57307C15.7233 2.98856 16.5093 3.7745 16.9247 4.76249C17.1418 5.27031 17.252 5.81739 17.2485 6.36965C17.2485 6.46915 17.288 6.56456 17.3583 6.63491C17.4287 6.70526 17.5241 6.74479 17.6236 6.74479C17.7231 6.74479 17.8185 6.70526 17.8889 6.63491C17.9592 6.56456 17.9987 6.46915 17.9987 6.36965C18.0029 5.72133 17.8723 5.07921 17.6152 4.48402C17.1147 3.31623 16.184 2.38583 15.0161 1.88572C14.4209 1.62861 13.7788 1.498 13.1305 1.50215M6.37962 18.7475C6.47911 18.7475 6.57453 18.7079 6.64488 18.6376C6.71523 18.5672 6.75475 18.4718 6.75475 18.3723C6.75475 18.2728 6.71523 18.1774 6.64488 18.1071C6.57453 18.0367 6.47911 17.9972 6.37962 17.9972C6.12699 17.9996 5.87656 17.95 5.64393 17.8515C5.19506 17.6605 4.83763 17.303 4.64665 16.8542C4.5481 16.6215 4.49849 16.3711 4.50089 16.1185C4.50089 16.019 4.46137 15.9236 4.39102 15.8532C4.32067 15.7829 4.22525 15.7433 4.12576 15.7433C4.02627 15.7433 3.93085 15.7829 3.8605 15.8532C3.79015 15.9236 3.75063 16.019 3.75063 16.1185C3.74858 16.4701 3.81964 16.8184 3.95929 17.1411C4.22946 17.7698 4.73058 18.2709 5.35932 18.5411C5.68113 18.679 6.028 18.7487 6.37809 18.7459M13.1289 3.7445C13.0797 3.7445 13.0309 3.7542 12.9854 3.77305C12.9399 3.79191 12.8985 3.81954 12.8637 3.85437C12.8288 3.88921 12.8012 3.93056 12.7823 3.97607C12.7635 4.02159 12.7538 4.07037 12.7538 4.11963C12.7538 4.16889 12.7635 4.21767 12.7823 4.26319C12.8012 4.3087 12.8288 4.35005 12.8637 4.38489C12.8985 4.41972 12.9399 4.44735 12.9854 4.46621C13.0309 4.48506 13.0797 4.49476 13.1289 4.49476C13.3783 4.49294 13.6253 4.54256 13.8546 4.64052C14.0767 4.73535 14.2785 4.8718 14.4492 5.0425C14.6205 5.21456 14.7568 5.41831 14.8504 5.6424C14.9479 5.87346 14.9975 6.12192 14.9961 6.37272C14.9939 6.42346 15.0019 6.47414 15.0197 6.5217C15.0375 6.56926 15.0648 6.61271 15.0999 6.64943C15.135 6.68615 15.1772 6.71537 15.2239 6.73534C15.2706 6.7553 15.3209 6.7656 15.3717 6.7656C15.4225 6.7656 15.4727 6.7553 15.5194 6.73534C15.5661 6.71537 15.6083 6.68615 15.6434 6.64943C15.6785 6.61271 15.7058 6.56926 15.7236 6.5217C15.7415 6.47414 15.7495 6.42346 15.7472 6.37272C15.7495 6.02361 15.6787 5.67787 15.5393 5.3578C15.4033 5.04834 15.2117 4.76647 14.9739 4.52621C14.736 4.28669 14.4545 4.09479 14.1446 3.96083C13.8249 3.81961 13.4792 3.74696 13.1297 3.74757" fill="black"/>
<path d="M20.9953 16.8747V8.25429C20.9973 8.05752 20.9602 7.86231 20.886 7.68004C20.8119 7.49776 20.7022 7.33205 20.5634 7.19257C20.4266 7.05606 20.2656 6.94627 20.0886 6.86884C19.9044 6.78793 19.7052 6.74688 19.504 6.74839C19.3014 6.7474 19.1008 6.78841 18.9148 6.86884C18.7357 6.94528 18.5727 7.05515 18.4346 7.19257C18.2959 7.33154 18.1861 7.49669 18.1117 7.67842C18.0373 7.86015 17.9997 8.05485 18.0012 8.25122V11.8092L16.0066 13.7578C15.6878 14.0691 15.437 14.4431 15.2701 14.8563C15.1011 15.2668 15.0144 15.7065 15.0147 16.1505C15.0081 16.5025 15.0663 16.8528 15.1865 17.1838C15.2876 17.4538 15.4161 17.7126 15.5701 17.9563C15.6877 18.141 15.8158 18.3187 15.9537 18.4887C16.041 18.5741 16.1008 18.6836 16.1255 18.8032C16.121 18.9015 16.08 18.9945 16.0104 19.0641C15.9409 19.1336 15.8479 19.1747 15.7496 19.1791C15.6991 19.1818 15.6488 19.1709 15.6039 19.1477C15.5638 19.1232 15.5256 19.0958 15.4896 19.0656C15.2929 18.8952 15.1226 18.6967 14.984 18.4764C14.8321 18.2407 14.7036 17.9907 14.6004 17.73C14.4968 17.4681 14.4164 17.1975 14.3603 16.9214C14.3067 16.6658 14.2787 16.4055 14.2767 16.1443C14.2762 15.6025 14.3804 15.0656 14.5836 14.5633C14.7837 14.0594 15.0916 13.6054 15.4857 13.233L17.4803 11.3152L10.8645 4.68095C10.5819 4.39957 10.1992 4.24176 9.80043 4.24215C9.46716 4.23381 9.14148 4.34237 8.87987 4.549C8.62148 4.75555 8.43511 5.03859 8.34747 5.35757L13.2503 10.2512C13.287 10.2862 13.3161 10.3283 13.3359 10.375C13.3557 10.4217 13.3657 10.472 13.3653 10.5227C13.3663 10.572 13.3565 10.6208 13.3366 10.6659C13.3167 10.7109 13.2873 10.7511 13.2503 10.7836C13.1766 10.8521 13.0793 10.8895 12.9787 10.8879C12.9304 10.8892 12.8823 10.8807 12.8375 10.8627C12.7926 10.8448 12.7519 10.8178 12.7179 10.7836L7.68006 5.7419C7.39747 5.46052 7.01482 5.30271 6.61603 5.3031C6.28701 5.29653 5.96602 5.40506 5.7085 5.60996C5.45181 5.81386 5.2656 6.09318 5.17611 6.40855L11.1276 12.3654C11.1643 12.4004 11.1935 12.4425 11.2133 12.4892C11.2331 12.536 11.2431 12.5862 11.2427 12.637C11.2382 12.7352 11.1971 12.8282 11.1276 12.8978C11.058 12.9673 10.965 13.0084 10.8668 13.0129C10.816 13.0133 10.7657 13.0033 10.719 12.9835C10.6723 12.9637 10.6302 12.9345 10.5952 12.8978L5.55508 7.85768C5.4183 7.72002 5.2549 7.61169 5.07485 7.53931C4.83069 7.44227 4.56582 7.4091 4.30527 7.44293C4.04473 7.47675 3.79711 7.57647 3.58583 7.73264C3.31992 7.93177 3.13037 8.21609 3.04883 8.53813L9.00644 14.4858C9.04316 14.5208 9.07231 14.5629 9.0921 14.6096C9.11189 14.6564 9.1219 14.7066 9.12151 14.7573C9.12085 14.8068 9.10979 14.8556 9.08904 14.9006C9.06829 14.9455 9.03832 14.9856 9.00107 15.0182C8.96648 15.054 8.92515 15.0825 8.87947 15.1023C8.83378 15.122 8.78464 15.1326 8.73488 15.1332C8.68585 15.1328 8.63743 15.1224 8.59258 15.1026C8.54772 15.0829 8.50739 15.0541 8.47405 15.0182L5.03035 11.5745C4.92513 11.4698 4.79918 11.3883 4.66059 11.3351C4.52288 11.2804 4.37611 11.252 4.22792 11.2515C4.07883 11.2508 3.93122 11.2811 3.79449 11.3405C3.66108 11.3982 3.53919 11.4796 3.4347 11.5806C3.33053 11.6814 3.24735 11.8019 3.18998 11.935C3.13092 12.0716 3.10088 12.2189 3.10176 12.3677C3.10024 12.5157 3.12907 12.6624 3.18646 12.7989C3.24385 12.9353 3.3286 13.0585 3.43547 13.1609L11.6646 21.1008C11.9056 21.3338 12.1738 21.537 12.4632 21.7061C12.7564 21.8796 13.0645 22.0267 13.3837 22.1457C13.7036 22.2639 14.0336 22.353 14.3695 22.4119C14.6988 22.4701 15.0325 22.4996 15.3668 22.5001C16.12 22.5051 16.866 22.3539 17.5578 22.0559C18.9048 21.4836 19.9773 20.4111 20.5496 19.0641C20.8471 18.3727 20.9981 17.6273 20.993 16.8747" fill="#FFC83D"/>
</g>
</g>
<defs>
<clipPath id="clip0_5_310">
<rect width="22.4995" height="24" fill="white"/>
</clipPath>
</defs>
</svg>
