<svg id="Group_3207" data-name="Group 3207" xmlns="http://www.w3.org/2000/svg" xmlns:xlink="http://www.w3.org/1999/xlink" width="204.015" height="229.44" viewBox="0 0 204.015 229.44">
  <defs>
    <clipPath id="clip-path">
      <rect id="Rectangle_820" data-name="Rectangle 820" width="204.015" height="229.44" fill="none"/>
    </clipPath>
    <clipPath id="clip-path-3">
      <rect id="Rectangle_806" data-name="Rectangle 806" width="181.507" height="181.508" fill="none"/>
    </clipPath>
    <clipPath id="clip-path-4">
      <rect id="Rectangle_807" data-name="Rectangle 807" width="3.837" height="3.718" fill="none"/>
    </clipPath>
    <clipPath id="clip-path-5">
      <rect id="Rectangle_808" data-name="Rectangle 808" width="85.465" height="45.261" fill="none"/>
    </clipPath>
    <clipPath id="clip-path-6">
      <rect id="Rectangle_809" data-name="Rectangle 809" width="48.805" height="57.693" fill="none"/>
    </clipPath>
    <clipPath id="clip-path-7">
      <rect id="Rectangle_810" data-name="Rectangle 810" width="43.841" height="17.287" fill="none"/>
    </clipPath>
    <clipPath id="clip-path-8">
      <rect id="Rectangle_811" data-name="Rectangle 811" width="12.405" height="9.803" fill="none"/>
    </clipPath>
    <clipPath id="clip-path-9">
      <path id="Path_2275" data-name="Path 2275" d="M16.776,6.182c0,.57-.013,3.885-.013,3.885,0,7.787.325,15.866,4.215,21.535A39.415,39.415,0,0,0,33.854,43.043,39.407,39.407,0,0,0,46.73,31.6c3.89-5.67,4.214-13.748,4.214-21.538l0-2.372s-.005-.911-.005-1.509A44.76,44.76,0,0,0,33.854,2.289,44.749,44.749,0,0,0,16.776,6.182" transform="translate(-16.763 -2.289)" fill="none"/>
    </clipPath>
    <linearGradient id="linear-gradient" x1="-0.053" y1="4.406" x2="-0.039" y2="4.406" gradientUnits="objectBoundingBox">
      <stop offset="0" stop-color="#00dad1"/>
      <stop offset="0.461" stop-color="#00c1cb"/>
      <stop offset="0.802" stop-color="#00a4c5"/>
      <stop offset="1" stop-color="#00a4c5"/>
    </linearGradient>
    <clipPath id="clip-path-11">
      <path id="Path_2292" data-name="Path 2292" d="M53.625,27.282a7.993,7.993,0,0,0-7.993,7.993V155.911a7.993,7.993,0,0,0,7.993,7.993h53.063a7.993,7.993,0,0,0,7.993-7.993l.088-2.624,22.409-17.35L122.72,113.528l-8.04,2.259V35.275a7.993,7.993,0,0,0-7.993-7.993Z" transform="translate(-45.632 -27.282)" fill="none"/>
    </clipPath>
    <clipPath id="clip-path-12">
      <path id="Path_2293" data-name="Path 2293" d="M144.023,162.913a3.9,3.9,0,0,0-1.66,5.482,4.469,4.469,0,0,0,5.915,1.311h0a3.9,3.9,0,0,0,1.66-5.482,4.232,4.232,0,0,0-3.624-1.9,4.749,4.749,0,0,0-2.292.59" transform="translate(-141.806 -162.323)" fill="none"/>
    </clipPath>
    <linearGradient id="linear-gradient-2" x1="-10.265" y1="13.133" x2="-10.192" y2="13.133" xlink:href="#linear-gradient"/>
    <clipPath id="clip-path-14">
      <path id="Path_2298" data-name="Path 2298" d="M120.622,174.151l2.577,4.365,1.659-1.107-2.73-4.332Z" transform="translate(-120.622 -173.077)" fill="none"/>
    </clipPath>
    <linearGradient id="linear-gradient-3" x1="-20.584" y1="19.182" x2="-20.413" y2="19.182" xlink:href="#linear-gradient"/>
    <clipPath id="clip-path-17">
      <rect id="Rectangle_818" data-name="Rectangle 818" width="48.001" height="38.301" fill="none"/>
    </clipPath>
  </defs>
  <g id="Group_3246" data-name="Group 3246" clip-path="url(#clip-path)">
    <g id="Group_3226" data-name="Group 3226">
      <g id="Group_3225" data-name="Group 3225" clip-path="url(#clip-path)">
        <path id="Path_2222" data-name="Path 2222" d="M107.187,163.9H52.5a7.994,7.994,0,0,1-7.993-7.993V35.275A7.994,7.994,0,0,1,52.5,27.282h54.684a7.994,7.994,0,0,1,7.993,7.993V155.911a7.994,7.994,0,0,1-7.993,7.993" transform="translate(-12.335 -7.561)" fill="#84bcc1"/>
        <g id="Group_3209" data-name="Group 3209" transform="translate(22.508 32.597)" opacity="0.4">
          <g id="Group_3208" data-name="Group 3208">
            <g id="Group_3207-2" data-name="Group 3207" clip-path="url(#clip-path-3)">
              <path id="Path_2223" data-name="Path 2223" d="M212.644,135.848A90.754,90.754,0,1,1,121.891,45.1a90.754,90.754,0,0,1,90.753,90.753" transform="translate(-31.137 -45.094)" fill="#4ebece"/>
            </g>
          </g>
        </g>
        <path id="Path_2224" data-name="Path 2224" d="M107.992,18.777H48.852a9.325,9.325,0,0,0-9.467,9.175V155.5a9.325,9.325,0,0,0,9.467,9.175h59.139a9.325,9.325,0,0,0,9.468-9.175V27.952a9.325,9.325,0,0,0-9.468-9.175m4.948,133.652a9,9,0,0,1-8.886,9.118H52.791a9,9,0,0,1-8.886-9.118V34.066a9.027,9.027,0,0,1,8.909-9.141h51.24a9,9,0,0,1,8.886,9.118Z" transform="translate(-10.915 -5.204)" fill="#194154"/>
        <path id="Path_2225" data-name="Path 2225" d="M97.447,25.881a6.58,6.58,0,1,1-6.577-6.374,6.478,6.478,0,0,1,6.577,6.374" transform="translate(-23.361 -5.406)" fill="#194154"/>
        <g id="Group_3212" data-name="Group 3212" transform="translate(65.592 18.615)" opacity="0.3">
          <g id="Group_3211" data-name="Group 3211">
            <g id="Group_3210" data-name="Group 3210" clip-path="url(#clip-path-4)">
              <path id="Path_2226" data-name="Path 2226" d="M94.575,27.611a1.919,1.919,0,1,1-1.918-1.859,1.889,1.889,0,0,1,1.918,1.859" transform="translate(-90.738 -25.752)" fill="#dbf2f5"/>
            </g>
          </g>
        </g>
        <g id="Group_3215" data-name="Group 3215" transform="translate(53.013 172.678)" opacity="0.2">
          <g id="Group_3214" data-name="Group 3214">
            <g id="Group_3213" data-name="Group 3213" clip-path="url(#clip-path-5)">
              <path id="Path_2227" data-name="Path 2227" d="M158.8,247.154l-.033-7.66a.612.612,0,0,0-1.1-.365,8.115,8.115,0,0,1-1.754,1.787c-1.884,1.355-5.3,1.519-5.3,1.519H78.083a4.745,4.745,0,0,0-4.746,4.746v32.213a4.745,4.745,0,0,0,4.746,4.746h75.973a4.746,4.746,0,0,0,4.746-4.746V247.181c0-.009,0-.018,0-.027" transform="translate(-73.337 -238.879)" fill="#194154"/>
            </g>
          </g>
        </g>
        <path id="Path_2228" data-name="Path 2228" d="M161.8,243.154l-.033-7.66a.612.612,0,0,0-1.1-.365,8.115,8.115,0,0,1-1.754,1.787c-1.884,1.355-5.3,1.519-5.3,1.519H81.083a4.745,4.745,0,0,0-4.746,4.746v32.936a4.745,4.745,0,0,0,4.746,4.746h75.973a4.746,4.746,0,0,0,4.746-4.746V243.181c0-.009,0-.018,0-.027" transform="translate(-21.155 -65.092)" fill="#fcf9f9"/>
        <path id="Path_2229" data-name="Path 2229" d="M108.785,264.428h0Z" transform="translate(-23.731 -73.281)" fill="#fcf9f9"/>
        <path id="Path_2230" data-name="Path 2230" d="M108.474,264.929H85.32a.813.813,0,1,1,0-1.626h23.153a.813.813,0,1,1,0,1.626" transform="translate(-23.42 -72.97)" fill="#939aa0"/>
        <path id="Path_2231" data-name="Path 2231" d="M124.013,255.814h0Z" transform="translate(-23.731 -70.894)" fill="#fcf9f9"/>
        <path id="Path_2232" data-name="Path 2232" d="M123.7,256.314H85.32a.813.813,0,1,1,0-1.626H123.7a.813.813,0,1,1,0,1.626" transform="translate(-23.42 -70.582)" fill="#939aa0"/>
        <path id="Path_2233" data-name="Path 2233" d="M115.545,272.534h0Z" transform="translate(-23.731 -75.528)" fill="#fcf9f9"/>
        <path id="Path_2234" data-name="Path 2234" d="M115.234,273.036H85.32a.813.813,0,1,1,0-1.626h29.914a.813.813,0,1,1,0,1.626" transform="translate(-23.42 -75.216)" fill="#939aa0"/>
        <path id="Path_2235" data-name="Path 2235" d="M115.545,288.15h0Z" transform="translate(-23.731 -79.855)" fill="#fcf9f9"/>
        <path id="Path_2236" data-name="Path 2236" d="M115.234,288.652H85.32a.813.813,0,0,1,0-1.626h29.914a.813.813,0,1,1,0,1.626" transform="translate(-23.42 -79.544)" fill="#939aa0"/>
        <path id="Path_2237" data-name="Path 2237" d="M108.785,280.342h0Z" transform="translate(-23.731 -77.692)" fill="#fcf9f9"/>
        <path id="Path_2238" data-name="Path 2238" d="M108.474,280.844H85.32a.813.813,0,0,1,0-1.626h23.153a.813.813,0,0,1,0,1.626" transform="translate(-23.42 -77.38)" fill="#939aa0"/>
        <path id="Path_2239" data-name="Path 2239" d="M86.65,256.227h38.829a2.142,2.142,0,1,0,0-4.284H86.65a2.142,2.142,0,0,0,0,4.284" transform="translate(-23.42 -69.821)" fill="#939aa0"/>
        <path id="Path_2240" data-name="Path 2240" d="M153.75,251.943v7.244s3.827,3.238,3.027,6.674-3.313,5.308-6.226,4.972-4.912-.68-5.883.578-.571,7.425-.571,7.425h2.913s-.628-3.142.171-4.284,4.535,3.656,9.835,3.484,14.1-7.026,13.983-14.28-5.941-9.653-8.454-9.368-5.529,2.571-5.529,2.571v-5.017Z" transform="translate(-39.911 -69.821)" fill="#ff7769"/>
        <path id="Path_2241" data-name="Path 2241" d="M146.75,279.25h-2.912a.672.672,0,0,1-.669-.627c-.069-1.073-.364-6.493.71-7.881,1.133-1.468,3.124-1.234,5.883-.9l.609.072c2.623.3,4.794-1.447,5.495-4.459s-2.771-5.98-2.807-6.011a.67.67,0,0,1-.237-.512v-7.242a.671.671,0,0,1,.671-.672h3.267a.671.671,0,0,1,.671.672v3.745a12.643,12.643,0,0,1,4.782-1.968,8.215,8.215,0,0,1,5.858,2.2,10.2,10.2,0,0,1,3.342,7.825c.122,7.713-9.032,14.779-14.632,14.961-3.293.134-6.082-1.626-7.886-2.774a10.22,10.22,0,0,0-1.5-.86,7.9,7.9,0,0,0,.016,3.632.673.673,0,0,1-.659.8m-2.278-1.342h1.486c-.152-1.122-.276-3.013.413-4s1.877-.236,3.244.633c1.764,1.122,4.224,2.688,7.122,2.564,5.093-.164,13.44-6.812,13.332-13.6a8.892,8.892,0,0,0-2.886-6.837,6.852,6.852,0,0,0-4.82-1.874c-2.3.262-5.171,2.417-5.2,2.438a.663.663,0,0,1-.7.066.672.672,0,0,1-.372-.6v-4.345h-1.924v6.272c.876.818,3.777,3.825,3.01,7.126-.854,3.664-3.639,5.888-6.956,5.486l-.612-.072c-2.318-.27-3.994-.473-4.663.393-.468.605-.6,3.637-.468,6.345" transform="translate(-39.652 -69.564)" fill="#dd4231"/>
        <path id="Path_2242" data-name="Path 2242" d="M172.779,54.861V45.223a4.649,4.649,0,0,0-4.649-4.649H131.661a4.649,4.649,0,0,0-4.649,4.649V90.578a4.649,4.649,0,0,0,4.649,4.649H168.13a4.649,4.649,0,0,0,4.649-4.649V54.861Z" transform="translate(-35.199 -11.244)" fill="#fff"/>
        <path id="Path_2243" data-name="Path 2243" d="M143.594,97.975c-2.726,0-4.936-1.775-4.936-3.964V75.441c0-2.19,2.21-3.964,4.936-3.964s4.936,1.775,4.936,3.964v18.57c0,2.19-2.21,3.964-4.936,3.964" transform="translate(-38.427 -19.809)" fill="#fcf9f9"/>
        <path id="Path_2244" data-name="Path 2244" d="M143.288,98.37c-3.162,0-5.732-2.064-5.732-4.6V75.2c0-2.539,2.571-4.6,5.732-4.6s5.732,2.065,5.732,4.6v18.57c0,2.539-2.571,4.6-5.732,4.6m0-26.5c-2.282,0-4.138,1.491-4.138,3.324v18.57c0,1.833,1.856,3.324,4.138,3.324s4.139-1.491,4.139-3.324V75.2c0-1.832-1.857-3.324-4.139-3.324" transform="translate(-38.121 -19.564)" fill="#939aa0"/>
        <path id="Path_2245" data-name="Path 2245" d="M148.53,90.449v9.359c0,1.9-2.211,3.444-4.933,3.444s-4.938-1.54-4.938-3.444V90.449Z" transform="translate(-38.427 -25.066)" fill="#ff7467"/>
        <path id="Path_2246" data-name="Path 2246" d="M143.291,103.633c-3.163,0-5.734-1.823-5.734-4.063V90.212a.725.725,0,0,1,.8-.619h9.871a.724.724,0,0,1,.8.619v9.359c0,2.239-2.571,4.063-5.73,4.063m-4.141-12.8v8.741c0,1.559,1.857,2.826,4.137,2.826s4.141-1.267,4.141-2.826V90.83Z" transform="translate(-38.121 -24.829)" fill="#e15241"/>
        <path id="Path_2247" data-name="Path 2247" d="M164.684,95.952a6.515,6.515,0,1,1-6.515-6.515,6.515,6.515,0,0,1,6.515,6.515" transform="translate(-42.028 -24.786)" fill="#fcf9f9"/>
        <path id="Path_2248" data-name="Path 2248" d="M157.863,102.96a7.312,7.312,0,1,1,7.313-7.313,7.32,7.32,0,0,1-7.313,7.313m0-13.03a5.719,5.719,0,1,0,5.719,5.718,5.723,5.723,0,0,0-5.719-5.718" transform="translate(-41.723 -24.481)" fill="#939aa0"/>
        <path id="Path_2249" data-name="Path 2249" d="M164.62,98.45a6.422,6.422,0,1,1-12.842,0Z" transform="translate(-42.062 -27.284)" fill="#fcf9f9"/>
        <path id="Path_2250" data-name="Path 2250" d="M157.9,105.456a7.274,7.274,0,0,1-7.22-7.311.8.8,0,0,1,.8-.8h12.842a.8.8,0,0,1,.8.8,7.272,7.272,0,0,1-7.215,7.311m-5.575-6.514a5.615,5.615,0,0,0,11.144,0Z" transform="translate(-41.757 -26.978)" fill="#939aa0"/>
        <g id="Group_3218" data-name="Group 3218" transform="translate(90.293 27.809)" opacity="0.2">
          <g id="Group_3217" data-name="Group 3217">
            <g id="Group_3216" data-name="Group 3216" clip-path="url(#clip-path-6)">
              <path id="Path_2251" data-name="Path 2251" d="M145.082,96.164h-14.2a5.976,5.976,0,0,1-5.976-5.976V44.447a5.976,5.976,0,0,1,5.976-5.976h36.856a5.974,5.974,0,0,1,5.973,5.974v9.111a.8.8,0,1,1-1.593,0V44.447a4.382,4.382,0,0,0-4.382-4.383H130.886a4.383,4.383,0,0,0-4.383,4.383V90.188a4.383,4.383,0,0,0,4.383,4.383h14.2a.8.8,0,1,1,0,1.593" transform="translate(-124.91 -38.471)" fill="#194154"/>
            </g>
          </g>
        </g>
        <path id="Path_2252" data-name="Path 2252" d="M137.706,53.329h29.211a2.1,2.1,0,0,0,0-4.2H137.706a2.1,2.1,0,0,0,0,4.2" transform="translate(-37.581 -13.616)" fill="#939aa0"/>
        <g id="Group_3221" data-name="Group 3221" transform="translate(0 71.331)" opacity="0.8">
          <g id="Group_3220" data-name="Group 3220">
            <g id="Group_3219" data-name="Group 3219" clip-path="url(#clip-path-7)">
              <path id="Path_2253" data-name="Path 2253" d="M2.031,98.678H41.811a2.03,2.03,0,0,1,2.03,2.031v13.227a2.03,2.03,0,0,1-2.03,2.03H2.031A2.03,2.03,0,0,1,0,113.936V100.709a2.03,2.03,0,0,1,2.031-2.031" transform="translate(0 -98.678)" fill="#ff7467"/>
              <path id="Path_2254" data-name="Path 2254" d="M14.193,102.955a3.312,3.312,0,0,0-3.154,3.449,3.311,3.311,0,0,0-3.155-3.449A3.312,3.312,0,0,0,4.731,106.4a4.589,4.589,0,0,0,.47,1.921l.424-.013.552-.017,1.1-.029,1.1-.025,1.1-.021,1.1-.018.552-.008.4-.005.054-.141.108-.278.109-.277c.035-.093.073-.185.11-.278l.222-.552.225-.552.32-.784.163.832.054.275.053.275.1.55.053.276.051.275.1.552.051.276.049.276.1.552.067.383c.051-.127.1-.254.156-.38l.11-.267.111-.267.223-.532.041-.095h1.767l.936,0a4.6,4.6,0,0,0,.464-1.91,3.314,3.314,0,0,0-3.156-3.449" transform="translate(-1.311 -99.863)" fill="#fff"/>
              <path id="Path_2255" data-name="Path 2255" d="M14.6,110.878l-.155.456-.093.27-.095.273c-.064.181-.124.364-.19.544l-.192.544-.245.693-.16-.728c-.042-.183-.078-.366-.117-.549l-.116-.549-.114-.549-.056-.275-.056-.275-.111-.55-.056-.275-.054-.275-.055-.28-.138.325c-.039.092-.077.184-.117.274l-.119.274-.119.273-.12.273-.061.14-.146,0-.552-.006-.552-.006-1.1-.017-1.1-.02-1.1-.024-1.1-.028-.552-.016-.336-.011c1.541,3.079,5.751,5.772,5.751,5.772s4.2-2.686,5.746-5.76l-.833.031Z" transform="translate(-1.525 -101.637)" fill="#fff"/>
              <path id="Path_2256" data-name="Path 2256" d="M41.573,116.168H25.513a.412.412,0,1,1,0-.823h16.06a.412.412,0,1,1,0,.823" transform="translate(-6.956 -103.297)" fill="#fff"/>
              <path id="Path_2257" data-name="Path 2257" d="M37.236,112.168H25.513a.412.412,0,1,1,0-.823H37.236a.412.412,0,1,1,0,.823" transform="translate(-6.956 -102.188)" fill="#fff"/>
              <path id="Path_2258" data-name="Path 2258" d="M26.186,107.762h19.66a1.085,1.085,0,0,0,0-2.169H26.186a1.085,1.085,0,0,0,0,2.169" transform="translate(-6.957 -100.594)" fill="#fff"/>
            </g>
          </g>
        </g>
        <path id="Path_2259" data-name="Path 2259" d="M224.2,89.275c0,.5.022.846.022,1,.087,1.583-5.7,1.865-5.7,1.865l.564,4.988,3.947,1.128-.152.824-1.236,6.484-15.939-3.47,6.246-4.294-.13-5.031s-5.118.065-7-2.147c-1.865-2.212-1.778-7.135-1.778-7.135s-1.973-1.41-1.973-2.993c0-1.6,1.973-1.54,2.667-3.144.694-1.583-.152-5.9,1.431-9.217,1.6-3.34,7.2-4.923,7.2-4.923l11.862-.282s-.065,21.252-.022,26.349" transform="translate(-55.721 -17.439)" fill="#f9aa8f"/>
        <path id="Path_2260" data-name="Path 2260" d="M198.99,148.516s-1.171,5.942-2.19,11.06c-.651,3.318-1.236,6.267-1.41,7.091-.412,2.06-7.265,14.595-7.395,16.612-.152,2-1.193,8.306-1.106,9.542.065,1.236.759,3.6.412,3.947a1.159,1.159,0,0,1-.976.2s.477,1.193.347,1.54c-.087.217-.477.2-.781.13a1.738,1.738,0,0,1-.325-.065s-.065,1.323-.347,1.323a7.87,7.87,0,0,1-.846-.087s-.13,1.67-.954.911-4.771-6.376-4.359-9.477c.412-3.123,5.183-11.407,5.183-11.407s4.077-15.961,4.25-17.522c.2-1.583,1.236-12.1,1.236-12.1Z" transform="translate(-49.615 -41.158)" fill="#f9aa8f"/>
        <path id="Path_2261" data-name="Path 2261" d="M260.888,154.157a5.048,5.048,0,0,1-2.6,3.925c-.369.217-.607.325-.607.325l-11.363-1.952-.564-3.383-2.3-13.966,11.038-2.32s1,2.234,2.212,5.118c1.713,4.1,3.86,9.52,4.142,11.732a2.389,2.389,0,0,1,.043.52" transform="translate(-67.468 -37.908)" fill="#f9aa8f"/>
        <path id="Path_2262" data-name="Path 2262" d="M198.353,314.313c.415.277,16.334,0,16.334,0a10.3,10.3,0,0,0,.415-2.976,30.633,30.633,0,0,0-1.038-4.637l-8.028.484s-10.116,4.637-10.323,5.883,2.641,1.245,2.641,1.245" transform="translate(-54.235 -84.996)" fill="#1e5259"/>
        <path id="Path_2263" data-name="Path 2263" d="M230.679,313.985h11.35s.646-4.115-.922-5.683a10.475,10.475,0,0,1-2.215-3.23l-4.337,1.661s-2.584,1.877-3.045,3.384a35.385,35.385,0,0,0-.831,3.868" transform="translate(-63.928 -84.545)" fill="#1e5259"/>
        <path id="Path_2264" data-name="Path 2264" d="M236.752,203.12c-.325,22.1-3.578,75.164-3.578,75.164h-6.788l-4.966-61.719-3.058.824-1.648,60.894h-8.978s-3.491-45.671-4.229-67.14c-.108-2.928-.2-5.834-.282-8.7a16.464,16.464,0,0,0,7.113,2.841c3.86.369,17.609-1.128,26.414-2.169" transform="translate(-56.32 -56.105)" fill="#6a8f9b"/>
        <g id="Group_3224" data-name="Group 3224" transform="translate(156.098 71.836)" opacity="0.3">
          <g id="Group_3223" data-name="Group 3223">
            <g id="Group_3222" data-name="Group 3222" clip-path="url(#clip-path-8)">
              <path id="Path_2265" data-name="Path 2265" d="M222.643,102.239l.564,4.988,3.947,1.128-.152.824-5.985-1.063-.173-3.8-4.9-1.453a45,45,0,0,0,7.308-1.648c2.559-.824,4.229-1.5,5.075-1.843,0,.5.022.846.022,1,.087,1.583-5.7,1.865-5.7,1.865" transform="translate(-215.943 -99.376)" fill="#cc6148"/>
            </g>
          </g>
        </g>
        <path id="Path_2266" data-name="Path 2266" d="M243.261,135.707l-9.173,6.549v32.4c0,.954,0,2.017-.022,3.166-8.8,1.041-22.553,2.537-26.414,2.169a16.464,16.464,0,0,1-7.113-2.841c-.607-18.151-1.019-33.96-1.019-33.96l-5.985-1.865s2.776-18.715,4.142-20.927c1.388-2.234,10.431-7.937,10.431-7.937s-.954,4.381,4.706,4.836c5.682.455,6.831-6.137,6.831-6.137s11.168,3.773,14.313,6.636c3.123,2.863,9.3,17.913,9.3,17.913" transform="translate(-53.635 -30.805)" fill="#fcf9f9"/>
        <path id="Path_2267" data-name="Path 2267" d="M223.9,88.633c-1.735.412-2.689.976-3.079-1.518a41.962,41.962,0,0,1,0-6.094s3.99-1.041,3.014-4.641-5.27-1.518-5.27-1.518-.26-5.964-.412-6.788c0-.065-.065-.13-.173-.152-1.041-.347-6.332,1.106-7.221-1.084-.8-2,0-2.711,0-2.711s-8.523.694-8.523-4.077c0-8.718,8.306-8.241,8.306-8.241s1.735-2.494,6.506-2.277c4.771.2,5.9,6.094,5.9,6.094s2.971-4.511,6.918-.434a5.834,5.834,0,0,1,1.583,2.776c.651,2.971-1.8,5.335-1.8,5.335s3.838-.651,4.359,1.8c1.171,5.53-8.219,23.074-10.106,23.529" transform="translate(-56.046 -13.723)" fill="#773128"/>
        <path id="Path_2268" data-name="Path 2268" d="M231.446,57.969c-.911,3.34-6.9,1.258-6.9,1.258s1.3,3.383-1.388,4.25a5.535,5.535,0,0,1-3.925.087c.347.325,1.279,1.366.043,3.231a3.513,3.513,0,0,1-1.3,1.128c-1.041-.347-6.332,1.106-7.221-1.084-.8-2,0-2.711,0-2.711s-8.523.694-8.523-4.077c0-8.718,8.306-8.241,8.306-8.241s1.735-2.494,6.506-2.277c4.771.2,5.9,6.094,5.9,6.094s2.971-4.511,6.918-.434a5.834,5.834,0,0,1,1.583,2.776" transform="translate(-56.046 -13.723)" fill="#a54d3c"/>
        <path id="Path_2269" data-name="Path 2269" d="M225.621,89.067a.543.543,0,0,1-.468-.815,3.279,3.279,0,0,1,2.29-1.652.55.55,0,0,1,.533.36.542.542,0,0,1-.184.616l-1.845,1.384a.549.549,0,0,1-.326.108" transform="translate(-62.377 -24)" fill="#cc6148"/>
        <path id="Path_2270" data-name="Path 2270" d="M210.811,179.078a10.034,10.034,0,1,1,10.034-10.034,10.045,10.045,0,0,1-10.034,10.034m0-18.442a8.408,8.408,0,1,0,8.408,8.408,8.418,8.418,0,0,0-8.408-8.408" transform="translate(-55.642 -44.067)" fill="#ff7769"/>
        <path id="Path_2271" data-name="Path 2271" d="M217.922,170.862a5.293,5.293,0,1,1-5.293-5.293,5.293,5.293,0,0,1,5.293,5.293" transform="translate(-57.459 -45.884)" fill="#ff7769"/>
        <path id="Path_2272" data-name="Path 2272" d="M212.213,176.823a6.376,6.376,0,1,1,6.376-6.376,6.384,6.384,0,0,1-6.376,6.376m0-10.584a4.208,4.208,0,1,0,4.208,4.208,4.211,4.211,0,0,0-4.208-4.208" transform="translate(-57.044 -45.469)" fill="#ff7769"/>
        <path id="Path_2273" data-name="Path 2273" d="M250.613,166.3a5,5,0,0,1-1.757.607,53.947,53.947,0,0,1-9.78.694c-4.294-.108-12.643-2.407-13.554-2.364-.932.043-2.819,3.145-4.576,4.836-1.757,1.713-5.855,4.489-6.614,4.142a.96.96,0,0,1-.542-1.193s-.694,1-1.518.651c-.586-.239-.087-1.106,0-1.258-.173.065-1.041.434-1.323.217-.52-.412.173-1.214.173-1.214s-.716.412-1-.065c-.26-.477.239-2.147.867-3.253.607-1.106,9.412-6.289,11.212-7.135,1.8-.824,5.053-.954,7.612-1.041,1.388-.043,4.316-.455,6.679-.846,1.973-.325,3.557-.607,3.557-.607s5.009.239,8.436.586a10.326,10.326,0,0,1,3.1.586c.022.022.043.043.043.065.152.716.282,5.617-1.019,6.593" transform="translate(-58.213 -43.919)" fill="#f9aa8f"/>
        <path id="Path_2274" data-name="Path 2274" d="M51.85,7.051,51.84,4.48l-.967-.439A46.258,46.258,0,0,0,33.11,0,46.318,46.318,0,0,0,15.348,4.041l-.97.438-.013,4.948c0,8.051.348,16.415,4.5,22.478A40.813,40.813,0,0,0,32.311,43.856l.8.442.8-.442A40.822,40.822,0,0,0,47.35,31.9c4.158-6.065,4.507-14.426,4.507-22.475Z" transform="translate(-3.981)" fill="#fff"/>
      </g>
    </g>
    <g id="Group_3228" data-name="Group 3228" transform="translate(12.117 1.655)">
      <g id="Group_3227" data-name="Group 3227" clip-path="url(#clip-path-9)">
        <rect id="Rectangle_813" data-name="Rectangle 813" width="52.855" height="53.086" transform="translate(-20.352 19.367) rotate(-43.58)" fill="url(#linear-gradient)"/>
      </g>
    </g>
    <g id="Group_3230" data-name="Group 3230">
      <g id="Group_3229" data-name="Group 3229" clip-path="url(#clip-path)">
        <path id="Path_2276" data-name="Path 2276" d="M46.961,20.547H39.666V13.253H34.441v7.294H27.149v5.226h7.292v7.3h5.225v-7.3h7.294Z" transform="translate(-7.524 -3.673)" fill="#fff"/>
      </g>
    </g>
    <g id="Group_3232" data-name="Group 3232" transform="translate(32.986 19.721)">
      <g id="Group_3231" data-name="Group 3231" clip-path="url(#clip-path-11)">
        <path id="Path_2277" data-name="Path 2277" d="M64.747,206.893h42.471c-.1-1.059-.2-2.088-.306-3.118-.458-4.56-.955-8.915-1.439-12.608-.064-.471-.445-1.53-.509-1.961-.344-2.573-.7-4.406-.828-5.323a10.093,10.093,0,0,0-.267-1.108c-.458-.216.013-.165-.509-.343-12.289-4.419-35.976.255-35.976.255s-.013.113-.051.33c-.025.267-.077.688-.14,1.223-.14,1.171-.343,2.9-.573,4.929v.038c-.012.064-.012.128-.025.191-.523,4.531-1.184,10.4-1.579,14.378-.114,1.261-.216,2.344-.267,3.119" transform="translate(-50.929 -69.752)" fill="#2f4563"/>
        <path id="Path_2278" data-name="Path 2278" d="M119.456,182.062l.332-.033c-.008-.079-.792-7.854-.511-10.249l-.332-.039c-.285,2.431.479,10,.511,10.321" transform="translate(-65.932 -67.316)" fill="#e0a05f"/>
        <path id="Path_2279" data-name="Path 2279" d="M49.662,119.615l9.18.758c.1-1.147.171-1.925.171-1.925s2.663,29.689,2.663,34.275.471,15.893.471,15.893,3.652,5.555,21.395,4.847c0,0,18.473-2.017,17.584-10.255-2.706-25.114-.873-43.306-.426-43.529.147-.074.606,1.409,1.124,3.494l10.959-.661c-2.039-10.9-5.7-25.483-8.323-26.656-2.746-1.222-11.486-3.943-17.129-5.654-2.922-.887-5.016-1.5-5.016-1.5H72.161s-.662.213-1.747.593c-4.433,1.556-15.91,5.926-17.966,10.143-1.412,2.9-2.15,11.684-2.788,20.18" transform="translate(-46.748 -44.302)" fill="#3a7eb8"/>
        <path id="Path_2280" data-name="Path 2280" d="M63.611,154.661c.114,2.368-.739,12.735-1.77,23.891-.1,1.032-.2,2.076-.294,3.118H72.83c.038-1.032.09-2.075.127-3.118.98-23.216,2.152-49.386,2.573-54.353.79-9.258-1.936-34.677-1.936-34.677-5.539,1.184-12.442,5.425-12.442,5.425l.28,22.668s1.911,31.469,2.177,37.046" transform="translate(-49.933 -44.53)" fill="#fff"/>
        <path id="Path_2281" data-name="Path 2281" d="M58.4,119.917s-.306,10.243-.029,11.121,2.095,1.076,2.095,1.076l.682,10.5s-10.461-1.319-12.722-4.3.095-24.236.807-29,1.051-9.187,4.048-11.23A51.367,51.367,0,0,1,61.591,94Z" transform="translate(-46.141 -45.772)" fill="#fff"/>
        <path id="Path_2282" data-name="Path 2282" d="M101.657,118.968s2.471,32.232,4.992,59.931c.089,1.045.191,2.088.28,3.119h12.022c-.14-1.032-.267-2.075-.408-3.119-1.566-12.327-3.03-24.158-3.248-27.087-.5-6.61-.267-31.558-.267-31.558L113.182,94.4a110.8,110.8,0,0,0-11.525-3.63s-.612,19.115,0,28.2" transform="translate(-61.083 -44.877)" fill="#fff"/>
        <path id="Path_2283" data-name="Path 2283" d="M116.68,95.415s7.3.906,8.455,4.54,5.464,17.6,6.644,24.405,3.541,15.646,3.541,15.646l-8.377,6.623a36.315,36.315,0,0,1-5.652-14.574c-1.325-8.65-3.043-12.462-3.043-12.462Z" transform="translate(-65.322 -46.164)" fill="#fff"/>
        <path id="Path_2284" data-name="Path 2284" d="M138.152,169.837s1.163,3.465,2.032,3.763,1.814,1.511,2.542,1.928,3.11.849,3.69,1.543c.235.283,1.019,2.6,1.563,3.118s1.77,1.454,1.314,1.909-1.777-.076-1.777-.076a.977.977,0,0,1,.189,1.035c-.539,1.025-1.261,1-1.261,1s.147.826-.184,1.195a1.938,1.938,0,0,1-1.428.765,1.846,1.846,0,0,1-.732,1.042,1.647,1.647,0,0,1-1.621.1s-.815.912-1.453.652a5.945,5.945,0,0,1-1.412-1.127,22.567,22.567,0,0,1-4.182-8.116,27.225,27.225,0,0,0-2.654-6.751Z" transform="translate(-69.783 -66.789)" fill="#eea987"/>
        <path id="Path_2285" data-name="Path 2285" d="M123.6,185.756l-11.3-18.908L139.23,148.2l12.816,18.51Z" transform="translate(-64.107 -60.792)" fill="#285173"/>
        <path id="Path_2286" data-name="Path 2286" d="M125.213,184.494l-9.886-16.87,23.965-16.593L150.7,167.5Z" transform="translate(-64.947 -61.577)" fill="#e6feff"/>
        <path id="Path_2287" data-name="Path 2287" d="M149.322,184.695s-2.536-3.478-3.969-3.565-.585,1.219-.585,1.219-.817-1.305-1.9-.771-.01,2.012-.01,2.012a1.186,1.186,0,0,0-1.676.038c-.02.021-.039.043-.058.065-.855.928.3,1.952.3,1.952s-1.861-.473-1.616,1.11a6.734,6.734,0,0,0,3.064,4.219,1.379,1.379,0,0,0,1.583-.6,1.626,1.626,0,0,0,2.354-1.141s2.136-.257,1.647-1.974a1.516,1.516,0,0,0,.857-2.565" transform="translate(-71.727 -69.917)" fill="#db9c7c"/>
        <path id="Path_2288" data-name="Path 2288" d="M100.946,154.823s.781-.167,3.09.853c3.066,1.353,6.809,3.458,6.971,4.228.236,1.108-.672,1.212-2.4.173s-2.289-1.386-2.289-1.386,2.707,2.6,2.916,3.531-.546,1.637-1.074,1.282a15.443,15.443,0,0,1-1.548-1.384s.987,1.243.608,1.778c-.281.4-.755.883-1.947-.076,0,0-.192,1.509-1.737.823a26.5,26.5,0,0,1-4.926-3.257,28.97,28.97,0,0,0-4.6-3.119L95.282,155a16.236,16.236,0,0,1,4.078-.494c.973.176,1.586.314,1.586.314" transform="translate(-59.039 -62.53)" fill="#eea886"/>
        <rect id="Rectangle_815" data-name="Rectangle 815" width="0.854" height="10.099" transform="matrix(0.812, -0.584, 0.584, 0.812, 47.092, 95.663)" fill="#eb4747"/>
        <path id="Path_2289" data-name="Path 2289" d="M110.843,159.548s3.39,2.274,4.276,2.1.683-1.077-.673-1.942-3.715-2.143-3.715-2.143a1.307,1.307,0,0,0-.043,1.848,1.257,1.257,0,0,0,.154.137" transform="translate(-63.561 -63.386)" fill="#eea886"/>
        <path id="Path_2290" data-name="Path 2290" d="M88.882,150.876s-23.32-4.694-25.048-4.136l-.383,10.088s9.183,2.156,24.635.651Z" transform="translate(-50.57 -60.375)" fill="#fff"/>
        <path id="Path_2291" data-name="Path 2291" d="M118.94,170.766l1.216.957-.522-1.457Z" transform="translate(-65.948 -66.907)" fill="#eb4747"/>
      </g>
    </g>
    <g id="Group_3234" data-name="Group 3234" transform="translate(102.507 117.338)">
      <g id="Group_3233" data-name="Group 3233" clip-path="url(#clip-path-12)">
        <rect id="Rectangle_816" data-name="Rectangle 816" width="9.926" height="8.534" transform="translate(-0.618 0)" fill="url(#linear-gradient-2)"/>
      </g>
    </g>
    <g id="Group_3236" data-name="Group 3236" transform="translate(32.986 19.721)">
      <g id="Group_3235" data-name="Group 3235" clip-path="url(#clip-path-11)">
        <path id="Path_2294" data-name="Path 2294" d="M149.44,166.317l-.889-1.248-4.379,2.752.889,1.248Z" transform="translate(-72.941 -65.467)" fill="#fff"/>
        <path id="Path_2295" data-name="Path 2295" d="M146.321,164.524l-1.4.878,2.785,3.909,1.4-.878Z" transform="translate(-73.149 -65.316)" fill="#fff"/>
        <path id="Path_2296" data-name="Path 2296" d="M129.372,188.453l1.66-1.106-4.219-6.908-1.506,1.074Z" transform="translate(-67.712 -69.727)" fill="#194154"/>
      </g>
    </g>
    <g id="Group_3238" data-name="Group 3238" transform="translate(87.194 125.112)">
      <g id="Group_3237" data-name="Group 3237" clip-path="url(#clip-path-14)">
        <rect id="Rectangle_817" data-name="Rectangle 817" width="4.236" height="5.439" transform="translate(0 0)" fill="url(#linear-gradient-3)"/>
      </g>
    </g>
    <g id="Group_3240" data-name="Group 3240" transform="translate(32.986 19.721)">
      <g id="Group_3239" data-name="Group 3239" clip-path="url(#clip-path-11)">
        <path id="Path_2299" data-name="Path 2299" d="M63.1,121.3l2.082,18.451s-2.311.095-3.264-.791S63.1,121.3,63.1,121.3" transform="translate(-50.077 -53.336)" fill="#a9adba"/>
        <path id="Path_2300" data-name="Path 2300" d="M96.137,117.116l.113-.8a3.333,3.333,0,0,1-2.824-3.766l1.285-9.034a3.334,3.334,0,0,1,3.765-2.825l3.663.522.113-.8-3.662-.521a4.142,4.142,0,0,0-4.678,3.513l-1.287,9.033a4.141,4.141,0,0,0,3.513,4.678" transform="translate(-58.644 -47.393)" fill="#2f4563"/>
        <path id="Path_2301" data-name="Path 2301" d="M107.994,118.5a4.142,4.142,0,0,0,4.678-3.513l1.285-9.034a4.141,4.141,0,0,0-3.512-4.678l-4.531-.645-.113.8,4.531.647a3.334,3.334,0,0,1,2.825,3.766l-1.282,9.031a3.333,3.333,0,0,1-3.766,2.824Z" transform="translate(-62.306 -47.608)" fill="#2f4563"/>
        <path id="Path_2302" data-name="Path 2302" d="M96.564,122.8a.723.723,0,1,0,.818-.614.723.723,0,0,0-.818.614" transform="translate(-59.745 -53.581)" fill="#6ea2e8"/>
        <path id="Path_2303" data-name="Path 2303" d="M107.92,124.415a.723.723,0,1,0,.818-.614.723.723,0,0,0-.818.614" transform="translate(-62.892 -54.028)" fill="#6ea2e8"/>
        <path id="Path_2304" data-name="Path 2304" d="M76.151,120.6l.786-.223a89.29,89.29,0,0,1-2.73-22.223c.026-4.67.829-7.566,2.527-9.112,2.266-2.065,6.032-1.734,11.246-1.277l.914.079a8.444,8.444,0,0,1,6.113,2.875,10.169,10.169,0,0,1,1.858,6.839l.812.1a10.825,10.825,0,0,0-2.031-7.448,9.218,9.218,0,0,0-6.683-3.178l-.912-.079c-5.217-.458-9.337-.82-11.869,1.487-1.879,1.711-2.766,4.8-2.793,9.712A90.122,90.122,0,0,0,76.151,120.6" transform="translate(-53.325 -43.724)" fill="#2f4563"/>
        <path id="Path_2305" data-name="Path 2305" d="M80.9,77.878s.26,6.1-.33,7.418,7.82,5.561,12.95.836c0,0-1.24-6.628-.895-8.977s-11.724.722-11.724.722" transform="translate(-55.307 -40.858)" fill="#eea987"/>
        <path id="Path_2306" data-name="Path 2306" d="M84.684,42.3s-9.393,1.3-8.3,16.332,9.383,13.982,9.934,13.979,8.287.456,9.3-17.841c0,0,.562-13.534-10.93-12.469" transform="translate(-54.131 -31.429)" fill="#eea886"/>
        <path id="Path_2307" data-name="Path 2307" d="M75.785,58.859s-1-1.144-1.4-.017,1.2,6.053,1.32,6.467c0,0,.176.444.429.207s-.347-6.656-.347-6.656" transform="translate(-53.582 -35.891)" fill="#eea886"/>
        <path id="Path_2308" data-name="Path 2308" d="M102.495,59.186s1.028-1.118,1.4.017-1.4,6.242-1.482,6.432c0,0-.188.44-.434.2s.516-6.645.516-6.645" transform="translate(-61.234 -35.987)" fill="#eea886"/>
        <path id="Path_2309" data-name="Path 2309" d="M75.9,56.239,77.2,58.1a37.462,37.462,0,0,1,.28-4.649c.229-.626-.192-2.832,0-3.283s6.374,1.377,16.6.563c0,0-1.215,3.6-.555,3.87s.235,4.718.235,4.718l1.13-1.248s1.412-7.58,1.319-8.852c-.124-1.693.624-9.573-13.765-8.536a8.684,8.684,0,0,0-4.574,1.683,6.488,6.488,0,0,0-2.974,5.355A82.77,82.77,0,0,0,75.9,56.24" transform="translate(-53.74 -30.971)" fill="#0a293b"/>
        <path id="Path_2310" data-name="Path 2310" d="M92.058,80.9s-3.89,4.344-9.814-.217c0,0,1.614,3.4,5.152,3.554S92.058,80.9,92.058,80.9" transform="translate(-55.778 -42.08)" fill="#a77860"/>
        <path id="Path_2311" data-name="Path 2311" d="M74.793,131.144a2.815,2.815,0,1,0,2.815-2.815,2.814,2.814,0,0,0-2.815,2.815" transform="translate(-53.713 -55.285)" fill="#6ea2e8"/>
        <path id="Path_2312" data-name="Path 2312" d="M76.614,131.649a1.5,1.5,0,1,0,1.5-1.5A1.5,1.5,0,0,0,76.614,131.649Z" transform="translate(-54.218 -55.79)" fill="#537bb0"/>
        <path id="Path_2313" data-name="Path 2313" d="M157.165,164.906l-5.656-8.367,2.053-1.421,5.889,8.505Z" transform="translate(-74.974 -62.709)" fill="#285173"/>
      </g>
    </g>
    <g id="Group_3245" data-name="Group 3245">
      <g id="Group_3244" data-name="Group 3244" clip-path="url(#clip-path)">
        <g id="Group_3243" data-name="Group 3243" transform="translate(11.273 129.986)" opacity="0.2">
          <g id="Group_3242" data-name="Group 3242">
            <g id="Group_3241" data-name="Group 3241" clip-path="url(#clip-path-17)">
              <path id="Path_2315" data-name="Path 2315" d="M55.808,218.121H23.381a7.787,7.787,0,0,1-7.787-7.787V187.608a7.787,7.787,0,0,1,7.787-7.787H55.808a7.787,7.787,0,0,1,7.787,7.787v22.727a7.787,7.787,0,0,1-7.787,7.787" transform="translate(-15.594 -179.82)" fill="#194154"/>
            </g>
          </g>
        </g>
        <path id="Path_2316" data-name="Path 2316" d="M59.369,216.121H23.821a6.227,6.227,0,0,1-6.227-6.227V184.047a6.227,6.227,0,0,1,6.227-6.226H59.369a6.227,6.227,0,0,1,6.227,6.226v25.848a6.227,6.227,0,0,1-6.227,6.227" transform="translate(-4.876 -49.28)" fill="#fcf9f9"/>
        <path id="Path_2317" data-name="Path 2317" d="M31.106,201.235H27.757a.813.813,0,1,1,0-1.626h3.348a.813.813,0,1,1,0,1.626" transform="translate(-7.467 -55.318)" fill="#939aa0"/>
        <path id="Path_2318" data-name="Path 2318" d="M32.021,194.492a.8.8,0,0,1-.364-.087l-2.717-1.36a.813.813,0,0,1,.728-1.453l2.717,1.36a.813.813,0,0,1-.364,1.54" transform="translate(-7.896 -53.072)" fill="#939aa0"/>
        <path id="Path_2319" data-name="Path 2319" d="M72.839,201.235H69.493a.813.813,0,1,1,0-1.626h3.346a.813.813,0,1,1,0,1.626" transform="translate(-19.033 -55.318)" fill="#939aa0"/>
        <path id="Path_2320" data-name="Path 2320" d="M68.816,194.492a.813.813,0,0,1-.364-1.54l2.717-1.36a.813.813,0,0,1,.729,1.453l-2.717,1.36a.8.8,0,0,1-.364.087" transform="translate(-18.846 -53.072)" fill="#939aa0"/>
        <path id="Path_2321" data-name="Path 2321" d="M45.354,210.745a1.652,1.652,0,0,1-1.65-1.65H42.059a3.3,3.3,0,0,0,6.6.2c0-.029,0-.059,0-.087v-.108H47.008a1.652,1.652,0,0,1-1.653,1.65m10.793-7.489c-1.442-1.373-2.545-2.809-2.545-7.678a8.043,8.043,0,0,0-7.426-7.853v-.9a.825.825,0,1,0-1.649-.069q0,.035,0,.069v.9a8.043,8.043,0,0,0-7.423,7.852c0,4.867-1.1,6.3-2.544,7.676a2.4,2.4,0,0,0-.58,2.643,2.458,2.458,0,0,0,2.3,1.545H54.426a2.457,2.457,0,0,0,2.3-1.545,2.4,2.4,0,0,0-.587-2.643Zm-1.721,2.536H36.28a.783.783,0,0,1-.587-1.344c1.8-1.706,3.056-3.622,3.056-8.871a6.608,6.608,0,0,1,13.2,0c0,5.225,1.248,7.15,3.056,8.871a.783.783,0,0,1-.587,1.344Z" transform="translate(-9.369 -51.536)" fill="#939aa0"/>
        <path id="Path_2322" data-name="Path 2322" d="M60,187.031a4.406,4.406,0,1,1-4.405,4.405A4.405,4.405,0,0,1,60,187.031" transform="translate(-15.408 -51.832)" fill="#e15241"/>
      </g>
    </g>
  </g>
</svg>
