<svg width="16" height="17" viewBox="0 0 16 17" fill="none" xmlns="http://www.w3.org/2000/svg">
<path d="M7.33325 11.8335H8.66659V7.8335H7.33325V11.8335ZM7.99992 6.50016C8.18881 6.50016 8.34725 6.43616 8.47525 6.30816C8.60325 6.18016 8.66703 6.02194 8.66659 5.8335C8.66614 5.64505 8.60214 5.48683 8.47459 5.35883C8.34703 5.23083 8.18881 5.16683 7.99992 5.16683C7.81103 5.16683 7.65281 5.23083 7.52525 5.35883C7.3977 5.48683 7.3337 5.64505 7.33325 5.8335C7.33281 6.02194 7.39681 6.18039 7.52525 6.30883C7.6537 6.43727 7.81192 6.50105 7.99992 6.50016ZM7.99992 15.1668C7.0777 15.1668 6.21103 14.9917 5.39992 14.6415C4.58881 14.2913 3.88325 13.8164 3.28325 13.2168C2.68325 12.6173 2.20836 11.9117 1.85859 11.1002C1.50881 10.2886 1.3337 9.42194 1.33325 8.50016C1.33281 7.57839 1.50792 6.71172 1.85859 5.90016C2.20925 5.08861 2.68414 4.38305 3.28325 3.7835C3.88236 3.18394 4.58792 2.70905 5.39992 2.35883C6.21192 2.00861 7.07859 1.8335 7.99992 1.8335C8.92125 1.8335 9.78792 2.00861 10.5999 2.35883C11.4119 2.70905 12.1175 3.18394 12.7166 3.7835C13.3157 4.38305 13.7908 5.08861 14.1419 5.90016C14.493 6.71172 14.6679 7.57839 14.6666 8.50016C14.6653 9.42194 14.4901 10.2886 14.1413 11.1002C13.7924 11.9117 13.3175 12.6173 12.7166 13.2168C12.1157 13.8164 11.4101 14.2915 10.5999 14.6422C9.7897 14.9928 8.92303 15.1677 7.99992 15.1668ZM7.99992 13.8335C9.48881 13.8335 10.7499 13.3168 11.7833 12.2835C12.8166 11.2502 13.3333 9.98905 13.3333 8.50016C13.3333 7.01127 12.8166 5.75016 11.7833 4.71683C10.7499 3.6835 9.48881 3.16683 7.99992 3.16683C6.51103 3.16683 5.24992 3.6835 4.21659 4.71683C3.18325 5.75016 2.66659 7.01127 2.66659 8.50016C2.66659 9.98905 3.18325 11.2502 4.21659 12.2835C5.24992 13.3168 6.51103 13.8335 7.99992 13.8335Z" fill="#46B9C4"/>
</svg>
