<svg width="16" height="22" viewBox="0 0 16 22" fill="none" xmlns="http://www.w3.org/2000/svg">
<g clip-path="url(#clip0_570_3375)">
<path d="M7.769 0.807931C5.72576 0.793543 3.76026 1.59029 2.30376 3.02335C0.847271 4.45641 0.0187534 6.40873 0 8.45193C0 13.7519 7.013 20.7109 7.31 21.0059C7.4328 21.1252 7.59728 21.192 7.7685 21.192C7.93972 21.192 8.10419 21.1252 8.227 21.0059C8.527 20.7119 15.537 13.7509 15.537 8.45193C15.5182 6.4089 14.6899 4.45673 13.2336 3.0237C11.7773 1.59067 9.81206 0.793809 7.769 0.807931ZM7.769 19.6339C6.223 18.0059 1.295 12.4999 1.295 8.45193C1.32483 6.75462 2.02003 5.13692 3.2309 3.94715C4.44176 2.75738 6.07143 2.09072 7.769 2.09072C9.46657 2.09072 11.0962 2.75738 12.3071 3.94715C13.518 5.13692 14.2132 6.75462 14.243 8.45193C14.243 12.4949 9.315 18.0079 7.769 19.6339Z" fill="#008B99"/>
<path d="M7.769 3.91199C6.77634 3.91199 5.80597 4.20635 4.9806 4.75784C4.15522 5.30934 3.51193 6.0932 3.13205 7.0103C2.75218 7.9274 2.65278 8.93656 2.84644 9.91015C3.0401 10.8837 3.51812 11.778 4.22004 12.48C4.92196 13.1819 5.81625 13.6599 6.78984 13.8535C7.76344 14.0472 8.77258 13.9478 9.68969 13.5679C10.6068 13.1881 11.3906 12.5448 11.9421 11.7194C12.4936 10.894 12.788 9.92365 12.788 8.93098C12.7864 7.60035 12.2571 6.32467 11.3162 5.38377C10.3753 4.44287 9.09964 3.91358 7.769 3.91199ZM7.769 12.277C7.10723 12.277 6.46032 12.0807 5.91007 11.7131C5.35982 11.3454 4.93096 10.8229 4.67771 10.2114C4.42446 9.60005 4.35819 8.92727 4.48729 8.27821C4.6164 7.62915 4.93507 7.03296 5.40302 6.56501C5.87097 6.09706 6.46717 5.77838 7.11623 5.64928C7.76529 5.52017 8.43806 5.58643 9.04946 5.83968C9.66086 6.09293 10.1834 6.52181 10.5511 7.07205C10.9188 7.6223 11.115 8.26921 11.115 8.93098C11.1142 9.81816 10.7614 10.6688 10.1341 11.2961C9.50679 11.9234 8.65617 12.2762 7.769 12.277Z" fill="#008B99"/>
</g>
<defs>
<clipPath id="clip0_570_3375">
<rect width="15.538" height="20.384" fill="white" transform="translate(0 0.807983)"/>
</clipPath>
</defs>
</svg>
