<svg width="21" height="24" viewBox="0 0 21 24" fill="none" xmlns="http://www.w3.org/2000/svg">
<g id="Clip path group">
<mask id="mask0_348_3023" style="mask-type:luminance" maskUnits="userSpaceOnUse" x="0" y="0" width="21" height="24">
<g id="clip-path">
<path id="Rectangle 2354" d="M20.3861 0H0V24H20.3861V0Z" fill="white"/>
</g>
</mask>
<g mask="url(#mask0_348_3023)">
<g id="Group 37559">
<path id="Path 3194" d="M10.1961 24.0011C9.99793 24.001 9.80171 23.9616 9.61874 23.8854C9.43577 23.8092 9.26965 23.6976 9.12992 23.5571L2.98347 17.4006C1.55796 15.9751 0.587183 14.1588 0.193895 12.1816C-0.199392 10.2043 0.00247516 8.15484 0.77397 6.29231C1.54546 4.42978 2.85194 2.83785 4.52817 1.71783C6.20441 0.597809 8.17513 0 10.1911 0C12.2071 0 14.1778 0.597809 15.8541 1.71783C17.5303 2.83785 18.8368 4.42978 19.6083 6.29231C20.3798 8.15484 20.5816 10.2043 20.1883 12.1816C19.7951 14.1588 18.8243 15.9751 17.3988 17.4006L11.2523 23.5571C10.9713 23.8398 10.5897 23.9994 10.1911 24.0011M10.1911 1.80618C9.10388 1.82253 8.03052 2.05289 7.03232 2.48412C6.03413 2.91535 5.13066 3.53899 4.37352 4.31943C3.61638 5.09987 3.02039 6.02182 2.6196 7.03262C2.21881 8.04342 2.02107 9.12327 2.03767 10.2105C2.03752 12.4104 2.89207 14.5243 4.42099 16.1061L10.1911 22.0167L15.9613 16.1048C17.5019 14.5213 18.3667 12.4009 18.373 10.1916C18.3793 7.98234 17.5267 5.85708 15.9951 4.26476C15.2428 3.48619 14.3417 2.8668 13.3453 2.44337C12.3489 2.01994 11.2775 1.80112 10.1949 1.79991L10.1911 1.80618ZM10.1911 13.1784C9.59719 13.1784 9.01659 13.0022 8.52276 12.6723C8.02892 12.3423 7.64402 11.8733 7.41673 11.3246C7.18944 10.7759 7.12997 10.1721 7.24584 9.58953C7.36171 9.00701 7.64772 8.47193 8.06769 8.05196C8.48767 7.63198 9.02275 7.34597 9.60527 7.2301C10.1878 7.11423 10.7916 7.1737 11.3403 7.40099C11.889 7.62828 12.358 8.01318 12.688 8.50702C13.018 9.00085 13.1941 9.58145 13.1941 10.1754C13.1941 10.9718 12.8777 11.7356 12.3145 12.2988C11.7514 12.862 10.9876 13.1784 10.1911 13.1784Z" fill="#C1C7D0"/>
</g>
</g>
</g>
</svg>
