<svg id="Icon-lock-alt" xmlns="http://www.w3.org/2000/svg" xmlns:xlink="http://www.w3.org/1999/xlink" width="15.4" height="19.4" viewBox="0 0 15.4 19.4">
  <defs>
    <clipPath id="clip-path">
      <rect id="Rectangle_2294" data-name="Rectangle 2294" width="15.4" height="19.4" transform="translate(0 0)" fill="#c1c7d0"/>
    </clipPath>
  </defs>
  <g id="Group_3293" data-name="Group 3293" transform="translate(0 0)">
    <g id="Group_3293-2" data-name="Group 3293" clip-path="url(#clip-path)">
      <path id="Path_2991" data-name="Path 2991" d="M7.7,11a.7.7,0,0,0-.7.7v3a.7.7,0,0,0,1.4,0v-3a.7.7,0,0,0-.7-.7" fill="#c1c7d0"/>
      <path id="Path_2992" data-name="Path 2992" d="M12.7,7h-.3V4.7A4.7,4.7,0,1,0,3,4.7V7H2.7A2.7,2.7,0,0,0,0,9.7v7a2.7,2.7,0,0,0,2.7,2.7h10a2.7,2.7,0,0,0,2.7-2.7v-7A2.7,2.7,0,0,0,12.7,7M4.4,4.7a3.3,3.3,0,0,1,6.6,0V7H4.4Zm9.6,12A1.3,1.3,0,0,1,12.7,18H2.7a1.3,1.3,0,0,1-1.3-1.3v-7A1.3,1.3,0,0,1,2.7,8.4h10A1.3,1.3,0,0,1,14,9.7Z" fill="#c1c7d0"/>
    </g>
  </g>
</svg>
