<svg width="24" height="24" viewBox="0 0 24 24" fill="none" xmlns="http://www.w3.org/2000/svg">
<path d="M20.5059 0H16.5127C15.6857 0 15.0152 0.670453 15.0152 1.49747C15.0152 2.32448 15.6857 2.99494 16.5127 2.99494H18.8877L13.368 8.51456C9.51355 5.82952 4.21222 6.77752 1.52717 10.632C-1.15787 14.4864 -0.209873 19.7878 3.64456 22.4728C7.499 25.1579 12.8004 24.2099 15.4854 20.3554C17.5207 17.4338 17.5207 13.5536 15.4854 10.632L21.0051 5.11233V7.4873C21.0051 8.31431 21.6755 8.98477 22.5025 8.98477C23.3295 8.98477 24 8.31431 24 7.4873V3.49406C24 1.56436 22.4356 0 20.5059 0ZM8.52622 20.9644C5.49378 20.9644 3.03552 18.5062 3.03552 15.4737C3.03552 12.4413 5.49378 9.98302 8.52622 9.98302C11.5587 9.98302 14.0169 12.4413 14.0169 15.4737C14.0136 18.5048 11.5573 20.9611 8.52622 20.9644Z" fill="#1BA8CD"/>
</svg>
