<svg width="24" height="24" viewBox="0 0 24 24" fill="none" xmlns="http://www.w3.org/2000/svg">
<g clip-path="url(#clip0_1003_3922)">
<mask id="mask0_1003_3922" style="mask-type:luminance" maskUnits="userSpaceOnUse" x="0" y="0" width="24" height="24">
<path d="M23.7732 0H0V24H23.7732V0Z" fill="white"/>
</mask>
<g mask="url(#mask0_1003_3922)">
<path d="M23.6562 22.8793C23.3949 22.3481 23.1283 21.8175 22.863 21.2882L21.7288 19.022C20.8391 17.2448 19.9516 15.4658 19.0664 13.6849C18.9996 13.5227 18.8845 13.3849 18.7366 13.2904C18.5888 13.196 18.4154 13.1494 18.2401 13.157H18.2144C17.7689 13.1658 17.3193 13.1631 16.8738 13.1618H16.4242C16.4046 13.1618 16.3837 13.1618 16.3614 13.1618L17.2525 12.1316C18.0278 11.2932 18.5895 10.2802 18.89 9.17845C19.1905 8.07673 19.2209 6.91881 18.9786 5.80284C18.6322 3.98294 17.5934 2.36833 16.0808 1.29866C14.5682 0.228999 12.6997 -0.212345 10.8684 0.0674704C9.56398 0.254619 8.33514 0.793265 7.3136 1.62565C6.29205 2.45804 5.51633 3.55278 5.06961 4.79248C4.62289 6.03218 4.52202 7.3701 4.77781 8.66276C5.0336 9.95543 5.63641 11.1541 6.5216 12.1303C6.75855 12.4003 6.99415 12.6703 7.23582 12.9552L7.41134 13.1577C7.39041 13.1577 7.36948 13.1577 7.34991 13.1577H6.97052C6.49055 13.1577 6.01057 13.1577 5.5306 13.1577H5.5171C5.34913 13.1502 5.18288 13.1942 5.04054 13.2837C4.89821 13.3732 4.78656 13.504 4.72052 13.6586C3.72142 15.6631 2.72097 17.6658 1.71917 19.6667L0.117233 22.8766C0.0449059 22.9952 0.00463763 23.1305 0.000377184 23.2694C-0.00388326 23.4082 0.0280104 23.5457 0.0929303 23.6685C0.173221 23.7813 0.281644 23.8711 0.407418 23.9291C0.533192 23.987 0.671936 24.011 0.809852 23.9986H11.887H22.9649C23.1038 24.0205 23.246 24.0009 23.3738 23.9423C23.5015 23.8837 23.6092 23.7887 23.6832 23.6692C23.7572 23.5497 23.7943 23.411 23.7899 23.2705C23.7854 23.13 23.7396 22.9939 23.6582 22.8793M13.2507 14.5814C12.8087 15.0922 12.3663 15.6028 11.9235 16.1131L11.8877 16.1564L9.67956 13.6046C9.45004 13.3393 9.21917 13.0767 8.98695 12.8127C8.46377 12.216 7.92304 11.5976 7.41944 10.9739C6.72695 10.1858 6.2709 9.21825 6.10371 8.18254C5.93653 7.14683 6.06499 6.08496 6.47434 5.119C6.82448 4.12992 7.44909 3.26103 8.27507 2.61401C9.10105 1.967 10.0942 1.56863 11.1384 1.46554C11.4067 1.42754 11.6774 1.40836 11.9485 1.40815C13.2413 1.41074 14.4949 1.8528 15.5034 2.66175C16.1176 3.14742 16.627 3.75254 17.0009 4.44058C17.3747 5.12862 17.6052 5.8853 17.6784 6.66491C17.7643 7.44588 17.6879 8.23616 17.4541 8.98623C17.2202 9.7363 16.834 10.43 16.3195 11.0238C15.3069 12.2167 14.2612 13.421 13.252 14.5848M8.77565 14.7299C9.40886 15.4712 10.0452 16.2088 10.6847 16.9428L11.2444 17.5909C11.3098 17.7029 11.4034 17.7959 11.5159 17.8605C11.6285 17.9251 11.7559 17.9591 11.8857 17.9591C12.0154 17.9591 12.1429 17.9251 12.2554 17.8605C12.368 17.7959 12.4616 17.7029 12.527 17.5909L13.0819 16.9489C13.7214 16.2099 14.3594 15.47 14.9957 14.7293C15.0292 14.6827 15.0738 14.6451 15.1254 14.62C15.177 14.5949 15.2341 14.5831 15.2914 14.5855H15.2988C16.1271 14.5956 16.9548 14.5855 17.7784 14.5963C17.8502 14.6032 17.9167 14.6375 17.964 14.6921C19.162 17.0675 20.3546 19.446 21.5419 21.8276L21.9091 22.5614H1.86566C1.88793 22.5135 1.90954 22.4682 1.93316 22.4264L2.83033 20.6341C3.80738 18.6773 4.7833 16.7196 5.7581 14.761C5.77655 14.7026 5.81525 14.6527 5.86722 14.6202C5.9192 14.5878 5.98105 14.575 6.04163 14.5841C6.76327 14.5949 7.53555 14.5949 8.47187 14.5841C8.53049 14.5822 8.5887 14.5945 8.64158 14.6199C8.69446 14.6453 8.74044 14.683 8.77565 14.7299Z" fill="black"/>
<path d="M8.6289 19.8542H6.82309C6.27584 19.852 5.72836 19.852 5.18065 19.8542C5.06568 19.8493 4.95097 19.8687 4.84397 19.911C4.73698 19.9533 4.64008 20.0177 4.55959 20.1C4.49522 20.1743 4.44722 20.2613 4.41872 20.3554C4.39023 20.4495 4.38187 20.5485 4.3942 20.6461C4.432 21.0464 4.74523 21.2847 5.23263 21.2847C6.12507 21.2847 7.01751 21.2847 7.90995 21.2847C9.27719 21.2847 10.6451 21.2847 12.0137 21.2847C12.1364 21.2879 12.2589 21.2721 12.3769 21.2381C12.4971 21.2004 12.6051 21.1313 12.6897 21.0379C12.7743 20.9445 12.8325 20.8302 12.8582 20.7068C12.8833 20.5932 12.8772 20.4749 12.8405 20.3645C12.8038 20.254 12.7378 20.1556 12.6496 20.0797C12.4695 19.9406 12.2486 19.8647 12.0211 19.8637C11.1739 19.8515 10.3112 19.8549 9.47678 19.8536L8.6289 19.8542Z" fill="#011315"/>
<path d="M5.75131 17.7354C5.68807 17.7997 5.63857 17.8762 5.60584 17.9602C5.57311 18.0442 5.55784 18.134 5.56094 18.2241C5.56289 18.3229 5.58509 18.4202 5.62615 18.51C5.66722 18.5998 5.72628 18.6802 5.79969 18.7463C5.8731 18.8124 5.95928 18.8627 6.05291 18.8941C6.14654 18.9255 6.24562 18.9373 6.34402 18.9289C6.57489 18.9289 6.80577 18.9289 7.03664 18.9289H7.53281H8.52921C8.9221 18.9289 9.31364 18.9289 9.70788 18.9289C9.80857 18.9408 9.91064 18.9311 10.0073 18.9005C10.1039 18.8699 10.193 18.819 10.2685 18.7513C10.3439 18.6837 10.4041 18.6007 10.4451 18.5079C10.486 18.4151 10.5067 18.3147 10.5058 18.2133C10.5078 18.1138 10.4882 18.015 10.4486 17.9236C10.409 17.8323 10.3501 17.7505 10.2761 17.6839C10.2021 17.6173 10.1146 17.5674 10.0196 17.5376C9.92455 17.5078 9.82423 17.4989 9.72543 17.5113C8.59357 17.5063 7.46396 17.5063 6.33659 17.5113C6.229 17.5078 6.12177 17.5256 6.02109 17.5637C5.92041 17.6018 5.82826 17.6595 5.74996 17.7334" fill="#011315"/>
<path d="M11.9088 4.92774H11.8919C11.5672 4.92707 11.2455 4.99038 10.9452 5.11403C10.645 5.23768 10.372 5.41927 10.1419 5.64842C9.91182 5.87757 9.72912 6.14979 9.60423 6.44955C9.47935 6.7493 9.41473 7.07072 9.41407 7.39545C9.4134 7.72018 9.4767 8.04186 9.60036 8.34212C9.72401 8.64239 9.9056 8.91536 10.1347 9.14545C10.3639 9.37553 10.6361 9.55824 10.9359 9.68312C11.2356 9.808 11.557 9.87262 11.8818 9.87328H11.8879C12.541 9.87138 13.1672 9.61258 13.6312 9.1528C14.0951 8.69302 14.3596 8.06917 14.3674 7.41604C14.3676 6.76116 14.1096 6.13261 13.6493 5.66677C13.189 5.20093 12.5636 4.93538 11.9088 4.92774ZM11.8879 8.45699C11.608 8.45699 11.3396 8.34583 11.1418 8.14795C10.9439 7.95008 10.8327 7.6817 10.8327 7.40186C10.8327 7.12202 10.9439 6.85365 11.1418 6.65577C11.3396 6.4579 11.608 6.34673 11.8879 6.34673C12.0259 6.34615 12.1626 6.37307 12.2901 6.42592C12.4176 6.47877 12.5333 6.5565 12.6304 6.65456C12.777 6.80226 12.8767 6.98992 12.9171 7.19403C12.9575 7.39815 12.9367 7.60964 12.8574 7.80202C12.7781 7.99439 12.6438 8.15909 12.4714 8.27548C12.2989 8.39187 12.0959 8.45545 11.8879 8.45699Z" fill="#011315"/>
</g>
</g>
<defs>
<clipPath id="clip0_1003_3922">
<rect width="24" height="24" fill="white"/>
</clipPath>
</defs>
</svg>
