<svg width="24" height="24" viewBox="0 0 24 24" fill="none" xmlns="http://www.w3.org/2000/svg">
<g clip-path="url(#clip0_1003_3915)">
<path d="M11.1415 24.0007C10.5766 23.6673 10.4544 23.3874 10.5969 22.6681C10.6826 22.1168 10.9216 21.6007 11.2867 21.1788C11.6518 20.7568 12.1282 20.4461 12.6615 20.2821C12.72 20.263 12.7767 20.2389 12.8311 20.21C12.8544 20.1951 12.8719 20.1727 12.881 20.1466C12.8901 20.1204 12.8901 20.092 12.8812 20.0659C12.8684 20.0031 12.8116 20.0158 12.7675 20.0141C12.6895 20.0141 12.6106 20.0141 12.5334 20.0141C12.4429 20.009 12.3576 19.9699 12.2947 19.9046C12.2318 19.8394 12.1959 19.7527 12.1941 19.6621C12.1939 19.5712 12.2292 19.4838 12.2927 19.4186C12.3561 19.3534 12.4425 19.3157 12.5334 19.3135C12.893 19.2804 12.893 19.2804 12.893 18.9267C12.893 18.3762 12.893 18.3762 12.3519 18.3762C10.6962 18.3762 9.04387 18.3762 7.38562 18.3762C6.9692 18.3801 6.56553 18.5204 6.23646 18.7757C5.90739 19.0309 5.67106 19.387 5.56368 19.7893C5.49351 20.0648 5.48722 20.3527 5.54527 20.631C5.60332 20.9093 5.72419 21.1706 5.89865 21.3951C6.07311 21.6195 6.29654 21.8012 6.5519 21.9261C6.80725 22.051 7.08777 22.116 7.37205 22.116C7.79616 22.1321 8.21517 22.1244 8.63673 22.116C8.97601 22.1109 9.18637 21.9175 9.18128 21.6333C9.17619 21.3492 8.97347 21.1838 8.61722 21.1829C8.21856 21.1829 7.82076 21.1829 7.42295 21.1829C7.29589 21.187 7.1693 21.1658 7.05049 21.1206C6.93167 21.0754 6.82301 21.0071 6.73079 20.9196C6.63857 20.8321 6.56462 20.7272 6.51323 20.6109C6.46184 20.4947 6.43402 20.3694 6.43139 20.2423C6.43203 20.1153 6.45841 19.9898 6.50895 19.8733C6.55949 19.7568 6.63313 19.6517 6.72542 19.5645C6.81772 19.4773 6.92674 19.4097 7.0459 19.3658C7.16507 19.322 7.29189 19.3027 7.4187 19.3092C8.55106 19.3092 9.68342 19.3092 10.8115 19.3092C11.1016 19.3092 11.2696 19.445 11.2645 19.6646C11.2594 19.8843 11.088 20.0141 10.7997 20.0141H7.42973C7.2796 20.0141 7.1617 20.0608 7.15406 20.2304C7.14558 20.4162 7.27705 20.4747 7.42973 20.4772C7.88267 20.4849 8.33562 20.4713 8.78686 20.4857C8.98627 20.495 9.17994 20.5555 9.34921 20.6613C9.51848 20.7671 9.65767 20.9147 9.75336 21.0899C9.84905 21.2651 9.89804 21.462 9.89559 21.6616C9.89314 21.8612 9.83935 22.0568 9.7394 22.2296C9.65935 22.3883 9.54029 22.524 9.3934 22.624C9.24652 22.724 9.07662 22.785 8.89967 22.8013C8.17836 22.8841 7.44881 22.861 6.7342 22.7326C6.17268 22.5923 5.67514 22.2662 5.32248 21.8073C4.96982 21.3484 4.78279 20.7837 4.79181 20.205C4.80922 19.624 5.01936 19.0654 5.38913 18.617C5.7589 18.1686 6.2673 17.8559 6.83429 17.7282C7.07213 17.6831 7.31413 17.6637 7.55611 17.6705C9.25253 17.6705 10.9489 17.6705 12.6394 17.6756C12.8481 17.6756 12.9159 17.6196 12.8939 17.4144C12.8787 17.2196 12.8787 17.0239 12.8939 16.8291C12.9058 16.6518 12.8574 16.5857 12.6657 16.5907C12.1347 16.6043 11.6038 16.5958 11.0728 16.595C8.953 16.6161 6.91163 15.7943 5.39777 14.3104C3.8839 12.8264 3.02154 10.8019 3.0004 8.68207C2.97925 6.56229 3.80105 4.52093 5.28501 3.00707C6.76897 1.4932 8.79353 0.63084 10.9133 0.609694C11.0224 0.614127 11.1312 0.596421 11.2333 0.557644C11.3353 0.518867 11.4285 0.459822 11.5071 0.384071C11.6397 0.257335 11.7961 0.158186 11.9674 0.0923738C12.1386 0.0265616 12.3212 -0.00460473 12.5045 0.000681893C13.0898 0.00577113 13.6759 0.000681893 14.2612 0.000681893C14.5638 -0.00862572 14.8617 0.0775501 15.1125 0.246994C15.3634 0.416438 15.5546 0.660553 15.659 0.944736C15.6723 1.00384 15.7078 1.05557 15.7582 1.08921C15.8085 1.12285 15.8699 1.13581 15.9296 1.1254C16.3274 1.11692 16.7261 1.12031 17.1239 1.1254C17.3707 1.1254 17.5098 1.25179 17.5149 1.46469C17.52 1.67759 17.3758 1.82602 17.123 1.82857C16.7167 1.82857 16.3113 1.83366 15.905 1.82857C15.8528 1.81956 15.7991 1.83077 15.7548 1.85991C15.7106 1.88906 15.679 1.93395 15.6667 1.98548C15.5627 2.27868 15.3677 2.53091 15.11 2.70521C14.8524 2.87952 14.5457 2.96675 14.2349 2.95414C13.1577 2.95414 12.0796 2.95414 11.0024 2.95414C9.60471 2.94892 8.25493 3.46303 7.21489 4.39674C6.17484 5.33045 5.51869 6.61719 5.37372 8.00732C5.22874 9.39746 5.60529 10.7919 6.4303 11.9201C7.25531 13.0483 8.46997 13.8299 9.83864 14.1131C10.5943 14.2331 11.3601 14.2775 12.1246 14.2455C12.3196 14.2455 12.5147 14.2455 12.7098 14.2455C12.7794 14.2455 12.8795 14.2811 12.8905 14.1606C12.8963 14.1358 12.8969 14.1101 12.8923 14.0851C12.8876 14.06 12.8779 14.0362 12.8636 14.0151C12.8494 13.994 12.8309 13.9761 12.8094 13.9624C12.7879 13.9488 12.7638 13.9398 12.7387 13.9359C12.4749 13.8697 12.2034 13.8222 11.9473 13.7323C10.618 13.3203 9.43215 12.5411 8.52647 11.4845C7.62079 10.4278 7.03214 9.13675 6.82835 7.76007C6.72856 7.08638 6.70013 6.40404 6.74353 5.72438C6.76837 5.45678 6.89675 5.20948 7.10131 5.03518C7.30587 4.86089 7.57042 4.77339 7.83857 4.79135C8.92427 4.79135 10.0091 4.79135 11.0948 4.79135H16.4826C16.5607 4.78753 16.639 4.78952 16.7167 4.79729C16.8076 4.80446 16.8922 4.8467 16.9525 4.91509C17.0128 4.98347 17.0442 5.07263 17.0399 5.16371C17.04 5.25125 17.0062 5.33544 16.9457 5.39867C16.8851 5.46189 16.8025 5.49928 16.715 5.503C16.6218 5.51254 16.528 5.51566 16.4343 5.51233H7.97937C7.51201 5.51233 7.45094 5.58527 7.43737 6.05518C7.35802 7.40251 7.66369 8.7446 8.31865 9.9247C8.78518 10.7632 9.42681 11.4913 10.1999 12.0596C10.973 12.628 11.8594 13.0231 12.7989 13.2183C13.02 13.2362 13.2261 13.337 13.3762 13.5004C13.5262 13.6638 13.609 13.8777 13.6081 14.0996C13.6216 14.209 13.6513 14.248 13.7616 14.2463C14.0585 14.2412 14.3553 14.2404 14.6514 14.2463C14.7659 14.2463 14.7905 14.203 14.7981 14.0953C14.7953 13.8815 14.8718 13.6742 15.0127 13.5134C15.1537 13.3525 15.3491 13.2495 15.5615 13.2242C16.9039 12.9488 18.1309 12.2715 19.0794 11.2824C20.0279 10.2933 20.6531 9.03909 20.8721 7.68628C20.9569 7.09032 20.9853 6.48768 20.9569 5.88639C20.9518 5.6175 20.8382 5.51487 20.5566 5.51318C19.8695 5.51318 19.1825 5.51318 18.4954 5.51318C18.4105 5.51419 18.3258 5.50595 18.2427 5.48858C18.1686 5.47603 18.1015 5.43742 18.0534 5.3797C18.0054 5.32199 17.9795 5.24899 17.9806 5.17389C17.9722 5.09926 17.9895 5.024 18.0296 4.96049C18.0696 4.89698 18.1301 4.849 18.2011 4.82443C18.2826 4.79544 18.3693 4.78389 18.4556 4.7905C19.1502 4.7905 19.8458 4.7905 20.5405 4.7905C20.6935 4.78011 20.847 4.80273 20.9905 4.85684C21.1341 4.91094 21.2643 4.99527 21.3724 5.1041C21.4805 5.21293 21.564 5.34372 21.6171 5.48762C21.6703 5.63152 21.6919 5.78515 21.6804 5.93813C21.7545 7.1818 21.5409 8.42581 21.0562 9.57354C20.5886 10.6699 19.8635 11.6374 18.9424 12.3938C18.0214 13.1503 16.9314 13.6734 15.7651 13.9189C15.7038 13.9291 15.6439 13.9468 15.5869 13.9715C15.5533 13.9921 15.5274 14.0232 15.513 14.0599C15.4986 14.0967 15.4966 14.1371 15.5072 14.1751C15.5182 14.2692 15.592 14.2438 15.6531 14.2472C15.7311 14.2522 15.81 14.2472 15.8872 14.2531C15.9705 14.254 16.0502 14.2875 16.109 14.3465C16.1679 14.4055 16.2012 14.4853 16.2019 14.5686C16.2128 14.6551 16.19 14.7425 16.1382 14.8126C16.0864 14.8827 16.0095 14.9302 15.9237 14.9452C15.87 14.9553 15.8152 14.9582 15.7608 14.9537C14.1602 14.9537 12.5597 14.9613 10.9591 14.9537C9.58322 14.9367 8.24909 14.4787 7.15285 13.647C6.05661 12.8154 5.2561 11.654 4.869 10.3335C4.63454 9.50366 4.57126 8.63479 4.68299 7.77971C4.79473 6.92462 5.07915 6.10118 5.51897 5.35942C5.95879 4.61766 6.54483 3.97306 7.24148 3.4648C7.93813 2.95654 8.73084 2.59522 9.57145 2.4028C10.0669 2.29407 10.5732 2.24284 11.0804 2.25013C12.1186 2.25408 13.1571 2.25408 14.1959 2.25013C14.3884 2.26828 14.5808 2.2143 14.7358 2.09864C14.8908 1.98298 14.9973 1.81389 15.0347 1.62415C15.0583 1.51404 15.057 1.40007 15.0311 1.2905C15.0051 1.18094 14.955 1.07855 14.8845 0.990745C14.814 0.902946 14.7248 0.831949 14.6235 0.78291C14.5221 0.733871 14.4111 0.708021 14.2985 0.707238C13.6895 0.69197 13.0805 0.699604 12.4715 0.707238C12.3811 0.706491 12.2914 0.723814 12.2078 0.75819C12.1242 0.792565 12.0483 0.8433 11.9846 0.907414C11.8464 1.04499 11.681 1.1523 11.4991 1.22254C11.3171 1.29277 11.1226 1.3244 10.9277 1.3154C9.25967 1.34149 7.64991 1.93326 6.3621 2.99376C5.0743 4.05427 4.18479 5.52066 3.83927 7.15276C3.46428 9.02228 3.8362 10.9643 4.87541 12.563C5.91461 14.1617 7.53848 15.2899 9.39927 15.7061C9.97122 15.8305 10.5553 15.8906 11.1406 15.885C13.7248 15.885 16.3093 15.885 18.8941 15.885C19.0607 15.8727 19.2281 15.8941 19.3862 15.9479C19.5444 16.0017 19.6901 16.0868 19.8146 16.1981C19.9392 16.3095 20.04 16.4448 20.1111 16.5959C20.1822 16.7471 20.2221 16.9111 20.2284 17.078C20.2348 17.245 20.2074 17.4115 20.1479 17.5676C20.0885 17.7237 19.9982 17.8663 19.8824 17.9867C19.7667 18.1072 19.6279 18.2031 19.4742 18.2687C19.3206 18.3343 19.1553 18.3683 18.9882 18.3686C17.9105 18.3776 16.8329 18.3776 15.7557 18.3686C15.5471 18.3686 15.4767 18.4212 15.5013 18.6281C15.5259 18.8351 15.4164 19.1218 15.5445 19.2618C15.6726 19.4017 15.9584 19.305 16.1739 19.3059C17.0721 19.3118 17.9695 19.3152 18.8678 19.3059C19.3764 19.3211 19.8747 19.1608 20.2789 18.8518C20.6832 18.5429 20.9687 18.1042 21.0875 17.6094C21.1596 17.299 21.1624 16.9764 21.0957 16.6647C21.029 16.353 20.8945 16.0598 20.7017 15.806C20.5089 15.5522 20.2626 15.3439 19.9802 15.196C19.6979 15.0481 19.3864 14.9642 19.068 14.9503C18.5531 14.9376 18.0374 14.9503 17.5217 14.9503C17.4429 14.9556 17.3645 14.9343 17.2992 14.8899C17.2339 14.8455 17.1853 14.7804 17.1612 14.7052C17.1374 14.6425 17.1335 14.574 17.15 14.509C17.1666 14.4441 17.2028 14.3858 17.2537 14.3422C17.2764 14.3151 17.3044 14.293 17.3361 14.2774C17.3678 14.2618 17.4024 14.2529 17.4377 14.2514C18.1231 14.2106 18.8107 14.2253 19.4938 14.2955C20.0864 14.3986 20.6311 14.6868 21.0499 15.1186C21.4686 15.5504 21.7398 16.1038 21.8246 16.6993C21.8353 16.7436 21.8501 16.7867 21.8687 16.8282V17.4373C21.8569 17.4568 21.8357 17.4746 21.8331 17.4949C21.7268 18.2232 21.3524 18.8855 20.7834 19.3522C20.2144 19.819 19.4916 20.0565 18.7567 20.0184C17.7388 19.9878 16.7142 20.0124 15.693 20.0184C15.631 20.0184 15.5343 19.9751 15.514 20.0692C15.4936 20.1634 15.5615 20.2262 15.6539 20.2542L15.7209 20.2754C16.2675 20.4352 16.7557 20.7506 17.1261 21.1832C17.4965 21.6158 17.7329 22.1467 17.8067 22.7114C17.9059 23.3187 17.9322 23.6326 17.2791 24.0024L11.1415 24.0007ZM14.1891 23.2984H16.8575C17.1408 23.2984 17.1612 23.2746 17.1358 22.9879C17.1005 22.5254 16.9272 22.0842 16.6384 21.7213C16.3495 21.3583 15.9584 21.0904 15.5157 20.9522C15.2931 20.9123 15.0944 20.7883 14.9607 20.606C14.827 20.4236 14.7684 20.1968 14.7973 19.9725C14.7973 18.9106 14.7973 17.852 14.7973 16.7875C14.7973 16.6416 14.7684 16.5789 14.6064 16.5874C14.3414 16.6011 14.0758 16.6011 13.8108 16.5874C13.6411 16.578 13.6064 16.6442 13.6072 16.8011C13.6132 17.8393 13.6072 18.8775 13.6072 19.9157C13.6443 20.1557 13.5848 20.4006 13.4417 20.5967C13.2987 20.7929 13.0837 20.9244 12.8438 20.9624C12.4005 21.1093 12.012 21.387 11.7296 21.759C11.4472 22.1311 11.2842 22.5799 11.2619 23.0464C11.2568 23.2424 11.3145 23.3009 11.5105 23.3009C12.4002 23.2924 13.2917 23.3009 14.1789 23.3009M17.3096 16.5916C16.7719 16.5916 16.2341 16.5967 15.698 16.5916C15.5437 16.5916 15.4945 16.6366 15.5021 16.7892C15.5131 17.0225 15.5131 17.2574 15.5021 17.4907C15.4953 17.6391 15.5539 17.6731 15.6921 17.6731C16.76 17.6688 17.827 17.6731 18.8949 17.6731C18.9709 17.6824 19.0479 17.6756 19.1211 17.6531C19.1942 17.6306 19.2618 17.593 19.3194 17.5426C19.377 17.4923 19.4234 17.4304 19.4555 17.3609C19.4876 17.2915 19.5047 17.216 19.5056 17.1395C19.504 17.0613 19.486 16.9844 19.4526 16.9136C19.4193 16.8429 19.3714 16.78 19.3121 16.729C19.2528 16.678 19.1834 16.6401 19.1084 16.6178C19.0335 16.5954 18.9547 16.5891 18.8771 16.5992C18.3546 16.5992 17.833 16.5992 17.3105 16.5992" fill="black"/>
<path d="M14.1983 6.64875C14.4248 6.64875 14.6504 6.64875 14.8769 6.64875C14.9452 6.64057 15.0144 6.6479 15.0795 6.6702C15.1446 6.69249 15.2038 6.72918 15.2527 6.77752C15.3016 6.82587 15.339 6.88462 15.362 6.94941C15.3851 7.01421 15.3932 7.08336 15.3858 7.15174C15.3935 7.41723 15.3969 7.68272 15.3858 7.94736C15.3782 8.117 15.4401 8.1611 15.6004 8.15432C15.8651 8.14244 16.1306 8.14753 16.396 8.15432C16.4587 8.14698 16.5223 8.15323 16.5823 8.17265C16.6424 8.19208 16.6976 8.22421 16.7441 8.26687C16.7906 8.30953 16.8274 8.36171 16.8519 8.41987C16.8765 8.47802 16.8882 8.54078 16.8863 8.60387C16.8999 9.08734 16.8999 9.57111 16.8863 10.0552C16.8883 10.1182 16.8767 10.181 16.8523 10.2392C16.8278 10.2974 16.7911 10.3496 16.7447 10.3924C16.6982 10.4351 16.6431 10.4673 16.5831 10.4869C16.5231 10.5064 16.4596 10.5128 16.3969 10.5055C16.1314 10.5106 15.8659 10.5149 15.6013 10.5055C15.4427 10.4988 15.3774 10.542 15.3858 10.7117C15.3986 10.9661 15.3935 11.2265 15.3858 11.4844C15.3963 11.5568 15.3896 11.6306 15.3663 11.6999C15.343 11.7693 15.3037 11.8322 15.2516 11.8835C15.1996 11.9349 15.1361 11.9732 15.0664 11.9956C14.9968 12.0179 14.9229 12.0235 14.8506 12.012C14.4062 12.012 13.9617 12.0162 13.5164 12.012C13.4479 12.0201 13.3785 12.0124 13.3135 11.9896C13.2484 11.9668 13.1895 11.9294 13.1411 11.8803C13.0927 11.8312 13.0562 11.7716 13.0344 11.7063C13.0126 11.6409 13.006 11.5714 13.0151 11.503C13.0151 11.2299 13.0092 10.9568 13.0151 10.6837C13.0151 10.553 12.9795 10.5039 12.8455 10.5081C12.5647 10.5166 12.2839 10.514 12.0032 10.5081C11.9364 10.5152 11.8688 10.5071 11.8056 10.4843C11.7423 10.4615 11.6851 10.4247 11.6381 10.3766C11.5912 10.3285 11.5558 10.2704 11.5345 10.2066C11.5133 10.1429 11.5068 10.0751 11.5155 10.0085C11.5115 9.55612 11.5115 9.10375 11.5155 8.65137C11.5073 8.58499 11.5142 8.51763 11.5357 8.4543C11.5572 8.39098 11.5928 8.33332 11.6396 8.28562C11.6865 8.23793 11.7436 8.20143 11.8065 8.17884C11.8695 8.15625 11.9367 8.14816 12.0032 8.15517C12.2839 8.15008 12.5647 8.14753 12.8455 8.15517C12.9812 8.15941 13.0202 8.11106 13.0151 7.98044C13.0075 7.70732 13.01 7.43419 13.0151 7.16107C13.0062 7.09286 13.0129 7.0235 13.0347 6.95827C13.0566 6.89304 13.093 6.83365 13.1412 6.78459C13.1895 6.73554 13.2482 6.69812 13.3131 6.67517C13.378 6.65222 13.4472 6.64435 13.5155 6.65214C13.7454 6.64536 13.9753 6.64875 14.1983 6.64875ZM15.5555 9.80069V9.81002C15.7489 9.80069 16.0033 9.86176 16.1195 9.76252C16.2561 9.64547 16.1518 9.38252 16.167 9.18319C16.167 9.13654 16.1628 9.08904 16.167 9.04324C16.184 8.90329 16.1314 8.8507 15.9855 8.85663C15.7209 8.86766 15.4554 8.86172 15.1907 8.85663C15.1203 8.86551 15.0488 8.85832 14.9815 8.83558C14.9143 8.81285 14.853 8.77517 14.8024 8.72538C14.7518 8.67559 14.7131 8.61498 14.6893 8.54809C14.6655 8.48121 14.6571 8.4098 14.6649 8.33923C14.6581 8.07374 14.6572 7.80825 14.6649 7.54361C14.6649 7.40874 14.6394 7.34259 14.4859 7.35276C14.2913 7.3648 14.0961 7.3648 13.9015 7.35276C13.7522 7.34428 13.7149 7.4045 13.72 7.54276C13.7284 7.79722 13.725 8.05762 13.72 8.31463C13.7149 8.69887 13.5596 8.85324 13.1788 8.85578C13.1008 8.85578 13.0227 8.85578 12.9447 8.85578C12.7123 8.86512 12.3959 8.7557 12.2661 8.89396C12.1084 9.0636 12.2356 9.38337 12.2135 9.63783C12.2025 9.75913 12.2483 9.80323 12.3722 9.79984C12.6453 9.79306 12.9176 9.79984 13.1907 9.79984C13.5469 9.79984 13.7072 9.95761 13.7174 10.3088C13.7174 10.3936 13.7174 10.4784 13.7174 10.5632C13.7327 10.8016 13.6122 11.118 13.7683 11.2588C13.9244 11.3996 14.2314 11.2808 14.4706 11.3012C14.6403 11.3156 14.664 11.2401 14.6598 11.0976C14.6513 10.8324 14.6513 10.5672 14.6598 10.302C14.654 10.2334 14.6635 10.1644 14.6875 10.0999C14.7115 10.0354 14.7494 9.97701 14.7986 9.92888C14.8478 9.88075 14.907 9.84407 14.972 9.82147C15.037 9.79887 15.1062 9.79091 15.1746 9.79814C15.3095 9.79899 15.4342 9.80069 15.5589 9.80069H15.5555Z" stroke="black" stroke-width="0.6" stroke-miterlimit="10"/>
</g>
<defs>
<clipPath id="clip0_1003_3915">
<rect width="24" height="24" fill="white"/>
</clipPath>
</defs>
</svg>
