<svg width="25" height="24" viewBox="0 0 25 24" fill="none" xmlns="http://www.w3.org/2000/svg">
<g id="Group 45917">
<g id="Group 45918">
<path id="Path 48079" d="M18.3131 -0.00146484C18.1739 0.0583452 18.0553 0.157405 17.9716 0.283587C17.8879 0.40977 17.8429 0.557603 17.8419 0.708985C17.84 0.802305 17.8572 0.89504 17.8926 0.981411C17.928 1.06778 17.9808 1.14595 18.0478 1.21106C18.1147 1.27616 18.1943 1.32679 18.2816 1.35983C18.3689 1.39287 18.4622 1.40761 18.5554 1.40311C19.6447 1.40311 20.7257 1.42217 21.8095 1.40311C21.9809 1.39969 22.1512 1.43119 22.3101 1.49573C22.4689 1.56028 22.6129 1.65649 22.7333 1.7785C22.8537 1.90051 22.948 2.04573 23.0104 2.20535C23.0728 2.36498 23.1019 2.53565 23.0962 2.70693C23.0866 3.78348 23.1044 4.86143 23.088 5.93799C23.0825 6.10983 23.1403 6.2777 23.2505 6.4097C23.3607 6.54169 23.5156 6.6286 23.6857 6.65388C23.8545 6.67445 24.0251 6.63384 24.1664 6.53945C24.3078 6.44506 24.4107 6.30311 24.4563 6.13939C24.4563 6.12306 24.485 6.1108 24.5013 6.09719V2.16116C24.4667 2.09875 24.4371 2.0337 24.4128 1.96657C24.2507 1.3589 23.8783 0.828401 23.3617 0.469455C23.0213 0.250697 22.6453 0.0931519 22.2506 0.00397619L18.3131 -0.00146484Z" fill="white"/>
<path id="Path 48080" d="M24.5001 17.8087C24.4075 17.708 24.3231 17.6005 24.2277 17.5106C24.1401 17.4237 24.0284 17.365 23.9071 17.3419C23.7858 17.3189 23.6604 17.3326 23.547 17.3813C23.414 17.4216 23.2981 17.5044 23.2169 17.6171C23.1357 17.7297 23.0938 17.8659 23.0977 18.0047C23.0977 19.0744 23.0854 20.1428 23.0977 21.2126C23.1157 21.3978 23.0926 21.5848 23.03 21.76C22.9673 21.9353 22.8667 22.0946 22.7353 22.2264C22.6039 22.3583 22.445 22.4595 22.2699 22.5228C22.0948 22.5861 21.9079 22.61 21.7225 22.5926C20.6537 22.5804 19.5835 22.5926 18.5147 22.5926C18.3469 22.5969 18.1864 22.6619 18.063 22.7756C17.9395 22.8892 17.8615 23.0438 17.8435 23.2105C17.8288 23.3051 17.8343 23.4018 17.8596 23.4941C17.8848 23.5865 17.9293 23.6724 17.9901 23.7464C18.0509 23.8204 18.1266 23.8808 18.2123 23.9235C18.298 23.9662 18.3918 23.9904 18.4875 23.9945C19.6189 24.0026 20.7517 24.0122 21.8832 23.9945C22.2228 23.9978 22.5598 23.9338 22.8745 23.8063C23.1893 23.6787 23.4757 23.4901 23.7172 23.2514C24.0621 22.9141 24.3035 22.4853 24.4129 22.0156C24.4361 21.9403 24.4653 21.8671 24.5001 21.7964V17.8087Z" fill="white"/>
<path id="Path 48081" d="M2.65789 -9.42006e-05C2.29178 0.140863 1.9356 0.306394 1.5918 0.495331C1.32089 0.668589 1.08875 0.895965 0.909966 1.16321C0.731187 1.43045 0.609633 1.73177 0.552941 2.04823C0.519691 2.21309 0.503268 2.38092 0.503925 2.54909C0.503925 3.69597 0.503925 4.84282 0.503925 5.9897C0.502901 6.15474 0.563894 6.31417 0.674834 6.4364C0.785774 6.55864 0.938578 6.63481 1.10301 6.64981C1.27153 6.66807 1.44097 6.62479 1.58009 6.52799C1.71922 6.43119 1.81864 6.28738 1.86003 6.12307C1.88597 5.98836 1.90145 5.85187 1.90632 5.71478C1.90632 4.63823 1.90632 3.56168 1.91313 2.48376C1.93129 2.20539 2.04994 1.94307 2.24703 1.74557C2.44411 1.54806 2.70623 1.42879 2.98466 1.40992C4.10113 1.40992 5.21624 1.40991 6.33271 1.3963C6.53486 1.38856 6.73052 1.32288 6.89639 1.20711C6.98451 1.13652 7.05314 1.04461 7.09576 0.940084C7.13839 0.835559 7.15361 0.721893 7.13997 0.609842C7.12633 0.497791 7.08429 0.391088 7.01784 0.299827C6.95139 0.208567 6.86272 0.135782 6.76024 0.0883746C6.71743 0.0618282 6.6769 0.0317703 6.63906 -0.00146484L2.65789 -9.42006e-05Z" fill="white"/>
<path id="Path 48082" d="M22.2505 0C22.6452 0.0892025 23.0212 0.246746 23.3615 0.465479C23.8781 0.824425 24.2506 1.35493 24.4126 1.96259C24.4369 2.02971 24.4665 2.0948 24.5011 2.15723V0.00137064L22.2505 0Z" fill="white"/>
<path id="Path 48083" d="M12.4624 11.2935H1.26506C1.1728 11.2935 1.08144 11.3116 0.996201 11.3469C0.910963 11.3822 0.833513 11.4339 0.768275 11.4991C0.703036 11.5643 0.651286 11.6418 0.615979 11.727C0.580672 11.8122 0.5625 11.9035 0.5625 11.9957C0.5625 12.0879 0.580672 12.1793 0.615979 12.2645C0.651286 12.3497 0.703036 12.4271 0.768275 12.4923C0.833513 12.5575 0.910963 12.6093 0.996201 12.6446C1.08144 12.6799 1.1728 12.698 1.26506 12.698C8.72997 12.698 16.1949 12.698 23.6598 12.698C23.8496 12.7164 24.039 12.6595 24.1872 12.5396C24.3354 12.4197 24.4306 12.2464 24.4522 12.057C24.4545 11.877 24.393 11.7021 24.2787 11.5631C24.1643 11.4241 24.0044 11.33 23.8273 11.2975C23.7415 11.2975 23.6557 11.2975 23.5699 11.2975H12.4624" fill="white"/>
<path id="Path 48084" d="M0.502606 19.8176C0.502606 20.362 0.509414 20.8955 0.502606 21.4345C0.507948 22.0248 0.715217 22.5956 1.08997 23.0519C1.46472 23.5082 1.98439 23.8226 2.56263 23.9428C2.74211 23.9771 2.92453 23.9935 3.10725 23.9918C4.18559 23.9918 5.26394 23.9918 6.34092 23.9918C6.51885 24.0139 6.69845 23.9666 6.84228 23.8596C6.98611 23.7526 7.08307 23.5942 7.11292 23.4175C7.13378 23.3197 7.13309 23.2185 7.11088 23.121C7.08867 23.0235 7.04549 22.932 6.98433 22.8528C6.92317 22.7737 6.84551 22.7088 6.75673 22.6627C6.66796 22.6166 6.57021 22.5904 6.47027 22.5859C5.3538 22.5859 4.23597 22.5859 3.1195 22.5859C2.85053 22.6005 2.58498 22.5202 2.36921 22.359C2.15345 22.1978 2.0012 21.9659 1.93904 21.7039C1.92064 21.6384 1.91193 21.5706 1.91317 21.5025C1.91317 20.3856 1.91317 19.2687 1.91317 18.1517C1.92464 17.9931 1.88634 17.8348 1.80362 17.6989C1.72089 17.5631 1.59784 17.4563 1.4516 17.3936C1.35235 17.3489 1.24369 17.3289 1.13499 17.3354C1.02629 17.342 0.920824 17.3749 0.827683 17.4313C0.734543 17.4877 0.656528 17.5659 0.600368 17.6592C0.544209 17.7524 0.511591 17.8579 0.505329 17.9666C0.494437 18.5832 0.505329 19.2011 0.505329 19.8176H0.502606Z" fill="white"/>
<path id="Path 48085" d="M7.25741 3.84198C6.94562 3.84198 6.63246 3.85423 6.32066 3.84198C5.94712 3.82337 5.57625 3.914 5.25342 4.10278C4.9306 4.29156 4.66982 4.57033 4.503 4.90494C4.38053 5.12407 4.31368 5.36988 4.3083 5.62083C4.28515 6.43743 4.29877 7.24452 4.30014 8.05704C4.28208 8.23753 4.33649 8.41778 4.45139 8.55816C4.5663 8.69854 4.73228 8.78753 4.91283 8.80558C5.09338 8.82363 5.27371 8.76925 5.41414 8.6544C5.55458 8.53954 5.64363 8.37363 5.66168 8.19315C5.68978 8.05098 5.70527 7.90659 5.70797 7.76169C5.70797 7.11385 5.70797 6.46467 5.70797 5.81683C5.70254 5.74204 5.71323 5.66693 5.73932 5.59662C5.76542 5.52631 5.80631 5.46241 5.85923 5.40925C5.91215 5.3561 5.97586 5.31494 6.04607 5.28851C6.11628 5.26209 6.19136 5.25101 6.26621 5.25607C6.96877 5.25607 7.67268 5.26968 8.37524 5.25607C8.83953 5.24382 9.02334 5.08188 9.13771 4.77157C9.17132 4.66897 9.18062 4.55994 9.16488 4.45313C9.14914 4.34631 9.10878 4.24463 9.04699 4.15607C8.9852 4.06751 8.90368 3.9945 8.80884 3.94283C8.714 3.89116 8.60845 3.86223 8.50051 3.85831C8.09205 3.84198 7.67268 3.85831 7.25877 3.85831" fill="white"/>
<path id="Path 48086" d="M17.6457 3.84333C17.2713 3.84333 16.8955 3.86511 16.5225 3.84333C16.3338 3.8448 16.1529 3.91814 16.0165 4.04839C15.8802 4.17864 15.7986 4.356 15.7886 4.54427C15.7889 4.63997 15.8084 4.73462 15.846 4.82263C15.8836 4.91064 15.9386 4.99021 16.0075 5.0566C16.0765 5.12299 16.1581 5.17485 16.2475 5.20911C16.3369 5.24338 16.4322 5.25937 16.5279 5.25609C17.2087 5.25609 17.9017 5.27106 18.5879 5.25609C18.6846 5.24413 18.7827 5.25453 18.8747 5.28649C18.9668 5.31846 19.0502 5.37111 19.1186 5.44042C19.187 5.50973 19.2386 5.59383 19.2693 5.68622C19.3001 5.77862 19.3092 5.87684 19.2959 5.97331C19.2959 6.66742 19.2959 7.36154 19.2959 8.05565C19.2951 8.21621 19.3511 8.37192 19.454 8.49521C19.5569 8.6185 19.7 8.70145 19.8582 8.72938C19.9461 8.74949 20.0373 8.7511 20.1259 8.73412C20.2145 8.71714 20.2986 8.68193 20.3728 8.63074C20.4471 8.57955 20.5099 8.51347 20.5572 8.43673C20.6046 8.35999 20.6355 8.27425 20.6479 8.18495C20.6886 7.80119 20.7054 7.41529 20.6983 7.02945C20.6983 6.51091 20.6983 5.98832 20.6452 5.47386C20.5894 5.04231 20.3743 4.64714 20.042 4.36596C19.8209 4.17312 19.5625 4.02781 19.2829 3.93907C19.0032 3.85033 18.7082 3.82006 18.4164 3.85014C18.159 3.86103 17.9017 3.85014 17.6444 3.85014" fill="white"/>
<path id="Path 48087" d="M4.29293 17.252C4.29293 17.5882 4.30655 17.9244 4.29293 18.2592C4.28374 18.6859 4.41547 19.1038 4.66773 19.4483C4.92 19.7927 5.27875 20.0444 5.68852 20.1646C5.84857 20.2125 6.01436 20.2386 6.1814 20.2422C6.92344 20.2503 7.66549 20.2531 8.40753 20.2422C8.54855 20.2513 8.68922 20.2196 8.81264 20.1508C8.93607 20.082 9.03699 19.979 9.10328 19.8543C9.17262 19.7418 9.20223 19.6094 9.18743 19.4782C9.17262 19.3469 9.11423 19.2244 9.02158 19.1302C8.86922 18.9809 8.67227 18.8853 8.46063 18.858C7.75944 18.8254 7.05551 18.8376 6.35295 18.8485C6.26345 18.8606 6.17237 18.8517 6.08686 18.8227C6.00135 18.7936 5.92375 18.7451 5.86016 18.681C5.79656 18.6169 5.7487 18.5389 5.72034 18.4532C5.69197 18.3675 5.68387 18.2764 5.69668 18.187C5.71983 17.5161 5.70758 16.8437 5.69668 16.1727C5.70732 16.0322 5.67903 15.8914 5.6149 15.7658C5.55077 15.6403 5.4533 15.5348 5.33315 15.4609C5.23533 15.3991 5.12296 15.364 5.0073 15.3592C4.89164 15.3544 4.77675 15.3801 4.67416 15.4337C4.56113 15.484 4.46504 15.5659 4.39741 15.6695C4.32978 15.773 4.2935 15.8939 4.29293 16.0176C4.29293 16.4259 4.29293 16.8451 4.29293 17.2588V17.252Z" fill="white"/>
<path id="Path 48088" d="M17.5235 18.8389H16.4928C16.308 18.8436 16.132 18.9186 16.0007 19.0486C15.8694 19.1786 15.7927 19.3538 15.7861 19.5384C15.7861 19.7206 15.8572 19.8955 15.9844 20.026C16.1116 20.1564 16.2847 20.232 16.4669 20.2366C17.2076 20.2557 17.951 20.253 18.6917 20.2366C19.2146 20.2446 19.7195 20.0461 20.0968 19.6841C20.4321 19.3782 20.6324 18.9519 20.6536 18.4986C20.6713 17.7215 20.6891 16.9444 20.7 16.1672C20.72 16.0228 20.694 15.8757 20.6255 15.7469C20.5571 15.6181 20.4497 15.5142 20.3187 15.45C20.116 15.3726 19.8932 15.3649 19.6856 15.4282C19.5686 15.47 19.468 15.5479 19.3982 15.6507C19.3285 15.7534 19.2932 15.8757 19.2976 15.9998C19.2976 16.7021 19.2976 17.4057 19.2908 18.108C19.2897 18.2804 19.2467 18.45 19.1655 18.6021C19.1001 18.6866 19.0135 18.7524 18.9146 18.7928C18.8156 18.8332 18.7077 18.8467 18.6018 18.8321C18.2424 18.8402 17.8829 18.8321 17.5235 18.8321" fill="white"/>
</g>
</g>
</svg>
