<svg width="63" height="64" viewBox="0 0 63 64" fill="none" xmlns="http://www.w3.org/2000/svg">
<g id="Group 45914" opacity="0.193">
<g id="Group 45916">
<path id="Path 48067" d="M31.7643 63.9991H31.6321C31.6321 63.933 31.6623 63.8518 31.6321 63.8036C30.7078 62.2127 29.7607 60.634 28.8534 59.0326C28.1603 57.8052 27.5315 56.5522 26.8394 55.3276C26.7777 55.2408 26.6979 55.1685 26.6054 55.1157C26.513 55.0629 26.4101 55.0308 26.3041 55.0217C24.9605 54.9962 23.6169 55.0075 22.2724 55.0075H20.3453C20.4888 55.3531 20.5936 55.7134 20.6578 56.082C20.7635 58.4167 20.846 60.7523 20.9052 63.0889C20.8848 63.1732 20.8431 63.251 20.7841 63.3146C20.7251 63.3783 20.6507 63.4257 20.5681 63.4524C19.9865 63.4911 19.4011 63.4694 18.8053 63.4694C18.8053 61.5961 18.8421 59.8116 18.7911 58.0299C18.8043 57.0401 18.5467 56.0655 18.0462 55.2115C17.2738 53.984 16.5355 52.7292 15.8613 51.4432C15.7659 51.2483 15.7123 51.0355 15.704 50.8185C15.6957 50.6016 15.7329 50.3854 15.8132 50.1837C17.0869 47.8591 18.4503 45.5836 19.7476 43.2713C20.2546 42.3677 21.0799 41.5585 20.6682 40.3329C20.5488 39.9651 20.3318 39.6366 20.0403 39.3825C19.7488 39.1284 19.3937 38.9582 19.013 38.8902C18.6451 38.7923 18.2556 38.8126 17.8998 38.9481C17.544 39.0837 17.2398 39.3277 17.0302 39.6456C15.3829 42.4504 13.7369 45.256 12.0921 48.0621C11.5577 48.9751 11.0441 49.9004 10.487 50.8786L8.7714 49.9184C9.01543 49.322 9.18386 48.6974 9.27276 48.0593C9.30581 41.957 9.28787 35.8547 9.28409 29.7524V29.1245L9.0641 29.0168C8.65804 29.4901 8.29528 29.9989 7.98017 30.537C6.51384 33.6131 5.05979 36.7006 3.67844 39.8184C3.26137 40.6848 3.02066 41.6255 2.9703 42.5858C2.91081 49.3046 2.93819 56.0235 2.93819 62.7433V63.4713H0.822266V41.9173C0.922598 41.4525 1.05061 40.994 1.20561 40.5444C1.91941 38.7939 2.64361 37.0509 3.40085 35.3146C4.10805 33.6962 4.85396 32.0949 5.59703 30.4926C6.29196 28.9961 7.06902 27.5392 8.74307 26.9358C9.23216 26.7593 9.29165 26.5213 9.2907 26.0917C9.28315 19.7524 9.28315 13.4128 9.2907 7.07292C9.27697 6.62109 9.32237 6.16941 9.42572 5.72934C9.65756 4.67785 10.1246 3.69254 10.7918 2.84742C11.459 2.00229 12.309 1.31932 13.278 0.849771C13.9559 0.528746 14.6698 0.283257 15.3675 0H41.0202C41.0784 0.0496732 41.1417 0.0930337 41.209 0.129354C42.2139 0.446209 43.1866 0.85718 44.1143 1.3568C45.1835 2.07966 46.0455 3.06913 46.615 4.22733C47.1845 5.38552 47.4418 6.67233 47.3614 7.96046C47.3727 20.0801 47.3743 32.2 47.3661 44.3203C47.3501 44.4736 47.3527 44.6283 47.3736 44.781C47.4083 44.938 47.4835 45.0832 47.5918 45.2021C48.0044 45.6053 48.4415 45.9868 48.8834 46.3956C49.3582 46.0471 49.8975 45.7964 50.47 45.6581C51.0425 45.5199 51.6368 45.4968 52.2183 45.5902C53.4109 45.8029 54.4714 46.4774 55.1698 47.4672C55.2894 47.4144 55.406 47.3551 55.5192 47.2897C56.227 46.7992 57.0699 46.5408 57.931 46.5503C58.7922 46.5598 59.6291 46.8367 60.326 47.3426C61.2592 48.0095 61.9167 48.9943 62.1748 50.1119V63.4703H60.0617V62.9406C60.0617 58.975 60.0853 55.0094 60.0503 51.0438C60.0854 50.7372 60.0534 50.4267 59.9567 50.1336C59.8599 49.8405 59.7007 49.572 59.4899 49.3465C59.2792 49.1211 59.022 48.9441 58.7362 48.8278C58.4503 48.7115 58.1426 48.6587 57.8343 48.673C56.6862 48.5918 55.8345 49.6257 55.8307 50.9928C55.8307 51.5433 55.8307 52.0947 55.8307 52.6452C55.845 52.8073 55.8259 52.9706 55.7746 53.1251C55.7233 53.2796 55.641 53.4219 55.5326 53.5434C55.4243 53.6648 55.2922 53.7628 55.1446 53.8313C54.9969 53.8997 54.8368 53.9373 54.6741 53.9416C54.0557 53.9274 53.7365 53.4798 53.7139 52.649C53.7239 51.493 53.6731 50.3373 53.5619 49.1866C53.4607 48.6862 53.1705 48.244 52.7515 47.9523C52.3326 47.6605 51.8172 47.5415 51.3128 47.6202C50.8203 47.6677 50.3622 47.8938 50.0248 48.2557C49.6874 48.6176 49.494 49.0904 49.4811 49.5851C49.5085 50.6237 49.4924 51.6557 49.4811 52.6905C49.489 52.8471 49.4659 53.0038 49.4132 53.1515C49.3605 53.2992 49.2793 53.435 49.174 53.5513C49.0688 53.6676 48.9417 53.762 48.8 53.8291C48.6582 53.8962 48.5047 53.9348 48.348 53.9425C47.7466 53.9425 47.3831 53.494 47.3708 52.7358C47.3708 52.5375 47.3755 52.3393 47.3708 52.141C47.3283 50.8314 47.3368 49.518 47.2245 48.2141C47.14 47.7017 46.8593 47.2424 46.4419 46.9335C46.0246 46.6245 45.5033 46.4902 44.9886 46.5589C44.4762 46.6134 44.0022 46.8559 43.6583 47.2396C43.3144 47.6233 43.125 48.1209 43.1267 48.6362C43.1833 49.8891 43.1399 51.1468 43.1399 52.4025C43.1399 53.3467 42.7178 53.9274 42.0239 53.9406C41.3299 53.9538 41.0249 53.4836 41.0249 52.4242C41.0249 47.7322 41.0249 43.0403 41.0249 38.3483C41.0524 37.9845 40.9892 37.6196 40.8409 37.2862C40.6926 36.9529 40.4639 36.6616 40.1752 36.4385C39.8866 36.2154 39.5471 36.0674 39.1872 36.0079C38.8272 35.9483 38.4582 35.979 38.113 36.0973C37.7181 36.2417 37.3785 36.5065 37.1422 36.8544C36.9059 37.2022 36.7847 37.6154 36.7959 38.0357C36.7959 43.9394 36.7981 49.8428 36.8025 55.7459C36.8366 56.0296 36.7736 56.3165 36.6237 56.5598C36.4739 56.8031 36.246 56.9885 35.9773 57.0857C35.3645 57.2859 34.9387 56.9072 34.6252 56.3464C33.9737 55.1681 33.2807 54.0114 32.5971 52.8529C32.3008 52.3738 31.8308 52.0277 31.2854 51.887C30.74 51.7462 30.1612 51.8217 29.6701 52.0975C29.2174 52.367 28.8857 52.8001 28.7435 53.3073C28.6013 53.8146 28.6596 54.357 28.9062 54.8225C29.6861 56.3171 30.5746 57.7542 31.414 59.2177C32.1247 60.4552 32.8331 61.693 33.5394 62.9312L31.7681 63.9953M34.7187 34.8972V32.7634H37.8827V29.6627H39.9712V34.0503C40.8978 34.2898 41.715 34.8381 42.2879 35.6048C42.8608 36.3714 43.155 37.3106 43.122 38.2671C43.1777 40.4755 43.1352 42.6859 43.1352 44.8849L45.2379 44.3373C45.2379 44.2834 45.2502 44.1975 45.2492 44.1116C45.207 31.63 45.1589 19.1482 45.1048 6.66598C45.0733 6.07229 44.9208 5.49128 44.6569 4.95859C44.3929 4.42589 44.0228 3.95272 43.5695 3.56809C43.0177 3.06901 42.3727 2.68402 41.6715 2.43528C40.9704 2.18654 40.2269 2.07897 39.484 2.11876C32.0145 2.11215 24.546 2.10271 17.0765 2.13292C16.2422 2.14177 15.4142 2.27903 14.6216 2.53987C13.7351 2.88035 12.9631 3.46488 12.395 4.22582C11.8269 4.98676 11.4859 5.89301 11.4114 6.83971C11.3874 19.3981 11.3837 31.9558 11.4 44.5129C11.4082 44.6565 11.4237 44.7995 11.4463 44.9415C12.703 42.7935 13.9078 40.6993 15.1475 38.6259C15.6561 37.8452 16.4117 37.2577 17.2935 36.9571C18.1754 36.6565 19.1325 36.6603 20.012 36.9679C20.6364 37.1769 21.2037 37.5282 21.6691 37.9941C22.1345 38.46 22.4853 39.0276 22.6937 39.6523C22.9021 40.2769 22.9624 40.9415 22.87 41.5935C22.7775 42.2454 22.5348 42.867 22.161 43.4091C20.6691 45.83 19.2944 48.3189 17.8838 50.7559C18.252 51.379 18.5806 51.9833 18.9658 52.5498C19.037 52.642 19.1265 52.7185 19.2287 52.7744C19.331 52.8303 19.4436 52.8644 19.5597 52.8746C21.8069 52.8973 24.0541 52.8973 26.3012 52.8746C26.4143 52.8571 26.5225 52.8163 26.619 52.7549C26.7156 52.6935 26.7983 52.6127 26.8621 52.5177C27.2322 51.9588 27.5494 51.3658 27.8941 50.7729H26.1398C25.622 50.782 25.1106 50.657 24.6555 50.41C24.2003 50.1629 23.8168 49.8023 23.5423 49.3632C22.4404 47.7684 23.1099 45.1058 25.1474 44.6545C27.2034 44.238 29.3218 44.2348 31.3791 44.6451C31.7528 44.742 32.1037 44.9119 32.4115 45.145C32.7193 45.3781 32.9779 45.6698 33.1725 46.0033C33.3671 46.3368 33.4937 46.7055 33.5452 47.0882C33.5966 47.4709 33.5719 47.8599 33.4723 48.233C33.2435 48.8613 32.9592 49.468 32.6226 50.0458L34.6847 51.8643V51.261C34.6847 46.7667 34.6866 42.272 34.6903 37.777C34.6836 37.5429 34.7241 37.3097 34.8093 37.0915C35.1369 36.3475 35.4976 35.6177 35.8385 34.8972H34.7187ZM28.3341 46.5485C27.6533 46.5485 26.9716 46.5419 26.2908 46.5485C25.5619 46.558 25.1578 46.9338 25.1578 47.5947C25.1456 47.7419 25.1665 47.89 25.2189 48.0281C25.2713 48.1662 25.354 48.2908 25.4608 48.3928C25.5676 48.4948 25.6959 48.5717 25.8362 48.6177C25.9766 48.6637 26.1255 48.6778 26.272 48.6588C27.59 48.6689 28.9084 48.6689 30.2272 48.6588C30.3814 48.688 30.5401 48.683 30.6922 48.6441C30.8442 48.6052 30.9859 48.5335 31.1072 48.4339C31.2285 48.3343 31.3264 48.2093 31.3942 48.0677C31.4619 47.9262 31.4977 47.7714 31.4991 47.6145C31.5005 47.4576 31.4675 47.3022 31.4023 47.1595C31.3371 47.0167 31.2414 46.89 31.1219 46.7882C31.0024 46.6865 30.862 46.6122 30.7107 46.5706C30.5594 46.5291 30.4007 46.5212 30.246 46.5476C29.6087 46.5382 28.9714 46.5485 28.3341 46.5485Z" fill="black"/>
<path id="Path 48073" d="M28.3339 46.5448C28.9713 46.5448 29.6086 46.5373 30.2459 46.5448C30.4006 46.5184 30.5592 46.5263 30.7106 46.5679C30.8619 46.6094 31.0023 46.6837 31.1218 46.7855C31.2413 46.8872 31.337 47.0139 31.4021 47.1567C31.4673 47.2995 31.5004 47.4548 31.499 47.6117C31.4976 47.7687 31.4617 47.9234 31.394 48.065C31.3263 48.2065 31.2283 48.3316 31.107 48.4311C30.9858 48.5307 30.8441 48.6025 30.692 48.6413C30.54 48.6802 30.3812 48.6852 30.227 48.656C28.9089 48.663 27.5905 48.663 26.2718 48.656C26.1253 48.675 25.9765 48.6609 25.8361 48.6149C25.6958 48.5689 25.5675 48.4921 25.4607 48.3901C25.3538 48.288 25.2712 48.1634 25.2188 48.0253C25.1663 47.8872 25.1455 47.7392 25.1577 47.592C25.1624 46.931 25.5627 46.5533 26.2907 46.5458C26.9715 46.5373 27.6532 46.5458 28.3339 46.5458" fill="#FEFEFE"/>
<path id="Rectangle 18461" d="M32.5193 4.26953H24.1094V6.30992H32.5193V4.26953Z" fill="black"/>
<path id="Rectangle 18462" d="M25.1163 15.9048H20.959V20.0838H25.1163V15.9048Z" fill="black"/>
<path id="Rectangle 18463" d="M35.7025 15.8955H31.5273V20.0745H35.7025V15.8955Z" fill="black"/>
<path id="Rectangle 18464" d="M25.1125 26.4844H20.959V30.6615H25.1125V26.4844Z" fill="black"/>
<path id="Path 48074" d="M18.8386 16.9058H16.7038C16.7038 15.4234 16.6651 13.9345 16.7246 12.4502C16.7453 11.9299 17.1768 11.6382 17.7358 11.6382C19.1219 11.6382 20.507 11.6382 21.9355 11.6382V13.7154H18.8386V16.9058Z" fill="black"/>
<path id="Path 48075" d="M16.6975 29.6392H18.7936V32.7795H21.9472V34.9002C20.4752 34.9002 19.007 34.9285 17.5407 34.8851C17.4245 34.8821 17.3102 34.8555 17.2046 34.8071C17.099 34.7587 17.0043 34.6894 16.9262 34.6033C16.8481 34.5173 16.7882 34.4163 16.7502 34.3065C16.7122 34.1967 16.6969 34.0804 16.7051 33.9645C16.6843 32.5378 16.6975 31.1112 16.6975 29.6392Z" fill="black"/>
<path id="Path 48076" d="M39.9616 16.9104H37.873V13.7785H34.7109V11.6409C36.1149 11.6409 37.5388 11.5937 38.9598 11.6645C39.0973 11.6712 39.2322 11.7049 39.3567 11.7637C39.4812 11.8224 39.5929 11.9052 39.6854 12.0072C39.7779 12.1091 39.8494 12.2284 39.8958 12.358C39.9422 12.4876 39.9627 12.6251 39.9559 12.7626C39.9767 14.1241 39.9625 15.4866 39.9625 16.9104" fill="black"/>
<path id="Path 48077" d="M31.5352 28.5543H33.601V26.4771H35.699V30.64H31.5361L31.5352 28.5543Z" fill="black"/>
<path id="Rectangle 18465" d="M29.3396 15.8877H27.3105V20.0553H29.3396V15.8877Z" fill="black"/>
<path id="Rectangle 18466" d="M29.3568 22.2412H25.1797V24.3033H29.3568V22.2412Z" fill="black"/>
<path id="Rectangle 18467" d="M35.7151 22.2524H31.5371V24.2919H35.7151V22.2524Z" fill="black"/>
<path id="Rectangle 18468" d="M29.3461 26.4609H27.3066V30.639H29.3461V26.4609Z" fill="black"/>
<path id="Rectangle 18469" d="M21.9472 4.26318H19.8945V6.32624H21.9472V4.26318Z" fill="black"/>
<path id="Rectangle 18470" d="M22.992 22.2593H20.9648V24.3101H22.992V22.2593Z" fill="black"/>
</g>
</g>
</svg>
