<svg width="41" height="40" viewBox="0 0 41 40" fill="none" xmlns="http://www.w3.org/2000/svg">
<g clip-path="url(#clip0_2084_12995)">
<path d="M27.1667 24.9998C27.1667 25.9215 26.4217 26.6665 25.5 26.6665H15.5C14.5783 26.6665 13.8333 25.9215 13.8333 24.9998C13.8333 24.0782 14.5783 23.3332 15.5 23.3332H25.5C26.4217 23.3332 27.1667 24.0782 27.1667 24.9998ZM40.5 13.3332V29.9998C40.5 34.5948 36.7617 38.3332 32.1667 38.3332H8.83333C4.23833 38.3332 0.5 34.5948 0.5 29.9998V9.99984C0.5 5.40484 4.23833 1.6665 8.83333 1.6665H13.0467C13.8183 1.6665 14.5917 1.84817 15.2817 2.19317L20.5417 4.82317C20.7717 4.93817 21.0283 4.99817 21.285 4.99817H32.165C36.76 4.99817 40.4983 8.7365 40.4983 13.3315L40.5 13.3332ZM3.83333 9.99984V11.6665H36.88C36.1917 9.7265 34.34 8.33317 32.1667 8.33317H21.2867C20.515 8.33317 19.7417 8.1515 19.0517 7.8065L13.7917 5.1765C13.5617 5.0615 13.305 5.0015 13.0483 5.0015H8.835C6.07833 5.0015 3.835 7.24484 3.835 10.0015L3.83333 9.99984ZM37.1667 29.9998V14.9998H3.83333V29.9998C3.83333 32.7565 6.07667 34.9998 8.83333 34.9998H32.1667C34.9233 34.9998 37.1667 32.7565 37.1667 29.9998Z" fill="#C1C7D0"/>
</g>
<defs>
<clipPath id="clip0_2084_12995">
<rect width="40" height="40" fill="white" transform="translate(0.5)"/>
</clipPath>
</defs>
</svg>
