<svg width="22" height="24" viewBox="0 0 22 24" fill="none" xmlns="http://www.w3.org/2000/svg">
<path d="M10.5363 22.283C10.1459 22.2823 9.77178 22.1268 9.49586 21.8506C9.21994 21.5745 9.06478 21.2002 9.06443 20.8098H7.59517C7.5836 21.1996 7.64957 21.5879 7.78928 21.952C7.92899 22.3162 8.13965 22.649 8.40901 22.9311C8.67836 23.2131 9.00107 23.4389 9.35838 23.5952C9.7157 23.7516 10.1005 23.8354 10.4905 23.8418C10.8804 23.8483 11.2678 23.7771 11.6301 23.6326C11.9924 23.4881 12.3223 23.2731 12.6008 23.0001C12.8793 22.727 13.1008 22.4014 13.2524 22.042C13.404 21.6827 13.4828 21.2968 13.4841 20.9068C13.4841 20.8745 13.4841 20.8421 13.4841 20.8098H12.0122C12.012 21.0034 11.9737 21.1951 11.8994 21.374C11.8252 21.5528 11.7164 21.7152 11.5794 21.852C11.4423 21.9888 11.2797 22.0973 11.1007 22.1713C10.9218 22.2452 10.73 22.2832 10.5363 22.283ZM20.1699 15.5985C18.8828 14.373 17.8985 13.0911 17.8985 8.74621C17.8617 6.96327 17.1626 5.25788 15.9374 3.96213C14.7121 2.66637 13.0484 1.87304 11.2703 1.73666V0.929282C11.2745 0.830023 11.2586 0.730951 11.2235 0.638009C11.1884 0.545067 11.1349 0.460171 11.0661 0.388455C10.9973 0.31674 10.9148 0.259684 10.8234 0.2207C10.732 0.181715 10.6337 0.161621 10.5344 0.161621C10.435 0.161621 10.3367 0.181715 10.2453 0.2207C10.1539 0.259684 10.0714 0.31674 10.0026 0.388455C9.93389 0.460171 9.88037 0.545067 9.84527 0.638009C9.81017 0.730951 9.79424 0.830023 9.79843 0.929282V1.73666C8.02103 1.87363 6.35816 2.66703 5.13349 3.96245C3.90881 5.25786 3.20994 6.96264 3.1729 8.74493C3.1729 13.0885 2.18857 14.3717 0.901471 15.5959C0.587844 15.8914 0.370652 16.2746 0.278287 16.6955C0.185922 17.1164 0.222695 17.5554 0.383764 17.9551C0.547729 18.3648 0.831421 18.7156 1.19782 18.9616C1.56423 19.2076 1.99629 19.3373 2.43759 19.3339H18.6338C19.075 19.3371 19.507 19.2073 19.8734 18.9614C20.2397 18.7154 20.5235 18.3647 20.6876 17.9551C20.8481 17.5548 20.8839 17.1154 20.7903 16.6944C20.6968 16.2734 20.4782 15.8905 20.1633 15.5959L20.1699 15.5985ZM18.6338 17.8621H2.43759C2.29544 17.8698 2.15432 17.834 2.0331 17.7593C1.91188 17.6847 1.81635 17.5748 1.75933 17.4443C1.70231 17.3139 1.68651 17.1691 1.71403 17.0294C1.74155 16.8898 1.81108 16.7618 1.91333 16.6628C3.51761 15.1398 4.64086 13.4293 4.64086 8.74493C4.71231 7.23046 5.36424 5.80166 6.46129 4.75515C7.55834 3.70863 9.01626 3.12479 10.5324 3.12479C12.0486 3.12479 13.5065 3.70863 14.6035 4.75515C15.7006 5.80166 16.3525 7.23046 16.4239 8.74493C16.4239 13.4084 17.538 15.1266 19.1515 16.6628C19.2537 16.7618 19.3233 16.8898 19.3508 17.0294C19.3783 17.1691 19.3625 17.3139 19.3055 17.4443C19.2485 17.5748 19.1529 17.6847 19.0317 17.7593C18.9105 17.834 18.7694 17.8698 18.6272 17.8621H18.6338Z" fill="black" stroke="black" stroke-width="0.3"/>
</svg>
