<svg width="12" height="12" viewBox="0 0 12 12" fill="none" xmlns="http://www.w3.org/2000/svg">
<g clip-path="url(#clip0_1445_5495)">
<path d="M6.07359 0.000112752C4.87074 -0.00835728 3.71365 0.460685 2.85622 1.30432C1.99879 2.14796 1.51104 3.29729 1.5 4.50011C1.5 7.62021 5.62853 11.7169 5.80337 11.8906C5.87567 11.9608 5.9725 12.0001 6.07329 12.0001C6.17409 12.0001 6.27091 11.9608 6.34321 11.8906C6.51982 11.7175 10.6466 7.61962 10.6466 4.50011C10.6355 3.29739 10.1479 2.14815 9.29057 1.30453C8.43327 0.460911 7.27633 -0.00820067 6.07359 0.000112752ZM6.07359 11.0829C5.16346 10.1245 2.26236 6.88316 2.26236 4.50011C2.27992 3.50091 2.68919 2.54857 3.40202 1.84816C4.11485 1.14775 5.07423 0.75529 6.07359 0.75529C7.07294 0.75529 8.03232 1.14775 8.74516 1.84816C9.45799 2.54857 9.86725 3.50091 9.88481 4.50011C9.88481 6.88022 6.98371 10.1257 6.07359 11.0829Z" fill="#46B9C4"/>
<path d="M6.07381 1.82715C5.48943 1.82715 4.91818 2.00044 4.43229 2.3251C3.94639 2.64976 3.56769 3.11122 3.34405 3.65112C3.12042 4.19101 3.06191 4.7851 3.17591 5.35825C3.28992 5.9314 3.57133 6.45787 3.98455 6.87109C4.39776 7.28431 4.92424 7.56571 5.49739 7.67971C6.07054 7.79372 6.66462 7.73521 7.20451 7.51158C7.74441 7.28795 8.20586 6.90924 8.53053 6.42334C8.85519 5.93745 9.02848 5.3662 9.02848 4.78182C9.02755 3.99848 8.71595 3.24749 8.16204 2.69358C7.60814 2.13968 6.85715 1.82808 6.07381 1.82715ZM6.07381 6.7516C5.68423 6.7516 5.30339 6.63607 4.97946 6.41963C4.65554 6.20319 4.40306 5.89555 4.25398 5.53562C4.10489 5.17569 4.06588 4.77963 4.14188 4.39753C4.21788 4.01543 4.40549 3.66445 4.68097 3.38898C4.95644 3.1135 5.30743 2.92589 5.68953 2.84989C6.07163 2.77388 6.46768 2.81289 6.82761 2.96198C7.18754 3.11107 7.49519 3.36354 7.71163 3.68747C7.92807 4.0114 8.0436 4.39223 8.0436 4.78182C8.04313 5.30409 7.83545 5.80484 7.46615 6.17415C7.09684 6.54345 6.59609 6.75113 6.07381 6.7516Z" fill="#46B9C4"/>
</g>
<defs>
<clipPath id="clip0_1445_5495">
<rect width="12" height="12" fill="white"/>
</clipPath>
</defs>
</svg>
