<svg xmlns="http://www.w3.org/2000/svg" width="13.049" height="13.048" viewBox="0 0 13.049 13.048">
  <path id="pen" d="M12.088,1.379,11.168.46a1.569,1.569,0,0,0-2.218,0L.314,9.1,0,11.895a.588.588,0,0,0,.583.653.6.6,0,0,0,.066,0l2.8-.309L12.088,3.6a1.568,1.568,0,0,0,0-2.218Zm-9,10.108-2.28.253.254-2.283L7.531,2.988,9.559,5.017Zm8.444-8.444-1.42,1.42L8.085,2.434,9.5,1.014a.785.785,0,0,1,1.109,0l.919.919a.786.786,0,0,1,0,1.109Z" transform="translate(0.252 0.25)" fill="#25d0bd" stroke="#25d0bd" stroke-width="0.5"/>
</svg>
