<svg width="44" height="44" viewBox="0 0 44 44" fill="none" xmlns="http://www.w3.org/2000/svg">
<path d="M12.1719 36.4531H31.8125C34.3646 36.4531 35.6406 35.6198 35.6406 33.9531C35.6406 32.9323 35.3281 31.8438 34.7031 30.6875C34.0781 29.5312 33.1719 28.4427 31.9844 27.4219C30.8073 26.3906 29.375 25.5521 27.6875 24.9062C26.0104 24.2604 24.1146 23.9375 22 23.9375C19.875 23.9375 17.9688 24.2604 16.2812 24.9062C14.6042 25.5521 13.1719 26.3906 11.9844 27.4219C10.8073 28.4427 9.90625 29.5312 9.28125 30.6875C8.65625 31.8438 8.34375 32.9323 8.34375 33.9531C8.34375 35.6198 9.61979 36.4531 12.1719 36.4531ZM11.4375 34.0938C11.2292 34.0938 11.0781 34.0625 10.9844 34C10.901 33.9375 10.8594 33.8229 10.8594 33.6562C10.8594 33.0208 11.099 32.2865 11.5781 31.4531C12.0677 30.6094 12.7865 29.7969 13.7344 29.0156C14.6823 28.2344 15.849 27.5885 17.2344 27.0781C18.6198 26.5573 20.2083 26.2969 22 26.2969C23.7917 26.2969 25.375 26.5573 26.75 27.0781C28.1354 27.5885 29.3021 28.2344 30.25 29.0156C31.1979 29.7969 31.9115 30.6094 32.3906 31.4531C32.8802 32.2865 33.125 33.0208 33.125 33.6562C33.125 33.8229 33.0781 33.9375 32.9844 34C32.901 34.0625 32.7604 34.0938 32.5625 34.0938H11.4375ZM22 22C23.2396 22 24.3698 21.6667 25.3906 21C26.4115 20.3333 27.224 19.4479 27.8281 18.3438C28.4427 17.2292 28.75 16 28.75 14.6562C28.75 13.3229 28.4479 12.1198 27.8438 11.0469C27.2396 9.96354 26.4271 9.10417 25.4062 8.46875C24.3854 7.83333 23.25 7.51562 22 7.51562C20.7604 7.51562 19.6302 7.83854 18.6094 8.48438C17.5885 9.13021 16.7708 9.99479 16.1562 11.0781C15.5521 12.1615 15.25 13.3646 15.25 14.6875C15.25 16.0208 15.5521 17.2448 16.1562 18.3594C16.7708 19.4635 17.5885 20.349 18.6094 21.0156C19.6302 21.6719 20.7604 22 22 22ZM22 19.6406C21.2396 19.6406 20.5365 19.4219 19.8906 18.9844C19.2552 18.5365 18.7396 17.9375 18.3438 17.1875C17.9583 16.4375 17.7656 15.6042 17.7656 14.6875C17.7656 13.7812 17.9583 12.9688 18.3438 12.25C18.7292 11.5208 19.2396 10.9427 19.875 10.5156C20.5208 10.0885 21.2292 9.875 22 9.875C22.7812 9.875 23.4896 10.0833 24.125 10.5C24.7708 10.9167 25.2812 11.4896 25.6562 12.2188C26.0417 12.9375 26.2344 13.75 26.2344 14.6562C26.2344 15.5729 26.0417 16.4115 25.6562 17.1719C25.2708 17.9219 24.7552 18.5208 24.1094 18.9688C23.474 19.4167 22.7708 19.6406 22 19.6406Z" fill="#C5CBCF"/>
</svg>
