<svg width="11" height="14" viewBox="0 0 11 14" fill="none" xmlns="http://www.w3.org/2000/svg">
<path d="M10.4001 10.5C10.4001 9.0734 9.5685 7.8148 8.3001 7.056V2.1H8.6501C8.92857 2.1 9.19565 1.98938 9.39256 1.79246C9.58947 1.59555 9.7001 1.32848 9.7001 1.05C9.7001 0.771523 9.58947 0.504451 9.39256 0.307538C9.19565 0.110625 8.92857 4.14963e-09 8.6501 0H2.3501C2.07162 4.14964e-09 1.80455 0.110625 1.60764 0.307538C1.41072 0.504451 1.3001 0.771523 1.3001 1.05C1.3001 1.32848 1.41072 1.59555 1.60764 1.79246C1.80455 1.98938 2.07162 2.1 2.3501 2.1H2.7001V7.056C1.4317 7.8148 0.600098 9.0734 0.600098 10.5H4.8001V13.3C4.8001 13.685 5.1151 14 5.5001 14C5.8851 14 6.2001 13.685 6.2001 13.3V10.5H10.4001Z" fill="#757575"/>
</svg>
