<svg width="24" height="24" viewBox="0 0 24 24" fill="none" xmlns="http://www.w3.org/2000/svg">
<path d="M12.5266 23.9993C12.3278 23.9993 12.1371 23.9204 11.9966 23.7798C11.9114 23.6945 11.8481 23.59 11.8119 23.475C11.7757 23.3601 11.7678 23.2381 11.7888 23.1194L12.3188 20.1146C12.3452 19.9632 12.4178 19.8236 12.5266 19.715L19.9512 12.2904C20.0813 12.1148 20.2476 11.9692 20.4389 11.8634C20.6301 11.7577 20.8419 11.6942 21.0598 11.6774C21.2777 11.6606 21.4967 11.6907 21.7019 11.7659C21.9072 11.841 22.0939 11.9594 22.2494 12.1129L23.486 13.3495C23.814 13.6778 23.9983 14.1229 23.9983 14.5869C23.9983 15.051 23.814 15.4961 23.486 15.8244L16.0614 23.249C15.9525 23.3579 15.8127 23.4305 15.6609 23.4568L12.6561 23.9867C12.6134 23.995 12.57 23.9992 12.5266 23.9993ZM13.7547 20.6075L13.4519 22.3245L15.1688 22.0216L22.426 14.7636C22.4725 14.7164 22.4986 14.6528 22.4986 14.5865C22.4986 14.5203 22.4725 14.4567 22.426 14.4094L21.1979 13.1813C21.1878 13.2006 21.1137 13.2477 21.0111 13.3495L13.7547 20.6075Z" fill="black"/>
<path d="M10.0097 21.0001H2.74994C2.02082 20.9994 1.32175 20.7095 0.806177 20.1939C0.290607 19.6783 0.000668208 18.9792 0 18.2501V5.75043C0.000445718 5.02124 0.290315 4.32204 0.805934 3.80642C1.32155 3.2908 2.02075 3.00093 2.74994 3.00049H4.63007V4.50038H2.74994C2.41855 4.50083 2.10085 4.63267 1.86652 4.86701C1.63219 5.10134 1.50034 5.41904 1.4999 5.75043V18.2493C1.50034 18.5807 1.63219 18.8984 1.86652 19.1327C2.10085 19.367 2.41855 19.4989 2.74994 19.4993H10.0097V21.0001Z" fill="black"/>
<path d="M16.9989 12.81H15.499V5.75043C15.4985 5.41904 15.3667 5.10134 15.1324 4.86701C14.898 4.63267 14.5803 4.50083 14.2489 4.50038H12.3789V3.00049H14.2489C14.9781 3.00093 15.6773 3.2908 16.193 3.80642C16.7086 4.32204 16.9984 5.02124 16.9989 5.75043V12.81Z" fill="black"/>
<path d="M11.2496 6.49913H5.74974C5.28567 6.49868 4.84075 6.31408 4.51268 5.98585C4.18462 5.65763 4.00022 5.21262 4 4.74855V2.74981C4 2.5508 4.07906 2.35994 4.21978 2.21922C4.3605 2.0785 4.55136 1.99944 4.75037 1.99944H5.85404C6.01807 1.42399 6.36493 0.917552 6.84222 0.556661C7.31952 0.195769 7.90131 3.18062e-05 8.49968 -0.000976562C9.09806 3.18062e-05 9.67985 0.195769 10.1571 0.556661C10.6344 0.917552 10.9813 1.42399 11.1453 1.99944H12.2498C12.4487 1.99967 12.6393 2.07882 12.7799 2.21952C12.9204 2.36022 12.9994 2.55095 12.9994 2.74981V4.74939C12.9989 5.21331 12.8144 5.65811 12.4864 5.98615C12.1583 6.31419 11.7136 6.49868 11.2496 6.49913ZM5.4999 3.4985V4.74855C5.4999 4.81548 5.52648 4.87967 5.57381 4.927C5.62114 4.97433 5.68532 5.00092 5.75225 5.00092H11.2522C11.3191 5.00092 11.3833 4.97433 11.4306 4.927C11.4779 4.87967 11.5045 4.81548 11.5045 4.74855V3.49934H10.5043C10.3054 3.49934 10.1147 3.4204 9.97401 3.27986C9.83332 3.13932 9.75416 2.94868 9.75394 2.74981C9.75349 2.41841 9.62165 2.10072 9.38732 1.86638C9.15298 1.63205 8.83529 1.5002 8.50389 1.49976C8.1725 1.5002 7.85479 1.63205 7.62046 1.86638C7.38612 2.10072 7.25428 2.41841 7.25383 2.74981C7.25361 2.94868 7.17446 3.13932 7.03376 3.27986C6.89306 3.4204 6.70233 3.49934 6.50347 3.49934L5.4999 3.4985Z" fill="black"/>
<path d="M3.75195 8H13.2518V9.49989H3.75195V8Z" fill="black"/>
<path d="M3.75195 11H13.2518V12.4999H3.75195V11Z" fill="black"/>
<path d="M3.75195 13.9995H13.2518V15.5019H3.75195V13.9995Z" fill="black"/>
</svg>
