<svg id="Icon-Presc" xmlns="http://www.w3.org/2000/svg" xmlns:xlink="http://www.w3.org/1999/xlink" width="50.319" height="56.719" viewBox="0 0 50.319 56.719">
  <defs>
    <linearGradient id="linear-gradient" y1="0.5" x2="1" y2="0.5" gradientUnits="objectBoundingBox">
      <stop offset="0" stop-color="#00e2d1"/>
      <stop offset="1" stop-color="#25d0bd"/>
    </linearGradient>
  </defs>
  <g id="Group_4" data-name="Group 4" transform="translate(0 0.934)">
    <path id="Path_25" data-name="Path 25" d="M-218.834,67.327c11.078,0,18.685,5.739,24.023,5.739S-178.263,70-178.263,45.441-193.344,17.28-199.215,17.28c-27.493,0-39.237,50.047-19.619,50.047Z" transform="translate(228.582 -17.28)" fill="#fff"/>
  </g>
  <g id="Group_5" data-name="Group 5" transform="translate(7.143 15.614)">
    <path id="Path_26" data-name="Path 26" d="M-197.169,37.408h-3.2v1.6a1.6,1.6,0,0,1-1.6,1.6h-8.809a1.6,1.6,0,0,1-1.6-1.6v-1.6h-3.2a3.212,3.212,0,0,0-3.2,3.2V60.63a3.212,3.212,0,0,0,3.2,3.2h18.417a3.212,3.212,0,0,0,3.2-3.2V40.611A3.212,3.212,0,0,0-197.169,37.408Z" transform="translate(218.789 -37.408)" fill="#f0f0ed"/>
  </g>
  <g id="Group_6" data-name="Group 6" transform="translate(13.549 10.81)">
    <path id="Path_27" data-name="Path 27" d="M-197.995,34.024v3.2a1.6,1.6,0,0,1-1.6,1.6h-8.809a1.6,1.6,0,0,1-1.6-1.6v-3.2h2.8a3.212,3.212,0,0,1,3.2-3.2,3.212,3.212,0,0,1,3.2,3.2Z" transform="translate(210.006 -30.821)" fill="url(#linear-gradient)"/>
  </g>
  <g id="Group_7" data-name="Group 7" transform="translate(26.004 29.506)">
    <path id="Path_28" data-name="Path 28" d="M-188.118,72.943l-4.812.849.849-4.812,11.891-11.891c.626-.627,1.357-.908,1.981-.284l1.981,1.981a1.6,1.6,0,0,1,0,2.265Z" transform="translate(192.93 -56.455)" fill="url(#linear-gradient)"/>
  </g>
  <g id="Group_8" data-name="Group 8" transform="translate(23.958 15.614)">
    <path id="Path_29" data-name="Path 29" d="M-190.529,39.01V37.448a3.015,3.015,0,0,0-.4-.04h-3.2v1.6a1.6,1.6,0,0,1-1.6,1.6h3.6A1.6,1.6,0,0,0-190.529,39.01Z" transform="translate(195.734 -37.408)" fill="#cbd2da"/>
  </g>
  <g id="Group_9" data-name="Group 9" transform="translate(7.143 15.614)">
    <path id="Path_30" data-name="Path 30" d="M-215.186,60.63V40.611a3.205,3.205,0,0,1,2.8-3.163v-.04h-3.2a3.212,3.212,0,0,0-3.2,3.2V60.63a3.212,3.212,0,0,0,3.2,3.2h3.6A3.212,3.212,0,0,1-215.186,60.63Z" transform="translate(218.789 -37.408)" fill="#cbd2da"/>
  </g>
  <g id="Group_10" data-name="Group 10" transform="translate(24.803 28.306)">
    <path id="Path_31" data-name="Path 31" d="M-193.376,74.548a1.2,1.2,0,0,1-.849-.352,1.2,1.2,0,0,1-.333-1.058l.849-4.812a1.2,1.2,0,0,1,.333-.64l11.891-11.891c1.462-1.462,2.9-1.07,3.68-.284l1.981,1.981a2.8,2.8,0,0,1,0,3.964l-11.891,11.891a1.2,1.2,0,0,1-.641.333l-4.812.848a1.114,1.114,0,0,1-.208.02Zm1.966-5.432-.485,2.75,2.75-.485,11.623-11.624a.4.4,0,0,0,0-.567l-1.966-1.967c-.016.031-.138.106-.3.268Z" transform="translate(194.576 -54.809)" fill="#040506"/>
  </g>
  <g id="Group_11" data-name="Group 11" transform="translate(5.941 14.414)">
    <path id="Path_32" data-name="Path 32" d="M-204.405,64.589h-11.627a4.408,4.408,0,0,1-4.4-4.4V40.166a4.407,4.407,0,0,1,4.4-4.4h3.011v2.4h-3.011a2,2,0,0,0-2,2V60.184a2,2,0,0,0,2,2h11.627Z" transform="translate(220.436 -35.762)" fill="#040506"/>
  </g>
  <g id="Group_12" data-name="Group 12" transform="translate(25.768 14.414)">
    <path id="Path_33" data-name="Path 33" d="M-185.854,51.473h-2.4V40.166a2,2,0,0,0-2-2h-2.995v-2.4h2.995a4.407,4.407,0,0,1,4.4,4.4Z" transform="translate(193.253 -35.762)" fill="#040506"/>
  </g>
  <g id="Group_13" data-name="Group 13" transform="translate(12.347 9.609)">
    <path id="Path_34" data-name="Path 34" d="M-200.042,39.584h-8.809a2.806,2.806,0,0,1-2.8-2.8v-3.2a1.2,1.2,0,0,1,1.2-1.2h1.768a4.414,4.414,0,0,1,4.238-3.2,4.413,4.413,0,0,1,4.237,3.2h1.769a1.2,1.2,0,0,1,1.2,1.2v3.2A2.806,2.806,0,0,1-200.042,39.584Zm-9.209-4.805v2a.4.4,0,0,0,.4.4h8.809a.4.4,0,0,0,.4-.4v-2h-1.6a1.2,1.2,0,0,1-1.2-1.2,2,2,0,0,0-2-2,2,2,0,0,0-2,2,1.2,1.2,0,0,1-1.2,1.2Z" transform="translate(211.653 -29.174)" fill="#040506"/>
  </g>
  <g id="Group_14" data-name="Group 14" transform="translate(11.947 22.421)">
    <path id="Path_35" data-name="Path 35" d="M-212.2,46.74h15.214v2.4H-212.2Z" transform="translate(212.202 -46.74)" fill="#040506"/>
  </g>
  <g id="Group_15" data-name="Group 15" transform="translate(11.947 27.225)">
    <path id="Path_36" data-name="Path 36" d="M-212.2,53.327h15.214v2.4H-212.2Z" transform="translate(212.202 -53.327)" fill="#040506"/>
  </g>
  <g id="Group_16" data-name="Group 16" transform="translate(11.947 32.03)">
    <path id="Path_37" data-name="Path 37" d="M-212.2,59.914h15.214v2.4H-212.2Z" transform="translate(212.202 -59.914)" fill="#040506"/>
  </g>
  <g id="Group_17" data-name="Group 17" transform="translate(39.275 18.866)">
    <path id="Path_38" data-name="Path 38" d="M-172.332,46.67a2.4,2.4,0,0,1-2.4-2.4,2.4,2.4,0,0,1,2.4-2.4,2.4,2.4,0,0,1,2.4,2.4A2.4,2.4,0,0,1-172.332,46.67Zm0-3.2a.8.8,0,0,0-.8.8.8.8,0,0,0,.8.8.8.8,0,0,0,.8-.8A.8.8,0,0,0-172.332,43.467Z" transform="translate(174.734 -41.866)" fill="#92a0b5"/>
  </g>
  <g id="Group_21" data-name="Group 21" transform="translate(13.348)">
    <g id="Group_18" data-name="Group 18" transform="translate(9.209 5.205)">
      <path id="Path_39" data-name="Path 39" d="M-197.655,23.136h3.2v1.6h-3.2Z" transform="translate(197.655 -23.136)" fill="#92a0b5"/>
    </g>
    <g id="Group_19" data-name="Group 19" transform="translate(0 5.205)">
      <path id="Path_40" data-name="Path 40" d="M-210.281,23.136h3.2v1.6h-3.2Z" transform="translate(210.281 -23.136)" fill="#92a0b5"/>
    </g>
    <g id="Group_20" data-name="Group 20" transform="translate(5.605)">
      <path id="Path_41" data-name="Path 41" d="M-202.6,16h1.6v3.2h-1.6Z" transform="translate(202.596 -16)" fill="#92a0b5"/>
    </g>
  </g>
</svg>
