<svg width="25" height="24" viewBox="0 0 25 24" fill="none" xmlns="http://www.w3.org/2000/svg">
<path d="M6.5085 23.6842C6.41417 23.6842 6.32359 23.6473 6.25613 23.5814C6.18868 23.5155 6.14972 23.4258 6.1476 23.3314L6.13316 21.6866C5.3482 21.0821 1.68865 18.1534 1.13467 15.6496C0.834634 14.3365 0.70964 12.9895 0.762936 11.6436C0.771057 11.6129 1.55151 8.52002 2.56023 7.26047C2.6499 7.13366 2.78506 7.04636 2.93752 7.01678C3.08999 6.98719 3.24799 7.0176 3.37858 7.10167C3.7425 7.3426 4.0166 7.69705 4.15823 8.10988C4.29987 8.5227 4.3011 8.97077 4.16173 9.38437C3.78819 10.2927 3.46529 11.221 3.19452 12.1651C3.19452 13.2478 3.39301 13.5708 4.13015 14.7618C4.24113 14.9423 4.36384 15.1399 4.49737 15.36L4.56865 15.4502C4.7364 15.6693 4.93413 15.8637 5.15602 16.0277C5.2271 16.0773 5.27798 16.1507 5.29934 16.2347C5.3207 16.3187 5.31113 16.4076 5.27238 16.4851C5.23362 16.5626 5.16827 16.6236 5.08826 16.6569C5.00825 16.6902 4.91893 16.6936 4.83662 16.6665C4.51898 16.4544 4.23826 16.1917 4.00564 15.8887L3.9073 15.7579L3.52294 15.1354C2.83756 14.2956 2.46903 13.2418 2.48173 12.1579C2.74765 11.1208 3.08747 10.1041 3.49858 9.11551C3.54957 8.95442 3.56635 8.78445 3.54787 8.6165C3.52938 8.44855 3.47602 8.2863 3.39121 8.14016C3.31893 7.98845 3.21199 7.85586 3.07903 7.75309C2.33802 9.01782 1.7906 10.3864 1.45497 11.8132C1.43378 13.0491 1.56008 14.2831 1.83121 15.489C2.38249 17.982 6.65827 21.185 6.70339 21.2175L6.84504 21.323L6.8676 23.3197C6.86762 23.414 6.83071 23.5046 6.76478 23.5721C6.69884 23.6395 6.60912 23.6785 6.51482 23.6806L6.5085 23.6842Z" fill="#89A5AC"/>
<path d="M3.13677 7.68002L3.13046 7.68814M6.5085 23.6842C6.41417 23.6842 6.32359 23.6473 6.25613 23.5814C6.18868 23.5155 6.14972 23.4257 6.1476 23.3314L6.13316 21.6866C5.3482 21.0821 1.68865 18.1534 1.13467 15.6496C0.834634 14.3365 0.70964 12.9895 0.762936 11.6436C0.771057 11.6129 1.55151 8.52002 2.56023 7.26047C2.6499 7.13366 2.78506 7.04636 2.93752 7.01678C3.08999 6.98719 3.24799 7.0176 3.37858 7.10167C3.7425 7.3426 4.0166 7.69705 4.15823 8.10988C4.29987 8.5227 4.3011 8.97077 4.16173 9.38437C3.78819 10.2927 3.46529 11.221 3.19452 12.1651C3.19452 13.2478 3.39301 13.5708 4.13015 14.7618C4.24113 14.9423 4.36384 15.1399 4.49737 15.36L4.56865 15.4502C4.7364 15.6693 4.93413 15.8637 5.15602 16.0277C5.2271 16.0773 5.27798 16.1507 5.29934 16.2347C5.3207 16.3187 5.31113 16.4076 5.27238 16.4851C5.23362 16.5626 5.16827 16.6236 5.08826 16.6569C5.00825 16.6902 4.91893 16.6936 4.83662 16.6665C4.51898 16.4544 4.23826 16.1917 4.00564 15.8887L3.9073 15.7579L3.52294 15.1354C2.83756 14.2956 2.46903 13.2418 2.48173 12.1579C2.74765 11.1208 3.08747 10.1041 3.49858 9.11551C3.54957 8.95442 3.56635 8.78445 3.54787 8.6165C3.52938 8.44855 3.47602 8.2863 3.39121 8.14016C3.31893 7.98845 3.21199 7.85586 3.07903 7.75309C2.33802 9.01782 1.7906 10.3864 1.45497 11.8132C1.43378 13.0491 1.56008 14.2831 1.83121 15.489C2.38249 17.982 6.65827 21.185 6.70339 21.2175L6.84504 21.323L6.8676 23.3197C6.86762 23.414 6.83071 23.5046 6.76478 23.5721C6.69884 23.6395 6.60912 23.6785 6.51482 23.6806L6.5085 23.6842Z" stroke="#89A5AC" stroke-width="0.7"/>
<path d="M10.2293 23.6633C10.135 23.6612 10.0452 23.6222 9.97931 23.5548C9.91337 23.4873 9.87646 23.3967 9.87649 23.3024L9.89814 21.5349L9.94146 21.4564C9.9983 21.3535 11.3066 18.9156 9.29093 17.6011C8.86719 17.3369 8.42654 17.1009 7.97183 16.8946C7.34841 16.6542 6.82016 16.2175 6.46686 15.6504C6.24852 15.3797 6.02115 15.0712 5.8001 14.7725C5.31469 14.1139 4.50266 13.0131 4.21845 13.1945C3.62927 13.5229 4.20762 14.7355 4.45394 15.2543L4.4801 15.3093C4.50898 15.3524 4.52823 15.4013 4.53654 15.4525C4.54485 15.5037 4.54201 15.5561 4.52823 15.6061C4.51445 15.6561 4.49004 15.7026 4.45668 15.7423C4.42332 15.7821 4.38178 15.8141 4.3349 15.8364C4.28802 15.8586 4.2369 15.8705 4.18503 15.8711C4.13315 15.8718 4.08173 15.8613 4.03429 15.8403C3.98684 15.8193 3.94447 15.7883 3.91008 15.7495C3.87569 15.7106 3.85007 15.6648 3.83498 15.6152L3.80882 15.5611C3.47589 14.8618 2.69544 13.2242 3.85213 12.5836C4.6804 12.054 5.50326 13.1692 6.37844 14.3511C6.59408 14.6444 6.81784 14.9466 7.03709 15.2191C7.32142 15.6933 7.75861 16.0567 8.27679 16.2495C8.75936 16.4691 9.22712 16.7198 9.67709 17.0002C11.6936 18.3148 11.1911 20.6155 10.6136 21.7226L10.5947 23.3133C10.5926 23.4076 10.5536 23.4973 10.4862 23.5632C10.4187 23.6292 10.3281 23.6661 10.2338 23.666" fill="#89A5AC"/>
<path d="M10.2293 23.6633C10.135 23.6612 10.0452 23.6222 9.97931 23.5548C9.91337 23.4873 9.87646 23.3967 9.87649 23.3024L9.89814 21.5349L9.94146 21.4564C9.9983 21.3535 11.3066 18.9156 9.29093 17.6011C8.86719 17.3369 8.42654 17.1009 7.97183 16.8946C7.34841 16.6542 6.82016 16.2175 6.46686 15.6504C6.24852 15.3797 6.02115 15.0712 5.8001 14.7725C5.31469 14.1139 4.50266 13.0131 4.21845 13.1945C3.62927 13.5229 4.20762 14.7355 4.45394 15.2543L4.4801 15.3093C4.50898 15.3524 4.52823 15.4013 4.53654 15.4525C4.54485 15.5037 4.54201 15.5561 4.52823 15.6061C4.51445 15.6561 4.49004 15.7026 4.45668 15.7423C4.42332 15.7821 4.38178 15.8141 4.3349 15.8364C4.28802 15.8586 4.2369 15.8705 4.18503 15.8711C4.13315 15.8718 4.08173 15.8613 4.03429 15.8403C3.98684 15.8193 3.94447 15.7883 3.91008 15.7495C3.87569 15.7106 3.85007 15.6648 3.83498 15.6152L3.80882 15.5611C3.47589 14.8618 2.69544 13.2242 3.85213 12.5836C4.6804 12.054 5.50326 13.1692 6.37844 14.3511C6.59408 14.6444 6.81784 14.9466 7.03709 15.2191C7.32142 15.6933 7.7586 16.0567 8.27679 16.2495C8.75936 16.4691 9.22712 16.7198 9.6771 17.0002C11.6936 18.3148 11.1911 20.6155 10.6136 21.7226L10.5947 23.3133C10.5926 23.4076 10.5536 23.4973 10.4862 23.5632C10.4187 23.6292 10.3281 23.6661 10.2338 23.666" stroke="#89A5AC" stroke-width="0.7"/>
<path d="M18.4924 23.6671C18.3981 23.665 18.3084 23.626 18.2425 23.5586C18.1765 23.4911 18.1396 23.4005 18.1396 23.3062L18.1622 21.3095L18.3039 21.2039C18.3472 21.1715 22.6221 17.9658 23.176 15.4782C23.4472 14.2714 23.5735 13.0365 23.5523 11.7997C23.2198 10.3719 22.6722 9.00285 21.9282 7.73959C21.7959 7.84275 21.6893 7.97526 21.6169 8.12666C21.5318 8.27386 21.4785 8.43729 21.4604 8.60638C21.4424 8.77548 21.4601 8.94647 21.5123 9.10831C21.9231 10.0937 22.2623 11.1075 22.5273 12.1417C22.5399 13.2255 22.1714 14.2794 21.4861 15.1191C21.3761 15.2996 21.2542 15.4936 21.1252 15.7128L21.0133 15.8644C20.7794 16.1709 20.4965 16.4367 20.176 16.6512C20.1335 16.6808 20.0852 16.7009 20.0342 16.7102C19.9832 16.7195 19.9308 16.7177 19.8806 16.7049C19.8304 16.6921 19.7835 16.6687 19.7432 16.6362C19.7028 16.6037 19.67 16.5629 19.6468 16.5165C19.6236 16.4702 19.6107 16.4194 19.6089 16.3676C19.6071 16.3158 19.6165 16.2643 19.6364 16.2164C19.6563 16.1686 19.6863 16.1256 19.7243 16.0904C19.7623 16.0552 19.8074 16.0286 19.8567 16.0124C20.0804 15.845 20.2802 15.6476 20.4503 15.4259L20.5243 15.3276C20.6551 15.1128 20.7742 14.9197 20.8852 14.7438C21.4995 14.0167 21.831 13.0925 21.819 12.1408C21.5491 11.2023 21.2278 10.2794 20.8564 9.37628C20.7161 8.96205 20.7166 8.51311 20.8577 8.09919C20.9989 7.68527 21.2727 7.32953 21.6368 7.08725C21.773 7.00221 21.9371 6.97403 22.0939 7.00879C22.2507 7.04355 22.3875 7.13848 22.475 7.27312C23.4675 8.51012 24.2443 11.5994 24.2524 11.6301C24.3052 12.9766 24.1799 14.3242 23.8798 15.6379C23.3267 18.1399 19.6672 21.0686 18.8822 21.6731L18.8642 23.3188C18.862 23.4131 18.8231 23.5029 18.7556 23.5688C18.6882 23.6347 18.5976 23.6716 18.5033 23.6716" fill="#89A5AC"/>
<path d="M18.4924 23.6671C18.3981 23.665 18.3084 23.626 18.2425 23.5586C18.1765 23.4911 18.1396 23.4005 18.1396 23.3062L18.1622 21.3095L18.3039 21.2039C18.3472 21.1715 22.6221 17.9658 23.176 15.4782C23.4472 14.2714 23.5735 13.0365 23.5523 11.7997C23.2198 10.3719 22.6722 9.00285 21.9282 7.73959C21.7959 7.84275 21.6893 7.97526 21.6169 8.12666C21.5318 8.27386 21.4785 8.43729 21.4604 8.60638C21.4424 8.77548 21.4601 8.94647 21.5123 9.10831C21.9231 10.0937 22.2623 11.1075 22.5273 12.1417C22.5399 13.2255 22.1714 14.2794 21.4861 15.1191C21.3761 15.2996 21.2542 15.4936 21.1252 15.7128L21.0133 15.8644C20.7794 16.1709 20.4965 16.4367 20.176 16.6512C20.1335 16.6808 20.0852 16.7009 20.0342 16.7102C19.9832 16.7195 19.9308 16.7177 19.8806 16.7049C19.8304 16.6921 19.7835 16.6687 19.7432 16.6362C19.7028 16.6037 19.67 16.5629 19.6468 16.5165C19.6236 16.4702 19.6107 16.4194 19.6089 16.3676C19.6071 16.3158 19.6165 16.2643 19.6364 16.2165C19.6563 16.1686 19.6863 16.1256 19.7243 16.0904C19.7623 16.0552 19.8074 16.0286 19.8567 16.0124C20.0804 15.845 20.2802 15.6476 20.4503 15.4259L20.5243 15.3276C20.6551 15.1128 20.7742 14.9197 20.8852 14.7438C21.4995 14.0167 21.831 13.0925 21.819 12.1408C21.5491 11.2023 21.2278 10.2794 20.8564 9.37628C20.7161 8.96205 20.7166 8.51311 20.8577 8.09919C20.9989 7.68527 21.2727 7.32953 21.6368 7.08725C21.773 7.00221 21.9371 6.97403 22.0939 7.00879C22.2507 7.04355 22.3875 7.13848 22.475 7.27312C23.4675 8.51012 24.2443 11.5994 24.2524 11.6301C24.3052 12.9766 24.1799 14.3242 23.8798 15.6379C23.3267 18.1399 19.6672 21.0686 18.8822 21.6731L18.8642 23.3188C18.862 23.4131 18.8231 23.5029 18.7556 23.5688C18.6882 23.6347 18.5976 23.6716 18.5033 23.6716" stroke="#89A5AC" stroke-width="0.7"/>
<path d="M14.7709 23.6471C14.6765 23.6471 14.5859 23.6102 14.5185 23.5443C14.451 23.4783 14.4121 23.3886 14.41 23.2943L14.391 21.7036C13.8136 20.5956 13.3083 18.2958 15.3203 16.9857C15.7725 16.7036 16.2427 16.4513 16.7278 16.2305C17.2404 16.0408 17.6734 15.6826 17.9558 15.2146C18.1868 14.9277 18.4069 14.6245 18.6262 14.3313C19.4969 13.1493 20.3206 12.0332 21.1678 12.5746C22.3047 13.2062 21.5288 14.8429 21.1931 15.5412L21.1669 15.5972C21.1188 15.669 21.0464 15.7212 20.963 15.7442C20.8796 15.7671 20.7907 15.7594 20.7125 15.7223C20.6344 15.6853 20.5721 15.6214 20.5371 15.5423C20.5021 15.4631 20.4967 15.3741 20.5218 15.2913L20.5489 15.2344C20.7952 14.7166 21.3718 13.5048 20.8024 13.1872C20.5002 12.9923 19.6863 14.0967 19.2018 14.7544C18.9817 15.0531 18.7507 15.3626 18.5242 15.6477C18.1731 16.2088 17.649 16.6404 17.031 16.8774C16.5737 17.085 16.1306 17.3225 15.7047 17.5884C13.6963 18.8985 15.0045 21.3364 15.0614 21.4392L15.1047 21.5177L15.1264 23.2862C15.1264 23.3805 15.0894 23.4711 15.0235 23.5385C14.9576 23.606 14.8679 23.645 14.7735 23.6471H14.7709Z" fill="#89A5AC" stroke="#89A5AC" stroke-width="0.7"/>
<path d="M15.7539 8.09232C15.7315 8.09229 15.7091 8.09018 15.6871 8.086C15.6179 8.07221 15.5543 8.03846 15.5041 7.98891C15.4539 7.93936 15.4194 7.87619 15.4047 7.80721L14.8002 4.8839L14.1794 7.05653C14.1611 7.11674 14.1274 7.17112 14.0816 7.21428C14.0358 7.25743 13.9795 7.28786 13.9183 7.30255C13.8571 7.31723 13.7932 7.31565 13.7328 7.29798C13.6724 7.28031 13.6176 7.24715 13.574 7.2018L12.9578 6.53954L12.2134 6.53413C12.1616 6.53317 12.1106 6.52107 12.0639 6.49865C12.0172 6.47623 11.9759 6.44402 11.9427 6.4042L11.3761 5.71939L10.9638 6.36811C10.9318 6.41792 10.8881 6.45912 10.8365 6.48807C10.7849 6.51702 10.727 6.53284 10.6679 6.53413L10.2402 6.54044C10.1891 6.54846 10.1369 6.54543 10.0872 6.53155C10.0374 6.51767 9.9912 6.49326 9.95168 6.45998C9.91215 6.4267 9.88024 6.38531 9.85809 6.33863C9.83594 6.29194 9.82407 6.24105 9.82328 6.18938C9.8225 6.13772 9.83282 6.08649 9.85354 6.03915C9.87427 5.99182 9.90492 5.94949 9.94342 5.91503C9.98192 5.88056 10.0274 5.85477 10.0767 5.83938C10.126 5.824 10.1781 5.81938 10.2293 5.82586H10.4639L11.0369 4.9236C11.0673 4.87625 11.1083 4.83666 11.1567 4.808C11.2051 4.77933 11.2595 4.76238 11.3157 4.75849C11.372 4.75444 11.4285 4.76406 11.4803 4.78653C11.5322 4.80899 11.5778 4.84363 11.6134 4.88751L12.3867 5.82315L13.1184 5.82856C13.1669 5.8291 13.2149 5.83945 13.2594 5.85899C13.3039 5.87852 13.344 5.90684 13.3773 5.94224L13.6669 6.25443L14.5133 3.29503C14.5332 3.21624 14.5804 3.14705 14.6464 3.09966C14.7125 3.05228 14.7931 3.02976 14.8742 3.03608C14.9538 3.03965 15.03 3.06947 15.0908 3.12089C15.1517 3.1723 15.1938 3.24241 15.2107 3.32029L15.9325 6.82104L16.4793 5.98916C16.5118 5.94035 16.5558 5.90022 16.6074 5.87224C16.6589 5.84425 16.7165 5.82926 16.7752 5.82856L18.9135 5.81322C18.9906 5.81354 19.0655 5.83852 19.1274 5.8845L19.3701 6.06495L20.1821 5.56962C20.2309 5.54038 20.286 5.52309 20.3427 5.51917C20.3995 5.51525 20.4564 5.52481 20.5087 5.54706L21.1638 5.82946L21.6275 5.83578C21.7128 5.84974 21.7902 5.89382 21.8457 5.96001C21.9013 6.0262 21.9312 6.11012 21.9301 6.19651C21.929 6.28289 21.897 6.36602 21.8398 6.43079C21.7826 6.49556 21.7041 6.53767 21.6185 6.54947L21.0835 6.54224C21.0366 6.54156 20.9903 6.53175 20.9472 6.51338L20.396 6.27608L19.5334 6.80119C19.4723 6.83782 19.4018 6.85556 19.3307 6.85219C19.2596 6.84882 19.191 6.82448 19.1337 6.78224L18.7926 6.52691L16.9647 6.53954L16.0489 7.93172C16.0161 7.98091 15.9717 8.02127 15.9196 8.04928C15.8675 8.07728 15.8094 8.09206 15.7503 8.09232" fill="#FF3932"/>
<path d="M15.7539 8.09232C15.7315 8.09229 15.7091 8.09018 15.6871 8.086C15.6179 8.07221 15.5543 8.03846 15.5041 7.98891C15.4539 7.93936 15.4194 7.87619 15.4047 7.80721L14.8002 4.8839L14.1794 7.05653C14.1611 7.11674 14.1274 7.17112 14.0816 7.21428C14.0358 7.25743 13.9795 7.28786 13.9183 7.30255C13.8571 7.31723 13.7932 7.31565 13.7328 7.29798C13.6724 7.28031 13.6176 7.24715 13.574 7.2018L12.9578 6.53954L12.2134 6.53413C12.1616 6.53317 12.1106 6.52107 12.0639 6.49865C12.0172 6.47623 11.9759 6.44402 11.9427 6.4042L11.3761 5.71939L10.9638 6.36811C10.9318 6.41792 10.8881 6.45912 10.8365 6.48807C10.7849 6.51702 10.727 6.53284 10.6679 6.53413L10.2402 6.54044C10.1891 6.54846 10.1369 6.54543 10.0872 6.53155C10.0374 6.51767 9.9912 6.49326 9.95168 6.45998C9.91215 6.4267 9.88024 6.38531 9.85809 6.33863C9.83594 6.29194 9.82407 6.24105 9.82328 6.18938C9.8225 6.13772 9.83282 6.08649 9.85354 6.03915C9.87427 5.99182 9.90492 5.94949 9.94342 5.91503C9.98192 5.88056 10.0274 5.85477 10.0767 5.83938C10.126 5.824 10.1781 5.81938 10.2293 5.82586H10.4639L11.0369 4.9236C11.0673 4.87625 11.1083 4.83666 11.1567 4.808C11.2051 4.77933 11.2595 4.76238 11.3157 4.75849C11.372 4.75444 11.4285 4.76406 11.4803 4.78653C11.5322 4.80899 11.5778 4.84363 11.6134 4.88751L12.3867 5.82315L13.1184 5.82856C13.1669 5.8291 13.2149 5.83945 13.2594 5.85899C13.3039 5.87852 13.344 5.90684 13.3773 5.94224L13.6669 6.25443L14.5133 3.29503C14.5332 3.21624 14.5804 3.14705 14.6464 3.09966C14.7125 3.05228 14.7931 3.02976 14.8742 3.03608C14.9538 3.03965 15.03 3.06947 15.0908 3.12089C15.1517 3.1723 15.1938 3.24241 15.2107 3.32029L15.9325 6.82104L16.4793 5.98916C16.5118 5.94035 16.5558 5.90022 16.6074 5.87224C16.6589 5.84425 16.7165 5.82926 16.7752 5.82856L18.9135 5.81322C18.9906 5.81354 19.0655 5.83852 19.1274 5.8845L19.3701 6.06495L20.1821 5.56962C20.2309 5.54038 20.286 5.52309 20.3427 5.51917C20.3995 5.51525 20.4564 5.52481 20.5087 5.54706L21.1638 5.82946L21.6275 5.83578C21.7128 5.84974 21.7902 5.89382 21.8457 5.96001C21.9013 6.0262 21.9312 6.11012 21.9301 6.19651C21.929 6.28289 21.897 6.36602 21.8398 6.43079C21.7826 6.49556 21.7041 6.53767 21.6185 6.54947L21.0835 6.54225C21.0366 6.54156 20.9903 6.53175 20.9472 6.51337L20.396 6.27608L19.5334 6.80119C19.4723 6.83782 19.4018 6.85556 19.3307 6.85219C19.2596 6.84882 19.191 6.82448 19.1337 6.78224L18.7926 6.52691L16.9647 6.53954L16.0489 7.93172C16.0161 7.9809 15.9717 8.02127 15.9196 8.04928C15.8675 8.07728 15.8094 8.09206 15.7503 8.09232" stroke="#FF3932" stroke-width="0.5"/>
<path d="M12.5076 12.6434C12.4487 12.6432 12.3908 12.6286 12.3389 12.6009C12.0565 12.4503 5.4276 8.85568 5.37437 4.28305C5.36739 3.7554 5.46595 3.23168 5.66428 2.74268C5.86261 2.25367 6.1567 1.80925 6.52926 1.43553C6.90722 1.05079 7.35833 0.745545 7.85603 0.537757C8.35373 0.329968 8.88796 0.223836 9.42729 0.225608C10.7419 0.225608 11.8408 1.3426 12.5076 2.23403C13.1744 1.3426 14.2724 0.225608 15.587 0.225608C16.6613 0.227516 17.6911 0.655133 18.4507 1.41479C19.2104 2.17445 19.638 3.20422 19.6399 4.27854C19.6399 8.95944 12.9551 12.4566 12.6709 12.6037C12.6203 12.6296 12.5644 12.6432 12.5076 12.6434ZM9.42729 0.940194C8.98254 0.939278 8.5421 1.02724 8.13181 1.19891C7.72153 1.37059 7.34969 1.62251 7.03812 1.93989C6.73209 2.24644 6.49046 2.6111 6.32745 3.01242C6.16445 3.41374 6.08335 3.84361 6.08895 4.27674C6.13316 8.05177 11.4917 11.2981 12.5103 11.8809C13.5353 11.3134 18.9262 8.1429 18.9262 4.28125C18.9262 3.39586 18.5745 2.54674 17.9485 1.92068C17.3224 1.29462 16.4733 0.942901 15.5879 0.942901C14.3419 0.942901 13.2276 2.41899 12.8053 3.05418C12.7708 3.10048 12.726 3.13807 12.6744 3.16397C12.6227 3.18987 12.5658 3.20335 12.508 3.20335C12.4503 3.20335 12.3934 3.18987 12.3417 3.16397C12.2901 3.13807 12.2453 3.10048 12.2108 3.05418C11.7894 2.4226 10.6769 0.942901 9.4282 0.942901" fill="#FF3932"/>
<path d="M9.42729 0.940194C8.98254 0.939278 8.5421 1.02724 8.13181 1.19891C7.72153 1.37059 7.34969 1.62251 7.03812 1.93989C6.73209 2.24644 6.49046 2.6111 6.32745 3.01242C6.16445 3.41374 6.08335 3.84361 6.08895 4.27674C6.13316 8.05177 11.4917 11.2981 12.5103 11.8809C13.5353 11.3134 18.9262 8.1429 18.9262 4.28125C18.9262 3.39586 18.5745 2.54674 17.9485 1.92068C17.3224 1.29462 16.4733 0.942901 15.5879 0.942901C14.3419 0.942901 13.2276 2.41899 12.8053 3.05418C12.7708 3.10048 12.726 3.13807 12.6744 3.16397C12.6227 3.18987 12.5658 3.20335 12.508 3.20335C12.4503 3.20335 12.3934 3.18987 12.3417 3.16397C12.2901 3.13807 12.2453 3.10048 12.2108 3.05418C11.7894 2.4226 10.6769 0.942901 9.4282 0.942901M12.5076 12.6434C12.4487 12.6432 12.3908 12.6286 12.3389 12.6009C12.0565 12.4503 5.4276 8.85568 5.37437 4.28305C5.36739 3.7554 5.46595 3.23168 5.66428 2.74268C5.86261 2.25367 6.1567 1.80925 6.52926 1.43553C6.90722 1.05079 7.35833 0.745545 7.85603 0.537757C8.35373 0.329968 8.88796 0.223836 9.42729 0.225608C10.7419 0.225608 11.8408 1.3426 12.5076 2.23403C13.1744 1.3426 14.2724 0.225608 15.587 0.225608C16.6613 0.227516 17.6911 0.655133 18.4507 1.41479C19.2104 2.17445 19.638 3.20422 19.6399 4.27854C19.6399 8.95944 12.9551 12.4566 12.6709 12.6037C12.6203 12.6296 12.5644 12.6432 12.5076 12.6434Z" stroke="#FF3932" stroke-width="0.5"/>
</svg>
