<svg width="41" height="40" viewBox="0 0 41 40" fill="none" xmlns="http://www.w3.org/2000/svg">
<g id="product" clip-path="url(#clip0_582_2797)">
<g id="Group 3">
<path id="Path 14" d="M7.44143 5.58969C15.0589 5.58969 20.2895 1.64404 23.9593 1.64404C27.6292 1.64404 35.3348 3.75377 35.3348 20.6383C35.3348 37.5229 24.9657 40.0026 20.9313 40.0026C2.02718 40.0026 -6.04777 5.59172 7.44482 5.59172L7.44143 5.58969Z" fill="white"/>
<path id="Path 15" d="M9.80217 12.122C9.47549 12.1222 9.1561 12.0254 8.88441 11.844C8.61272 11.6626 8.40093 11.4047 8.27582 11.1029C8.15071 10.8012 8.11791 10.4691 8.18156 10.1486C8.24521 9.82822 8.40245 9.53387 8.6334 9.30283C8.86435 9.07178 9.15864 8.91441 9.47903 8.85063C9.79943 8.78685 10.1315 8.81952 10.4334 8.9445C10.7352 9.06949 10.9932 9.28118 11.1747 9.55279C11.3562 9.82441 11.4531 10.1438 11.4531 10.4704C11.4524 10.9081 11.2782 11.3277 10.9688 11.6373C10.6594 11.9468 10.2399 12.1211 9.80217 12.122ZM9.80217 9.91946C9.69314 9.91932 9.58652 9.95154 9.49581 10.012C9.40509 10.0725 9.33437 10.1586 9.29258 10.2593C9.25079 10.36 9.23983 10.4708 9.26106 10.5778C9.2823 10.6847 9.33479 10.7829 9.41189 10.86C9.48899 10.9371 9.58722 10.9896 9.69417 11.0109C9.80111 11.0321 9.91195 11.0211 10.0127 10.9793C10.1134 10.9376 10.1994 10.8668 10.2599 10.7761C10.3204 10.6854 10.3526 10.5788 10.3525 10.4698C10.3519 10.324 10.2938 10.1844 10.1907 10.0815C10.0876 9.97849 9.94789 9.91981 9.80217 9.91946Z" fill="#92A0B5"/>
<path id="Path 16" d="M23.1682 20.1708L29.5001 13.8396C30.0861 13.2442 30.4131 12.4413 30.4098 11.6059C30.4065 10.7705 30.0732 9.97026 29.4825 9.37953C28.8917 8.7888 28.0915 8.45547 27.2561 8.45217C26.4207 8.44888 25.6178 8.77588 25.0224 9.36193L18.6905 15.6938C18.1045 16.2892 17.7775 17.092 17.7808 17.9275C17.7841 18.7629 18.1174 19.5631 18.7081 20.1539C19.2989 20.7446 20.0991 21.0779 20.9345 21.0812C21.77 21.0845 22.5728 20.7568 23.1682 20.1708Z" fill="url(#paint0_linear_582_2797)"/>
<path id="Path 17" d="M30.4271 28.8057C30.4271 28.8057 29.8768 27.4292 27.6742 27.4292C26.2449 27.4292 24.5852 28.1212 22.9946 28.6084V28.134C22.9943 27.6264 22.8189 27.1344 22.4978 26.7411C22.1768 26.3479 21.7299 26.0774 21.2326 25.9755L10.6291 23.8055L10.8805 22.8736C10.8805 22.8736 9.27499 21.647 5.6499 21.647V31.0082H8.6786L9.01001 29.7883C11.1279 30.7859 16.517 33.2108 19.1398 33.2108C22.4436 33.2108 30.4271 28.8057 30.4271 28.8057ZM10.6257 23.8177L10.2536 25.9938C10.3166 26.0304 10.3729 26.0562 10.4339 26.0914L9.06897 29.5661L10.6257 23.8177Z" fill="#F0F0ED"/>
<path id="Path 18" d="M7.57784 21.7721V31.0079H5.65381V21.648C6.29722 21.6458 6.94004 21.6872 7.57784 21.7721Z" fill="#CBD2DA"/>
<path id="Path 19" d="M30.426 28.8056C30.426 28.8056 22.4425 33.2108 19.1387 33.2108C16.5071 33.2108 11.0895 30.7663 8.98584 29.7754L9.62492 28.1489C12.0362 29.2611 16.7409 31.2874 19.1387 31.2874C21.5723 31.2874 26.561 28.887 29.0055 27.6318C29.3099 27.722 29.5929 27.8728 29.8375 28.0753C30.0821 28.2777 30.2832 28.5275 30.4287 28.8097L30.426 28.8056Z" fill="#CBD2DA"/>
<path id="Path 20" d="M20.9295 21.9234C20.1402 21.9231 19.3687 21.6889 18.7125 21.2503C18.0562 20.8116 17.5448 20.1883 17.2428 19.459C16.9407 18.7298 16.8617 17.9274 17.0156 17.1532C17.1695 16.379 17.5495 15.6679 18.1075 15.1096L24.4394 8.77843C24.81 8.40779 25.2501 8.11379 25.7343 7.9132C26.2186 7.71262 26.7376 7.60938 27.2617 7.60938C27.7859 7.60937 28.3049 7.71262 28.7892 7.9132C29.2734 8.11379 29.7135 8.40779 30.0841 8.77843C30.4547 9.14906 30.7487 9.58907 30.9493 10.0733C31.1499 10.5576 31.2531 11.0766 31.2531 11.6008C31.2531 12.1249 31.1499 12.6439 30.9493 13.1282C30.7487 13.6125 30.4547 14.0525 30.0841 14.4231L23.7529 20.755C23.3831 21.1269 22.943 21.4217 22.4584 21.6223C21.9737 21.8229 21.4541 21.9252 20.9295 21.9234ZM27.2614 9.26028C26.9538 9.25925 26.649 9.31934 26.3648 9.43708C26.0805 9.55482 25.8225 9.72785 25.6058 9.94613L19.2739 16.278C19.0503 16.4939 18.8719 16.7522 18.7492 17.0378C18.6265 17.3234 18.5619 17.6305 18.5593 17.9413C18.5566 18.2522 18.6158 18.5604 18.7336 18.8481C18.8513 19.1357 19.0252 19.397 19.2451 19.6168C19.4649 19.8365 19.7264 20.0102 20.0141 20.1278C20.3018 20.2454 20.6101 20.3044 20.9209 20.3016C21.2317 20.2987 21.5389 20.2339 21.8244 20.1111C22.1099 19.9882 22.3681 19.8097 22.5838 19.5859L28.9157 13.254C29.2427 12.9267 29.4652 12.5097 29.5553 12.0559C29.6453 11.602 29.5988 11.1317 29.4216 10.7043C29.2444 10.2768 28.9445 9.91154 28.5598 9.65453C28.175 9.39751 27.7227 9.26032 27.2601 9.26028H27.2614Z" fill="#040506"/>
<path id="Path 21" d="M21.4468 13.2907L22.6145 12.123L26.735 16.2435L25.5659 17.4112L21.4468 13.2907Z" fill="#040506"/>
<path id="Path 22" d="M8.67789 31.8333H5.64986C5.43076 31.8333 5.22063 31.7462 5.0657 31.5913C4.91077 31.4364 4.82373 31.2262 4.82373 31.0071V21.6479C4.82373 21.4288 4.91077 21.2187 5.0657 21.0637C5.22063 20.9088 5.43076 20.8218 5.64986 20.8218C9.51283 20.8218 11.3081 22.1616 11.3813 22.2192C11.5114 22.319 11.6088 22.4552 11.6612 22.6105C11.7136 22.7659 11.7185 22.9333 11.6754 23.0914L9.47284 31.224C9.42555 31.3987 9.3221 31.553 9.17844 31.6631C9.03478 31.7732 8.85889 31.833 8.67789 31.8333ZM6.47532 30.181H8.04558L9.91336 23.2765C8.82643 22.8011 7.65899 22.5368 6.47328 22.4978L6.47532 30.181Z" fill="#040506"/>
<path id="Path 23" d="M19.1404 34.0362C16.4878 34.0362 11.4206 31.8336 8.63583 30.5223C8.53207 30.4799 8.43803 30.4168 8.35945 30.3369C8.28086 30.257 8.21937 30.1619 8.17873 30.0574C8.13809 29.953 8.11915 29.8413 8.12306 29.7293C8.12697 29.6173 8.15366 29.5073 8.20148 29.4059C8.24931 29.3045 8.31728 29.214 8.40125 29.1397C8.48521 29.0655 8.58342 29.0091 8.68988 28.9741C8.79634 28.939 8.90883 28.926 9.02048 28.9359C9.13213 28.9457 9.2406 28.9782 9.33929 29.0313C13.8651 31.1654 17.4373 32.3887 19.1397 32.3887C21.3762 32.3887 26.4427 29.9774 29.1021 28.5854C28.6645 28.3537 28.1737 28.2413 27.6789 28.2594C26.5395 28.3566 25.4206 28.6208 24.3581 29.0435C23.1306 29.5294 21.8353 29.822 20.5182 29.911C18.6354 29.7915 16.7793 29.4035 15.0063 28.7589C14.8051 28.6807 14.6424 28.5268 14.5532 28.3301C14.464 28.1335 14.4553 27.9098 14.529 27.7068C14.6027 27.5039 14.753 27.3378 14.9476 27.2443C15.1422 27.1507 15.3656 27.137 15.5702 27.2062C17.1631 27.7827 18.8279 28.1367 20.5175 28.258C21.6569 28.1608 22.7758 27.8966 23.8383 27.4739C25.0657 26.9881 26.3611 26.6954 27.6782 26.6064C30.408 26.6064 31.1664 28.4248 31.1976 28.504C31.2725 28.6911 31.2765 28.8991 31.2087 29.0888C31.1409 29.2786 31.0061 29.437 30.8296 29.5342C30.4941 29.7131 22.6171 34.0362 19.1404 34.0362Z" fill="#040506"/>
<path id="Path 24" d="M22.9932 29.4555C22.8845 29.4555 22.7769 29.434 22.6766 29.3924C22.5762 29.3507 22.4851 29.2897 22.4083 29.2128C22.3316 29.1359 22.2708 29.0445 22.2294 28.9441C22.188 28.8436 22.1668 28.736 22.1671 28.6273V28.1312C22.1659 27.8141 22.0558 27.507 21.8554 27.2613C21.6549 27.0156 21.3762 26.8461 21.0658 26.7812L10.4602 24.6125C10.354 24.5908 10.2531 24.5483 10.1633 24.4875C10.0735 24.4268 9.99656 24.349 9.93683 24.2585C9.81622 24.0757 9.77315 23.8525 9.81709 23.638C9.86104 23.4235 9.98841 23.2352 10.1712 23.1146C10.3539 22.994 10.5771 22.9509 10.7916 22.9948L21.3972 25.1635C22.0798 25.3052 22.693 25.6772 23.1339 26.2173C23.5748 26.7574 23.8166 27.4327 23.8187 28.1299V28.6273C23.8188 28.7359 23.7976 28.8434 23.7562 28.9438C23.7149 29.0442 23.6541 29.1354 23.5774 29.2123C23.5008 29.2892 23.4097 29.3503 23.3095 29.392C23.2093 29.4337 23.1018 29.4553 22.9932 29.4555Z" fill="#040506"/>
</g>
<g id="Group 38045">
<g id="Group 18">
<path id="Path 39" d="M33.2343 4.08691L31.5976 2.66413L30.8862 3.48249L32.5229 4.90527L33.2343 4.08691Z" fill="#008B99"/>
</g>
<g id="Group 19">
<path id="Path 40" d="M37.9453 8.18164L36.3086 6.75885L35.5972 7.57722L37.2339 9L37.9453 8.18164Z" fill="#008B99"/>
</g>
<g id="Group 20">
<path id="Path 41" d="M37.393 3.02783L36.5746 2.31643L35.1519 3.95316L35.9702 4.66455L37.393 3.02783Z" fill="#008B99"/>
</g>
</g>
</g>
<defs>
<linearGradient id="paint0_linear_582_2797" x1="17.7808" y1="14.7667" x2="30.4099" y2="14.7667" gradientUnits="userSpaceOnUse">
<stop stop-color="#1BA8CD"/>
<stop offset="1" stop-color="#25D0BD"/>
</linearGradient>
<clipPath id="clip0_582_2797">
<rect width="39.5209" height="40" fill="white" transform="translate(0.739746)"/>
</clipPath>
</defs>
</svg>
