<svg width="18" height="18" viewBox="0 0 18 18" fill="none" xmlns="http://www.w3.org/2000/svg">
<path d="M0 0.561997C0 0.412947 0.0592102 0.270001 0.164605 0.164606C0.27 0.059211 0.412946 7.9916e-07 0.561997 7.9916e-07H3.93682C4.086 7.9916e-07 4.22906 0.0592609 4.33455 0.164745C4.44003 0.270228 4.49929 0.413295 4.49929 0.562471C4.49929 0.711648 4.44003 0.854714 4.33455 0.960198C4.22906 1.06568 4.086 1.12494 3.93682 1.12494H1.12494V3.93682C1.12494 4.086 1.06568 4.22906 0.960197 4.33455C0.854713 4.44003 0.711647 4.49929 0.56247 4.49929C0.413294 4.49929 0.270227 4.44003 0.164744 4.33455C0.0592601 4.22906 0 4.086 0 3.93682L0 0.561997ZM13.4983 0.561997C13.4983 0.488115 13.5129 0.414958 13.5412 0.346711C13.5695 0.278465 13.611 0.216469 13.6633 0.16427C13.7156 0.112072 13.7776 0.0706951 13.8459 0.0425079C13.9142 0.0143207 13.9874 -0.000123791 14.0613 7.9916e-07H17.438C17.5118 7.9916e-07 17.5849 0.0145373 17.6531 0.0427802C17.7213 0.0710232 17.7832 0.11242 17.8354 0.164606C17.8876 0.216792 17.929 0.278746 17.9572 0.346931C17.9855 0.415115 18 0.488195 18 0.561997V3.93682C18 4.086 17.9407 4.22906 17.8353 4.33455C17.7298 4.44003 17.5867 4.49929 17.4375 4.49929C17.2884 4.49929 17.1453 4.44003 17.0398 4.33455C16.9343 4.22906 16.8751 4.086 16.8751 3.93682V1.12494H14.0613C13.9122 1.12494 13.7693 1.06573 13.6639 0.960337C13.5585 0.854942 13.4993 0.711996 13.4993 0.562945L13.4983 0.561997ZM0.561997 13.4983C0.711047 13.4983 0.853993 13.5576 0.959388 13.6629C1.06478 13.7683 1.12399 13.9113 1.12399 14.0603V16.8694H3.93682C4.086 16.8694 4.22906 16.9286 4.33455 17.0341C4.44003 17.1396 4.49929 17.2827 4.49929 17.4318C4.49929 17.581 4.44003 17.7241 4.33455 17.8296C4.22906 17.9351 4.086 17.9943 3.93682 17.9943H0.561997C0.413926 17.9943 0.271835 17.9359 0.166602 17.8317C0.0613691 17.7276 0.00149819 17.5861 0 17.438L0 14.0613C0 13.9122 0.0592102 13.7693 0.164605 13.6639C0.27 13.5585 0.412946 13.4993 0.561997 13.4993V13.4983ZM17.4314 13.4983C17.5804 13.4983 17.7234 13.5576 17.8288 13.6629C17.9342 13.7683 17.9934 13.9113 17.9934 14.0603V17.438C17.9934 17.5118 17.9788 17.5849 17.9506 17.6531C17.9223 17.7213 17.8809 17.7832 17.8288 17.8354C17.7766 17.8876 17.7146 17.929 17.6464 17.9572C17.5783 17.9855 17.5052 18 17.4314 18H14.0613C13.9121 18 13.769 17.9407 13.6636 17.8353C13.5581 17.7298 13.4988 17.5867 13.4988 17.4375C13.4988 17.2884 13.5581 17.1453 13.6636 17.0398C13.769 16.9343 13.9121 16.8751 14.0613 16.8751H16.8694V14.0613C16.8692 13.9868 16.8839 13.9131 16.9125 13.8444C16.9411 13.7757 16.9831 13.7133 17.036 13.6609C17.0889 13.6085 17.1517 13.5672 17.2207 13.5393C17.2897 13.5114 17.3636 13.4975 17.438 13.4983H17.4314ZM4.49502 4.49503H5.6247V5.6247H4.49976L4.49502 4.49503Z" fill="black"/>
<path d="M7.945 1.99951H1.99902V7.77301H7.945V1.99951ZM3.18841 3.15383H6.75562V6.61774H3.18841V3.15383ZM5.56718 12.3903H4.37779V13.5446H5.56718V12.3903Z" fill="black"/>
<path d="M7.99808 10.1433H1.99902V15.9983H7.99808V10.1433ZM3.19883 11.3147H6.80016V14.8279H3.19883V11.3147ZM12.7983 4.28833H13.9981V5.45971H12.7983V4.28833Z" fill="black"/>
<path d="M10.1662 1.99951H15.9994V7.83271H10.1662V1.99951ZM11.3328 3.16615V6.66607H14.8327V3.16615H11.3328ZM8.99951 8.99841V11.3317H10.1662V12.4983H8.99951V13.665H11.3328V11.3317H12.4994V13.665H13.6661V12.4983H15.9994V11.3317H12.4994V8.99841H8.99951ZM11.3328 11.3317H10.1662V10.165H11.3328V11.3317ZM15.9994 13.665H14.8327V14.8316H12.4994V15.9982H15.9994V13.665ZM11.3328 15.9982V14.8316H8.99951V15.9982H11.3328Z" fill="black"/>
<path d="M13.999 10.0656H15.9987V9.0658H13.999V10.0656Z" fill="black"/>
</svg>
