<svg xmlns="http://www.w3.org/2000/svg" width="103.772" height="80.001" viewBox="0 0 103.772 80.001">
  <g id="Group_2135" data-name="Group 2135" transform="translate(-237.2 -251.275)" opacity="0.15">
    <g id="Group_2129" data-name="Group 2129" transform="translate(297.566 308.753)">
      <path id="Path_1261" data-name="Path 1261" d="M312.309,339.933c.541,6.832,7,4.119,3.5-1.054C314.695,339.259,313.715,339.5,312.309,339.933Z" transform="translate(-310.018 -328.237)" fill="#005058"/>
      <path id="Path_1262" data-name="Path 1262" d="M315.513,335.118v0a12.291,12.291,0,0,0,.2-4.561c-.469-2.559-1.466-4.041-2.815-4.393-2.878-.421-3.24,2.269-3.313,4.321-.161,1.148.81,5.578,1.991,6.413,1.163-.294,2.3-.584,3.459-.841C315.33,335.9,315.236,335.952,315.513,335.118Z" transform="translate(-309.563 -326.122)" fill="#005058"/>
      <path id="Path_1263" data-name="Path 1263" d="M323.719,345.676c-1.412-.432-2.388-.675-3.5-1.054C316.716,349.794,323.178,352.507,323.719,345.676Z" transform="translate(-311.158 -329.189)" fill="#005058"/>
      <path id="Path_1264" data-name="Path 1264" d="M326.1,336.228v0c-.073-2.051-.435-4.743-3.313-4.321-1.349.352-2.347,1.835-2.815,4.391a12.271,12.271,0,0,0,.2,4.561c.277.834.183.783.481.94,1.154.26,2.3.547,3.459.841C325.291,341.806,326.261,337.376,326.1,336.228Z" transform="translate(-311.268 -327.074)" fill="#005058"/>
    </g>
    <g id="Group_2130" data-name="Group 2130" transform="translate(268.806 308.034)">
      <path id="Path_1265" data-name="Path 1265" d="M284.539,326.725A10.2,10.2,0,0,0,276.8,330.4a.683.683,0,0,0,0,.9l3.721,4.277a.683.683,0,0,0,.515.234h7.01a.68.68,0,0,0,.515-.234l3.716-4.272a.681.681,0,0,0,0-.9A10.2,10.2,0,0,0,284.539,326.725Zm-.4,7.712.4-.868.4.868Zm3.6,0h-1.29l-1.284-2.781a.683.683,0,0,0-1.239,0l-1.284,2.781h-1.295l-3.113-3.578a10.019,10.019,0,0,1,1.234-1.074l.584.7a.682.682,0,0,0,1.048-.873l-.466-.559a8.447,8.447,0,0,1,3.228-.94v.84a.682.682,0,1,0,1.364.048c0-.016,0-.032,0-.048v-.84a8.432,8.432,0,0,1,3.224.938l-.466.559a.683.683,0,1,0,1.05.874l.584-.7a9.9,9.9,0,0,1,1.234,1.074Z" transform="translate(-273.69 -323.849)" fill="#005058"/>
      <path id="Path_1266" data-name="Path 1266" d="M293.522,324.929v0a5,5,0,0,0-3.7-1.648H278.093a4.988,4.988,0,0,0-4.988,4.988,5.089,5.089,0,0,0,.027.518l1.379,13.264a4.976,4.976,0,0,0,4.961,4.472h8.966a4.975,4.975,0,0,0,4.961-4.472l1.379-13.264A4.994,4.994,0,0,0,293.522,324.929Zm-.1,3.711-1.378,13.269a3.614,3.614,0,0,1-3.6,3.249h-3.8v-4.088a.682.682,0,1,0-1.364-.048v4.135h-3.8a3.615,3.615,0,0,1-3.6-3.249l-1.378-13.269a3.624,3.624,0,0,1,3.23-3.978,3.519,3.519,0,0,1,.374-.02h11.724a3.625,3.625,0,0,1,3.624,3.625A3.48,3.48,0,0,1,293.421,328.64Z" transform="translate(-273.105 -323.278)" fill="#005058"/>
    </g>
    <g id="Group_2131" data-name="Group 2131" transform="translate(237.2 278.44)">
      <path id="Path_1267" data-name="Path 1267" d="M268.825,298.508h0a1.013,1.013,0,0,0-.793.38c-1.347,1.664-2.03,2.937-2.03,3.778a2.826,2.826,0,0,0,2.773,2.876h.052a2.825,2.825,0,0,0,2.823-2.771v-.1c0-.847-.682-2.12-2.029-3.783A1.013,1.013,0,0,0,268.825,298.508Zm0,5.513h0a1.353,1.353,0,0,1-1.347-1.306,6.838,6.838,0,0,1,1.346-2.492,6.829,6.829,0,0,1,1.346,2.492A1.352,1.352,0,0,1,268.827,304.021Z" transform="translate(-241.975 -286.27)" fill="#005058"/>
      <path id="Path_1268" data-name="Path 1268" d="M237.938,294.547h3.112a1.882,1.882,0,0,0,1.191-.426l1.96-1.616a.738.738,0,0,0-.939-1.14L241.3,292.98a.4.4,0,0,1-.253.091h-3.111a.738.738,0,0,0,0,1.477Z" transform="translate(-237.2 -285.058)" fill="#005058"/>
      <path id="Path_1269" data-name="Path 1269" d="M269.586,294.582a.738.738,0,1,0,0-1.477h-1.043a.738.738,0,1,0,0,1.477Z" transform="translate(-242.274 -285.374)" fill="#005058"/>
      <path id="Path_1270" data-name="Path 1270" d="M258.867,302.887a2.732,2.732,0,0,0,2.052-2.635h0a2.738,2.738,0,0,0-.525-1.605,2.727,2.727,0,0,0,1.2-3.318,2.689,2.689,0,0,0-.131-.3h2.68a2.725,2.725,0,1,0,.1-5.448h-12.1l1.474-2.184a2.309,2.309,0,0,0-.672-3.2,2.272,2.272,0,0,0-2.671.165l-5.467,4.5a.739.739,0,0,0,.94,1.14l5.467-4.506a.8.8,0,0,1,.938-.062.814.814,0,0,1,.239,1.13l-1.835,2.718a1.135,1.135,0,0,0,.942,1.769h12.647a1.248,1.248,0,0,1,0,2.5H253.6a2.723,2.723,0,0,0-2.722,2.721,2.74,2.74,0,0,0,.524,1.608,2.724,2.724,0,0,0-.515,4.353,2.726,2.726,0,0,0-.557,3.233h-3.266A3.578,3.578,0,0,1,244.1,303.9a1.869,1.869,0,0,0-1.548-.818h-4.619a.738.738,0,1,0,0,1.477h4.62a.4.4,0,0,1,.326.173,5.054,5.054,0,0,0,4.179,2.21H256.5a2.721,2.721,0,0,0,2.372-4.057Zm-6.119.085h3.745a1.248,1.248,0,0,1,0,2.5h-3.745a1.248,1.248,0,0,1,0-2.5Zm6.3-5.446H253.6a1.248,1.248,0,0,1,0-2.5h5.447a1.248,1.248,0,1,1,0,2.5Zm-6.3,1.475h5.447a1.248,1.248,0,1,1,0,2.5h-5.447a1.248,1.248,0,0,1,0-2.5Z" transform="translate(-237.2 -283.838)" fill="#005058"/>
      <path id="Path_1271" data-name="Path 1271" d="M266,311.066l-.234-.028h0a1.013,1.013,0,0,0-.793.38c-.154.193-.308.389-.455.585a.74.74,0,0,0,.147,1.034.741.741,0,0,0,1.035-.148l.086-.115a6.828,6.828,0,0,1,1.329,2.473,1.347,1.347,0,0,1-1.346,1.306h0a1.352,1.352,0,0,1-1.348-1.315,1.97,1.97,0,0,1,.288-.824.738.738,0,0,0-1.3-.7,3.378,3.378,0,0,0-.461,1.482,2.824,2.824,0,0,0,2.773,2.875h.054a2.825,2.825,0,0,0,2.821-2.771v-.1c0-.846-.682-2.12-2.029-3.784A1.013,1.013,0,0,0,266,311.066Z" transform="translate(-241.468 -288.348)" fill="#005058"/>
    </g>
    <g id="Group_2132" data-name="Group 2132" transform="translate(275.744 251.275)">
      <path id="Path_1272" data-name="Path 1272" d="M315.024,289.514a6.6,6.6,0,1,0,6.6-6.6A6.6,6.6,0,0,0,315.024,289.514Zm3.578-4.278.451.783a.475.475,0,0,0,.832-.459l-.46-.8a.47.47,0,0,0-.289-.221.461.461,0,0,0-.175-.013,5.688,5.688,0,0,1,1.627-.57,5.592,5.592,0,0,1,.681-.08.468.468,0,0,0-.124.314v1.072a.475.475,0,0,0,.949-.007v-1.064a.467.467,0,0,0-.124-.313,5.581,5.581,0,0,1,2.306.651.476.476,0,0,0-.46.232l-.452.785a.475.475,0,0,0,.174.648.465.465,0,0,0,.236.064.48.48,0,0,0,.412-.238l.453-.787a.473.473,0,0,0-.028-.506c.068.043.138.08.205.126a5.628,5.628,0,0,1,1.592,1.666.462.462,0,0,0-.142-.071.474.474,0,0,0-.362.045l-.785.453a.475.475,0,0,0,.113.869.49.49,0,0,0,.124.017.471.471,0,0,0,.237-.064l.786-.452a.473.473,0,0,0,.23-.45,5.647,5.647,0,0,1,.561,1.61,5.551,5.551,0,0,1,.068.674.461.461,0,0,0-.3-.113h-1.065a.475.475,0,0,0,0,.949h1.065a.463.463,0,0,0,.291-.11c-.011.163-.009.328-.034.491h-3.884a.48.48,0,0,0-.413.244,1.411,1.411,0,0,1-2.568-.008.477.477,0,0,0-.41-.235h-3.886c-.026-.169-.043-.337-.054-.5a.47.47,0,0,0,.312.123h1.069a.475.475,0,1,0,0-.949H316.3a.465.465,0,0,0-.31.123,5.59,5.59,0,0,1,.649-2.3.48.48,0,0,0,.228.461l.779.449a.477.477,0,0,0,.653-.154.48.48,0,0,0-.164-.659l-.794-.458a.473.473,0,0,0-.511.034c.046-.073.088-.149.138-.221a5.613,5.613,0,0,1,1.667-1.593A.476.476,0,0,0,318.6,285.236Zm1.06,6.083a2.331,2.331,0,0,0,3.914,0h3.391a5.643,5.643,0,0,1-10.7,0Zm-1.641-4.184Z" transform="translate(-288.646 -256.521)" fill="#005058"/>
      <path id="Path_1273" data-name="Path 1273" d="M322.643,291.554h.016a1.286,1.286,0,0,0,1.088-1.97l1.393-1.4a.476.476,0,0,0-.016-.672.477.477,0,0,0-.656,0l-1.5,1.5a1.215,1.215,0,0,0-.3-.038,1.328,1.328,0,0,0-.914.365,1.275,1.275,0,0,0-.388.9A1.288,1.288,0,0,0,322.643,291.554Zm.028-.974a.324.324,0,1,1,.324-.325A.324.324,0,0,1,322.671,290.579Z" transform="translate(-289.699 -257.262)" fill="#005058"/>
      <path id="Path_1274" data-name="Path 1274" d="M326.3,291.915a.75.75,0,0,0-.75.75,2.257,2.257,0,0,1-2.257,2.257H309.741a2.258,2.258,0,0,1-2.257-2.257v-18.06a2.257,2.257,0,0,1,2.257-2.257h13.545a2.257,2.257,0,0,1,2.257,2.257v15.047a.751.751,0,0,0,.747.755h.006a.751.751,0,0,0,.751-.751h0V274.605a3.766,3.766,0,0,0-3.762-3.762H313.5v-2.257a.751.751,0,0,0-.751-.751H312v-3.012a4.515,4.515,0,0,0-9.03,0V273.1a3.01,3.01,0,0,1-3.01,3.01H296.2a4.577,4.577,0,0,0-.466.024l-.2-3.082a3.937,3.937,0,0,1,.618-2.37,4.215,4.215,0,0,1,1.4-1.341,9.35,9.35,0,0,0,4.21-5.632,2.459,2.459,0,0,0-1.251-2.86,2.407,2.407,0,0,0-3.221,1.1q-.04.084-.075.17l-.269.674v-6.924a2.319,2.319,0,0,0-1.881-2.307,2.278,2.278,0,0,0-1.129.1v-.05a2.319,2.319,0,0,0-1.881-2.307,2.258,2.258,0,0,0-2.634,2.227v.129a2.278,2.278,0,0,0-1.129-.1,2.319,2.319,0,0,0-1.881,2.31v.049a2.286,2.286,0,0,0-1.129-.1,2.319,2.319,0,0,0-1.881,2.307v7.821a6.46,6.46,0,0,0,1.3,3.867,6.608,6.608,0,0,1,1.525,4.666l-.38,6.095a.752.752,0,1,0,1.5.093l.38-6.095a8.073,8.073,0,0,0-1.849-5.692,4.928,4.928,0,0,1-.978-2.936v-7.82a.816.816,0,0,1,.621-.823.751.751,0,0,1,.873.6.83.83,0,0,1,.012.137v3.762a.751.751,0,0,0,1.5,0v-5.939a.816.816,0,0,1,.621-.823.751.751,0,0,1,.873.6.836.836,0,0,1,.012.137v6.02a.751.751,0,0,0,1.5,0v-8.277a.748.748,0,0,1,.884-.742.816.816,0,0,1,.621.823v8.2a.751.751,0,0,0,1.5,0v-6.021a.751.751,0,0,1,.748-.754.742.742,0,0,1,.136.012.816.816,0,0,1,.621.823v9.085a.751.751,0,0,0,.748.753.764.764,0,0,0,.31-.066,2.988,2.988,0,0,0,1.575-1.619l.538-1.348a.9.9,0,0,1,1.171-.507.743.743,0,0,1,.074.033.966.966,0,0,1,.448,1.12,7.848,7.848,0,0,1-3.537,4.727,5.743,5.743,0,0,0-1.914,1.861,5.386,5.386,0,0,0-.827,3.23l.232,3.417a4.513,4.513,0,0,0-2.566,4.063v2.257h-6.777a.751.751,0,0,0-.751.751v12.042a.751.751,0,0,0,.751.751h12.043a.751.751,0,0,0,.751-.751v-2.257a.751.751,0,0,0-1.5,0v1.5h-.751a5.267,5.267,0,0,1,0-10.534h.751v6.02a.751.751,0,1,0,1.5,0h0v-6.77a.751.751,0,0,0-.751-.751h-.8l-.326-5.23a2.79,2.79,0,0,1,.373-.038h3.762a4.52,4.52,0,0,0,4.515-4.515v-8.28a3.01,3.01,0,0,1,6.02,0v3.012h-.751a.751.751,0,0,0-.751.751v2.336a3.769,3.769,0,0,0-3.01,3.687v18.059a3.768,3.768,0,0,0,3.762,3.762h13.541a3.767,3.767,0,0,0,3.762-3.762A.75.75,0,0,0,326.3,291.915Zm-37.625-2.263a6.76,6.76,0,0,0,2.525,5.267h-5.535V284.387H291.2A6.755,6.755,0,0,0,288.671,289.652Zm4.515-6.772v-2.255a3,3,0,0,1,1.168-2.362l.289,4.617Zm17.307-13.541h1.5v1.5h-1.5Z" transform="translate(-283.404 -251.275)" fill="#005058"/>
    </g>
    <g id="Group_2133" data-name="Group 2133" transform="translate(317.732 288.27)">
      <path id="Path_1275" data-name="Path 1275" d="M355.267,296.435a4.188,4.188,0,0,0-5.855.9l-10.759,14.651a5.864,5.864,0,1,0,6.751,4.958l10.759-14.651A4.188,4.188,0,0,0,355.267,296.435Zm-.449,4.867-10.971,14.939a.838.838,0,0,0-.144.668,4.188,4.188,0,1,1-4.962-3.234,4.292,4.292,0,0,1,.461-.07l-.005,0a.837.837,0,0,0,.6-.336l10.971-14.939a2.514,2.514,0,1,1,4.053,2.976Z" transform="translate(-333.736 -295.623)" fill="#005058"/>
      <path id="Path_1276" data-name="Path 1276" d="M344.6,313.336l-3.605,4.91a2.512,2.512,0,0,0-2.214,4.43h0a2.512,2.512,0,0,0,3.566-3.438l3.6-4.909a.838.838,0,1,0-1.351-.993Zm-3.656,7.808a.837.837,0,1,1-.181-1.169v0A.837.837,0,0,1,340.944,321.144Z" transform="translate(-334.402 -298.503)" fill="#005058"/>
      <path id="Path_1277" data-name="Path 1277" d="M349.151,309.47a.717.717,0,1,0,1-.153A.716.716,0,0,0,349.151,309.47Z" transform="translate(-336.268 -297.87)" fill="#005058"/>
      <path id="Path_1278" data-name="Path 1278" d="M354.994,299.982l-3.718,5.063a.838.838,0,0,0,1.351.994h0l3.718-5.064a.838.838,0,1,0-1.351-.992Z" transform="translate(-336.617 -296.289)" fill="#005058"/>
    </g>
  </g>
</svg>
