<svg id="Icon-AddIcon" xmlns="http://www.w3.org/2000/svg" width="39.176" height="39.176" viewBox="0 0 39.176 39.176">
  <g id="plus">
    <path id="Path_1229" data-name="Path 1229" d="M19.588,39.176A19.588,19.588,0,1,1,39.176,19.588,19.61,19.61,0,0,1,19.588,39.176Zm0-36.727A17.139,17.139,0,1,0,36.727,19.588,17.158,17.158,0,0,0,19.588,2.448Zm0,0" fill="#008b99"/>
    <path id="Path_1230" data-name="Path 1230" d="M146.364,242.448H129.224a1.224,1.224,0,0,1,0-2.448h17.139a1.224,1.224,0,1,1,0,2.448Zm0,0" transform="translate(-118.206 -221.636)" fill="#008b99"/>
    <path id="Path_1231" data-name="Path 1231" d="M241.224,147.588A1.225,1.225,0,0,1,240,146.364V129.224a1.224,1.224,0,0,1,2.448,0v17.139A1.225,1.225,0,0,1,241.224,147.588Zm0,0" transform="translate(-221.636 -118.206)" fill="#008b99"/>
  </g>
</svg>
