<svg id="Icon-HealthRecords" xmlns="http://www.w3.org/2000/svg" width="69.618" height="69.618" viewBox="0 0 69.618 69.618">
  <path id="Path_1232" data-name="Path 1232" d="M210.08,226a1.36,1.36,0,0,0-1.119.587c-.89,1.288-2.96,4.473-2.96,6.212a4.079,4.079,0,1,0,8.158,0c0-1.739-2.07-4.923-2.96-6.212A1.36,1.36,0,0,0,210.08,226Zm0,8.158a1.361,1.361,0,0,1-1.36-1.358,10.16,10.16,0,0,1,1.36-2.921,10.153,10.153,0,0,1,1.359,2.92A1.361,1.361,0,0,1,210.08,234.159Z" transform="translate(-177.99 -195.271)" fill="#008b99"/>
  <path id="Path_1233" data-name="Path 1233" d="M170.08,306a1.36,1.36,0,0,0-1.119.587c-.89,1.288-2.96,4.473-2.96,6.212a4.079,4.079,0,0,0,8.158,0c0-1.739-2.07-4.923-2.96-6.212A1.36,1.36,0,0,0,170.08,306Zm0,8.158a1.361,1.361,0,0,1-1.36-1.358,10.157,10.157,0,0,1,1.36-2.921,10.149,10.149,0,0,1,1.359,2.92A1.361,1.361,0,0,1,170.08,314.159Z" transform="translate(-143.429 -264.393)" fill="#008b99"/>
  <path id="Path_1234" data-name="Path 1234" d="M87.859,13.466A1.36,1.36,0,1,0,89.367,11.2a1.909,1.909,0,0,1,0-3.176,4.663,4.663,0,0,0,2.061-3.9,4.663,4.663,0,0,0-2.061-3.9,1.36,1.36,0,0,0-1.508,2.263,1.925,1.925,0,0,1,.85,1.636,1.925,1.925,0,0,1-.85,1.637,4.628,4.628,0,0,0,0,7.7Z" transform="translate(-74.132 0)"/>
  <path id="Path_1235" data-name="Path 1235" d="M137.859,13.466a1.36,1.36,0,1,0,1.508-2.263,1.909,1.909,0,0,1,0-3.176,4.663,4.663,0,0,0,2.061-3.9,4.663,4.663,0,0,0-2.061-3.9,1.36,1.36,0,0,0-1.508,2.263,1.925,1.925,0,0,1,.85,1.636,1.925,1.925,0,0,1-.85,1.637,4.628,4.628,0,0,0,0,7.7Z" transform="translate(-117.333 0)"/>
  <path id="Path_1236" data-name="Path 1236" d="M187.859,13.466a1.36,1.36,0,0,0,1.508-2.263,1.909,1.909,0,0,1,0-3.176,4.663,4.663,0,0,0,2.061-3.9,4.663,4.663,0,0,0-2.061-3.9,1.36,1.36,0,1,0-1.508,2.263,1.925,1.925,0,0,1,.85,1.636,1.925,1.925,0,0,1-.85,1.637,4.628,4.628,0,0,0,0,7.7Z" transform="translate(-160.535 0)"/>
  <path id="Path_1237" data-name="Path 1237" d="M5.44,177.127a1.36,1.36,0,0,0,1.36,1.36H29.371a1.36,1.36,0,0,0,1.36-1.36v-4.958c.451.041.9.063,1.36.063h8.158a1.36,1.36,0,0,0,1.36-1.36V160.834l4.687-2.344a1.36,1.36,0,0,0,.523-1.97l-5.21-7.816V146.4a20.249,20.249,0,0,0-2.835-10.378,9.474,9.474,0,0,0,5.554-8.658,1.36,1.36,0,0,0-1.36-1.36H20.4A20.4,20.4,0,0,0,5.44,160.264v16.863ZM39.117,149.87l4.584,6.877-4.061,2.031a1.36,1.36,0,0,0-.752,1.216v9.518h-6.8a12.173,12.173,0,0,1-9.734-4.9,1.4,1.4,0,0,0-2.5.822,1.358,1.358,0,0,0,.541,1.086,15.005,15.005,0,0,0,7.617,5.137v4.111H8.159v-9.111a6.81,6.81,0,0,0,5.439-6.662v-2.723a6.763,6.763,0,0,0,4.079,1.363,1.36,1.36,0,0,0,0-2.719,4.084,4.084,0,0,1-4.079-4.079v-2.719a1.36,1.36,0,1,1,2.719,0,1.36,1.36,0,1,0,2.719,0v-6.935a6.82,6.82,0,0,0,5.3-5.3H34.81a9.608,9.608,0,0,0,1.245-.082,17.544,17.544,0,0,1,2.834,9.6v2.719a1.36,1.36,0,0,0,.228.754ZM2.72,146.4A17.7,17.7,0,0,1,20.4,128.719H41.474a6.776,6.776,0,0,1-6.664,5.44H23.116a1.36,1.36,0,0,0-1.36,1.36,4.084,4.084,0,0,1-4.079,4.079,1.36,1.36,0,0,0-1.36,1.36v4.312a4.08,4.08,0,0,0-5.439,3.846v10.878a4.086,4.086,0,0,1-2.719,3.845v-4.12a1.36,1.36,0,0,0-.388-.952A17.577,17.577,0,0,1,2.72,146.4Z" transform="translate(-0.001 -108.868)" fill="#008b99"/>
  <path id="Path_1238" data-name="Path 1238" d="M381.519,178.486a9.518,9.518,0,0,0,6.8-16.179V132.8a6.8,6.8,0,0,0-13.6,0v29.508a9.518,9.518,0,0,0,6.8,16.179ZM376.987,163.9a1.36,1.36,0,0,0,.453-1.013V132.8a4.079,4.079,0,1,1,8.158,0v30.088a1.36,1.36,0,0,0,.453,1.013,6.8,6.8,0,1,1-9.064,0Z" transform="translate(-321.419 -108.868)" fill="#25d0bd"/>
  <path id="Path_1239" data-name="Path 1239" d="M416.08,350.173a4.079,4.079,0,0,0,1.36-7.924v-9.888a1.36,1.36,0,1,0-2.719,0v9.888a4.079,4.079,0,0,0,1.36,7.924Zm0-5.439a1.36,1.36,0,1,1-1.36,1.36A1.361,1.361,0,0,1,416.08,344.734Z" transform="translate(-355.98 -285.994)" fill="#25d0bd"/>
  <circle id="Ellipse_10" data-name="Ellipse 10" cx="1.163" cy="1.163" r="1.163" transform="translate(59.148 38.393)" fill="#25d0bd"/>
  <path id="Path_1240" data-name="Path 1240" d="M433.361,178.918a1.36,1.36,0,0,0,1.36-1.36v-10.2a1.36,1.36,0,0,0-2.719,0v10.2A1.36,1.36,0,0,0,433.361,178.918Z" transform="translate(-373.261 -143.429)" fill="#25d0bd"/>
</svg>
