<svg id="Icon-Refill" xmlns="http://www.w3.org/2000/svg" xmlns:xlink="http://www.w3.org/1999/xlink" width="49.99" height="55.418" viewBox="0 0 49.99 55.418">
  <defs>
    <linearGradient id="linear-gradient" y1="0.5" x2="1" y2="0.5" gradientUnits="objectBoundingBox">
      <stop offset="0" stop-color="#00e2d1"/>
      <stop offset="1" stop-color="#25d0bd"/>
    </linearGradient>
  </defs>
  <path id="Path_1" data-name="Path 1" d="M-97.913,18.7c11.005,0,18.562-5.7,23.865-5.7s16.441,3.049,16.441,27.444S-72.59,68.418-78.423,68.418c-27.313,0-38.98-49.718-19.49-49.718Z" transform="translate(107.597 -13)" fill="#fff"/>
  <g id="Group_1" data-name="Group 1" transform="translate(0.183 2.36)">
    <path id="Path_2" data-name="Path 2" d="M-97.923,19.094l2.25-2.25,1.125,1.125-2.25,2.25Z" transform="translate(104.392 -16.561)" fill="#92a0b5"/>
    <path id="Path_3" data-name="Path 3" d="M-107.331,28.5l2.25-2.25,1.125,1.125-2.25,2.25Z" transform="translate(107.331 -19.5)" fill="#92a0b5"/>
    <path id="Path_4" data-name="Path 4" d="M-107.329,17.558l1.125-1.125,2.25,2.25-1.125,1.125Z" transform="translate(107.33 -16.433)" fill="#92a0b5"/>
  </g>
  <path id="Path_5" data-name="Path 5" d="M-84.55,49.829V54.6c0,2.417,4.1,4.375,9.148,4.375s9.148-1.958,9.148-4.375V49.829Z" transform="translate(100.397 -24.506)" fill="#f0f0ed"/>
  <ellipse id="Ellipse_1" data-name="Ellipse 1" cx="9.148" cy="4.375" rx="9.148" ry="4.375" transform="translate(15.847 20.947)" fill="url(#linear-gradient)"/>
  <path id="Path_8" data-name="Path 8" d="M-94.282,73.572l-.1-5.171a1.186,1.186,0,0,1,.342-.859,1.189,1.189,0,0,1,.851-.358h5.171v2.387h-3.954l.08,3.954Z" transform="translate(103.469 -29.928)" fill="#040506"/>
  <path id="Path_9" data-name="Path 9" d="M-52.19,36.524h-5.171V34.138h3.978V30.16H-51v5.171A1.194,1.194,0,0,1-52.19,36.524Z" transform="translate(91.902 -18.361)" fill="#040506"/>
  <path id="Path_10" data-name="Path 10" d="M-98.2,50.139a19.075,19.075,0,0,1-.816-5.514A19.113,19.113,0,0,1-79.92,25.532,18.875,18.875,0,0,1-65,32.749l-1.874,1.476A16.5,16.5,0,0,0-79.92,27.919,16.724,16.724,0,0,0-96.625,44.625a16.763,16.763,0,0,0,.712,4.827Z" transform="translate(104.915 -16.915)" fill="#040506"/>
  <path id="Path_11" data-name="Path 11" d="M-78.026,69.886a18.876,18.876,0,0,1-14.922-7.217l1.874-1.476A16.5,16.5,0,0,0-78.026,67.5,16.724,16.724,0,0,0-61.32,50.793a16.764,16.764,0,0,0-.713-4.827l2.285-.689a19.168,19.168,0,0,1,.815,5.516A19.114,19.114,0,0,1-78.026,69.886Z" transform="translate(103.02 -23.084)" fill="#040506"/>
  <path id="Path_12" data-name="Path 12" d="M-75.944,52.867c-5.9,0-10.342-2.395-10.342-5.569s4.446-5.569,10.342-5.569S-65.6,44.125-65.6,47.3-70.048,52.867-75.944,52.867Zm0-8.751C-80.8,44.117-83.9,46-83.9,47.3s3.1,3.182,7.955,3.182,7.955-1.885,7.955-3.182S-71.089,44.117-75.944,44.117Z" transform="translate(100.939 -21.976)" fill="#040506"/>
  <path id="Path_13" data-name="Path 13" d="M-75.944,60.171c-5.9,0-10.342-2.395-10.342-5.569V49.829H-83.9V54.6c0,1.3,3.1,3.182,7.955,3.182s7.955-1.885,7.955-3.182V49.829H-65.6V54.6C-65.6,57.776-70.048,60.171-75.944,60.171Z" transform="translate(100.939 -24.506)" fill="#040506"/>
</svg>
