<svg width="24" height="24" viewBox="0 0 24 24" fill="none" xmlns="http://www.w3.org/2000/svg">
<g clip-path="url(#clip0_575_2043)">
<path d="M10.5961 0.224609C8.54482 0.224609 6.5396 0.832887 4.83402 1.97252C3.12843 3.11216 1.79909 4.73196 1.0141 6.62711C0.229103 8.52225 0.0237129 10.6076 0.423899 12.6195C0.824086 14.6314 1.81188 16.4794 3.26236 17.9299C4.71284 19.3803 6.56086 20.3681 8.57273 20.7683C10.5846 21.1685 12.67 20.9631 14.5651 20.1781C16.4603 19.3931 18.0801 18.0638 19.2197 16.3582C20.3593 14.6526 20.9676 12.6474 20.9676 10.5961C20.9644 7.84639 19.8707 5.2102 17.9264 3.26585C15.982 1.32151 13.3458 0.22778 10.5961 0.224609ZM10.5961 19.0523C8.92363 19.0523 7.2887 18.5564 5.89808 17.6272C4.50746 16.698 3.42361 15.3773 2.78357 13.8322C2.14354 12.287 1.97608 10.5867 2.30237 8.94638C2.62865 7.30603 3.43403 5.79927 4.61665 4.61665C5.79928 3.43402 7.30604 2.62865 8.94638 2.30236C10.5867 1.97608 12.287 2.14354 13.8322 2.78357C15.3773 3.4236 16.698 4.50746 17.6272 5.89808C18.5564 7.2887 19.0523 8.92362 19.0523 10.5961C19.0496 12.838 18.1578 14.9873 16.5725 16.5725C14.9873 18.1578 12.838 19.0496 10.5961 19.0523Z" fill="black" stroke="black" stroke-width="0.3"/>
<path d="M23.4906 22.1433L18.0023 16.6551C17.9172 16.553 17.8117 16.4698 17.6926 16.4107C17.5736 16.3517 17.4434 16.318 17.3106 16.312C17.1778 16.306 17.0453 16.3278 16.9213 16.3759C16.7974 16.4239 16.6848 16.4973 16.5908 16.5913C16.4968 16.6853 16.4234 16.7979 16.3754 16.9218C16.3273 17.0458 16.3055 17.1783 16.3115 17.3111C16.3175 17.4439 16.3512 17.574 16.4102 17.6931C16.4693 17.8122 16.5525 17.9177 16.6546 18.0028L22.1428 23.491C22.228 23.5931 22.3334 23.6764 22.4525 23.7354C22.5716 23.7945 22.7017 23.8281 22.8345 23.8341C22.9673 23.8401 23.0999 23.8184 23.2239 23.7703C23.3478 23.7222 23.4604 23.6488 23.5543 23.5548C23.6483 23.4608 23.7217 23.3483 23.7698 23.2243C23.8179 23.1004 23.8396 22.9678 23.8336 22.835C23.8276 22.7022 23.794 22.5721 23.735 22.453C23.6759 22.3339 23.5926 22.2285 23.4906 22.1433Z" fill="black" stroke="black" stroke-width="0.3"/>
</g>
<defs>
<clipPath id="clip0_575_2043">
<rect width="24" height="24" fill="white"/>
</clipPath>
</defs>
</svg>
