<svg xmlns="http://www.w3.org/2000/svg" width="20.027" height="20.027" viewBox="0 0 20.027 20.027">
  <g id="loupe" transform="translate(0.15 0.15)">
    <g id="Group_1906" data-name="Group 1906">
      <g id="Group_1905" data-name="Group 1905">
        <path id="Path_1038" data-name="Path 1038" d="M8.926,0a8.926,8.926,0,1,0,8.926,8.926A8.936,8.936,0,0,0,8.926,0Zm0,16.2A7.278,7.278,0,1,1,16.2,8.926,7.286,7.286,0,0,1,8.926,16.2Z" fill="#fff" stroke="#fff" stroke-width="0.3"/>
      </g>
    </g>
    <g id="Group_1908" data-name="Group 1908" transform="translate(14.783 14.783)">
      <g id="Group_1907" data-name="Group 1907">
        <path id="Path_1039" data-name="Path 1039" d="M355.8,354.9l-3.665-3.665a.639.639,0,1,0-.9.9L354.9,355.8a.639.639,0,1,0,.9-.9Z" transform="translate(-351.046 -351.046)" fill="#fff" stroke="#fff" stroke-width="0.3"/>
      </g>
    </g>
  </g>
</svg>
