<svg width="22" height="22" viewBox="0 0 22 22" fill="none" xmlns="http://www.w3.org/2000/svg">
<g clip-path="url(#clip0_497_147)">
<path d="M12.75 16.25H9.25C8.28487 16.25 7.5 15.4652 7.5 14.5V11C7.5 10.0349 8.28487 9.25003 9.25 9.25003H12.75C13.7151 9.25003 14.5 10.0349 14.5 11V14.5C14.5 15.4652 13.7151 16.25 12.75 16.25ZM9.25 11V14.5H12.7517L12.75 11H9.25ZM17.125 21.5H4.875C2.46263 21.5 0.5 19.5374 0.5 17.125V9.00853C0.5 7.55166 1.221 6.19541 2.4285 5.38166L8.55262 1.24816C10.0393 0.245406 11.9607 0.245406 13.4474 1.24816L19.5724 5.38166C20.779 6.19541 21.5 7.55078 21.5 9.00853V17.125C21.5 19.5374 19.5374 21.5 17.125 21.5ZM11 2.24741C10.489 2.24741 9.978 2.39791 9.53175 2.69978L3.40675 6.83241C2.68225 7.32066 2.25 8.13353 2.25 9.00766V17.1242C2.25 18.5714 3.42775 19.7492 4.875 19.7492H17.125C18.5723 19.7492 19.75 18.5714 19.75 17.1242V9.00853C19.75 8.13441 19.3178 7.32066 18.5941 6.83328L12.4683 2.69978C12.022 2.39791 11.511 2.24741 11 2.24741Z" fill="#1BA8CD"/>
</g>
<defs>
<clipPath id="clip0_497_147">
<rect width="21" height="21" fill="white" transform="translate(0.5 0.5)"/>
</clipPath>
</defs>
</svg>
