<svg width="29" height="24" viewBox="0 0 29 24" fill="none" xmlns="http://www.w3.org/2000/svg">
<g clip-path="url(#clip0_497_1533)">
<mask id="mask0_497_1533" style="mask-type:luminance" maskUnits="userSpaceOnUse" x="0" y="0" width="29" height="24">
<path d="M28.1004 0H0.900391V24H28.1004V0Z" fill="white"/>
</mask>
<g mask="url(#mask0_497_1533)">
<path d="M26.6952 7.12963V16.7176C26.6237 16.9996 26.4879 17.2613 26.2985 17.4821C26.109 17.7029 25.871 17.8769 25.6032 17.9904C22.8216 19.4672 20.052 20.9664 17.2752 22.4512C16.9664 22.616 16.6352 22.7392 16.3152 22.8824H15.9104C15.728 22.8139 15.5494 22.736 15.3752 22.6488C12.5442 21.0574 9.7133 19.4659 6.88236 17.8744C6.60472 17.7306 6.37492 17.5091 6.22094 17.2369C6.06697 16.9648 5.99547 16.6537 6.01516 16.3416C6.02263 13.4024 6.02263 10.4635 6.01516 7.52483C5.99444 7.20572 6.06755 6.88753 6.22549 6.60947C6.38342 6.33142 6.61927 6.10566 6.90396 5.96003C9.72476 4.38083 12.544 2.79523 15.3616 1.20323C15.5923 1.06072 15.8576 0.984049 16.1288 0.98151C16.3999 0.978972 16.6666 1.05067 16.9 1.18883C19.7986 2.75096 22.6997 4.30856 25.6032 5.86163C25.8706 5.97457 26.1082 6.14778 26.2977 6.36773C26.4871 6.58768 26.6231 6.84843 26.6952 7.12963ZM25.484 7.93523C25.4296 7.95923 25.3992 7.96963 25.3712 7.98483C24.264 8.56883 23.1592 9.15603 22.0496 9.73363C21.932 9.79443 21.9232 9.87443 21.9232 9.98723C21.9232 10.8496 21.9272 11.7128 21.9232 12.576C21.9326 12.6628 21.9243 12.7506 21.8986 12.834C21.8729 12.9174 21.8305 12.9946 21.7738 13.061C21.7172 13.1274 21.6475 13.1815 21.5692 13.22C21.4909 13.2585 21.4055 13.2805 21.3184 13.2848C21.2313 13.2813 21.1458 13.2599 21.0674 13.2219C20.9889 13.1838 20.9192 13.13 20.8625 13.0638C20.8058 12.9975 20.7634 12.9203 20.7379 12.8369C20.7124 12.7536 20.7044 12.6658 20.7144 12.5792C20.7144 11.944 20.7144 11.3104 20.7144 10.6752C20.7144 10.6096 20.7064 10.5424 20.7024 10.4576C20.612 10.5016 20.5424 10.5312 20.4792 10.5656C19.3016 11.188 18.124 11.8136 16.9424 12.428C16.8731 12.4553 16.8149 12.5046 16.7767 12.5685C16.7385 12.6323 16.7225 12.707 16.7312 12.7808C16.7365 15.5334 16.7378 18.2859 16.7352 21.0384V21.2912C16.8152 21.252 16.8744 21.2312 16.9256 21.204C19.6946 19.7171 22.464 18.2312 25.2336 16.7464C25.3183 16.7074 25.3885 16.6426 25.4342 16.5613C25.4799 16.48 25.4987 16.3863 25.488 16.2936C25.4826 13.5838 25.4826 10.8739 25.488 8.16403L25.484 7.93523ZM15.5136 21.2656C15.5192 21.1856 15.5232 21.1456 15.5232 21.1056C15.5232 18.3035 15.5245 15.5014 15.5272 12.6992C15.5298 12.6413 15.5135 12.5842 15.4807 12.5364C15.448 12.4886 15.4005 12.4528 15.3456 12.4344C12.7056 10.9774 10.0656 9.51976 7.42556 8.06163C7.36876 8.02963 7.30956 8.00163 7.22796 7.96003V8.20003C7.22796 10.903 7.22663 13.6056 7.22396 16.308C7.21465 16.404 7.23555 16.5004 7.28374 16.5839C7.33194 16.6674 7.40502 16.7337 7.49276 16.7736C10.0944 18.2307 12.6944 19.6918 15.2928 21.1568C15.3568 21.1928 15.4224 21.2248 15.5128 21.2712M7.91516 6.84723C7.94156 6.87923 7.94796 6.89443 7.95996 6.90003C10.6522 8.38909 13.3456 9.87629 16.04 11.3616C16.0752 11.3757 16.1129 11.3823 16.1508 11.381C16.1887 11.3796 16.2259 11.3703 16.26 11.3536C16.6128 11.1784 16.9592 10.9904 17.3072 10.8064L20.1016 9.33123C20.061 9.29833 20.0185 9.26787 19.9744 9.24003C17.2949 7.73709 14.6152 6.23763 11.9352 4.74163C11.8924 4.72252 11.8459 4.71304 11.799 4.71387C11.7522 4.7147 11.7061 4.72581 11.664 4.74643C11.2728 4.95283 10.8896 5.17523 10.5048 5.39203C9.64476 5.87763 8.78396 6.36163 7.91516 6.85043M13.124 3.93603C13.1568 3.95923 13.1784 3.97763 13.204 3.99043C15.9122 5.50936 18.6221 7.02616 21.3336 8.54083C21.3767 8.55932 21.4234 8.56824 21.4704 8.567C21.5173 8.56576 21.5634 8.55437 21.6056 8.53363C22.6072 8.01363 23.6056 7.48483 24.6024 6.95683C24.6536 6.93043 24.7 6.89683 24.7624 6.86003C24.7208 6.83203 24.6992 6.81523 24.6752 6.80243C21.8949 5.30909 19.1141 3.81576 16.3328 2.32243C16.2764 2.28628 16.2109 2.26706 16.144 2.26706C16.077 2.26706 16.0115 2.28628 15.9552 2.32243C15.0544 2.83443 14.1504 3.33923 13.2488 3.84723C13.2077 3.87347 13.1682 3.90205 13.1304 3.93283" fill="#1BA8CD"/>
<path d="M5.13672 2.52783L9.36392 2.52783" stroke="#1BA8CD" stroke-width="1.4" stroke-linecap="round"/>
<path d="M3.53711 4.92822H6.51071" stroke="#1BA8CD" stroke-width="1.4" stroke-linecap="round"/>
</g>
</g>
<defs>
<clipPath id="clip0_497_1533">
<rect width="27.2" height="24" fill="white" transform="translate(0.900391)"/>
</clipPath>
</defs>
</svg>
