<svg width="25" height="24" viewBox="0 0 25 24" fill="none" xmlns="http://www.w3.org/2000/svg">
<path d="M13.0266 23.9993C12.8278 23.9993 12.6371 23.9204 12.4966 23.7798C12.4114 23.6945 12.3481 23.59 12.3119 23.475C12.2757 23.3601 12.2678 23.2381 12.2888 23.1194L12.8188 20.1146C12.8452 19.9632 12.9178 19.8236 13.0266 19.715L20.4512 12.2904C20.5813 12.1148 20.7476 11.9692 20.9389 11.8634C21.1301 11.7577 21.3419 11.6942 21.5598 11.6774C21.7777 11.6606 21.9967 11.6907 22.2019 11.7659C22.4072 11.841 22.5939 11.9594 22.7494 12.1129L23.986 13.3495C24.314 13.6778 24.4983 14.1229 24.4983 14.5869C24.4983 15.051 24.314 15.4961 23.986 15.8244L16.5614 23.249C16.4525 23.3579 16.3127 23.4305 16.1609 23.4568L13.1561 23.9867C13.1134 23.995 13.07 23.9992 13.0266 23.9993ZM14.2547 20.6075L13.9519 22.3245L15.6688 22.0216L22.926 14.7636C22.9725 14.7164 22.9986 14.6528 22.9986 14.5865C22.9986 14.5203 22.9725 14.4567 22.926 14.4094L21.6979 13.1813C21.6878 13.2006 21.6137 13.2477 21.5111 13.3495L14.2547 20.6075Z" fill="#1BA8CD"/>
<path d="M10.5097 21.0001H3.24994C2.52082 20.9994 1.82175 20.7095 1.30618 20.1939C0.790607 19.6783 0.500668 18.9792 0.5 18.2501V5.75043C0.500446 5.02124 0.790315 4.32204 1.30593 3.80642C1.82155 3.2908 2.52075 3.00093 3.24994 3.00049H5.13007V4.50038H3.24994C2.91855 4.50083 2.60085 4.63267 2.36652 4.86701C2.13219 5.10134 2.00034 5.41904 1.9999 5.75043V18.2493C2.00034 18.5807 2.13219 18.8984 2.36652 19.1327C2.60085 19.367 2.91855 19.4989 3.24994 19.4993H10.5097V21.0001Z" fill="#1BA8CD"/>
<path d="M17.4989 12.81H15.999V5.75043C15.9985 5.41904 15.8667 5.10134 15.6324 4.86701C15.398 4.63267 15.0803 4.50083 14.7489 4.50038H12.8789V3.00049H14.7489C15.4781 3.00093 16.1773 3.2908 16.693 3.80642C17.2086 4.32204 17.4984 5.02124 17.4989 5.75043V12.81Z" fill="#1BA8CD"/>
<path d="M11.7496 6.49913H6.24974C5.78567 6.49868 5.34075 6.31408 5.01268 5.98585C4.68462 5.65763 4.50022 5.21262 4.5 4.74855V2.74981C4.5 2.5508 4.57906 2.35994 4.71978 2.21922C4.8605 2.0785 5.05136 1.99944 5.25037 1.99944H6.35404C6.51807 1.42399 6.86493 0.917552 7.34222 0.556661C7.81952 0.195769 8.40131 3.18062e-05 8.99968 -0.000976562C9.59806 3.18062e-05 10.1799 0.195769 10.6571 0.556661C11.1344 0.917552 11.4813 1.42399 11.6453 1.99944H12.7498C12.9487 1.99967 13.1393 2.07882 13.2799 2.21952C13.4204 2.36022 13.4994 2.55095 13.4994 2.74981V4.74939C13.4989 5.21331 13.3144 5.65811 12.9864 5.98615C12.6583 6.31419 12.2136 6.49868 11.7496 6.49913ZM5.9999 3.4985V4.74855C5.9999 4.81548 6.02648 4.87967 6.07381 4.927C6.12114 4.97433 6.18532 5.00092 6.25225 5.00092H11.7522C11.8191 5.00092 11.8833 4.97433 11.9306 4.927C11.9779 4.87967 12.0045 4.81548 12.0045 4.74855V3.49934H11.0043C10.8054 3.49934 10.6147 3.4204 10.474 3.27986C10.3333 3.13932 10.2542 2.94868 10.2539 2.74981C10.2535 2.41841 10.1217 2.10072 9.88732 1.86638C9.65298 1.63205 9.33529 1.5002 9.00389 1.49976C8.6725 1.5002 8.35479 1.63205 8.12046 1.86638C7.88612 2.10072 7.75428 2.41841 7.75383 2.74981C7.75361 2.94868 7.67446 3.13932 7.53376 3.27986C7.39306 3.4204 7.20233 3.49934 7.00347 3.49934L5.9999 3.4985Z" fill="#1BA8CD"/>
<path d="M4.25195 8H13.7518V9.49989H4.25195V8Z" fill="#1BA8CD"/>
<path d="M4.25195 11H13.7518V12.4999H4.25195V11Z" fill="#1BA8CD"/>
<path d="M4.25195 13.9995H13.7518V15.5019H4.25195V13.9995Z" fill="#1BA8CD"/>
</svg>
