<svg width="25" height="24" viewBox="0 0 25 24" fill="none" xmlns="http://www.w3.org/2000/svg">
<g clip-path="url(#clip0_497_1133)">
<path d="M6.50948 23.6843C6.41515 23.6844 6.32456 23.6475 6.25711 23.5815C6.18966 23.5156 6.1507 23.4259 6.14857 23.3316L6.13414 21.6868C5.34918 21.0822 1.68963 18.1535 1.13564 15.6498C0.835611 14.3367 0.710617 12.9896 0.763913 11.6437C0.772033 11.6131 1.55248 8.52014 2.56121 7.26059C2.65088 7.13379 2.78603 7.04648 2.9385 7.0169C3.09096 6.98731 3.24896 7.01772 3.37955 7.10179C3.74348 7.34272 4.01758 7.69717 4.15921 8.11C4.30085 8.52283 4.30208 8.97089 4.16271 9.38449C3.78916 10.2928 3.46626 11.2212 3.19549 12.1652C3.19549 13.248 3.39399 13.571 4.13113 14.7619C4.24211 14.9424 4.36481 15.14 4.49835 15.3601L4.56963 15.4504C4.73738 15.6694 4.93511 15.8638 5.157 16.0278C5.22808 16.0774 5.27895 16.1509 5.30032 16.2349C5.32168 16.3188 5.31211 16.4077 5.27335 16.4852C5.2346 16.5627 5.16924 16.6237 5.08923 16.657C5.00923 16.6903 4.91991 16.6937 4.8376 16.6666C4.51995 16.4545 4.23924 16.1918 4.00662 15.8889L3.90827 15.758L3.52391 15.1355C2.83854 14.2957 2.47001 13.2419 2.48271 12.158C2.74863 11.1209 3.08845 10.1042 3.49955 9.11563C3.55054 8.95454 3.56733 8.78457 3.54884 8.61662C3.53035 8.44867 3.47699 8.28643 3.39218 8.14029C3.3199 7.98857 3.21297 7.85598 3.08 7.75322C2.339 9.01794 1.79158 10.3865 1.45594 11.8134C1.43475 13.0492 1.56106 14.2832 1.83218 15.4892C2.38346 17.9821 6.65925 21.1851 6.70436 21.2176L6.84602 21.3231L6.86857 23.3198C6.8686 23.4142 6.83169 23.5048 6.76576 23.5722C6.69982 23.6397 6.6101 23.6786 6.51579 23.6807L6.50948 23.6843Z" fill="#1BA8CD"/>
<path d="M3.13775 7.68014L3.13143 7.68826M6.50948 23.6843C6.41515 23.6844 6.32456 23.6475 6.25711 23.5815C6.18966 23.5156 6.1507 23.4259 6.14857 23.3316L6.13414 21.6868C5.34918 21.0822 1.68963 18.1535 1.13564 15.6498C0.835611 14.3367 0.710617 12.9896 0.763913 11.6437C0.772033 11.6131 1.55248 8.52014 2.56121 7.26059C2.65088 7.13379 2.78603 7.04648 2.9385 7.0169C3.09096 6.98731 3.24896 7.01772 3.37955 7.10179C3.74348 7.34272 4.01758 7.69717 4.15921 8.11C4.30085 8.52283 4.30208 8.97089 4.16271 9.38449C3.78916 10.2928 3.46626 11.2212 3.19549 12.1652C3.19549 13.248 3.39399 13.571 4.13113 14.7619C4.24211 14.9424 4.36481 15.14 4.49835 15.3601L4.56963 15.4504C4.73738 15.6694 4.93511 15.8638 5.157 16.0278C5.22808 16.0774 5.27895 16.1509 5.30032 16.2349C5.32168 16.3188 5.31211 16.4077 5.27335 16.4852C5.2346 16.5627 5.16924 16.6237 5.08923 16.657C5.00923 16.6903 4.91991 16.6937 4.8376 16.6666C4.51995 16.4545 4.23924 16.1918 4.00662 15.8889L3.90827 15.758L3.52391 15.1355C2.83854 14.2957 2.47001 13.2419 2.48271 12.158C2.74863 11.1209 3.08845 10.1042 3.49955 9.11563C3.55054 8.95454 3.56733 8.78457 3.54884 8.61662C3.53035 8.44867 3.477 8.28643 3.39218 8.14029C3.3199 7.98857 3.21297 7.85598 3.08 7.75322C2.339 9.01794 1.79158 10.3865 1.45594 11.8134C1.43475 13.0492 1.56106 14.2832 1.83218 15.4892C2.38346 17.9821 6.65925 21.1851 6.70436 21.2176L6.84602 21.3231L6.86857 23.3198C6.8686 23.4142 6.83169 23.5048 6.76576 23.5722C6.69982 23.6397 6.6101 23.6786 6.51579 23.6807L6.50948 23.6843Z" stroke="#1BA8CD" stroke-width="0.7"/>
<path d="M10.2303 23.6633C10.1359 23.6612 10.0462 23.6222 9.98029 23.5548C9.91435 23.4873 9.87744 23.3967 9.87746 23.3024L9.89912 21.5349L9.94243 21.4564C9.99927 21.3535 11.3075 18.9156 9.2919 17.6011C8.86817 17.3369 8.42751 17.1009 7.9728 16.8946C7.34939 16.6542 6.82113 16.2175 6.46784 15.6504C6.2495 15.3797 6.02213 15.0712 5.80108 14.7725C5.31566 14.1139 4.50363 13.0131 4.21942 13.1945C3.63025 13.5229 4.2086 14.7355 4.45491 15.2543L4.48108 15.3093C4.50996 15.3524 4.52921 15.4013 4.53752 15.4525C4.54582 15.5037 4.54299 15.5561 4.52921 15.6061C4.51543 15.6561 4.49102 15.7026 4.45766 15.7423C4.4243 15.7821 4.38276 15.8141 4.33588 15.8364C4.289 15.8586 4.23788 15.8705 4.186 15.8711C4.13412 15.8718 4.08271 15.8613 4.03526 15.8403C3.98782 15.8193 3.94545 15.7883 3.91106 15.7495C3.87666 15.7106 3.85105 15.6648 3.83596 15.6152L3.8098 15.5611C3.47686 14.8618 2.69642 13.2242 3.85311 12.5836C4.68138 12.054 5.50423 13.1692 6.37942 14.3511C6.59506 14.6444 6.81882 14.9466 7.03807 15.2191C7.3224 15.6933 7.75958 16.0567 8.27777 16.2495C8.76033 16.4691 9.22809 16.7198 9.67807 17.0002C11.6946 18.3148 11.1921 20.6155 10.6146 21.7226L10.5957 23.3133C10.5935 23.4076 10.5546 23.4973 10.4871 23.5632C10.4197 23.6292 10.3291 23.6661 10.2348 23.666" fill="#1BA8CD"/>
<path d="M10.2303 23.6633C10.1359 23.6612 10.0462 23.6222 9.98029 23.5548C9.91435 23.4873 9.87744 23.3967 9.87746 23.3024L9.89912 21.5349L9.94243 21.4564C9.99927 21.3535 11.3075 18.9156 9.2919 17.6011C8.86817 17.3369 8.42751 17.1009 7.9728 16.8946C7.34939 16.6542 6.82113 16.2175 6.46784 15.6504C6.24949 15.3797 6.02213 15.0712 5.80108 14.7725C5.31566 14.1139 4.50363 13.0131 4.21942 13.1945C3.63025 13.5229 4.2086 14.7355 4.45491 15.2543L4.48108 15.3093C4.50996 15.3524 4.52921 15.4013 4.53752 15.4525C4.54582 15.5037 4.54299 15.5561 4.52921 15.6061C4.51543 15.6561 4.49102 15.7026 4.45766 15.7423C4.4243 15.7821 4.38276 15.8141 4.33588 15.8364C4.289 15.8586 4.23788 15.8705 4.186 15.8711C4.13412 15.8718 4.08271 15.8613 4.03526 15.8403C3.98782 15.8193 3.94545 15.7883 3.91106 15.7495C3.87666 15.7106 3.85105 15.6648 3.83596 15.6152L3.8098 15.5611C3.47686 14.8618 2.69642 13.2242 3.85311 12.5836C4.68138 12.054 5.50423 13.1692 6.37942 14.3511C6.59506 14.6444 6.81882 14.9466 7.03807 15.2191C7.3224 15.6933 7.75958 16.0567 8.27777 16.2495C8.76033 16.4691 9.22809 16.7198 9.67807 17.0002C11.6946 18.3148 11.1921 20.6155 10.6146 21.7226L10.5957 23.3133C10.5935 23.4076 10.5546 23.4973 10.4871 23.5632C10.4197 23.6292 10.3291 23.6661 10.2348 23.666" stroke="#1BA8CD" stroke-width="0.7"/>
<path d="M18.4934 23.667C18.3991 23.6649 18.3094 23.6259 18.2434 23.5584C18.1775 23.491 18.1406 23.4004 18.1406 23.3061L18.1632 21.3094L18.3048 21.2038C18.3481 21.1713 22.623 17.9656 23.177 15.4781C23.4482 14.2713 23.5745 13.0364 23.5532 11.7996C23.2208 10.3717 22.6732 9.00272 21.9292 7.73947C21.7968 7.84262 21.6903 7.97513 21.6179 8.12654C21.5328 8.27373 21.4794 8.43716 21.4614 8.60626C21.4434 8.77535 21.4611 8.94635 21.5133 9.10819C21.924 10.0936 22.2633 11.1074 22.5283 12.1416C22.5409 13.2254 22.1724 14.2792 21.4871 15.119C21.377 15.2995 21.2552 15.4934 21.1262 15.7127L21.0143 15.8643C20.7804 16.1708 20.4975 16.4366 20.177 16.651C20.1345 16.6807 20.0861 16.7008 20.0352 16.7101C19.9842 16.7194 19.9318 16.7176 19.8816 16.7048C19.8314 16.692 19.7845 16.6686 19.7442 16.6361C19.7038 16.6036 19.6709 16.5628 19.6478 16.5164C19.6246 16.4701 19.6117 16.4193 19.6099 16.3675C19.6081 16.3157 19.6175 16.2642 19.6374 16.2163C19.6573 16.1685 19.6873 16.1255 19.7253 16.0903C19.7633 16.0551 19.8084 16.0285 19.8576 16.0122C20.0814 15.8448 20.2812 15.6475 20.4513 15.4258L20.5253 15.3274C20.6561 15.1127 20.7752 14.9196 20.8862 14.7437C21.5004 14.0166 21.832 13.0924 21.82 12.1407C21.5501 11.2022 21.2287 10.2793 20.8573 9.37615C20.7171 8.96193 20.7176 8.51299 20.8587 8.09907C20.9998 7.68515 21.2737 7.32941 21.6378 7.08713C21.774 7.00209 21.9381 6.97391 22.0949 7.00867C22.2516 7.04343 22.3885 7.13836 22.476 7.273C23.4684 8.51 24.2453 11.5993 24.2534 11.63C24.3062 12.9765 24.1809 14.3241 23.8808 15.6378C23.3277 18.1398 19.6681 21.0685 18.8832 21.673L18.8651 23.3187C18.863 23.413 18.8241 23.5027 18.7566 23.5687C18.6891 23.6346 18.5986 23.6715 18.5042 23.6715" fill="#1BA8CD"/>
<path d="M18.4934 23.667C18.3991 23.6649 18.3094 23.6259 18.2434 23.5584C18.1775 23.491 18.1406 23.4004 18.1406 23.3061L18.1632 21.3094L18.3048 21.2038C18.3481 21.1713 22.623 17.9656 23.177 15.4781C23.4482 14.2713 23.5745 13.0364 23.5532 11.7996C23.2208 10.3717 22.6732 9.00272 21.9292 7.73947C21.7968 7.84262 21.6903 7.97513 21.6179 8.12654C21.5328 8.27373 21.4794 8.43716 21.4614 8.60626C21.4434 8.77535 21.4611 8.94635 21.5133 9.10819C21.924 10.0936 22.2633 11.1074 22.5283 12.1416C22.5409 13.2254 22.1724 14.2792 21.4871 15.119C21.377 15.2995 21.2552 15.4934 21.1262 15.7127L21.0143 15.8643C20.7804 16.1708 20.4975 16.4366 20.177 16.651C20.1345 16.6807 20.0861 16.7008 20.0352 16.7101C19.9842 16.7194 19.9318 16.7176 19.8816 16.7048C19.8314 16.692 19.7845 16.6686 19.7442 16.6361C19.7038 16.6036 19.6709 16.5628 19.6478 16.5164C19.6246 16.4701 19.6117 16.4193 19.6099 16.3675C19.6081 16.3157 19.6175 16.2642 19.6374 16.2163C19.6573 16.1685 19.6873 16.1255 19.7253 16.0903C19.7633 16.0551 19.8084 16.0285 19.8576 16.0122C20.0814 15.8448 20.2812 15.6475 20.4513 15.4258L20.5253 15.3274C20.6561 15.1127 20.7752 14.9196 20.8862 14.7437C21.5004 14.0166 21.832 13.0924 21.82 12.1407C21.5501 11.2022 21.2287 10.2793 20.8573 9.37615C20.7171 8.96193 20.7176 8.51299 20.8587 8.09907C20.9998 7.68515 21.2737 7.32941 21.6378 7.08713C21.774 7.00209 21.9381 6.97391 22.0949 7.00867C22.2516 7.04343 22.3885 7.13836 22.476 7.273C23.4684 8.51 24.2453 11.5993 24.2534 11.63C24.3062 12.9765 24.1809 14.3241 23.8808 15.6378C23.3277 18.1398 19.6681 21.0685 18.8832 21.673L18.8651 23.3187C18.863 23.413 18.8241 23.5027 18.7566 23.5687C18.6891 23.6346 18.5986 23.6715 18.5042 23.6715" stroke="#1BA8CD" stroke-width="0.7"/>
<path d="M14.7718 23.6471C14.6775 23.6471 14.5869 23.6102 14.5195 23.5443C14.452 23.4783 14.4131 23.3886 14.4109 23.2943L14.392 21.7036C13.8145 20.5956 13.3093 18.2958 15.3213 16.9857C15.7735 16.7036 16.2437 16.4513 16.7288 16.2305C17.2414 16.0408 17.6744 15.6826 17.9568 15.2146C18.1878 14.9277 18.4079 14.6245 18.6272 14.3313C19.4979 13.1493 20.3216 12.0332 21.1688 12.5746C22.3057 13.2062 21.5297 14.8429 21.1941 15.5412L21.1679 15.5972C21.1197 15.669 21.0474 15.7212 20.964 15.7442C20.8805 15.7671 20.7917 15.7594 20.7135 15.7223C20.6353 15.6853 20.5731 15.6214 20.5381 15.5423C20.5031 15.4631 20.4976 15.3741 20.5228 15.2913L20.5499 15.2344C20.7962 14.7166 21.3727 13.5048 20.8034 13.1872C20.5011 12.9923 19.6873 14.0967 19.2028 14.7544C18.9827 15.0531 18.7517 15.3626 18.5252 15.6477C18.1741 16.2088 17.65 16.6404 17.032 16.8774C16.5747 17.085 16.1316 17.3225 15.7057 17.5884C13.6972 18.8985 15.0055 21.3364 15.0623 21.4392L15.1057 21.5177L15.1273 23.2862C15.1274 23.3805 15.0904 23.4711 15.0245 23.5385C14.9585 23.606 14.8688 23.645 14.7745 23.6471H14.7718Z" fill="#1BA8CD" stroke="#1BA8CD" stroke-width="0.7"/>
<path d="M15.7548 8.09244C15.7324 8.09242 15.7101 8.0903 15.6881 8.08612C15.6189 8.07233 15.5553 8.03858 15.5051 7.98903C15.4549 7.93948 15.4204 7.87631 15.4057 7.80733L14.8011 4.88402L14.1804 7.05665C14.1621 7.11686 14.1284 7.17124 14.0826 7.2144C14.0368 7.25755 13.9805 7.28799 13.9193 7.30267C13.8581 7.31735 13.7941 7.31578 13.7337 7.2981C13.6733 7.28043 13.6186 7.24727 13.575 7.20192L12.9588 6.53966L12.2144 6.53425C12.1626 6.53329 12.1116 6.52119 12.0649 6.49877C12.0182 6.47635 11.9769 6.44414 11.9437 6.40432L11.3771 5.71951L10.9647 6.36823C10.9328 6.41804 10.8891 6.45924 10.8375 6.48819C10.7859 6.51714 10.728 6.53296 10.6688 6.53425L10.2412 6.54056C10.1901 6.54859 10.1379 6.54555 10.0882 6.53167C10.0384 6.51779 9.99218 6.49338 9.95265 6.4601C9.91313 6.42682 9.88121 6.38543 9.85906 6.33875C9.83691 6.29207 9.82504 6.24117 9.82426 6.1895C9.82348 6.13784 9.83379 6.08661 9.85452 6.03927C9.87525 5.99194 9.9059 5.94961 9.94439 5.91515C9.98289 5.88068 10.0283 5.85489 10.0777 5.8395C10.127 5.82412 10.179 5.81951 10.2303 5.82598H10.4649L11.0379 4.92372C11.0682 4.87637 11.1093 4.83679 11.1577 4.80812C11.2061 4.77945 11.2605 4.7625 11.3166 4.75861C11.373 4.75457 11.4295 4.76418 11.4813 4.78665C11.5332 4.80911 11.5788 4.84375 11.6144 4.88763L12.3876 5.82327L13.1193 5.82868C13.1679 5.82922 13.2159 5.83957 13.2604 5.85911C13.3049 5.87864 13.345 5.90696 13.3783 5.94237L13.6679 6.25455L14.5142 3.29515C14.5342 3.21636 14.5814 3.14717 14.6474 3.09978C14.7134 3.0524 14.7941 3.02988 14.8751 3.0362C14.9547 3.03978 15.0309 3.0696 15.0918 3.12101C15.1527 3.17242 15.1948 3.24253 15.2117 3.32041L15.9335 6.82116L16.4802 5.98929C16.5128 5.94048 16.5568 5.90034 16.6083 5.87236C16.6599 5.84437 16.7175 5.82938 16.7762 5.82868L18.9145 5.81335C18.9916 5.81367 19.0665 5.83865 19.1284 5.88463L19.3711 6.06507L20.1831 5.56974C20.2319 5.5405 20.2869 5.52321 20.3437 5.51929C20.4005 5.51537 20.4574 5.52493 20.5097 5.54718L21.1648 5.82958L21.6285 5.8359C21.7138 5.84986 21.7912 5.89394 21.8467 5.96013C21.9022 6.02633 21.9322 6.11024 21.9311 6.19663C21.93 6.28302 21.8979 6.36615 21.8408 6.43091C21.7836 6.49568 21.7051 6.53779 21.6195 6.54959L21.0844 6.54237C21.0376 6.54168 20.9913 6.53188 20.9482 6.5135L20.3969 6.2762L19.5344 6.80132C19.4733 6.83794 19.4028 6.85568 19.3317 6.85231C19.2606 6.84894 19.192 6.8246 19.1347 6.78237L18.7936 6.52703L16.9656 6.53966L16.0499 7.93184C16.0171 7.98103 15.9726 8.0214 15.9206 8.0494C15.8685 8.0774 15.8104 8.09219 15.7512 8.09244" fill="#FF3932"/>
<path d="M15.7548 8.09244C15.7324 8.09242 15.7101 8.0903 15.6881 8.08613C15.6189 8.07233 15.5553 8.03858 15.5051 7.98903C15.4549 7.93948 15.4204 7.87631 15.4057 7.80733L14.8011 4.88402L14.1804 7.05665C14.1621 7.11686 14.1284 7.17124 14.0826 7.2144C14.0368 7.25755 13.9805 7.28799 13.9193 7.30267C13.8581 7.31735 13.7941 7.31578 13.7337 7.2981C13.6733 7.28043 13.6186 7.24727 13.575 7.20192L12.9588 6.53966L12.2144 6.53425C12.1626 6.53329 12.1116 6.52119 12.0649 6.49877C12.0182 6.47635 11.9769 6.44414 11.9437 6.40432L11.3771 5.71951L10.9647 6.36823C10.9328 6.41804 10.8891 6.45924 10.8375 6.48819C10.7859 6.51714 10.728 6.53296 10.6688 6.53425L10.2412 6.54056C10.1901 6.54859 10.1379 6.54555 10.0882 6.53167C10.0384 6.51779 9.99218 6.49338 9.95265 6.4601C9.91313 6.42682 9.88121 6.38543 9.85906 6.33875C9.83691 6.29207 9.82504 6.24117 9.82426 6.1895C9.82348 6.13784 9.83379 6.08661 9.85452 6.03927C9.87525 5.99194 9.9059 5.94961 9.94439 5.91515C9.98289 5.88068 10.0283 5.85489 10.0777 5.8395C10.127 5.82412 10.179 5.81951 10.2303 5.82598H10.4649L11.0379 4.92372C11.0682 4.87637 11.1093 4.83679 11.1577 4.80812C11.2061 4.77945 11.2605 4.7625 11.3166 4.75861C11.373 4.75457 11.4295 4.76418 11.4813 4.78665C11.5332 4.80911 11.5788 4.84375 11.6144 4.88763L12.3876 5.82327L13.1193 5.82868C13.1679 5.82922 13.2159 5.83957 13.2604 5.85911C13.3049 5.87864 13.345 5.90696 13.3783 5.94237L13.6679 6.25455L14.5142 3.29515C14.5342 3.21636 14.5814 3.14717 14.6474 3.09978C14.7134 3.0524 14.7941 3.02988 14.8751 3.0362C14.9547 3.03978 15.0309 3.0696 15.0918 3.12101C15.1527 3.17242 15.1948 3.24253 15.2117 3.32041L15.9335 6.82116L16.4802 5.98929C16.5128 5.94048 16.5568 5.90034 16.6083 5.87236C16.6599 5.84437 16.7175 5.82938 16.7762 5.82868L18.9145 5.81335C18.9916 5.81367 19.0665 5.83865 19.1284 5.88463L19.3711 6.06507L20.1831 5.56974C20.2319 5.5405 20.2869 5.52321 20.3437 5.51929C20.4005 5.51537 20.4574 5.52493 20.5097 5.54718L21.1648 5.82958L21.6285 5.8359C21.7138 5.84986 21.7912 5.89394 21.8467 5.96013C21.9022 6.02633 21.9322 6.11024 21.9311 6.19663C21.93 6.28302 21.8979 6.36615 21.8408 6.43091C21.7836 6.49568 21.7051 6.53779 21.6195 6.54959L21.0844 6.54237C21.0376 6.54168 20.9913 6.53188 20.9482 6.5135L20.3969 6.2762L19.5344 6.80132C19.4733 6.83794 19.4028 6.85568 19.3317 6.85231C19.2606 6.84894 19.192 6.8246 19.1347 6.78237L18.7936 6.52703L16.9656 6.53966L16.0499 7.93184C16.0171 7.98103 15.9726 8.0214 15.9206 8.0494C15.8685 8.0774 15.8104 8.09219 15.7512 8.09244" stroke="#FF3932" stroke-width="0.5"/>
<path d="M12.5086 12.6434C12.4497 12.6432 12.3918 12.6286 12.3399 12.6009C12.0574 12.4503 5.42858 8.85568 5.37535 4.28305C5.36837 3.7554 5.46693 3.23168 5.66526 2.74268C5.86359 2.25367 6.15768 1.80925 6.53023 1.43553C6.9082 1.05079 7.3593 0.745545 7.857 0.537757C8.3547 0.329968 8.88894 0.223836 9.42827 0.225608C10.7429 0.225608 11.8418 1.3426 12.5086 2.23403C13.1753 1.3426 14.2734 0.225608 15.588 0.225608C16.6623 0.227516 17.6921 0.655133 18.4517 1.41479C19.2114 2.17445 19.639 3.20422 19.6409 4.27854C19.6409 8.95944 12.9561 12.4566 12.6719 12.6037C12.6213 12.6296 12.5654 12.6432 12.5086 12.6434ZM9.42827 0.940194C8.98352 0.939278 8.54307 1.02724 8.13279 1.19891C7.72251 1.37059 7.35067 1.62251 7.0391 1.93989C6.73306 2.24644 6.49144 2.6111 6.32843 3.01242C6.16542 3.41374 6.08433 3.84361 6.08993 4.27674C6.13414 8.05177 11.4926 11.2981 12.5113 11.8809C13.5362 11.3134 18.9272 8.1429 18.9272 4.28125C18.9272 3.39586 18.5755 2.54674 17.9494 1.92068C17.3234 1.29462 16.4743 0.942901 15.5889 0.942901C14.3429 0.942901 13.2286 2.41899 12.8063 3.05418C12.7718 3.10048 12.7269 3.13807 12.6753 3.16397C12.6237 3.18987 12.5668 3.20335 12.509 3.20335C12.4513 3.20335 12.3943 3.18987 12.3427 3.16397C12.2911 3.13807 12.2463 3.10048 12.2117 3.05418C11.7904 2.4226 10.6779 0.942901 9.42918 0.942901" fill="#FF3932"/>
<path d="M9.42827 0.940194C8.98352 0.939278 8.54307 1.02724 8.13279 1.19891C7.72251 1.37059 7.35067 1.62251 7.0391 1.93989C6.73306 2.24644 6.49144 2.6111 6.32843 3.01242C6.16542 3.41374 6.08433 3.84361 6.08993 4.27674C6.13414 8.05177 11.4926 11.2981 12.5113 11.8809C13.5362 11.3134 18.9272 8.1429 18.9272 4.28125C18.9272 3.39586 18.5755 2.54674 17.9494 1.92068C17.3234 1.29462 16.4743 0.942901 15.5889 0.942901C14.3429 0.942901 13.2286 2.41899 12.8063 3.05418C12.7718 3.10048 12.7269 3.13807 12.6753 3.16397C12.6237 3.18987 12.5668 3.20335 12.509 3.20335C12.4513 3.20335 12.3943 3.18987 12.3427 3.16397C12.2911 3.13807 12.2463 3.10048 12.2117 3.05418C11.7904 2.4226 10.6779 0.942901 9.42918 0.942901M12.5086 12.6434C12.4497 12.6432 12.3918 12.6286 12.3399 12.6009C12.0574 12.4503 5.42858 8.85568 5.37535 4.28305C5.36837 3.7554 5.46693 3.23168 5.66526 2.74268C5.86359 2.25367 6.15768 1.80925 6.53023 1.43553C6.9082 1.05079 7.3593 0.745545 7.857 0.537757C8.3547 0.329968 8.88894 0.223836 9.42827 0.225608C10.7429 0.225608 11.8418 1.3426 12.5086 2.23403C13.1753 1.3426 14.2734 0.225608 15.588 0.225608C16.6623 0.227516 17.6921 0.655133 18.4517 1.41479C19.2114 2.17445 19.639 3.20422 19.6409 4.27854C19.6409 8.95944 12.9561 12.4566 12.6719 12.6037C12.6213 12.6296 12.5654 12.6432 12.5086 12.6434Z" stroke="#FF3932" stroke-width="0.5"/>
</g>
<defs>
<clipPath id="clip0_497_1133">
<rect width="24.2752" height="24" fill="white" transform="translate(0.363281)"/>
</clipPath>
</defs>
</svg>
