<svg width="25" height="25" viewBox="0 0 25 25" fill="none" xmlns="http://www.w3.org/2000/svg">
<path d="M7.40457 19.7896C7.13065 19.5157 7.03087 19.2202 7.10522 18.9033C7.17957 18.5863 7.32043 18.2381 7.52783 17.8585L9.69369 13.8261C9.83455 13.5757 9.97151 13.3996 10.1046 13.2979C10.2415 13.1922 10.4274 13.1355 10.6622 13.1277L23.1173 12.6581C23.1878 12.6581 23.2445 12.6366 23.2875 12.5935C23.3306 12.5505 23.3501 12.4996 23.3462 12.4409C23.3423 12.3822 23.3188 12.3314 23.2758 12.2883C23.2406 12.2453 23.1878 12.2237 23.1173 12.2237L10.6622 11.8011C10.4156 11.7894 10.2239 11.7307 10.0869 11.6251C9.9539 11.5155 9.82281 11.3374 9.69369 11.0909L7.48674 6.95877C7.29109 6.59095 7.16 6.25638 7.09348 5.95508C7.03087 5.64987 7.13457 5.36226 7.40457 5.09226C7.61587 4.88096 7.88195 4.78313 8.20282 4.79878C8.52369 4.81443 8.85434 4.89856 9.19477 5.05117L23.1584 11.2788C23.3462 11.3648 23.5125 11.4529 23.6573 11.5429C23.8099 11.6329 23.9351 11.7268 24.033 11.8246C24.2247 12.0164 24.3206 12.2218 24.3206 12.4409C24.3206 12.6601 24.2247 12.8655 24.033 13.0572C23.9312 13.159 23.806 13.2529 23.6573 13.339C23.5125 13.429 23.3462 13.517 23.1584 13.6031L9.27108 19.8013C8.87978 19.9735 8.52369 20.0674 8.20282 20.0831C7.88195 20.0987 7.61587 20.0009 7.40457 19.7896Z" fill="#08293B"/>
</svg>
