<svg id="Icon-Symptoms" xmlns="http://www.w3.org/2000/svg" width="40.146" height="40.155" viewBox="0 0 40.146 40.155">
  <g id="Filled" transform="translate(12.249 12.223)">
    <path id="Path_1076" data-name="Path 1076" d="M293.961,333.06c0-6.508-2.832-10.745-7.824-14.544,0,0-4.342,4.328-9.03,5.819a40.431,40.431,0,0,0-1.017,8.725v.627h17.87Z" transform="translate(-266.691 -305.764)" fill="#25d0bd"/>
    <path id="Path_1077" data-name="Path 1077" d="M237.018,371.918v-.627c1.255-1.255,1.255-1.728,1.255-3.764V365.8a1.263,1.263,0,1,0-2.509,0v2.232l-1.255-3.016.8-3.193A1.469,1.469,0,0,0,233.882,360L232,365.018l1.255,6.273v.627Z" transform="translate(-226.057 -343.995)" fill="#ffdfc5"/>
    <path id="Path_1079" data-name="Path 1079" d="M174.769,165.507c-5.334-.441-6.713-5.266-7.616-8.442a1.565,1.565,0,0,0-2.249-1.029l-5.619,1.6a5.666,5.666,0,0,1-3.047.035l.017.057,1.2,4.224-1.245,3.079,2.3.65.771,2.715A2.2,2.2,0,0,0,162,169.9l4.526-1.286.857,3.017s-.359,1.069-.754,2.816c4.688-1.491,9.03-5.819,9.03-5.819Z" transform="translate(-156.211 -155.879)" fill="#ffdfc5"/>
    <path id="Path_1083" data-name="Path 1083" d="M277.44,162.489c-.857-3.017-3.874-2.16-3.188.254l-2.252.908,1.882,3.136,2-.6C277.55,165.718,277.914,164.155,277.44,162.489Z" transform="translate(-262.921 -160.192)" fill="#ffdfc5"/>
    <ellipse id="Ellipse_5" data-name="Ellipse 5" cx="1.275" cy="1.275" rx="1.275" ry="1.275" transform="translate(17.174 19.705)" fill="#d5f7ed"/>
    <ellipse id="Ellipse_6" data-name="Ellipse 6" cx="0.425" cy="0.85" rx="0.425" ry="0.85" transform="translate(19.724 22.255)" fill="#d5f7ed"/>
    <path id="Path_1084" data-name="Path 1084" d="M246.848,443.431l.09.452v.627H250.7v-.627a3.286,3.286,0,0,0,1.247-2.773,11.82,11.82,0,0,0-.055-2.341,8.493,8.493,0,0,1-5.046,4.663Z" transform="translate(-239.741 -416.587)" fill="#ffd5c7"/>
  </g>
  <g id="Outline">
    <path id="Path_1085" data-name="Path 1085" d="M272.17,24.6l-.772-2.719a27.554,27.554,0,0,0,2.148-11.351,12.568,12.568,0,0,0-2.472-7.567,4.274,4.274,0,0,0-3.886-1.67c-1.466-1.531-3.582-1.7-6.456-.528a.627.627,0,0,0,.475,1.161c2.5-1.022,4.173-.88,5.264.449a.627.627,0,0,0,.634.212c3.931-.964,7.589,7.472,3.225,18.585-3.42-.474-3.663-2.666-4.544-1.789a.627.627,0,0,0,0,.887,7.492,7.492,0,0,0,4.464,2.155l.669,2.355a27.626,27.626,0,0,1-7.393,5,.627.627,0,0,0,.483,1.158,28.341,28.341,0,0,0,7.659-5.141c9.79,7.7,5.751,14.344,7.781,14.344a.627.627,0,0,0,.627-.627c0-6.573-2.8-10.983-7.9-14.915Z" transform="translate(-239.929 0.003)"/>
    <path id="Path_1086" data-name="Path 1086" d="M292.6,152.583c-1.97.56-1.755,3.685-.545,3.34a.627.627,0,0,0,.432-.775c-.466-1.64,1.364-2.085,1.982.089.374,1.318.189,2.555-1.125,2.928a.627.627,0,0,0,.343,1.207C297.675,158.24,295.64,151.72,292.6,152.583Z" transform="translate(-268.304 -140.547)"/>
    <path id="Path_1087" data-name="Path 1087" d="M97.735,62.006l.686,2.414a.627.627,0,0,0,1.207-.343l-.857-3.017A.627.627,0,0,0,98,60.628c-4.29,1.083-4.76,1.681-5.718,1.147a1.558,1.558,0,0,1-.745-.941c-.8-2.47-.623-2.984-1.2-3.148l-1.63-.46c.94-2.436,1.107-2.475,1-2.837l-.941-3.313c1.907.166,3.013-.518,7.959-1.825a.627.627,0,0,0-.343-1.207l-5.614,1.595c-3.6.956-5.872-1.628-7.1-5.114,2.2.451,4.846-1.5,8.891-4a.627.627,0,0,0-.66-1.067c-3.926,2.426-7.3,4.9-8.77,3.462a.624.624,0,0,0-1.075.554c.588,2.819,2.434,6.282,5.318,7.3l1.065,3.748c-1.6,4.218-1.976,3.263,1.214,4.273.629,1.716.484,3.218,2.016,4.072,1.619.9,2.836-.128,6.068-.864Z" transform="translate(-75.606 -36.269)"/>
    <path id="Path_1088" data-name="Path 1088" d="M348.106,375.8a4.389,4.389,0,0,0-4.373,4.409l.021,5.646a.627.627,0,0,0,.627.625.637.637,0,0,0,.627-.63c.2-4.785-.591-6.375.889-7.867a3.141,3.141,0,0,1,5.363,2.2l.021,5.646a.627.627,0,0,0,.627.625.637.637,0,0,0,.627-.63l-.021-5.646A4.4,4.4,0,0,0,348.106,375.8Z" transform="translate(-316.781 -346.333)"/>
    <path id="Path_1089" data-name="Path 1089" d="M227.8,357.674l-.062-.149.748-2.991c.534-2.135-2.216-3.278-2.621-2.2-1.965,5.334-1.972,5.048-1.91,5.362l1.255,6.273a.627.627,0,0,0,1.23-.246l-1.22-6.1,1.629-4.344a.842.842,0,0,1,.419.947c-.776,3.275-.909,3.249-.768,3.586l1.255,3.016a.628.628,0,0,0,1.206-.241v-2.232c0-.578.324-.784.627-.784.976,0,.5,1.554.627,2.509,0,1.993,0,2.249-1.071,3.32a.627.627,0,0,0,.887.887c1.648-1.648,1.438-2.268,1.438-5.932A1.876,1.876,0,0,0,227.8,357.674Z" transform="translate(-206.378 -324.328)"/>
    <path id="Path_1090" data-name="Path 1090" d="M200.684,249.255a.627.627,0,0,0,0-1.255A.627.627,0,0,0,200.684,249.255Z" transform="translate(-184.375 -228.554)"/>
    <path id="Path_1091" data-name="Path 1091" d="M0,322.609a.627.627,0,0,0,1.255,0C1.255,322.263,0,321.778,0,322.609Z" transform="translate(0 -296.89)"/>
    <path id="Path_1092" data-name="Path 1092" d="M33.255,320.684a.627.627,0,0,0-1.255,0A.627.627,0,0,0,33.255,320.684Z" transform="translate(-29.491 -294.965)"/>
    <path id="Path_1093" data-name="Path 1093" d="M66.609,321.255a.627.627,0,0,0,0-1.255C66.263,320,65.778,321.255,66.609,321.255Z" transform="translate(-60.963 -294.908)"/>
    <path id="Path_1094" data-name="Path 1094" d="M160,352.679a.627.627,0,0,0,1.255,0A.627.627,0,0,0,160,352.679Z" transform="translate(-147.454 -324.451)"/>
    <path id="Path_1095" data-name="Path 1095" d="M232,248.679a.627.627,0,0,0,1.255,0A.627.627,0,0,0,232,248.679Z" transform="translate(-213.809 -228.606)"/>
    <path id="Path_1096" data-name="Path 1096" d="M329.255,320.684a.627.627,0,0,0-1.255,0A.627.627,0,0,0,329.255,320.684Z" transform="translate(-302.281 -294.965)"/>
    <path id="Path_1097" data-name="Path 1097" d="M312,296.679a.627.627,0,0,0,1.255,0A.627.627,0,0,0,312,296.679Z" transform="translate(-287.536 -272.842)"/>
    <path id="Path_1098" data-name="Path 1098" d="M288.679,273.255a.627.627,0,0,0,0-1.255A.627.627,0,0,0,288.679,273.255Z" transform="translate(-265.469 -250.672)"/>
    <path id="Path_1099" data-name="Path 1099" d="M264.679,257.255a.627.627,0,0,0,0-1.255A.627.627,0,0,0,264.679,257.255Z" transform="translate(-243.351 -235.927)"/>
    <path id="Path_1100" data-name="Path 1100" d="M232.684,25.255a.627.627,0,0,0,0-1.255A.627.627,0,0,0,232.684,25.255Z" transform="translate(-213.866 -22.118)"/>
    <path id="Path_1101" data-name="Path 1101" d="M34.509,245.018h5.646a.627.627,0,0,0,0-1.255H34.509a1.255,1.255,0,1,1,1.255-1.255.627.627,0,0,0,.627.627c1.318,0,.51-3.136-1.882-3.136a2.509,2.509,0,1,0,0,5.018Z" transform="translate(-29.491 -221.181)"/>
    <path id="Path_1102" data-name="Path 1102" d="M40.155,352H34.509a2.509,2.509,0,1,0,0,5.018c2.393,0,3.2-3.136,1.882-3.136a.627.627,0,0,0-.627.627,1.255,1.255,0,1,1-1.255-1.255h5.646A.627.627,0,0,0,40.155,352Z" transform="translate(-29.491 -324.399)"/>
    <path id="Path_1103" data-name="Path 1103" d="M101.7,320H96.684a.627.627,0,0,0,0,1.255H101.7A.627.627,0,0,0,101.7,320Z" transform="translate(-88.53 -294.908)"/>
  </g>
</svg>
