<svg xmlns="http://www.w3.org/2000/svg" width="11.2" height="13.2" viewBox="0 0 11.2 13.2">
  <path id="trash-alt" d="M7.268,10.969h.393a.2.2,0,0,0,.2-.2V3.859a.2.2,0,0,0-.2-.2H7.268a.2.2,0,0,0-.2.2v6.906A.2.2,0,0,0,7.268,10.969Zm-3.929,0h.393a.2.2,0,0,0,.2-.2V3.859a.2.2,0,0,0-.2-.2H3.339a.2.2,0,0,0-.2.2v6.906A.2.2,0,0,0,3.339,10.969ZM10.8,1.625H8.25L7.425.487A1.166,1.166,0,0,0,6.482,0H4.518a1.166,1.166,0,0,0-.943.487L2.75,1.625H.2a.2.2,0,0,0-.2.2v.406a.2.2,0,0,0,.2.2H.786v9.344A1.2,1.2,0,0,0,1.964,13H9.036a1.2,1.2,0,0,0,1.179-1.219V2.438H10.8a.2.2,0,0,0,.2-.2V1.828A.2.2,0,0,0,10.8,1.625ZM4.2.975A.391.391,0,0,1,4.518.813H6.482A.391.391,0,0,1,6.8.975l.471.65H3.732ZM9.429,11.781a.4.4,0,0,1-.393.406H1.964a.4.4,0,0,1-.393-.406V2.438H9.429ZM5.3,10.969H5.7a.2.2,0,0,0,.2-.2V3.859a.2.2,0,0,0-.2-.2H5.3a.2.2,0,0,0-.2.2v6.906A.2.2,0,0,0,5.3,10.969Z" transform="translate(0.1 0.1)" fill="#d00" stroke="#d90000" stroke-width="0.2"/>
</svg>
