<svg width="16" height="16" viewBox="0 0 16 16" fill="none" xmlns="http://www.w3.org/2000/svg">
<g id="Icons- 24 x 25" clip-path="url(#clip0_1787_2860)">
<path id="Vector" d="M12.6667 2.00015H8.31467C8.212 2.00015 8.108 1.97615 8.01667 1.93015L5.91467 0.879481C5.638 0.740814 5.32867 0.667481 5.01867 0.667481H3.33333C1.49533 0.666814 0 2.16215 0 4.00015V12.0001C0 13.8381 1.49533 15.3335 3.33333 15.3335H5.33333C5.70133 15.3335 6 15.0355 6 14.6668C6 14.2981 5.70133 14.0001 5.33333 14.0001H3.33333C2.23067 14.0001 1.33333 13.1028 1.33333 12.0001V6.00015H14.6667V12.0001C14.6667 13.1028 13.7693 14.0001 12.6667 14.0001H10.6667C10.2987 14.0001 10 14.2981 10 14.6668C10 15.0355 10.2987 15.3335 10.6667 15.3335H12.6667C14.5047 15.3335 16 13.8381 16 12.0001V5.33348C16 3.49548 14.5047 2.00015 12.6667 2.00015ZM1.33333 4.00015C1.33333 2.89748 2.23067 2.00015 3.33333 2.00015H5.01867C5.12133 2.00015 5.224 2.02415 5.31667 2.07081L7.42067 3.12215C7.69733 3.26015 8.006 3.33281 8.31467 3.33281H12.6667C13.5347 3.33281 14.268 3.89215 14.544 4.66615H1.33333V4.00015ZM9.52867 10.5975L8.66667 9.73548V14.6668C8.66667 15.0355 8.368 15.3335 8 15.3335C7.632 15.3335 7.33333 15.0355 7.33333 14.6668V9.73548L6.47133 10.5975C6.34133 10.7275 6.17067 10.7928 6 10.7928C5.82933 10.7928 5.65867 10.7275 5.52867 10.5975C5.268 10.3368 5.268 9.91548 5.52867 9.65481L6.604 8.57948C7.34933 7.83348 8.65 7.83348 9.396 8.57948L10.4713 9.65481C10.732 9.91548 10.732 10.3368 10.4713 10.5975C10.2107 10.8581 9.78933 10.8581 9.52867 10.5975Z" fill="#4B4863"/>
</g>
<defs>
<clipPath id="clip0_1787_2860">
<rect width="16" height="16" fill="white"/>
</clipPath>
</defs>
</svg>
