<svg width="10" height="13" viewBox="0 0 10 13" fill="none" xmlns="http://www.w3.org/2000/svg">
<path d="M4.39888 0.85502C4.50849 0.714993 4.7204 0.714993 4.83002 0.85502L6.60909 3.1278C6.74975 3.30752 6.62172 3.57033 6.3935 3.57033H5.2886V9.14119C5.2886 9.38314 5.09249 9.57925 4.85057 9.57925H4.37836C4.13643 9.57925 3.94033 9.38314 3.94033 9.14119V3.57033H2.83539C2.60717 3.57033 2.47914 3.30752 2.6198 3.1278L4.39888 0.85502Z" fill="#262628"/>
<path d="M2.19016 4.56723H2.92816V5.9155H1.9191C1.61669 5.9155 1.37156 6.16066 1.37156 6.46304V10.8309C1.37156 11.1333 1.61669 11.3785 1.9191 11.3785H7.30983C7.61224 11.3785 7.85737 11.1333 7.85737 10.8309V6.46304C7.85737 6.16066 7.61224 5.9155 7.30983 5.9155H6.30077V4.56723H7.03876C8.24837 4.56723 9.22893 5.54782 9.22893 6.75739V10.5598C9.22893 11.7694 8.24837 12.75 7.03876 12.75H2.19016C0.980554 12.75 0 11.7694 0 10.5598V6.75739C0 5.54782 0.980554 4.56723 2.19016 4.56723Z" fill="#262628"/>
</svg>
