<svg width="24" height="16" viewBox="0 0 24 16" fill="none" xmlns="http://www.w3.org/2000/svg">
<path fill-rule="evenodd" clip-rule="evenodd" d="M13.5111 0C15.3766 0 16.8889 1.53502 16.8889 3.42857V12.5714C16.8889 14.465 15.3766 16 13.5111 16H3.37778C1.51228 16 0 14.465 0 12.5714V3.42857C0 1.53502 1.51228 0 3.37778 0H13.5111ZM23.8807 3.57522C23.9589 3.70926 24 3.86008 24 4.01342V11.9864C24 12.4847 23.5755 12.8887 23.0519 12.8887C22.8907 12.8887 22.7322 12.8496 22.5914 12.7752L19.2763 11.0225C18.9 10.8235 18.6667 10.4461 18.6667 10.0365V5.96333C18.6667 5.55371 18.9 5.17629 19.2763 4.97736L22.5914 3.22465C23.0491 2.98264 23.6264 3.13959 23.8807 3.57522Z" fill="#08293B"/>
</svg>
