<svg width="36" height="16" viewBox="0 0 36 16" fill="none" xmlns="http://www.w3.org/2000/svg">
<g clip-path="url(#clip0_1445_5523)">
<path d="M13.712 0.204912L9.00786 11.4271H5.93894L3.624 2.47074C3.48365 1.92042 3.36168 1.71789 2.93459 1.48519C2.23649 1.10596 1.08365 0.751298 0.0703125 0.530667L0.138663 0.204912H5.07958C5.70835 0.204912 6.27452 0.623579 6.41852 1.34849L7.64168 7.84295L10.6615 0.204912H13.712ZM17.8608 0.204912L15.4603 11.4271H12.5568L14.9575 0.204912H17.8608ZM25.7367 7.76309C25.7488 4.80182 21.6421 4.63747 21.6689 3.31439C21.6787 2.91214 22.0619 2.48393 22.9006 2.37446C23.3161 2.3207 24.4639 2.27789 25.7639 2.87691L26.2726 0.495719C25.574 0.243088 24.6751 0 23.5569 0C20.6867 0 18.6678 1.52449 18.6516 3.70919C18.6328 5.32519 20.0938 6.22582 21.1924 6.76407C22.3241 7.31368 22.7036 7.66695 22.6984 8.15818C22.6902 8.91116 21.7945 9.24449 20.9618 9.25684C19.5016 9.28 18.6552 8.86218 17.9799 8.54765L17.4529 11.0077C18.1322 11.319 19.3841 11.5895 20.6808 11.6032C23.7321 11.6032 25.7277 10.0961 25.7367 7.76309ZM33.3156 11.4272H36.0001L33.6549 0.204912H31.1781C30.6195 0.204912 30.15 0.529123 29.9418 1.02751L25.5853 11.4271H28.6341L29.2389 9.75074H32.9638L33.3156 11.4272ZM30.0749 7.45123L31.6036 3.23691L32.4818 7.45123H30.0749ZM21.5767 14.5162H20.3969V15.6142H21.7165V15.9443H19.9994V12.8982H21.6488V13.2284H20.3969V14.1907H21.5766L21.5767 14.5162ZM22.326 12.7357H22.7235V15.9441H22.326V12.7357ZM23.7265 14.9228C23.7354 15.4608 24.0745 15.6821 24.4765 15.6821C24.7614 15.6821 24.9375 15.6324 25.0824 15.5693L25.1545 15.854C25.0145 15.9172 24.7705 15.994 24.4223 15.994C23.7492 15.994 23.3471 15.5467 23.3471 14.8867C23.3471 14.2271 23.7354 13.7117 24.3728 13.7117C25.0914 13.7117 25.2766 14.3356 25.2766 14.7377C25.2766 14.8189 25.272 14.8776 25.2629 14.9229L23.7265 14.9228ZM24.8923 14.6382C24.897 14.3898 24.7885 13.9965 24.341 13.9965C23.9343 13.9965 23.7625 14.3625 23.7308 14.6382H24.8923ZM27.4403 15.8674C27.3364 15.9172 27.1058 15.9941 26.8122 15.9941C26.1524 15.9941 25.7231 15.5467 25.7231 14.8778C25.7231 14.2044 26.1839 13.7119 26.898 13.7119C27.1329 13.7119 27.3408 13.7704 27.4493 13.8293L27.3592 14.1321C27.2639 14.0824 27.1148 14.0279 26.898 14.0279C26.3962 14.0279 26.1253 14.4031 26.1253 14.8553C26.1253 15.3613 26.4507 15.6731 26.8845 15.6731C27.1105 15.6731 27.2595 15.6189 27.3725 15.5693L27.4403 15.8674ZM28.5558 13.2327V13.7569H29.125V14.0595H28.5558V15.2392C28.5558 15.5106 28.6327 15.664 28.854 15.664C28.9624 15.664 29.0258 15.6552 29.0846 15.6368L29.1027 15.9399C29.0258 15.9669 28.9039 15.994 28.7502 15.994C28.5648 15.994 28.4156 15.9307 28.3208 15.8269C28.2123 15.7047 28.1672 15.5106 28.1672 15.2529V14.0595H27.8281V13.7569H28.1672V13.3502L28.5558 13.2327ZM29.6804 14.4394C29.6804 14.1818 29.6756 13.9604 29.6623 13.7569H30.0104L30.0286 14.1906H30.0418C30.1415 13.8971 30.3853 13.7117 30.6518 13.7117C30.6926 13.7117 30.7243 13.7164 30.7606 13.7207V14.096C30.7199 14.0867 30.6793 14.0867 30.6247 14.0867C30.3448 14.0867 30.1457 14.2946 30.0916 14.5931C30.0823 14.6544 30.0778 14.7164 30.078 14.7784V15.9444H29.6804V14.4394ZM33.2048 14.8324C33.2048 15.6414 32.6397 15.994 32.1156 15.994C31.528 15.994 31.0672 15.56 31.0672 14.8688C31.0672 14.1411 31.5507 13.7119 32.1519 13.7119C32.7799 13.7119 33.2048 14.1679 33.2048 14.8324ZM31.4738 14.8553C31.4738 15.3343 31.745 15.696 32.1336 15.696C32.5134 15.696 32.7979 15.3387 32.7979 14.8462C32.7979 14.4756 32.6126 14.01 32.1426 14.01C31.6773 14.01 31.4738 14.4441 31.4738 14.8553ZM33.8142 14.3491C33.8142 14.1187 33.8094 13.9378 33.7959 13.7572H34.1485L34.1711 14.1187H34.1801C34.2886 13.9152 34.5416 13.712 34.9032 13.712C35.2058 13.712 35.6759 13.8928 35.6759 14.6427V15.9444H35.2783V14.6835C35.2783 14.3312 35.1472 14.0372 34.7722 14.0372C34.5145 14.0372 34.311 14.2226 34.239 14.4439C34.2208 14.4938 34.2118 14.5614 34.2118 14.6293V15.9444H33.8142V14.3491Z" fill="#1A1F71"/>
</g>
<defs>
<clipPath id="clip0_1445_5523">
<rect width="35.9298" height="16" fill="white" transform="translate(0.0703125)"/>
</clipPath>
</defs>
</svg>
